<svg width="47" height="45" viewBox="0 0 47 45" fill="none" xmlns="http://www.w3.org/2000/svg">
<g clip-path="url(#clip0_105_760)">
<path d="M23.5 45C36.4787 45 47 34.9264 47 22.5C47 10.0736 36.4787 0 23.5 0C10.5213 0 0 10.0736 0 22.5C0 34.9264 10.5213 45 23.5 45Z" fill="#F0F0F0"/>
<path d="M39.9444 6.42867C35.7059 2.4525 29.9027 0 23.5001 0C21.4566 0 15.4776 2.4525 11.2393 6.42867H39.9444Z" fill="#6DA544"/>
<path d="M23.5002 19.2855H46.7604C46.4213 17.0157 45.7289 14.8554 44.7374 12.8569H22.4785L23.5002 19.2855Z" fill="#6DA544"/>
<path d="M2.26286 32.143H44.7371C45.7287 30.1447 46.4211 27.9841 46.7602 25.7144H0.239746C0.578936 27.9842 1.27118 30.1447 2.26286 32.143V32.143Z" fill="#6DA544"/>
<path d="M7.05566 38.5713C11.2942 42.5475 17.0974 45 23.5 45C29.9025 45 35.7057 42.5475 39.9443 38.5713H7.05566Z" fill="#6DA544"/>
<path d="M23.5 0C11.6613 0 1.86896 8.38222 0.239746 19.2858H23.5V0Z" fill="#D80027"/>
<path d="M11.7502 17.2504L10.7285 15.2939V11.3808L13.2829 9.42432L15.8372 11.3808V14.3156L16.8589 13.3374V15.2939L14.8154 17.2504H11.7502Z" fill="#F0F0F0"/>
<path d="M6.25479 11.25L6.52531 12.0472H7.40069L6.69247 12.54L6.96309 13.3371L6.25479 12.8443L5.54648 13.3371L5.8171 12.54L5.10889 12.0472H5.98426L6.25479 11.25Z" fill="#F0F0F0"/>
<path d="M8.29824 9.29346L8.56877 10.0906H9.44424L8.73593 10.5834L9.00646 11.3805L8.29824 10.8879L7.59003 11.3805L7.86065 10.5834L7.15234 10.0906H8.02763L8.29824 9.29346Z" fill="#F0F0F0"/>
<path d="M10.3417 7.33691L10.6122 8.13408H11.4875L10.7794 8.62689L11.0498 9.42397L10.3417 8.93134L9.6334 9.42397L9.90392 8.62689L9.1958 8.13408H10.0711L10.3417 7.33691Z" fill="#F0F0F0"/>
<path d="M20.3108 11.25L20.0403 12.0472H19.165L19.8732 12.54L19.6026 13.3371L20.3108 12.8443L21.0192 13.3371L20.7486 12.54L21.4567 12.0472H20.5815L20.3108 11.25Z" fill="#F0F0F0"/>
<path d="M18.2674 9.29346L17.9969 10.0906H17.1216L17.8297 10.5834L17.5592 11.3805L18.2674 10.8879L18.9757 11.3805L18.7051 10.5834L19.4133 10.0906H18.538L18.2674 9.29346Z" fill="#F0F0F0"/>
<path d="M16.224 7.33691L15.9534 8.13408H15.0781L15.7862 8.62689L15.5157 9.42397L16.224 8.93134L16.9322 9.42397L16.6617 8.62689L17.3698 8.13408H16.4946L16.224 7.33691Z" fill="#F0F0F0"/>
<path d="M13.2826 6.35889L13.012 7.15605H12.1367L12.8448 7.64877L12.5743 8.44585L13.2826 7.95322L13.9908 8.44585L13.7203 7.64877L14.4284 7.15605H13.5531L13.2826 6.35889Z" fill="#F0F0F0"/>
</g>
<defs>
<clipPath id="clip0_105_760">
<rect width="47" height="45" fill="white"/>
</clipPath>
</defs>
</svg>
