<svg width="47" height="45" viewBox="0 0 47 45" fill="none" xmlns="http://www.w3.org/2000/svg">
<g clip-path="url(#clip0_105_777)">
<path d="M33.7175 2.2326C30.6279 0.802266 27.1619 0 23.5001 0C19.8383 0 16.3723 0.802266 13.2827 2.2326L11.2393 22.5L13.2827 42.7674C16.3723 44.1977 19.8383 45 23.5001 45C27.1619 45 30.6279 44.1977 33.7175 42.7674L35.761 22.5L33.7175 2.2326Z" fill="#D80027"/>
<path d="M13.2826 2.2334C5.42207 5.87269 0 13.5797 0 22.5C0 31.4203 5.42207 39.1273 13.2826 42.7666V2.2334Z" fill="black"/>
<path d="M33.7173 2.2334V42.7666C41.5779 39.1273 46.9999 31.4203 46.9999 22.5C46.9999 13.5797 41.5779 5.87269 33.7173 2.2334Z" fill="#496E2D"/>
<path d="M23.5 14.6738C18.9857 14.6738 15.3262 18.1777 15.3262 22.4999C15.3262 26.8221 18.9857 30.3259 23.5 30.3259C28.0143 30.3259 31.6739 26.8221 31.6739 22.4999C31.6739 18.1777 28.0144 14.6738 23.5 14.6738ZM23.5 27.3912C20.6786 27.3912 18.3914 25.2012 18.3914 22.4999C18.3914 19.7986 20.6787 17.6086 23.5 17.6086C26.3214 17.6086 28.6087 19.7986 28.6087 22.4999C28.6087 25.2012 26.3215 27.3912 23.5 27.3912Z" fill="#FFDA44"/>
<path d="M23.5 19.5649C22.3714 19.5649 21.4565 20.4409 21.4565 21.5215V24.4562H25.5435V21.5215C25.5435 20.4409 24.6287 19.5649 23.5 19.5649V19.5649Z" fill="#FFDA44"/>
</g>
<defs>
<clipPath id="clip0_105_777">
<rect width="47" height="45" fill="white"/>
</clipPath>
</defs>
</svg>
