<svg width="47" height="45" viewBox="0 0 47 45" fill="none" xmlns="http://www.w3.org/2000/svg">
<g clip-path="url(#clip0_105_784)">
<path d="M46.1904 28.3694C46.7173 26.4979 47 24.5307 47 22.4998C47 20.469 46.7173 18.5018 46.1904 16.6302L21.4565 0.0854492C16.8647 0.464258 12.651 2.10693 9.19566 4.64882L0.809557 16.6302C0.282734 18.5018 0 20.469 0 22.4998C0 24.5189 0.279338 26.4752 0.800285 28.3369L9.19557 40.3509C12.6509 42.8928 16.8646 44.5355 21.4564 44.9142L46.1904 28.3694Z" fill="#FFDA44"/>
<path d="M0.80957 28.3696C2.16927 33.2 5.16598 37.3866 9.19567 40.3511V28.3696H0.80957Z" fill="#0052B4"/>
<path d="M21.4565 44.9144C22.1301 44.97 22.8114 45 23.5 45C34.3577 45 43.4939 37.9494 46.1905 28.3696H21.4565V44.9144Z" fill="#0052B4"/>
<path d="M46.1905 16.6304C43.4939 7.05067 34.3577 0 23.5 0C22.8114 0 22.1301 0.0300586 21.4565 0.0856055V16.6304H46.1905Z" fill="#0052B4"/>
<path d="M9.19567 4.64893C5.16598 7.61348 2.16927 11.8 0.80957 16.6304H9.19567V4.64893Z" fill="#0052B4"/>
<path d="M46.8011 19.5651H18.3914H18.3913V0.534668C16.2196 0.995742 14.1607 1.74308 12.2608 2.73563V19.565H0.198924C0.0681133 20.5257 0 21.5052 0 22.4999C0 23.4945 0.0681133 24.474 0.198924 25.4346H12.2608H12.2608V42.264C14.1607 43.2565 16.2196 44.004 18.3913 44.465V25.4349V25.4347H46.8011C46.9317 24.474 47 23.4945 47 22.4999C47 21.5052 46.9317 20.5257 46.8011 19.5651V19.5651Z" fill="#D80027"/>
</g>
<defs>
<clipPath id="clip0_105_784">
<rect width="47" height="45" fill="white"/>
</clipPath>
</defs>
</svg>
