<svg width="47" height="45" viewBox="0 0 47 45" fill="none" xmlns="http://www.w3.org/2000/svg">
<g clip-path="url(#clip0_105_792)">
<path d="M23.5 45C36.4787 45 47 34.9264 47 22.5C47 10.0736 36.4787 0 23.5 0C10.5213 0 0 10.0736 0 22.5C0 34.9264 10.5213 45 23.5 45Z" fill="#D80027"/>
<path d="M36.7825 16.7001H28.2705C28.796 16.1733 29.1194 15.46 29.1194 14.674C29.1194 13.0532 27.747 11.7393 26.0542 11.7393C24.9877 11.7393 24.0489 12.261 23.4998 13.0521C22.9508 12.261 22.0119 11.7393 20.9455 11.7393C19.2527 11.7393 17.8803 13.0532 17.8803 14.674C17.8803 15.46 18.2037 16.1733 18.7292 16.7001H10.2173C10.2173 18.8612 12.1833 20.613 14.4403 20.613H14.3041C14.3041 22.7743 16.1339 24.5262 18.3912 24.5262C18.3912 25.2262 18.5838 25.8824 18.9202 26.4505L15.5301 29.6964L18.1311 32.1865L21.8206 28.6541C21.9651 28.7048 22.1146 28.7455 22.269 28.7732L20.0396 33.5926L23.4998 37.174L26.9601 33.5925L24.7306 28.773C24.8851 28.7453 25.0346 28.7047 25.1791 28.6539L28.8686 32.1863L31.4695 29.6961L28.0794 26.4502C28.4158 25.8822 28.6085 25.2259 28.6085 24.5259C30.8657 24.5259 32.6955 22.7741 32.6955 20.6128H32.5594C34.8164 20.613 36.7825 18.8612 36.7825 16.7001V16.7001Z" fill="black"/>
</g>
<defs>
<clipPath id="clip0_105_792">
<rect width="47" height="45" fill="white"/>
</clipPath>
</defs>
</svg>
