<svg width="47" height="45" viewBox="0 0 47 45" fill="none" xmlns="http://www.w3.org/2000/svg">
<g clip-path="url(#clip0_105_795)">
<path d="M23.4998 0C36.4784 0 46.9998 10.0737 46.9998 22.5C46.9998 34.9263 36.4784 45 23.4998 45C23.4998 44.0218 20.4346 22.5 20.4346 22.5L23.4998 0Z" fill="#F0F0F0"/>
<path d="M23.5 45C10.5214 45 0 34.9263 0 22.5C0 10.0737 10.5214 0 23.5 0" fill="#496E2D"/>
<path d="M28.5488 18.1841L26.6207 20.7281L23.498 19.7585L25.4293 22.3003L23.5014 24.8443L26.6228 23.8712L28.554 26.4129L28.552 23.2699L31.6736 22.2967L28.551 21.3273L28.5488 18.1841Z" fill="#D80027"/>
<path d="M25.4494 28.8587C21.7816 28.8587 18.8081 26.0117 18.8081 22.5C18.8081 18.9882 21.7816 16.1412 25.4494 16.1412C26.593 16.1412 27.6691 16.4181 28.6086 16.9055C27.1347 15.5256 25.1192 14.6738 22.8951 14.6738C18.3807 14.6738 14.7212 18.1777 14.7212 22.4999C14.7212 26.8221 18.3808 30.3259 22.8951 30.3259C25.1193 30.3259 27.1348 29.4742 28.6086 28.0942C27.6691 28.5818 26.593 28.8587 25.4494 28.8587Z" fill="#D80027"/>
</g>
<defs>
<clipPath id="clip0_105_795">
<rect width="47" height="45" fill="white"/>
</clipPath>
</defs>
</svg>
