<svg width="46" height="45" viewBox="0 0 46 45" fill="none" xmlns="http://www.w3.org/2000/svg">
<g clip-path="url(#clip0_105_801)">
<path d="M23 45C35.7025 45 46 34.9264 46 22.5C46 10.0736 35.7025 0 23 0C10.2975 0 0 10.0736 0 22.5C0 34.9264 10.2975 45 23 45Z" fill="#F0F0F0"/>
<path d="M34.1582 2.82234C30.8534 1.02516 27.0493 0 23 0C10.2984 0 0.00161719 10.0721 0 22.4974L16 14.674L34.1582 2.82234Z" fill="#0052B4"/>
<path d="M0 22.5024C0.00161719 34.9277 10.2984 44.9998 23 44.9998C27.0493 44.9998 30.8534 43.9748 34.1582 42.1775L16 30.3258L0 22.5024Z" fill="#0052B4"/>
<path d="M36.075 3.98871C35.4572 3.57044 34.8171 3.18144 34.1574 2.82275L0 22.4974V22.5001C0 22.5001 0 22.5019 0 22.5027L34.1575 42.1773C34.8171 41.8185 35.4572 41.4296 36.0751 41.0113L3.93713 22.5001L36.075 3.98871Z" fill="#D80027"/>
<path d="M40 21.6609H37.2603C37.9726 20.8242 37.9287 19.5794 37.1261 18.7945C37.9762 17.9629 37.9762 16.6146 37.1261 15.7829L37.0749 15.8332C37.9249 15.0016 37.9762 13.603 37.1261 12.7715L24.8125 24.8174C25.6626 25.6491 27.0167 25.6392 27.8667 24.8076L28.1037 24.5957L34 24.0713V26.5521H36V23.8934L39 23.6267L40 21.6609Z" fill="#A2001D"/>
<path d="M25.0007 27.3911L23 26.4129L25.0007 25.4346H38.0007V27.3911H25.0007Z" fill="#FFDA44"/>
</g>
<defs>
<clipPath id="clip0_105_801">
<rect width="46" height="45" fill="white"/>
</clipPath>
</defs>
</svg>
