<svg width="47" height="45" viewBox="0 0 47 45" fill="none" xmlns="http://www.w3.org/2000/svg">
<g clip-path="url(#clip0_105_809)">
<path d="M13.2827 42.7674C16.3723 44.1977 19.8382 45 23.5001 45C27.162 45 30.6279 44.1977 33.7175 42.7674L35.761 22.5L33.7175 2.2326C30.6279 0.802266 27.162 0 23.5001 0C19.8382 0 16.3723 0.802266 13.2827 2.2326L11.2393 22.5L13.2827 42.7674Z" fill="#FFDA44"/>
<path d="M33.7173 42.7666C41.5779 39.1274 46.9999 31.4203 46.9999 22.5C46.9999 13.5797 41.5779 5.8726 33.7173 2.2334V42.7666Z" fill="#D80027"/>
<path d="M13.2826 42.7666V2.2334C5.42198 5.8726 0 13.5796 0 22.5C0 31.4204 5.42198 39.1274 13.2826 42.7666Z" fill="#0052B4"/>
<path d="M23.5 30.326C23.5 26.7356 23.5 22.5 23.5 22.5H29.6305V25.4348C29.6305 25.9446 28.6088 27.8128 26.0868 29.3478C25.1317 29.9293 24.1429 30.1163 23.5 30.326Z" fill="#D80027"/>
<path d="M17.3696 16.6304H23.5001V22.5H17.3696V16.6304Z" fill="#D80027"/>
<path d="M26.5652 14.6738C26.5652 13.5932 25.6503 12.7173 24.5217 12.7173C24.149 12.7173 23.8008 12.8143 23.5 12.9811C23.1992 12.8143 22.851 12.7173 22.4783 12.7173C21.3498 12.7173 20.4349 13.5932 20.4349 14.6738H15.3262V24.4563C15.3262 28.0981 18.3468 30.2043 20.7157 31.296C20.5384 31.5859 20.4349 31.9223 20.4349 32.2825C20.4349 33.3631 21.3498 34.2391 22.4783 34.2391C22.851 34.2391 23.1993 34.142 23.5 33.9752C23.8009 34.142 24.149 34.2391 24.5217 34.2391C25.6503 34.2391 26.5652 33.3631 26.5652 32.2825C26.5652 31.9223 26.4617 31.5859 26.2843 31.296C28.6531 30.2043 31.6739 28.0982 31.6739 24.4563V14.6738H26.5652ZM28.6087 24.4563C28.6087 24.9662 28.6087 26.5175 26.0869 28.0526C25.1316 28.6341 24.143 29.0112 23.5 29.2208C22.8571 29.0112 21.8684 28.6341 20.9132 28.0526C18.3914 26.5175 18.3914 24.9662 18.3914 24.4563V17.6086H28.6087V24.4563Z" fill="#FF9811"/>
</g>
<defs>
<clipPath id="clip0_105_809">
<rect width="47" height="45" fill="white"/>
</clipPath>
</defs>
</svg>
