<svg width="46" height="45" viewBox="0 0 46 45" fill="none" xmlns="http://www.w3.org/2000/svg">
<g clip-path="url(#clip0_105_817)">
<path d="M0 22.5C0 10.0737 10.2975 0 23 0C35.7025 0 46 10.0737 46 22.5C45 22.5 23 25.4348 23 25.4348L0 22.5Z" fill="#D80027"/>
<path d="M46 22.5C46 34.9263 35.7025 45 23 45C10.2975 45 0 34.9263 0 22.5" fill="black"/>
<path d="M19.8462 17.8958L21.796 19.28L21.053 21.5219L23.0013 20.1354L24.9513 21.5197L24.2054 19.2784L26.1536 17.8921L23.7444 17.8935L22.9984 15.6523L22.2554 17.8943L19.8462 17.8958Z" fill="#FFDA44"/>
<path d="M28.7501 12.7574C26.9377 11.7337 24.956 11.2506 23.0001 11.2539V14.1881C24.4458 14.1855 25.9104 14.5424 27.2501 15.2991C31.309 17.5916 32.7047 22.6872 30.3612 26.6579C28.0178 30.6286 22.8091 31.994 18.75 29.7015C17.5675 29.0336 16.6129 28.1267 15.9093 27.0802L13.4048 28.6978C14.3569 30.1136 15.6503 31.3394 17.2501 32.2429C22.7417 35.3446 29.7888 33.4974 32.9593 28.1251C36.1299 22.7529 34.2417 15.859 28.7501 12.7574V12.7574Z" fill="#FFDA44"/>
<path d="M16.3686 20.5435C15.5735 21.9654 16.1073 23.7488 17.5608 24.5267L27.3043 29.7351C26.6417 30.9199 26.9936 32.3621 28.2048 33.0103L30.8367 34.4188C32.0479 35.067 33.5673 34.6318 34.2299 33.4469L35.6696 30.8722L16.3686 20.5435Z" fill="#FFDA44"/>
</g>
<defs>
<clipPath id="clip0_105_817">
<rect width="46" height="45" fill="white"/>
</clipPath>
</defs>
</svg>
