<svg width="47" height="45" viewBox="0 0 47 45" fill="none" xmlns="http://www.w3.org/2000/svg">
<g clip-path="url(#clip0_105_824)">
<path d="M47 22.5C47 34.9263 36.4786 45 23.5 45C10.5214 45 0 34.9263 0 22.5C0 22.5054 23.5 0.00246094 23.5 0C36.4786 0 47 10.0737 47 22.5Z" fill="#0052B4"/>
<path d="M23.437 22.5001H23.4999C23.4999 22.4799 23.4999 22.4602 23.4999 22.4399C23.479 22.4601 23.458 22.4801 23.437 22.5001Z" fill="#F0F0F0"/>
<path d="M23.5 11.7391C23.5 7.78008 23.5 5.18599 23.5 0H23.4961C10.5191 0.00210938 0 10.0748 0 22.5H12.2609V15.8897L19.165 22.5H23.4372C23.4581 22.48 23.4791 22.4599 23.5001 22.4398C23.5001 20.9239 23.5001 19.5714 23.5001 18.3496L16.5958 11.7391H23.5Z" fill="#F0F0F0"/>
<path d="M11.8893 2.93457C8.21386 4.93839 5.15821 7.86392 3.06543 11.383V22.4998H9.1959V8.80435V8.80417H23.5002C23.5002 6.95293 23.5002 5.18932 23.5002 2.93457H11.8893Z" fill="#D80027"/>
<path d="M23.5004 19.7332L15.151 11.7393H12.2612V11.7394L23.5002 22.5001H23.5004C23.5004 22.5001 23.5004 20.5922 23.5004 19.7332V19.7332Z" fill="#D80027"/>
<path d="M39.7427 25.7936C40.4184 24.9034 40.8698 23.8164 40.8698 22.5V12.7174C40.0159 13.3316 38.9547 13.6956 37.8046 13.6956C36.1333 13.6956 34.6496 12.9272 33.7176 11.7393C32.7855 12.9272 31.3018 13.6956 29.6306 13.6956C28.4804 13.6956 27.4192 13.3315 26.5654 12.7176V22.5C26.5654 23.8164 27.0168 24.9034 27.6925 25.7936H39.7427Z" fill="#F3F3F3"/>
<path d="M37.617 20.6852C37.9423 19.9253 38.1953 18.8146 38.1953 18.2619C38.1953 17.3737 36.986 16.6538 36.986 16.6538C36.986 16.6538 35.7766 17.3737 35.7766 18.2619C35.7766 18.8147 36.0297 19.9254 36.3549 20.6852L35.6567 22.1943C36.0671 22.3541 36.5156 22.4429 36.986 22.4429C37.4565 22.4429 37.9049 22.354 38.3154 22.1943L37.617 20.6852Z" fill="#FF9811"/>
<path d="M32.8903 15.7987C32.0407 15.9089 30.9094 16.2548 30.4095 16.5311C29.6062 16.9752 29.5596 18.3378 29.5596 18.3378C29.5596 18.3378 30.8155 18.9805 31.6188 18.5365C32.1189 18.2601 32.9968 17.4951 33.5212 16.8454L35.2356 16.6696C35.175 16.2497 35.0307 15.8334 34.7958 15.4434C34.5604 15.0534 34.2561 14.7258 33.9063 14.4653L32.8903 15.7987Z" fill="#FF9811"/>
<path d="M30.8339 22.1614C31.3584 22.8108 32.2366 23.5757 32.7367 23.8522C33.54 24.2962 34.7959 23.6536 34.7959 23.6536C34.7959 23.6536 34.7491 22.2909 33.9459 21.8468C33.4457 21.5704 32.3147 21.2249 31.4649 21.1148L30.4489 19.7812C30.0993 20.0416 29.7949 20.3694 29.5596 20.759C29.3245 21.1492 29.1806 21.5653 29.1196 21.9855L30.8339 22.1614Z" fill="#FF9811"/>
<path d="M27.4395 25.4351C29.3477 28.3667 33.7174 29.3479 33.7174 29.3479C33.7174 29.3479 38.0869 28.3667 39.9952 25.4351H27.4395Z" fill="#338AF3"/>
</g>
<defs>
<clipPath id="clip0_105_824">
<rect width="47" height="45" fill="white"/>
</clipPath>
</defs>
</svg>
