<svg width="46" height="45" viewBox="0 0 46 45" fill="none" xmlns="http://www.w3.org/2000/svg">
<g clip-path="url(#clip0_105_839)">
<path d="M0 22.5C0 24.0411 0.158844 25.546 0.460629 27L23 28.3696L45.5395 27C45.8413 25.546 46 24.0411 46 22.5C46 20.9588 45.8412 19.4539 45.5395 18L23 16.6304L0.460629 18C0.158844 19.4539 0 20.9588 0 22.5H0Z" fill="#0052B4"/>
<path d="M45.5393 27H0.460449C2.59145 37.27 11.8728 45 22.9998 45C34.1269 45 43.4082 37.27 45.5393 27Z" fill="#F0F0F0"/>
<path d="M0.460449 18H45.5394C43.4082 7.72998 34.1271 0 22.9998 0C11.8726 0 2.59145 7.72998 0.460449 18V18Z" fill="black"/>
<path d="M32.9999 18H13L17.0861 16.1196L14.9102 12.2485L19.3471 13.0786L19.9095 8.69385L23 11.9189L26.0906 8.69385L26.6527 13.0786L31.0898 12.2485L28.914 16.1198L32.9999 18Z" fill="#FFDA44"/>
<path d="M0 22.4998C0 34.9261 10.2975 44.9998 23 44.9998L4.59964 8.99902C1.7117 12.7598 0 17.4341 0 22.4998Z" fill="#A2001D"/>
<path d="M23 44.9998C35.7025 44.9998 46 34.9261 46 22.4998C46 17.4341 44.2883 12.7598 41.4004 8.99902L23 44.9998Z" fill="#A2001D"/>
</g>
<defs>
<clipPath id="clip0_105_839">
<rect width="46" height="45" fill="white"/>
</clipPath>
</defs>
</svg>
