<svg width="47" height="45" viewBox="0 0 47 45" fill="none" xmlns="http://www.w3.org/2000/svg">
<g clip-path="url(#clip0_105_847)">
<path d="M23.5 45C36.4787 45 47 34.9264 47 22.5C47 10.0736 36.4787 0 23.5 0C10.5213 0 0 10.0736 0 22.5C0 34.9264 10.5213 45 23.5 45Z" fill="#F0F0F0"/>
<path d="M23.5002 0C14.1834 0 6.13316 5.19126 2.33203 12.7174H44.6683C40.8673 5.19126 32.8169 0 23.5002 0V0Z" fill="#338AF3"/>
<path d="M23.5002 45.0001C32.8169 45.0001 40.8673 39.8089 44.6684 32.2827H2.33203C6.13316 39.8089 14.1834 45.0001 23.5002 45.0001Z" fill="#338AF3"/>
<path d="M30.5238 22.4998L27.6537 23.7924L29.182 26.4537L26.0655 25.8828L25.6706 28.8971L23.4999 26.6802L21.3291 28.8971L20.9343 25.8828L17.8178 26.4536L19.346 23.7924L16.4761 22.4998L19.3461 21.2072L17.8178 18.5461L20.9342 19.1168L21.3292 16.1025L23.4999 18.3195L25.6707 16.1025L26.0655 19.1168L29.1821 18.5461L27.6538 21.2073L30.5238 22.4998Z" fill="#FFDA44"/>
</g>
<defs>
<clipPath id="clip0_105_847">
<rect width="47" height="45" fill="white"/>
</clipPath>
</defs>
</svg>
