<svg width="47" height="45" viewBox="0 0 47 45" fill="none" xmlns="http://www.w3.org/2000/svg">
<g clip-path="url(#clip0_105_853)">
<path d="M47 22.5002C47 19.7479 46.483 17.1115 45.5383 14.6741L23.5 13.6958L1.46168 14.674C0.517092 17.1115 0 19.7479 0 22.5002C0 25.2524 0.517092 27.8888 1.46168 30.3262L23.5 31.3045L45.5383 30.3263C46.483 27.8888 47 25.2524 47 22.5002Z" fill="#0052B4"/>
<path d="M23.5002 45.0001C33.6044 45.0001 42.2182 38.8942 45.5385 30.3262H1.46191C4.7823 38.8942 13.3961 45.0001 23.5002 45.0001Z" fill="#FF9811"/>
<path d="M1.46191 14.674H45.5386C42.2182 6.10594 33.6044 0 23.5002 0C13.3961 0 4.7823 6.10594 1.46191 14.674V14.674Z" fill="#D80027"/>
</g>
<defs>
<clipPath id="clip0_105_853">
<rect width="47" height="45" fill="white"/>
</clipPath>
</defs>
</svg>
