<svg width="47" height="45" viewBox="0 0 47 45" fill="none" xmlns="http://www.w3.org/2000/svg">
<g clip-path="url(#clip0_105_857)">
<path d="M23.5 45C36.4787 45 47 34.9264 47 22.5C47 10.0736 36.4787 0 23.5 0C10.5213 0 0 10.0736 0 22.5C0 34.9264 10.5213 45 23.5 45Z" fill="#FFDA44"/>
<path d="M23.5002 44.9999C30.6228 44.9999 37.0048 41.9655 41.3144 37.1738H5.68604C9.99562 41.9655 16.3776 44.9999 23.5002 44.9999Z" fill="#338AF3"/>
<path d="M47 22.5C47 10.0737 36.4786 0 23.5 0C10.5214 0 0 10.0737 0 22.5C0 24.5309 0.282734 26.4981 0.809557 28.3696H46.1905C46.7173 26.4981 47 24.5309 47 22.5Z" fill="#338AF3"/>
<path d="M1.86816 31.3042C2.32118 32.3234 2.85076 33.3035 3.44937 34.239H43.551C44.1496 33.3034 44.6792 32.3233 45.1324 31.3042H1.86816Z" fill="#338AF3"/>
<path d="M10.7695 14.1911L6.17822 12.251L10.7695 10.3109L12.7958 5.91504L14.822 10.3109L19.4132 12.251L14.822 14.1911L12.7958 18.5869L10.7695 14.1911Z" fill="#F0F0F0"/>
<path d="M12.7955 8.33789L14.0468 11.0527L16.8824 12.251L14.0468 13.4491L12.7955 16.1639L11.544 13.4491L8.7085 12.251L11.544 11.0527L12.7955 8.33789Z" fill="#D80027"/>
</g>
<defs>
<clipPath id="clip0_105_857">
<rect width="47" height="45" fill="white"/>
</clipPath>
</defs>
</svg>
