<svg width="47" height="45" viewBox="0 0 47 45" fill="none" xmlns="http://www.w3.org/2000/svg">
<g clip-path="url(#clip0_105_865)">
<path d="M47 22.5C47 34.9263 36.4786 45 23.5 45C10.5214 45 0 34.9263 0 22.5C0 22.5053 23.5 0.00254883 23.5 0C36.4786 0 47 10.0737 47 22.5Z" fill="#0052B4"/>
<path d="M23.437 22.5001H23.4999C23.4999 22.4798 23.4999 22.4602 23.4999 22.4399C23.479 22.4601 23.458 22.4801 23.437 22.5001Z" fill="#F0F0F0"/>
<path d="M23.5 11.7396C23.5 7.78057 23.5 5.1863 23.5 0.000488281H23.4961C10.5192 0.00250977 0 10.0752 0 22.5004H12.2609V15.89L19.1651 22.5004H23.4372C23.4582 22.4804 23.4792 22.4603 23.5001 22.4402C23.5001 20.9243 23.5001 19.5718 23.5001 18.3501L16.5958 11.7396H23.5Z" fill="#F0F0F0"/>
<path d="M11.8893 2.93457C8.21386 4.93839 5.15831 7.86392 3.06543 11.383V22.4998H9.1959V8.80426V8.80417H23.5002C23.5002 6.95293 23.5002 5.18932 23.5002 2.93457H11.8893Z" fill="#D80027"/>
<path d="M23.5003 19.7331L15.1511 11.7393H12.2612C12.2612 11.7392 12.2612 11.7393 12.2612 11.7393L23.5002 22.5H23.5003C23.5003 22.5 23.5003 20.5923 23.5003 19.7331Z" fill="#D80027"/>
<path d="M14.1731 26.4131L15.4629 28.9951L18.3753 28.3506L17.0711 30.926L19.4132 32.7043L16.4971 33.3336L16.5052 36.1957L14.1731 34.4051L11.8411 36.1957L11.8493 33.3336L8.93311 32.7043L11.2753 30.926L9.97087 28.3506L12.8835 28.9951L14.1731 26.4131Z" fill="#F0F0F0"/>
<path d="M35.1844 31.3047L35.8293 32.5957L37.2856 32.2734L36.6333 33.5611L37.8045 34.4503L36.3464 34.7649L36.3504 36.196L35.1844 35.3006L34.0184 36.196L34.0225 34.7649L32.5645 34.4503L33.7355 33.5611L33.0834 32.2734L34.5396 32.5957L35.1844 31.3047Z" fill="#F0F0F0"/>
<path d="M29.1855 17.6089L29.8303 18.9L31.2865 18.5776L30.6344 19.8653L31.8055 20.7545L30.3475 21.0691L30.3514 22.5002L29.1855 21.6048L28.0195 22.5002L28.0234 21.0691L26.5654 20.7545L27.7365 19.8653L27.0844 18.5776L28.5406 18.9L29.1855 17.6089Z" fill="#F0F0F0"/>
<path d="M35.1844 9.78271L35.8293 11.0738L37.2856 10.7515L36.6334 12.0392L37.8044 12.9283L36.3464 13.2431L36.3504 14.6741L35.1844 13.7788L34.0184 14.6741L34.0225 13.2431L32.5645 12.9283L33.7354 12.0392L33.0834 10.7515L34.5396 11.0738L35.1844 9.78271Z" fill="#F0F0F0"/>
<path d="M40.4248 15.6523L41.0695 16.9435L42.5258 16.6211L41.8737 17.9088L43.0447 18.7979L41.5866 19.1127L41.5907 20.5436L40.4248 19.6484L39.2587 20.5436L39.2627 19.1127L37.8047 18.7979L38.9757 17.9088L38.3236 16.6211L39.7798 16.9435L40.4248 15.6523Z" fill="#F0F0F0"/>
<path d="M36.6775 22.5L37.1847 23.9947H38.8262L37.4982 24.9185L38.0055 26.4131L36.6775 25.4893L35.3496 26.4131L35.8567 24.9185L34.5288 23.9947H36.1702L36.6775 22.5Z" fill="#F0F0F0"/>
</g>
<defs>
<clipPath id="clip0_105_865">
<rect width="47" height="45" fill="white"/>
</clipPath>
</defs>
</svg>
