<svg width="46" height="45" viewBox="0 0 46 45" fill="none" xmlns="http://www.w3.org/2000/svg">
<g clip-path="url(#clip0_105_886)">
<path d="M46 22.5002C46 19.7479 45.494 17.1115 44.5694 14.6741L23 13.6958L1.43058 14.674C0.50609 17.1115 0 19.7479 0 22.5002C0 25.2524 0.50609 27.8888 1.43058 30.3262L23 31.3045L44.5694 30.3263C45.494 27.8888 46 25.2524 46 22.5002Z" fill="#D80027"/>
<path d="M23.0001 45.0001C32.8893 45.0001 41.3198 38.8942 44.5695 30.3262H1.43066C4.6804 38.8942 13.1109 45.0001 23.0001 45.0001Z" fill="#6DA544"/>
<path d="M1.43066 14.674H44.5696C41.3198 6.10594 32.8893 0 23.0001 0C13.1109 0 4.6804 6.10594 1.43066 14.674V14.674Z" fill="#338AF3"/>
<path d="M23.4999 28.8587C19.9102 28.8587 16.9999 26.0117 16.9999 22.5C16.9999 18.9882 19.9102 16.1412 23.4999 16.1412C24.6192 16.1412 25.6725 16.4181 26.5919 16.9055C25.1494 15.5256 23.1768 14.6738 21 14.6738C16.5816 14.6738 13 18.1777 13 22.4999C13 26.8221 16.5817 30.3259 21 30.3259C23.1769 30.3259 25.1495 29.4742 26.5919 28.0942C25.6725 28.5818 24.6192 28.8587 23.4999 28.8587Z" fill="#F0F0F0"/>
<path d="M28.5 18.0977L29.361 20.4664L31.682 19.3869L30.5786 21.6575L33 22.4998L30.5786 23.3422L31.682 25.6127L29.361 24.5333L28.5 26.902L27.6391 24.5333L25.318 25.6127L26.4215 23.3422L24 22.4998L26.4215 21.6575L25.318 19.3869L27.6391 20.4664L28.5 18.0977Z" fill="#F0F0F0"/>
</g>
<defs>
<clipPath id="clip0_105_886">
<rect width="46" height="45" fill="white"/>
</clipPath>
</defs>
</svg>
