<svg width="47" height="45" viewBox="0 0 47 45" fill="none" xmlns="http://www.w3.org/2000/svg">
<g clip-path="url(#clip0_105_893)">
<path d="M23.5 45C36.4787 45 47 34.9264 47 22.5C47 10.0736 36.4787 0 23.5 0C10.5213 0 0 10.0736 0 22.5C0 34.9264 10.5213 45 23.5 45Z" fill="#F0F0F0"/>
<path d="M0 22.5001C0 31.0285 4.95611 38.4483 12.2608 42.2643V2.73584C4.95611 6.55187 0 13.9716 0 22.5001Z" fill="#D80027"/>
<path d="M0 22.4998C0 32.8954 7.36404 41.6428 17.3695 44.2247V0.774902C7.36404 3.35678 0 12.1042 0 22.4998Z" fill="#0052B4"/>
<path d="M8.4292 7.82617V11.4946C8.4292 13.3181 9.97304 14.7963 11.8775 14.7963C13.7821 14.7963 15.3259 13.3181 15.3259 11.4946V7.82617H8.4292Z" fill="#D80027"/>
<path d="M11.8775 12.8397C11.1028 12.8397 10.4727 12.2364 10.4727 11.4946V9.78271H13.2825V11.4946C13.2825 12.2364 12.6522 12.8397 11.8775 12.8397Z" fill="#F0F0F0"/>
<path d="M25.5432 23.478H19.4128C19.4128 22.3975 18.4978 21.5215 17.3693 21.5215C16.2407 21.5215 15.3258 22.3975 15.3258 23.478H9.19531C9.19531 24.5586 10.1784 25.4345 11.3068 25.4345H11.2388C11.2388 26.5152 12.1536 27.3911 13.2823 27.3911C13.2823 28.4717 14.197 29.3476 15.3258 29.3476H19.4128C20.5413 29.3476 21.4563 28.4717 21.4563 27.3911C22.5848 27.3911 23.4997 26.5152 23.4997 25.4345H23.4317C24.5602 25.4345 25.5432 24.5586 25.5432 23.478V23.478Z" fill="#FFDA44"/>
<path d="M26.383 20.3473L25.8466 21.1697L26.4973 21.9122L25.5147 21.6779L24.9782 22.5L24.9074 21.5328L23.9248 21.2982L24.864 20.935L24.7933 19.9678L25.4442 20.7106L26.383 20.3473Z" fill="#FFDA44"/>
<path d="M23.2524 17.832L23.0421 18.7805L23.919 19.2652L22.9118 19.367L22.7013 20.3151L22.2893 19.4294L21.2822 19.5306L22.0349 18.8818L21.6231 17.9962L22.4999 18.4809L23.2524 17.832Z" fill="#FFDA44"/>
<path d="M19.4126 16.4941L19.5535 17.4543L20.5507 17.6227L19.6407 18.0477L19.7816 19.0079L19.0782 18.3104L18.168 18.7354L18.6434 17.8793L17.9399 17.182L18.9373 17.3502L19.4126 16.4941Z" fill="#FFDA44"/>
<path d="M15.3261 16.4941L15.8016 17.3502L16.7988 17.1819L16.0953 17.8795L16.5708 18.7355L15.6607 18.3104L14.9572 19.0077L15.0982 18.0477L14.188 17.6227L15.1852 17.4543L15.3261 16.4941Z" fill="#FFDA44"/>
<path d="M11.4862 17.832L12.2387 18.4809L13.1156 17.9962L12.704 18.8821L13.4562 19.5307L12.4493 19.4294L12.0372 20.3151L11.827 19.3668L10.8198 19.2655L11.6967 18.7805L11.4862 17.832Z" fill="#FFDA44"/>
<path d="M8.3558 20.3472L9.29498 20.7105L9.94554 19.9678L9.87523 20.9352L10.814 21.2984L9.83135 21.5328L9.76048 22.4999L9.22429 21.6779L8.2417 21.9123L8.89263 21.1696L8.3558 20.3472Z" fill="#FFDA44"/>
</g>
<defs>
<clipPath id="clip0_105_893">
<rect width="47" height="45" fill="white"/>
</clipPath>
</defs>
</svg>
