<svg width="47" height="45" viewBox="0 0 47 45" fill="none" xmlns="http://www.w3.org/2000/svg">
<g clip-path="url(#clip0_105_913)">
<path d="M23.5 45C36.4787 45 47 34.9264 47 22.5C47 10.0736 36.4787 0 23.5 0C10.5213 0 0 10.0736 0 22.5C0 34.9264 10.5213 45 23.5 45Z" fill="#F0F0F0"/>
<path d="M23.5001 0C18.784 0 14.3932 1.3311 10.7128 3.62092L16.7567 7.49944L9.1958 11.2494L16.7567 14.9993L9.1958 18.7493L16.7567 22.4988L9.1958 26.2486L16.7567 29.9985L9.1958 33.7488L16.7567 37.4987L10.7121 41.3785C14.3926 43.6687 18.7837 45 23.5001 45C36.4788 45 47.0001 34.9263 47.0001 22.5C47.0001 10.0737 36.4788 0 23.5001 0V0Z" fill="#D80027"/>
</g>
<defs>
<clipPath id="clip0_105_913">
<rect width="47" height="45" fill="white"/>
</clipPath>
</defs>
</svg>
