<svg width="46" height="45" viewBox="0 0 46 45" fill="none" xmlns="http://www.w3.org/2000/svg">
<g clip-path="url(#clip0_105_916)">
<path d="M23.0004 0.000488281C35.7029 0.000488281 46.0004 10.0741 46.0004 22.5004C46.0004 34.9268 35.7029 45.0004 23.0004 45.0004C10.298 45.0004 0.000488281 34.9268 0.000488281 22.5004" fill="#FFDA44"/>
<path d="M22.5 10H42.1258C40.8335 8.1115 39.2565 6.42576 37.4551 5H22.5V10Z" fill="#D80027"/>
<path d="M22.5 19.9999H45.858C45.6619 18.2662 45.2647 16.5921 44.6895 15H22.5V19.9999Z" fill="#D80027"/>
<path d="M1.3106 30.0001H44.6893C45.2646 28.408 45.6619 26.7337 45.8579 25H0.14209C0.337949 26.7338 0.735237 28.408 1.3106 30.0001V30.0001Z" fill="#D80027"/>
<path d="M8.54503 40H37.4553C39.2565 38.5743 40.8336 36.8884 42.126 35H3.87451C5.16682 36.8884 6.74376 38.5742 8.54503 40V40Z" fill="#D80027"/>
<path d="M23 0.000488281C10.2975 0.000488281 -8.9843e-05 10.0741 5.8789e-10 22.5006C5.2492 22.5004 10.2975 22.5006 23 22.5006L23 0.000488281Z" fill="#4A1F63"/>
<path d="M19.0001 11.7392V13.6958H18.0001V11.7392H16.0001V13.6958H15.0001V9.78271H11.0001V13.6958H10.0001V11.7392H8.00015V13.6958H7.0001V11.7392H5V17.6087H21.0001V11.7392H19.0001Z" fill="#F0F0F0"/>
</g>
<defs>
<clipPath id="clip0_105_916">
<rect width="46" height="45" fill="white"/>
</clipPath>
</defs>
</svg>
