<svg width="47" height="44" viewBox="0 0 47 44" fill="none" xmlns="http://www.w3.org/2000/svg">
<g clip-path="url(#clip0_105_928)">
<path d="M33.7175 2.18298C30.6279 0.784438 27.1619 0 23.5001 0C19.8383 0 16.3723 0.784438 13.2827 2.18298L11.2393 22L13.2827 41.817C16.3723 43.2156 19.8383 44 23.5001 44C27.1619 44 30.6279 43.2156 33.7175 41.817L35.761 22L33.7175 2.18298Z" fill="#FFDA44"/>
<path d="M13.2826 2.18359C5.42207 5.74192 0 13.2777 0 21.9998C0 30.722 5.42207 38.2577 13.2826 41.8161V2.18359Z" fill="#0052B4"/>
<path d="M33.7173 2.18359V41.8161C41.5779 38.2577 46.9999 30.7219 46.9999 21.9998C46.9999 13.2778 41.5779 5.74192 33.7173 2.18359Z" fill="#0052B4"/>
<path d="M30.6522 13.3911L32.023 14.0327L30.6522 13.3911L29.2813 12.7495C29.1987 12.9042 27.4087 16.3136 27.1164 21.5215H25.0327V13.3911L23.5 11.478L21.9674 13.3911V21.5215H19.8837C19.5912 16.3136 17.8014 12.9042 17.7187 12.7495L14.9771 14.0328C14.996 14.068 16.8588 17.6177 16.8588 22.9564V24.3912H21.9675V32.5216H25.0327V24.3912H30.1413V22.9563C30.1413 20.1961 30.6515 17.9202 31.0795 16.4969C31.5461 14.9448 32.0201 14.0384 32.0247 14.0294L30.6522 13.3911Z" fill="black"/>
</g>
<defs>
<clipPath id="clip0_105_928">
<rect width="47" height="44" fill="white"/>
</clipPath>
</defs>
</svg>
