<svg width="47" height="44" viewBox="0 0 47 44" fill="none" xmlns="http://www.w3.org/2000/svg">
<g clip-path="url(#clip0_105_934)">
<path d="M23.5 44C36.4787 44 47 34.1503 47 22C47 9.84974 36.4787 0 23.5 0C10.5213 0 0 9.84974 0 22C0 34.1503 10.5213 44 23.5 44Z" fill="#F0F0F0"/>
<path d="M0.199219 24.8691C0.745961 28.7976 2.40032 32.3997 4.85837 35.3934L17.3697 24.8691H0.199219Z" fill="#D80027"/>
<path d="M20.4352 43.8134V27.7388L9.19336 39.4516C12.3913 41.7528 16.2389 43.3016 20.4352 43.8134V43.8134Z" fill="#D80027"/>
<path d="M20.4352 0.186035C16.2389 0.697879 12.3913 2.24664 9.19336 4.54779L20.4352 16.2607V0.186035Z" fill="#D80027"/>
<path d="M0.199219 19.1302H17.3697L4.85828 8.60596C2.40023 11.5997 0.745869 15.2017 0.199219 19.1302V19.1302Z" fill="#D80027"/>
<path d="M26.5654 0.186035V16.2606L37.8074 4.54779C34.6095 2.24682 30.7618 0.697793 26.5654 0.186035V0.186035Z" fill="#D80027"/>
<path d="M46.8015 19.1303C46.2547 15.2018 44.6004 11.5998 42.1423 8.60596L29.6309 19.1303H46.8015Z" fill="#D80027"/>
<path d="M29.6309 24.8691L42.1424 35.3935C44.6004 32.3997 46.2548 28.7976 46.8016 24.8691H29.6309Z" fill="#D80027"/>
<path d="M26.5654 43.8134C30.7617 43.3015 34.6095 41.7528 37.8073 39.4515L26.5654 27.7388V43.8134Z" fill="#D80027"/>
<path d="M42.144 35.3957L27.8352 22.0002L27.8351 22.0001L42.144 8.60453C41.5269 7.85378 40.8518 7.13156 40.1173 6.44372C39.3827 5.75604 38.6112 5.12397 37.8091 4.54639L23.5003 17.9419H23.5002L9.19137 4.54639C8.38943 5.12406 7.61788 5.75596 6.88314 6.44372C6.14858 7.13156 5.47341 7.85378 4.85645 8.60461L19.1653 22L19.1654 22.0001L4.85654 35.3957C5.4736 36.1464 6.14867 36.8687 6.88323 37.5565C7.61788 38.2442 8.38943 38.8763 9.19146 39.4539L23.5002 26.0583L37.8091 39.4539C38.611 38.8762 39.3825 38.2442 40.1173 37.5565C40.8519 36.8687 41.5269 36.1464 42.144 35.3957V35.3957Z" fill="#496E2D"/>
<path d="M26.5652 43.8138V24.8698V24.8696H46.8011C46.9319 23.9302 47 22.9726 47 22C47 21.0275 46.9318 20.0698 46.8011 19.1305H26.5654L26.5653 19.1305V0.186312C25.5619 0.0640234 24.539 0 23.5 0C22.4611 8.59375e-05 21.4381 0.0640234 20.4348 0.186312L20.4349 19.1303V19.1305H0.199016C0.0682969 20.0698 0 21.0274 0 22C9.17969e-05 22.9727 0.0682969 23.9302 0.199016 24.8695H20.4347L20.4348 43.8138C21.4382 43.9361 22.461 44 23.5 44C24.539 44 25.5619 43.9361 26.5652 43.8138V43.8138Z" fill="#F0F0F0"/>
</g>
<defs>
<clipPath id="clip0_105_934">
<rect width="47" height="44" fill="white"/>
</clipPath>
</defs>
</svg>
