<svg width="47" height="44" viewBox="0 0 47 44" fill="none" xmlns="http://www.w3.org/2000/svg">
<g clip-path="url(#clip0_105_947)">
<path d="M23.5 44C36.4787 44 47 34.1503 47 22C47 9.84974 36.4787 0 23.5 0C10.5213 0 0 9.84974 0 22C0 34.1503 10.5213 44 23.5 44Z" fill="#FCFCFC"/>
<path d="M9.70668 20.4061L7.15234 16.0677L9.70668 11.7974L12.261 16.0677L9.70668 20.4061Z" fill="#A2001D"/>
<path d="M4.5978 20.4061L2.04346 16.0677L4.5978 11.7974L7.15214 16.0677L4.5978 20.4061Z" fill="#A2001D"/>
<path d="M9.70668 32.2029L7.15234 27.8646L9.70668 23.5942L12.261 27.8646L9.70668 32.2029Z" fill="#A2001D"/>
<path d="M4.5978 32.2029L2.04346 27.8646L4.5978 23.5942L7.15214 27.8646L4.5978 32.2029Z" fill="#A2001D"/>
<path d="M12.2606 4.27049L11.5374 3.06152C10.2403 3.78099 9.02376 4.61398 7.90283 5.54589L9.70627 8.60879L12.2606 4.27049Z" fill="#A2001D"/>
<path d="M9.70632 35.3916L7.88379 38.4386C9.00371 39.3717 10.2195 40.206 11.516 40.9269L12.2608 39.662L9.70632 35.3916Z" fill="#A2001D"/>
<path d="M14.3042 27.7393V42.2509C17.1287 43.3764 20.2363 44.0001 23.4999 44.0001C33.604 44.0001 42.2178 38.0298 45.5382 29.6522L14.3042 27.7393Z" fill="#6DA544"/>
<path d="M45.5382 29.6521C46.4829 27.2688 46.9999 24.691 46.9999 22C46.9999 9.84981 36.4785 0 23.4999 0C20.2366 0 17.1287 0.623305 14.3042 1.74866V29.6522H45.5382V29.6521Z" fill="#A2001D"/>
</g>
<defs>
<clipPath id="clip0_105_947">
<rect width="47" height="44" fill="white"/>
</clipPath>
</defs>
</svg>
