<svg width="47" height="44" viewBox="0 0 47 44" fill="none" xmlns="http://www.w3.org/2000/svg">
<g clip-path="url(#clip0_105_958)">
<path d="M31.6739 1.36838C29.1281 0.484086 26.3746 0 23.5001 0C20.6255 0 17.872 0.484086 15.3262 1.36838L13.2827 22L15.3262 42.6316C17.872 43.516 20.6255 44 23.5001 44C26.3746 44 29.1281 43.516 31.6739 42.6316L33.7174 22L31.6739 1.36838Z" fill="#FFDA44"/>
<path d="M47 22.0002C47 12.541 40.6226 4.47701 31.6738 1.36865V42.632C40.6226 39.5234 47 31.4595 47 22.0002V22.0002Z" fill="#D80027"/>
<path d="M0 22.0002C0 31.4595 6.37731 39.5234 15.3261 42.6319V1.36865C6.37731 4.47701 0 12.541 0 22.0002V22.0002Z" fill="black"/>
</g>
<defs>
<clipPath id="clip0_105_958">
<rect width="47" height="44" fill="white"/>
</clipPath>
</defs>
</svg>
