<svg width="46" height="44" viewBox="0 0 46 44" fill="none" xmlns="http://www.w3.org/2000/svg">
<g clip-path="url(#clip0_105_962)">
<path d="M46 22.0001C46 14.4495 42.0227 7.78826 35.9633 3.8262L23 2.86963L10.0367 3.82611C3.97738 7.78826 0 14.4496 0 22.0001C0 29.5508 3.97738 36.2119 10.0367 40.174L23 41.1305L35.9633 40.1741C42.0227 36.2119 46 29.5508 46 22.0001Z" fill="#0052B4"/>
<path d="M35.9632 3.82611C32.272 1.41247 27.8087 0 22.9999 0C18.1912 0 13.7279 1.41247 10.0366 3.82611H35.9632Z" fill="#A2001D"/>
<path d="M10.0366 40.1738C13.7278 42.5875 18.1912 43.9999 22.9999 43.9999C27.8087 43.9999 32.272 42.5875 35.9632 40.1738H10.0366Z" fill="#A2001D"/>
<path d="M23 32.5215C29.0752 32.5215 34 27.8108 34 21.9998C34 16.1888 29.0752 11.478 23 11.478C16.9249 11.478 12 16.1888 12 21.9998C12 27.8108 16.9249 32.5215 23 32.5215Z" fill="#F0F0F0"/>
<path d="M23 30.6085C27.9706 30.6085 32 26.7543 32 21.9998C32 17.2454 27.9706 13.3911 23 13.3911C18.0294 13.3911 14 17.2454 14 21.9998C14 26.7543 18.0294 30.6085 23 30.6085Z" fill="#6DA544"/>
<path d="M23 27.7391C26.3138 27.7391 29.0001 25.1696 29.0001 21.9999C29.0001 18.8303 26.3138 16.2607 23 16.2607C19.6863 16.2607 17 18.8303 17 21.9999C17 25.1696 19.6863 27.7391 23 27.7391Z" fill="#F0F0F0"/>
<path d="M23 20.5654L19.75 22.0002V24.3915L23 26.3046L26.25 24.3915V22.0002L23 20.5654Z" fill="#0052B4"/>
<path d="M19.75 19.1304H26.25V21.9999H19.75V19.1304Z" fill="#FFDA44"/>
</g>
<defs>
<clipPath id="clip0_105_962">
<rect width="46" height="44" fill="white"/>
</clipPath>
</defs>
</svg>
