<svg width="1024" height="753" viewBox="0 0 1024 753" fill="none" xmlns="http://www.w3.org/2000/svg">
<g opacity="0.2" filter="url(#filter0_f_175_1868)">
<ellipse cx="533.5" cy="154" rx="670.5" ry="350" fill="#35875D"/>
</g>
<path d="M54.0349 390C55.5302 390 56.6622 390.63 57.4308 391.891C58.2134 393.138 58.6047 394.953 58.6047 397.336C58.6047 399.719 58.2134 401.541 57.4308 402.802C56.6622 404.063 55.5302 404.693 54.0349 404.693C52.5536 404.693 51.4216 404.063 50.639 402.802C49.8564 401.541 49.4651 399.719 49.4651 397.336C49.4651 394.967 49.8564 393.152 50.639 391.891C51.4216 390.63 52.5536 390 54.0349 390ZM50.9534 397.336C50.9534 399.026 51.1072 400.35 51.4146 401.306L56.0683 392.099C55.5791 391.448 54.9013 391.122 54.0349 391.122C53.0706 391.122 52.316 391.635 51.771 392.66C51.2259 393.672 50.9534 395.23 50.9534 397.336ZM54.0349 403.55C55.0131 403.55 55.7748 403.044 56.3198 402.033C56.8648 401.008 57.1373 399.442 57.1373 397.336C57.1373 395.549 56.9627 394.163 56.6133 393.18L51.9596 402.469C52.4627 403.19 53.1545 403.55 54.0349 403.55Z" fill="url(#paint0_linear_175_1868)" fill-opacity="0.6"/>
<path d="M55.2926 427.135H58.3741V428.236H50.3874V427.135H53.9511V415.455L50.5551 417.471L49.9682 416.536L54.1607 413.959H55.2926V427.135Z" fill="url(#paint1_linear_175_1868)" fill-opacity="0.6"/>
<path d="M54.0349 437.502C55.5302 437.502 56.6622 438.133 57.4308 439.393C58.2134 440.64 58.6047 442.455 58.6047 444.838C58.6047 447.221 58.2134 449.043 57.4308 450.304C56.6622 451.565 55.5302 452.195 54.0349 452.195C52.5536 452.195 51.4216 451.565 50.639 450.304C49.8564 449.043 49.4651 447.221 49.4651 444.838C49.4651 442.469 49.8564 440.654 50.639 439.393C51.4216 438.133 52.5536 437.502 54.0349 437.502ZM50.9534 444.838C50.9534 446.529 51.1072 447.852 51.4146 448.808L56.0683 439.601C55.5791 438.95 54.9013 438.624 54.0349 438.624C53.0706 438.624 52.316 439.137 51.771 440.162C51.2259 441.174 50.9534 442.732 50.9534 444.838ZM54.0349 451.052C55.0131 451.052 55.7748 450.546 56.3198 449.535C56.8648 448.51 57.1373 446.944 57.1373 444.838C57.1373 443.051 56.9627 441.665 56.6133 440.682L51.9596 449.971C52.4627 450.692 53.1545 451.052 54.0349 451.052Z" fill="url(#paint2_linear_175_1868)" fill-opacity="0.6"/>
<path d="M55.2926 474.637H58.3741V475.738H50.3874V474.637H53.9511V462.957L50.5551 464.973L49.9682 464.038L54.1607 461.461H55.2926V474.637Z" fill="url(#paint3_linear_175_1868)" fill-opacity="0.6"/>
<path d="M55.2926 498.388H58.3741V499.489H50.3874V498.388H53.9511V486.708L50.5551 488.724L49.9682 487.789L54.1607 485.212H55.2926V498.388Z" fill="url(#paint4_linear_175_1868)" fill-opacity="0.6"/>
<path d="M54.0349 508.755C55.5302 508.755 56.6622 509.386 57.4308 510.646C58.2134 511.893 58.6047 513.708 58.6047 516.091C58.6047 518.474 58.2134 520.296 57.4308 521.557C56.6622 522.818 55.5302 523.448 54.0349 523.448C52.5536 523.448 51.4216 522.818 50.639 521.557C49.8564 520.296 49.4651 518.474 49.4651 516.091C49.4651 513.722 49.8564 511.907 50.639 510.646C51.4216 509.386 52.5536 508.755 54.0349 508.755ZM50.9534 516.091C50.9534 517.782 51.1072 519.105 51.4146 520.061L56.0683 510.854C55.5791 510.203 54.9013 509.878 54.0349 509.878C53.0706 509.878 52.316 510.39 51.771 511.415C51.2259 512.427 50.9534 513.985 50.9534 516.091ZM54.0349 522.305C55.0131 522.305 55.7748 521.8 56.3198 520.788C56.8648 519.763 57.1373 518.197 57.1373 516.091C57.1373 514.304 56.9627 512.919 56.6133 511.935L51.9596 521.225C52.4627 521.945 53.1545 522.305 54.0349 522.305Z" fill="url(#paint5_linear_175_1868)" fill-opacity="0.6"/>
<path d="M55.2926 545.89H58.3741V546.992H50.3874V545.89H53.9511V534.21L50.5551 536.226L49.9682 535.291L54.1607 532.714H55.2926V545.89Z" fill="url(#paint6_linear_175_1868)" fill-opacity="0.6"/>
<path d="M54.0349 556.257C55.5302 556.257 56.6622 556.888 57.4308 558.149C58.2134 559.396 58.6047 561.211 58.6047 563.594C58.6047 565.977 58.2134 567.798 57.4308 569.059C56.6622 570.32 55.5302 570.95 54.0349 570.95C52.5536 570.95 51.4216 570.32 50.639 569.059C49.8564 567.798 49.4651 565.977 49.4651 563.594C49.4651 561.224 49.8564 559.409 50.639 558.149C51.4216 556.888 52.5536 556.257 54.0349 556.257ZM50.9534 563.594C50.9534 565.284 51.1072 566.607 51.4146 567.563L56.0683 558.356C55.5791 557.705 54.9013 557.38 54.0349 557.38C53.0706 557.38 52.316 557.892 51.771 558.918C51.2259 559.929 50.9534 561.488 50.9534 563.594ZM54.0349 569.807C55.0131 569.807 55.7748 569.302 56.3198 568.29C56.8648 567.265 57.1373 565.699 57.1373 563.594C57.1373 561.806 56.9627 560.421 56.6133 559.437L51.9596 568.727C52.4627 569.447 53.1545 569.807 54.0349 569.807Z" fill="url(#paint7_linear_175_1868)" fill-opacity="0.6"/>
<path d="M54.0349 580.008C55.5302 580.008 56.6622 580.639 57.4308 581.9C58.2134 583.147 58.6047 584.962 58.6047 587.345C58.6047 589.728 58.2134 591.549 57.4308 592.81C56.6622 594.071 55.5302 594.701 54.0349 594.701C52.5536 594.701 51.4216 594.071 50.639 592.81C49.8564 591.549 49.4651 589.728 49.4651 587.345C49.4651 584.975 49.8564 583.16 50.639 581.9C51.4216 580.639 52.5536 580.008 54.0349 580.008ZM50.9534 587.345C50.9534 589.035 51.1072 590.358 51.4146 591.314L56.0683 582.107C55.5791 581.456 54.9013 581.131 54.0349 581.131C53.0706 581.131 52.316 581.643 51.771 582.669C51.2259 583.68 50.9534 585.239 50.9534 587.345ZM54.0349 593.558C55.0131 593.558 55.7748 593.053 56.3198 592.041C56.8648 591.016 57.1373 589.451 57.1373 587.345C57.1373 585.557 56.9627 584.172 56.6133 583.188L51.9596 592.478C52.4627 593.198 53.1545 593.558 54.0349 593.558Z" fill="url(#paint8_linear_175_1868)" fill-opacity="0.6"/>
<path d="M55.2926 617.143H58.3741V618.245H50.3874V617.143H53.9511V605.464L50.5551 607.48L49.9682 606.544L54.1607 603.967H55.2926V617.143Z" fill="url(#paint9_linear_175_1868)" fill-opacity="0.6"/>
<path d="M54.0349 627.511C55.5302 627.511 56.6622 628.141 57.4308 629.402C58.2134 630.649 58.6047 632.464 58.6047 634.847C58.6047 637.23 58.2134 639.052 57.4308 640.312C56.6622 641.573 55.5302 642.204 54.0349 642.204C52.5536 642.204 51.4216 641.573 50.639 640.312C49.8564 639.052 49.4651 637.23 49.4651 634.847C49.4651 632.478 49.8564 630.663 50.639 629.402C51.4216 628.141 52.5536 627.511 54.0349 627.511ZM50.9534 634.847C50.9534 636.537 51.1072 637.86 51.4146 638.816L56.0683 629.61C55.5791 628.958 54.9013 628.633 54.0349 628.633C53.0706 628.633 52.316 629.145 51.771 630.171C51.2259 631.182 50.9534 632.741 50.9534 634.847ZM54.0349 641.061C55.0131 641.061 55.7748 640.555 56.3198 639.543C56.8648 638.518 57.1373 636.953 57.1373 634.847C57.1373 633.059 56.9627 631.674 56.6133 630.69L51.9596 639.98C52.4627 640.7 53.1545 641.061 54.0349 641.061Z" fill="url(#paint10_linear_175_1868)" fill-opacity="0.6"/>
<path d="M55.2926 664.645H58.3741V665.747H50.3874V664.645H53.9511V652.966L50.5551 654.982L49.9682 654.046L54.1607 651.469H55.2926V664.645Z" fill="url(#paint11_linear_175_1868)" fill-opacity="0.6"/>
<path d="M55.2926 688.396H58.3741V689.498H50.3874V688.396H53.9511V676.717L50.5551 678.733L49.9682 677.798L54.1607 675.221H55.2926V688.396Z" fill="url(#paint12_linear_175_1868)" fill-opacity="0.6"/>
<path d="M92.9651 437.502C94.4604 437.502 95.5924 438.133 96.361 439.393C97.1436 440.64 97.5349 442.455 97.5349 444.838C97.5349 447.221 97.1436 449.043 96.361 450.304C95.5924 451.565 94.4604 452.195 92.9651 452.195C91.4838 452.195 90.3518 451.565 89.5692 450.304C88.7866 449.043 88.3953 447.221 88.3953 444.838C88.3953 442.469 88.7866 440.654 89.5692 439.393C90.3518 438.133 91.4838 437.502 92.9651 437.502ZM89.8836 444.838C89.8836 446.529 90.0374 447.852 90.3448 448.808L94.9985 439.601C94.5093 438.95 93.8315 438.624 92.9651 438.624C92.0008 438.624 91.2462 439.137 90.7012 440.162C90.1561 441.174 89.8836 442.732 89.8836 444.838ZM92.9651 451.052C93.9433 451.052 94.705 450.546 95.25 449.535C95.795 448.51 96.0675 446.944 96.0675 444.838C96.0675 443.051 95.8928 441.665 95.5435 440.682L90.8898 449.971C91.3929 450.692 92.0847 451.052 92.9651 451.052Z" fill="url(#paint13_linear_175_1868)" fill-opacity="0.6"/>
<path d="M94.2228 474.637H97.3043V475.738H89.3176V474.637H92.8812V462.957L89.4853 464.973L88.8984 464.038L93.0909 461.461H94.2228V474.637Z" fill="url(#paint14_linear_175_1868)" fill-opacity="0.6"/>
<path d="M92.9651 485.004C94.4604 485.004 95.5924 485.635 96.361 486.895C97.1436 488.142 97.5349 489.957 97.5349 492.34C97.5349 494.723 97.1436 496.545 96.361 497.806C95.5924 499.067 94.4604 499.697 92.9651 499.697C91.4838 499.697 90.3518 499.067 89.5692 497.806C88.7866 496.545 88.3953 494.723 88.3953 492.34C88.3953 489.971 88.7866 488.156 89.5692 486.895C90.3518 485.635 91.4838 485.004 92.9651 485.004ZM89.8836 492.34C89.8836 494.031 90.0374 495.354 90.3448 496.31L94.9985 487.103C94.5093 486.452 93.8315 486.126 92.9651 486.126C92.0008 486.126 91.2462 486.639 90.7012 487.664C90.1561 488.676 89.8836 490.234 89.8836 492.34ZM92.9651 498.554C93.9433 498.554 94.705 498.049 95.25 497.037C95.795 496.012 96.0675 494.446 96.0675 492.34C96.0675 490.553 95.8928 489.168 95.5435 488.184L90.8898 497.474C91.3929 498.194 92.0847 498.554 92.9651 498.554Z" fill="url(#paint15_linear_175_1868)" fill-opacity="0.6"/>
<path d="M92.9651 508.755C94.4604 508.755 95.5924 509.386 96.361 510.646C97.1436 511.893 97.5349 513.708 97.5349 516.091C97.5349 518.474 97.1436 520.296 96.361 521.557C95.5924 522.818 94.4604 523.448 92.9651 523.448C91.4838 523.448 90.3518 522.818 89.5692 521.557C88.7866 520.296 88.3953 518.474 88.3953 516.091C88.3953 513.722 88.7866 511.907 89.5692 510.646C90.3518 509.386 91.4838 508.755 92.9651 508.755ZM89.8836 516.091C89.8836 517.782 90.0374 519.105 90.3448 520.061L94.9985 510.854C94.5093 510.203 93.8315 509.878 92.9651 509.878C92.0008 509.878 91.2462 510.39 90.7012 511.415C90.1561 512.427 89.8836 513.985 89.8836 516.091ZM92.9651 522.305C93.9433 522.305 94.705 521.8 95.25 520.788C95.795 519.763 96.0675 518.197 96.0675 516.091C96.0675 514.304 95.8928 512.919 95.5435 511.935L90.8898 521.225C91.3929 521.945 92.0847 522.305 92.9651 522.305Z" fill="url(#paint16_linear_175_1868)" fill-opacity="0.6"/>
<path d="M94.2228 545.89H97.3043V546.992H89.3176V545.89H92.8812V534.21L89.4853 536.226L88.8984 535.291L93.0909 532.714H94.2228V545.89Z" fill="url(#paint17_linear_175_1868)" fill-opacity="0.6"/>
<path d="M92.9651 556.257C94.4604 556.257 95.5924 556.888 96.361 558.149C97.1436 559.396 97.5349 561.211 97.5349 563.594C97.5349 565.977 97.1436 567.798 96.361 569.059C95.5924 570.32 94.4604 570.95 92.9651 570.95C91.4838 570.95 90.3518 570.32 89.5692 569.059C88.7866 567.798 88.3953 565.977 88.3953 563.594C88.3953 561.224 88.7866 559.409 89.5692 558.149C90.3518 556.888 91.4838 556.257 92.9651 556.257ZM89.8836 563.594C89.8836 565.284 90.0374 566.607 90.3448 567.563L94.9985 558.356C94.5093 557.705 93.8315 557.38 92.9651 557.38C92.0008 557.38 91.2462 557.892 90.7012 558.918C90.1561 559.929 89.8836 561.488 89.8836 563.594ZM92.9651 569.807C93.9433 569.807 94.705 569.302 95.25 568.29C95.795 567.265 96.0675 565.699 96.0675 563.594C96.0675 561.806 95.8928 560.421 95.5435 559.437L90.8898 568.727C91.3929 569.447 92.0847 569.807 92.9651 569.807Z" fill="url(#paint18_linear_175_1868)" fill-opacity="0.6"/>
<path d="M94.2228 593.392H97.3043V594.494H89.3176V593.392H92.8812V581.713L89.4853 583.728L88.8984 582.793L93.0909 580.216H94.2228V593.392Z" fill="url(#paint19_linear_175_1868)" fill-opacity="0.6"/>
<path d="M92.9651 603.76C94.4604 603.76 95.5924 604.39 96.361 605.651C97.1436 606.898 97.5349 608.713 97.5349 611.096C97.5349 613.479 97.1436 615.301 96.361 616.561C95.5924 617.822 94.4604 618.453 92.9651 618.453C91.4838 618.453 90.3518 617.822 89.5692 616.561C88.7866 615.301 88.3953 613.479 88.3953 611.096C88.3953 608.726 88.7866 606.911 89.5692 605.651C90.3518 604.39 91.4838 603.76 92.9651 603.76ZM89.8836 611.096C89.8836 612.786 90.0374 614.109 90.3448 615.065L94.9985 605.859C94.5093 605.207 93.8315 604.882 92.9651 604.882C92.0008 604.882 91.2462 605.394 90.7012 606.42C90.1561 607.431 89.8836 608.99 89.8836 611.096ZM92.9651 617.31C93.9433 617.31 94.705 616.804 95.25 615.792C95.795 614.767 96.0675 613.202 96.0675 611.096C96.0675 609.308 95.8928 607.923 95.5435 606.939L90.8898 616.229C91.3929 616.949 92.0847 617.31 92.9651 617.31Z" fill="url(#paint20_linear_175_1868)" fill-opacity="0.6"/>
<path d="M92.9651 627.511C94.4604 627.511 95.5924 628.141 96.361 629.402C97.1436 630.649 97.5349 632.464 97.5349 634.847C97.5349 637.23 97.1436 639.052 96.361 640.312C95.5924 641.573 94.4604 642.204 92.9651 642.204C91.4838 642.204 90.3518 641.573 89.5692 640.312C88.7866 639.052 88.3953 637.23 88.3953 634.847C88.3953 632.478 88.7866 630.663 89.5692 629.402C90.3518 628.141 91.4838 627.511 92.9651 627.511ZM89.8836 634.847C89.8836 636.537 90.0374 637.86 90.3448 638.816L94.9985 629.61C94.5093 628.958 93.8315 628.633 92.9651 628.633C92.0008 628.633 91.2462 629.145 90.7012 630.171C90.1561 631.182 89.8836 632.741 89.8836 634.847ZM92.9651 641.061C93.9433 641.061 94.705 640.555 95.25 639.543C95.795 638.518 96.0675 636.953 96.0675 634.847C96.0675 633.059 95.8928 631.674 95.5435 630.69L90.8898 639.98C91.3929 640.7 92.0847 641.061 92.9651 641.061Z" fill="url(#paint21_linear_175_1868)" fill-opacity="0.6"/>
<path d="M94.2228 664.645H97.3043V665.747H89.3176V664.645H92.8812V652.966L89.4853 654.982L88.8984 654.046L93.0909 651.469H94.2228V664.645Z" fill="url(#paint22_linear_175_1868)" fill-opacity="0.6"/>
<path d="M92.9651 675.013C94.4604 675.013 95.5924 675.643 96.361 676.904C97.1436 678.151 97.5349 679.966 97.5349 682.349C97.5349 684.732 97.1436 686.554 96.361 687.815C95.5924 689.075 94.4604 689.706 92.9651 689.706C91.4838 689.706 90.3518 689.075 89.5692 687.815C88.7866 686.554 88.3953 684.732 88.3953 682.349C88.3953 679.98 88.7866 678.165 89.5692 676.904C90.3518 675.643 91.4838 675.013 92.9651 675.013ZM89.8836 682.349C89.8836 684.039 90.0374 685.362 90.3448 686.318L94.9985 677.112C94.5093 676.461 93.8315 676.135 92.9651 676.135C92.0008 676.135 91.2462 676.648 90.7012 677.673C90.1561 678.684 89.8836 680.243 89.8836 682.349ZM92.9651 688.563C93.9433 688.563 94.705 688.057 95.25 687.046C95.795 686.02 96.0675 684.455 96.0675 682.349C96.0675 680.562 95.8928 679.176 95.5435 678.192L90.8898 687.482C91.3929 688.202 92.0847 688.563 92.9651 688.563Z" fill="url(#paint23_linear_175_1868)" fill-opacity="0.6"/>
<path d="M94.2228 712.148H97.3043V713.249H89.3176V712.148H92.8812V700.468L89.4853 702.484L88.8984 701.549L93.0909 698.972H94.2228V712.148Z" fill="url(#paint24_linear_175_1868)" fill-opacity="0.6"/>
<path d="M94.2228 735.899H97.3043V737H89.3176V735.899H92.8812V724.219L89.4853 726.235L88.8984 725.3L93.0909 722.723H94.2228V735.899Z" fill="url(#paint25_linear_175_1868)" fill-opacity="0.6"/>
<path d="M34.5698 461.253C36.0651 461.253 37.1971 461.884 37.9657 463.144C38.7483 464.391 39.1396 466.206 39.1396 468.589C39.1396 470.972 38.7483 472.794 37.9657 474.055C37.1971 475.316 36.0651 475.946 34.5698 475.946C33.0885 475.946 31.9565 475.316 31.1739 474.055C30.3913 472.794 30 470.972 30 468.589C30 466.22 30.3913 464.405 31.1739 463.144C31.9565 461.884 33.0885 461.253 34.5698 461.253ZM31.4883 468.589C31.4883 470.28 31.6421 471.603 31.9495 472.559L36.6032 463.352C36.114 462.701 35.4363 462.375 34.5698 462.375C33.6055 462.375 32.8509 462.888 32.3059 463.913C31.7608 464.925 31.4883 466.483 31.4883 468.589ZM34.5698 474.803C35.5481 474.803 36.3097 474.297 36.8547 473.286C37.3997 472.261 37.6722 470.695 37.6722 468.589C37.6722 466.802 37.4976 465.417 37.1482 464.433L32.4945 473.722C32.9976 474.443 33.6894 474.803 34.5698 474.803Z" fill="url(#paint26_linear_175_1868)" fill-opacity="0.6"/>
<path d="M34.5698 485.004C36.0651 485.004 37.1971 485.635 37.9657 486.895C38.7483 488.142 39.1396 489.957 39.1396 492.34C39.1396 494.723 38.7483 496.545 37.9657 497.806C37.1971 499.067 36.0651 499.697 34.5698 499.697C33.0885 499.697 31.9565 499.067 31.1739 497.806C30.3913 496.545 30 494.723 30 492.34C30 489.971 30.3913 488.156 31.1739 486.895C31.9565 485.635 33.0885 485.004 34.5698 485.004ZM31.4883 492.34C31.4883 494.031 31.6421 495.354 31.9495 496.31L36.6032 487.103C36.114 486.452 35.4363 486.126 34.5698 486.126C33.6055 486.126 32.8509 486.639 32.3059 487.664C31.7608 488.676 31.4883 490.234 31.4883 492.34ZM34.5698 498.554C35.5481 498.554 36.3097 498.049 36.8547 497.037C37.3997 496.012 37.6722 494.446 37.6722 492.34C37.6722 490.553 37.4976 489.168 37.1482 488.184L32.4945 497.474C32.9976 498.194 33.6894 498.554 34.5698 498.554Z" fill="url(#paint27_linear_175_1868)" fill-opacity="0.6"/>
<path d="M35.8276 522.139H38.909V523.24H30.9223V522.139H34.486V510.459L31.09 512.475L30.5031 511.54L34.6956 508.963H35.8276V522.139Z" fill="url(#paint28_linear_175_1868)" fill-opacity="0.6"/>
<path d="M34.5698 532.506C36.0651 532.506 37.1971 533.137 37.9657 534.398C38.7483 535.644 39.1396 537.459 39.1396 539.842C39.1396 542.225 38.7483 544.047 37.9657 545.308C37.1971 546.569 36.0651 547.199 34.5698 547.199C33.0885 547.199 31.9565 546.569 31.1739 545.308C30.3913 544.047 30 542.225 30 539.842C30 537.473 30.3913 535.658 31.1739 534.398C31.9565 533.137 33.0885 532.506 34.5698 532.506ZM31.4883 539.842C31.4883 541.533 31.6421 542.856 31.9495 543.812L36.6032 534.605C36.114 533.954 35.4363 533.629 34.5698 533.629C33.6055 533.629 32.8509 534.141 32.3059 535.166C31.7608 536.178 31.4883 537.737 31.4883 539.842ZM34.5698 546.056C35.5481 546.056 36.3097 545.551 36.8547 544.539C37.3997 543.514 37.6722 541.948 37.6722 539.842C37.6722 538.055 37.4976 536.67 37.1482 535.686L32.4945 544.976C32.9976 545.696 33.6894 546.056 34.5698 546.056Z" fill="url(#paint29_linear_175_1868)" fill-opacity="0.6"/>
<path d="M35.8276 569.641H38.909V570.743H30.9223V569.641H34.486V557.962L31.09 559.977L30.5031 559.042L34.6956 556.465H35.8276V569.641Z" fill="url(#paint30_linear_175_1868)" fill-opacity="0.6"/>
<path d="M35.8276 593.392H38.909V594.494H30.9223V593.392H34.486V581.713L31.09 583.728L30.5031 582.793L34.6956 580.216H35.8276V593.392Z" fill="url(#paint31_linear_175_1868)" fill-opacity="0.6"/>
<path d="M74.7577 427.135H77.8392V428.236H69.8525V427.135H73.4162V415.455L70.0202 417.471L69.4333 416.536L73.6258 413.959H74.7577V427.135Z" fill="url(#paint32_linear_175_1868)" fill-opacity="0.6"/>
<path d="M73.5 437.502C74.9953 437.502 76.1273 438.133 76.8959 439.393C77.6785 440.64 78.0698 442.455 78.0698 444.838C78.0698 447.221 77.6785 449.043 76.8959 450.304C76.1273 451.565 74.9953 452.195 73.5 452.195C72.0187 452.195 70.8867 451.565 70.1041 450.304C69.3215 449.043 68.9302 447.221 68.9302 444.838C68.9302 442.469 69.3215 440.654 70.1041 439.393C70.8867 438.133 72.0187 437.502 73.5 437.502ZM70.4185 444.838C70.4185 446.529 70.5723 447.852 70.8797 448.808L75.5334 439.601C75.0442 438.95 74.3664 438.624 73.5 438.624C72.5357 438.624 71.7811 439.137 71.2361 440.162C70.691 441.174 70.4185 442.732 70.4185 444.838ZM73.5 451.052C74.4782 451.052 75.2399 450.546 75.7849 449.535C76.3299 448.51 76.6024 446.944 76.6024 444.838C76.6024 443.051 76.4277 441.665 76.0784 440.682L71.4247 449.971C71.9278 450.692 72.6196 451.052 73.5 451.052Z" fill="url(#paint33_linear_175_1868)" fill-opacity="0.6"/>
<path d="M74.7577 474.637H77.8392V475.738H69.8525V474.637H73.4162V462.957L70.0202 464.973L69.4333 464.038L73.6258 461.461H74.7577V474.637Z" fill="url(#paint34_linear_175_1868)" fill-opacity="0.6"/>
<path d="M74.7577 498.388H77.8392V499.489H69.8525V498.388H73.4162V486.708L70.0202 488.724L69.4333 487.789L73.6258 485.212H74.7577V498.388Z" fill="url(#paint35_linear_175_1868)" fill-opacity="0.6"/>
<path d="M73.5 508.755C74.9953 508.755 76.1273 509.386 76.8959 510.646C77.6785 511.893 78.0698 513.708 78.0698 516.091C78.0698 518.474 77.6785 520.296 76.8959 521.557C76.1273 522.818 74.9953 523.448 73.5 523.448C72.0187 523.448 70.8867 522.818 70.1041 521.557C69.3215 520.296 68.9302 518.474 68.9302 516.091C68.9302 513.722 69.3215 511.907 70.1041 510.646C70.8867 509.386 72.0187 508.755 73.5 508.755ZM70.4185 516.091C70.4185 517.782 70.5723 519.105 70.8797 520.061L75.5334 510.854C75.0442 510.203 74.3664 509.878 73.5 509.878C72.5357 509.878 71.7811 510.39 71.2361 511.415C70.691 512.427 70.4185 513.985 70.4185 516.091ZM73.5 522.305C74.4782 522.305 75.2399 521.8 75.7849 520.788C76.3299 519.763 76.6024 518.197 76.6024 516.091C76.6024 514.304 76.4277 512.919 76.0784 511.935L71.4247 521.225C71.9278 521.945 72.6196 522.305 73.5 522.305Z" fill="url(#paint36_linear_175_1868)" fill-opacity="0.6"/>
<path d="M74.7577 545.89H77.8392V546.992H69.8525V545.89H73.4162V534.21L70.0202 536.226L69.4333 535.291L73.6258 532.714H74.7577V545.89Z" fill="url(#paint37_linear_175_1868)" fill-opacity="0.6"/>
<path d="M74.7577 569.641H77.8392V570.743H69.8525V569.641H73.4162V557.962L70.0202 559.977L69.4333 559.042L73.6258 556.465H74.7577V569.641Z" fill="url(#paint38_linear_175_1868)" fill-opacity="0.6"/>
<path d="M73.5 580.008C74.9953 580.008 76.1273 580.639 76.8959 581.9C77.6785 583.147 78.0698 584.962 78.0698 587.345C78.0698 589.728 77.6785 591.549 76.8959 592.81C76.1273 594.071 74.9953 594.701 73.5 594.701C72.0187 594.701 70.8867 594.071 70.1041 592.81C69.3215 591.549 68.9302 589.728 68.9302 587.345C68.9302 584.975 69.3215 583.16 70.1041 581.9C70.8867 580.639 72.0187 580.008 73.5 580.008ZM70.4185 587.345C70.4185 589.035 70.5723 590.358 70.8797 591.314L75.5334 582.107C75.0442 581.456 74.3664 581.131 73.5 581.131C72.5357 581.131 71.7811 581.643 71.2361 582.669C70.691 583.68 70.4185 585.239 70.4185 587.345ZM73.5 593.558C74.4782 593.558 75.2399 593.053 75.7849 592.041C76.3299 591.016 76.6024 589.451 76.6024 587.345C76.6024 585.557 76.4277 584.172 76.0784 583.188L71.4247 592.478C71.9278 593.198 72.6196 593.558 73.5 593.558Z" fill="url(#paint39_linear_175_1868)" fill-opacity="0.6"/>
<path d="M74.7577 617.143H77.8392V618.245H69.8525V617.143H73.4162V605.464L70.0202 607.48L69.4333 606.544L73.6258 603.967H74.7577V617.143Z" fill="url(#paint40_linear_175_1868)" fill-opacity="0.6"/>
<path d="M73.5 627.511C74.9953 627.511 76.1273 628.141 76.8959 629.402C77.6785 630.649 78.0698 632.464 78.0698 634.847C78.0698 637.23 77.6785 639.052 76.8959 640.312C76.1273 641.573 74.9953 642.204 73.5 642.204C72.0187 642.204 70.8867 641.573 70.1041 640.312C69.3215 639.052 68.9302 637.23 68.9302 634.847C68.9302 632.478 69.3215 630.663 70.1041 629.402C70.8867 628.141 72.0187 627.511 73.5 627.511ZM70.4185 634.847C70.4185 636.537 70.5723 637.86 70.8797 638.816L75.5334 629.61C75.0442 628.958 74.3664 628.633 73.5 628.633C72.5357 628.633 71.7811 629.145 71.2361 630.171C70.691 631.182 70.4185 632.741 70.4185 634.847ZM73.5 641.061C74.4782 641.061 75.2399 640.555 75.7849 639.543C76.3299 638.518 76.6024 636.953 76.6024 634.847C76.6024 633.059 76.4277 631.674 76.0784 630.69L71.4247 639.98C71.9278 640.7 72.6196 641.061 73.5 641.061Z" fill="url(#paint41_linear_175_1868)" fill-opacity="0.6"/>
<path d="M112.43 413.751C113.926 413.751 115.057 414.381 115.826 415.642C116.609 416.889 117 418.704 117 421.087C117 423.47 116.609 425.292 115.826 426.553C115.057 427.814 113.926 428.444 112.43 428.444C110.949 428.444 109.817 427.814 109.034 426.553C108.252 425.292 107.86 423.47 107.86 421.087C107.86 418.718 108.252 416.903 109.034 415.642C109.817 414.381 110.949 413.751 112.43 413.751ZM109.349 421.087C109.349 422.777 109.502 424.101 109.81 425.057L114.464 415.85C113.974 415.199 113.297 414.873 112.43 414.873C111.466 414.873 110.711 415.386 110.166 416.411C109.621 417.423 109.349 418.981 109.349 421.087ZM112.43 427.301C113.408 427.301 114.17 426.795 114.715 425.784C115.26 424.759 115.533 423.193 115.533 421.087C115.533 419.3 115.358 417.914 115.009 416.931L110.355 426.22C110.858 426.941 111.55 427.301 112.43 427.301Z" fill="url(#paint42_linear_175_1868)" fill-opacity="0.6"/>
<path d="M113.688 450.886H116.769V451.987H108.783V450.886H112.346V439.206L108.95 441.222L108.363 440.287L112.556 437.71H113.688V450.886Z" fill="url(#paint43_linear_175_1868)" fill-opacity="0.6"/>
<path d="M113.688 474.637H116.769V475.738H108.783V474.637H112.346V462.957L108.95 464.973L108.363 464.038L112.556 461.461H113.688V474.637Z" fill="url(#paint44_linear_175_1868)" fill-opacity="0.6"/>
<path d="M112.43 485.004C113.926 485.004 115.057 485.635 115.826 486.895C116.609 488.142 117 489.957 117 492.34C117 494.723 116.609 496.545 115.826 497.806C115.057 499.067 113.926 499.697 112.43 499.697C110.949 499.697 109.817 499.067 109.034 497.806C108.252 496.545 107.86 494.723 107.86 492.34C107.86 489.971 108.252 488.156 109.034 486.895C109.817 485.635 110.949 485.004 112.43 485.004ZM109.349 492.34C109.349 494.031 109.502 495.354 109.81 496.31L114.464 487.103C113.974 486.452 113.297 486.126 112.43 486.126C111.466 486.126 110.711 486.639 110.166 487.664C109.621 488.676 109.349 490.234 109.349 492.34ZM112.43 498.554C113.408 498.554 114.17 498.049 114.715 497.037C115.26 496.012 115.533 494.446 115.533 492.34C115.533 490.553 115.358 489.168 115.009 488.184L110.355 497.474C110.858 498.194 111.55 498.554 112.43 498.554Z" fill="url(#paint45_linear_175_1868)" fill-opacity="0.6"/>
<path d="M112.43 508.755C113.926 508.755 115.057 509.386 115.826 510.646C116.609 511.893 117 513.708 117 516.091C117 518.474 116.609 520.296 115.826 521.557C115.057 522.818 113.926 523.448 112.43 523.448C110.949 523.448 109.817 522.818 109.034 521.557C108.252 520.296 107.86 518.474 107.86 516.091C107.86 513.722 108.252 511.907 109.034 510.646C109.817 509.386 110.949 508.755 112.43 508.755ZM109.349 516.091C109.349 517.782 109.502 519.105 109.81 520.061L114.464 510.854C113.974 510.203 113.297 509.878 112.43 509.878C111.466 509.878 110.711 510.39 110.166 511.415C109.621 512.427 109.349 513.985 109.349 516.091ZM112.43 522.305C113.408 522.305 114.17 521.8 114.715 520.788C115.26 519.763 115.533 518.197 115.533 516.091C115.533 514.304 115.358 512.919 115.009 511.935L110.355 521.225C110.858 521.945 111.55 522.305 112.43 522.305Z" fill="url(#paint46_linear_175_1868)" fill-opacity="0.6"/>
<g opacity="0.6">
<path d="M940.93 90C942.356 90 943.436 90.605 944.17 91.8149C944.916 93.0115 945.29 94.7532 945.29 97.0401C945.29 99.327 944.916 101.075 944.17 102.285C943.436 103.495 942.356 104.1 940.93 104.1C939.517 104.1 938.437 103.495 937.69 102.285C936.943 101.075 936.57 99.327 936.57 97.0401C936.57 94.7665 936.943 93.0248 937.69 91.8149C938.437 90.605 939.517 90 940.93 90ZM937.99 97.0401C937.99 98.6622 938.137 99.932 938.43 100.849L942.87 92.0143C942.403 91.3894 941.756 91.077 940.93 91.077C940.01 91.077 939.29 91.5689 938.77 92.5528C938.25 93.5234 937.99 95.0192 937.99 97.0401ZM940.93 103.003C941.863 103.003 942.59 102.518 943.11 101.547C943.63 100.564 943.89 99.0611 943.89 97.0401C943.89 95.325 943.723 93.9954 943.39 93.0514L938.95 101.966C939.43 102.658 940.09 103.003 940.93 103.003Z" fill="url(#paint47_linear_175_1868)"/>
<path d="M942.13 125.637H945.07V126.694H937.45V125.637H940.85V114.428L937.61 116.363L937.05 115.465L941.05 112.992H942.13V125.637Z" fill="url(#paint48_linear_175_1868)"/>
<path d="M940.93 135.586C942.356 135.586 943.436 136.191 944.17 137.4C944.916 138.597 945.29 140.339 945.29 142.626C945.29 144.913 944.916 146.661 944.17 147.871C943.436 149.081 942.356 149.686 940.93 149.686C939.517 149.686 938.437 149.081 937.69 147.871C936.943 146.661 936.57 144.913 936.57 142.626C936.57 140.352 936.943 138.61 937.69 137.4C938.437 136.191 939.517 135.586 940.93 135.586ZM937.99 142.626C937.99 144.248 938.137 145.518 938.43 146.435L942.87 137.6C942.403 136.975 941.756 136.663 940.93 136.663C940.01 136.663 939.29 137.155 938.77 138.138C938.25 139.109 937.99 140.605 937.99 142.626ZM940.93 148.589C941.863 148.589 942.59 148.104 943.11 147.133C943.63 146.149 943.89 144.647 943.89 142.626C943.89 140.911 943.723 139.581 943.39 138.637L938.95 147.552C939.43 148.243 940.09 148.589 940.93 148.589Z" fill="url(#paint49_linear_175_1868)"/>
<path d="M942.13 171.222H945.07V172.279H937.45V171.222H940.85V160.014L937.61 161.948L937.05 161.051L941.05 158.578H942.13V171.222Z" fill="url(#paint50_linear_175_1868)"/>
<path d="M942.13 194.015H945.07V195.072H937.45V194.015H940.85V182.807L937.61 184.741L937.05 183.844L941.05 181.371H942.13V194.015Z" fill="url(#paint51_linear_175_1868)"/>
<path d="M940.93 203.964C942.356 203.964 943.436 204.569 944.17 205.779C944.916 206.976 945.29 208.717 945.29 211.004C945.29 213.291 944.916 215.039 944.17 216.249C943.436 217.459 942.356 218.064 940.93 218.064C939.517 218.064 938.437 217.459 937.69 216.249C936.943 215.039 936.57 213.291 936.57 211.004C936.57 208.731 936.943 206.989 937.69 205.779C938.437 204.569 939.517 203.964 940.93 203.964ZM937.99 211.004C937.99 212.626 938.137 213.896 938.43 214.813L942.87 205.978C942.403 205.353 941.756 205.041 940.93 205.041C940.01 205.041 939.29 205.533 938.77 206.517C938.25 207.487 937.99 208.983 937.99 211.004ZM940.93 216.967C941.863 216.967 942.59 216.482 943.11 215.511C943.63 214.528 943.89 213.025 943.89 211.004C943.89 209.289 943.723 207.959 943.39 207.015L938.95 215.93C939.43 216.622 940.09 216.967 940.93 216.967Z" fill="url(#paint52_linear_175_1868)"/>
<path d="M942.13 239.601H945.07V240.658H937.45V239.601H940.85V228.392L937.61 230.327L937.05 229.429L941.05 226.956H942.13V239.601Z" fill="url(#paint53_linear_175_1868)"/>
<path d="M940.93 249.55C942.356 249.55 943.436 250.155 944.17 251.365C944.916 252.561 945.29 254.303 945.29 256.59C945.29 258.877 944.916 260.625 944.17 261.835C943.436 263.045 942.356 263.65 940.93 263.65C939.517 263.65 938.437 263.045 937.69 261.835C936.943 260.625 936.57 258.877 936.57 256.59C936.57 254.316 936.943 252.574 937.69 251.365C938.437 250.155 939.517 249.55 940.93 249.55ZM937.99 256.59C937.99 258.212 938.137 259.482 938.43 260.399L942.87 251.564C942.403 250.939 941.756 250.627 940.93 250.627C940.01 250.627 939.29 251.119 938.77 252.102C938.25 253.073 937.99 254.569 937.99 256.59ZM940.93 262.553C941.863 262.553 942.59 262.068 943.11 261.097C943.63 260.113 943.89 258.611 943.89 256.59C943.89 254.875 943.723 253.545 943.39 252.601L938.95 261.516C939.43 262.207 940.09 262.553 940.93 262.553Z" fill="url(#paint54_linear_175_1868)"/>
<path d="M940.93 272.342C942.356 272.342 943.436 272.947 944.17 274.157C944.916 275.354 945.29 277.096 945.29 279.383C945.29 281.669 944.916 283.418 944.17 284.628C943.436 285.838 942.356 286.443 940.93 286.443C939.517 286.443 938.437 285.838 937.69 284.628C936.943 283.418 936.57 281.669 936.57 279.383C936.57 277.109 936.943 275.367 937.69 274.157C938.437 272.947 939.517 272.342 940.93 272.342ZM937.99 279.383C937.99 281.005 938.137 282.274 938.43 283.192L942.87 274.357C942.403 273.732 941.756 273.419 940.93 273.419C940.01 273.419 939.29 273.911 938.77 274.895C938.25 275.866 937.99 277.362 937.99 279.383ZM940.93 285.346C941.863 285.346 942.59 284.86 943.11 283.89C943.63 282.906 943.89 281.404 943.89 279.383C943.89 277.667 943.723 276.338 943.39 275.394L938.95 284.309C939.43 285 940.09 285.346 940.93 285.346Z" fill="url(#paint55_linear_175_1868)"/>
<path d="M942.13 307.979H945.07V309.036H937.45V307.979H940.85V296.771L937.61 298.705L937.05 297.808L941.05 295.335H942.13V307.979Z" fill="url(#paint56_linear_175_1868)"/>
<path d="M940.93 317.928C942.356 317.928 943.436 318.533 944.17 319.743C944.916 320.94 945.29 322.681 945.29 324.968C945.29 327.255 944.916 329.003 944.17 330.213C943.436 331.423 942.356 332.028 940.93 332.028C939.517 332.028 938.437 331.423 937.69 330.213C936.943 329.003 936.57 327.255 936.57 324.968C936.57 322.695 936.943 320.953 937.69 319.743C938.437 318.533 939.517 317.928 940.93 317.928ZM937.99 324.968C937.99 326.59 938.137 327.86 938.43 328.777L942.87 319.942C942.403 319.317 941.756 319.005 940.93 319.005C940.01 319.005 939.29 319.497 938.77 320.481C938.25 321.451 937.99 322.947 937.99 324.968ZM940.93 330.931C941.863 330.931 942.59 330.446 943.11 329.475C943.63 328.492 943.89 326.989 943.89 324.968C943.89 323.253 943.723 321.923 943.39 320.979L938.95 329.894C939.43 330.586 940.09 330.931 940.93 330.931Z" fill="url(#paint57_linear_175_1868)"/>
<path d="M942.13 353.565H945.07V354.622H937.45V353.565H940.85V342.356L937.61 344.291L937.05 343.393L941.05 340.92H942.13V353.565Z" fill="url(#paint58_linear_175_1868)"/>
<path d="M942.13 376.357H945.07V377.414H937.45V376.357H940.85V365.149L937.61 367.084L937.05 366.186L941.05 363.713H942.13V376.357Z" fill="url(#paint59_linear_175_1868)"/>
<path d="M978.07 135.586C979.497 135.586 980.577 136.191 981.31 137.4C982.057 138.597 982.43 140.339 982.43 142.626C982.43 144.913 982.057 146.661 981.31 147.871C980.577 149.081 979.497 149.686 978.07 149.686C976.657 149.686 975.577 149.081 974.83 147.871C974.084 146.661 973.71 144.913 973.71 142.626C973.71 140.352 974.084 138.61 974.83 137.4C975.577 136.191 976.657 135.586 978.07 135.586ZM975.13 142.626C975.13 144.248 975.277 145.518 975.57 146.435L980.01 137.6C979.543 136.975 978.897 136.663 978.07 136.663C977.15 136.663 976.43 137.155 975.91 138.138C975.39 139.109 975.13 140.605 975.13 142.626ZM978.07 148.589C979.003 148.589 979.73 148.104 980.25 147.133C980.77 146.149 981.03 144.647 981.03 142.626C981.03 140.911 980.863 139.581 980.53 138.637L976.09 147.552C976.57 148.243 977.23 148.589 978.07 148.589Z" fill="url(#paint60_linear_175_1868)"/>
<path d="M979.27 171.222H982.21V172.279H974.59V171.222H977.99V160.014L974.75 161.948L974.19 161.051L978.19 158.578H979.27V171.222Z" fill="url(#paint61_linear_175_1868)"/>
<path d="M978.07 181.171C979.497 181.171 980.577 181.776 981.31 182.986C982.057 184.183 982.43 185.924 982.43 188.211C982.43 190.498 982.057 192.247 981.31 193.457C980.577 194.666 979.497 195.271 978.07 195.271C976.657 195.271 975.577 194.666 974.83 193.457C974.084 192.247 973.71 190.498 973.71 188.211C973.71 185.938 974.084 184.196 974.83 182.986C975.577 181.776 976.657 181.171 978.07 181.171ZM975.13 188.211C975.13 189.833 975.277 191.103 975.57 192.021L980.01 183.186C979.543 182.561 978.897 182.248 978.07 182.248C977.15 182.248 976.43 182.74 975.91 183.724C975.39 184.695 975.13 186.19 975.13 188.211ZM978.07 194.174C979.003 194.174 979.73 193.689 980.25 192.719C980.77 191.735 981.03 190.232 981.03 188.211C981.03 186.496 980.863 185.167 980.53 184.223L976.09 193.137C976.57 193.829 977.23 194.174 978.07 194.174Z" fill="url(#paint62_linear_175_1868)"/>
<path d="M978.07 203.964C979.497 203.964 980.577 204.569 981.31 205.779C982.057 206.976 982.43 208.717 982.43 211.004C982.43 213.291 982.057 215.039 981.31 216.249C980.577 217.459 979.497 218.064 978.07 218.064C976.657 218.064 975.577 217.459 974.83 216.249C974.084 215.039 973.71 213.291 973.71 211.004C973.71 208.731 974.084 206.989 974.83 205.779C975.577 204.569 976.657 203.964 978.07 203.964ZM975.13 211.004C975.13 212.626 975.277 213.896 975.57 214.813L980.01 205.978C979.543 205.353 978.897 205.041 978.07 205.041C977.15 205.041 976.43 205.533 975.91 206.517C975.39 207.487 975.13 208.983 975.13 211.004ZM978.07 216.967C979.003 216.967 979.73 216.482 980.25 215.511C980.77 214.528 981.03 213.025 981.03 211.004C981.03 209.289 980.863 207.959 980.53 207.015L976.09 215.93C976.57 216.622 977.23 216.967 978.07 216.967Z" fill="url(#paint63_linear_175_1868)"/>
<path d="M979.27 239.601H982.21V240.658H974.59V239.601H977.99V228.392L974.75 230.327L974.19 229.429L978.19 226.956H979.27V239.601Z" fill="url(#paint64_linear_175_1868)"/>
<path d="M978.07 249.55C979.497 249.55 980.577 250.155 981.31 251.365C982.057 252.561 982.43 254.303 982.43 256.59C982.43 258.877 982.057 260.625 981.31 261.835C980.577 263.045 979.497 263.65 978.07 263.65C976.657 263.65 975.577 263.045 974.83 261.835C974.084 260.625 973.71 258.877 973.71 256.59C973.71 254.316 974.084 252.574 974.83 251.365C975.577 250.155 976.657 249.55 978.07 249.55ZM975.13 256.59C975.13 258.212 975.277 259.482 975.57 260.399L980.01 251.564C979.543 250.939 978.897 250.627 978.07 250.627C977.15 250.627 976.43 251.119 975.91 252.102C975.39 253.073 975.13 254.569 975.13 256.59ZM978.07 262.553C979.003 262.553 979.73 262.068 980.25 261.097C980.77 260.113 981.03 258.611 981.03 256.59C981.03 254.875 980.863 253.545 980.53 252.601L976.09 261.516C976.57 262.207 977.23 262.553 978.07 262.553Z" fill="url(#paint65_linear_175_1868)"/>
<path d="M979.27 285.186H982.21V286.243H974.59V285.186H977.99V273.978L974.75 275.912L974.19 275.015L978.19 272.542H979.27V285.186Z" fill="url(#paint66_linear_175_1868)"/>
<path d="M978.07 295.135C979.497 295.135 980.577 295.74 981.31 296.95C982.057 298.147 982.43 299.888 982.43 302.175C982.43 304.462 982.057 306.211 981.31 307.421C980.577 308.63 979.497 309.235 978.07 309.235C976.657 309.235 975.577 308.63 974.83 307.421C974.084 306.211 973.71 304.462 973.71 302.175C973.71 299.902 974.084 298.16 974.83 296.95C975.577 295.74 976.657 295.135 978.07 295.135ZM975.13 302.175C975.13 303.797 975.277 305.067 975.57 305.985L980.01 297.15C979.543 296.525 978.897 296.212 978.07 296.212C977.15 296.212 976.43 296.704 975.91 297.688C975.39 298.659 975.13 300.154 975.13 302.175ZM978.07 308.139C979.003 308.139 979.73 307.653 980.25 306.683C980.77 305.699 981.03 304.196 981.03 302.175C981.03 300.46 980.863 299.131 980.53 298.187L976.09 307.101C976.57 307.793 977.23 308.139 978.07 308.139Z" fill="url(#paint67_linear_175_1868)"/>
<path d="M978.07 317.928C979.497 317.928 980.577 318.533 981.31 319.743C982.057 320.94 982.43 322.681 982.43 324.968C982.43 327.255 982.057 329.003 981.31 330.213C980.577 331.423 979.497 332.028 978.07 332.028C976.657 332.028 975.577 331.423 974.83 330.213C974.084 329.003 973.71 327.255 973.71 324.968C973.71 322.695 974.084 320.953 974.83 319.743C975.577 318.533 976.657 317.928 978.07 317.928ZM975.13 324.968C975.13 326.59 975.277 327.86 975.57 328.777L980.01 319.942C979.543 319.317 978.897 319.005 978.07 319.005C977.15 319.005 976.43 319.497 975.91 320.481C975.39 321.451 975.13 322.947 975.13 324.968ZM978.07 330.931C979.003 330.931 979.73 330.446 980.25 329.475C980.77 328.492 981.03 326.989 981.03 324.968C981.03 323.253 980.863 321.923 980.53 320.979L976.09 329.894C976.57 330.586 977.23 330.931 978.07 330.931Z" fill="url(#paint68_linear_175_1868)"/>
<path d="M979.27 353.565H982.21V354.622H974.59V353.565H977.99V342.356L974.75 344.291L974.19 343.393L978.19 340.92H979.27V353.565Z" fill="url(#paint69_linear_175_1868)"/>
<path d="M978.07 363.514C979.497 363.514 980.577 364.119 981.31 365.329C982.057 366.525 982.43 368.267 982.43 370.554C982.43 372.841 982.057 374.589 981.31 375.799C980.577 377.009 979.497 377.614 978.07 377.614C976.657 377.614 975.577 377.009 974.83 375.799C974.084 374.589 973.71 372.841 973.71 370.554C973.71 368.28 974.084 366.538 974.83 365.329C975.577 364.119 976.657 363.514 978.07 363.514ZM975.13 370.554C975.13 372.176 975.277 373.446 975.57 374.363L980.01 365.528C979.543 364.903 978.897 364.591 978.07 364.591C977.15 364.591 976.43 365.083 975.91 366.066C975.39 367.037 975.13 368.533 975.13 370.554ZM978.07 376.517C979.003 376.517 979.73 376.032 980.25 375.061C980.77 374.077 981.03 372.575 981.03 370.554C981.03 368.839 980.863 367.509 980.53 366.565L976.09 375.48C976.57 376.171 977.23 376.517 978.07 376.517Z" fill="url(#paint70_linear_175_1868)"/>
<path d="M979.27 399.15H982.21V400.207H974.59V399.15H977.99V387.942L974.75 389.876L974.19 388.979L978.19 386.506H979.27V399.15Z" fill="url(#paint71_linear_175_1868)"/>
<path d="M979.27 421.943H982.21V423H974.59V421.943H977.99V410.735L974.75 412.669L974.19 411.772L978.19 409.299H979.27V421.943Z" fill="url(#paint72_linear_175_1868)"/>
<path d="M922.36 158.378C923.786 158.378 924.866 158.983 925.599 160.193C926.346 161.39 926.719 163.132 926.719 165.419C926.719 167.705 926.346 169.454 925.599 170.664C924.866 171.874 923.786 172.479 922.36 172.479C920.946 172.479 919.867 171.874 919.12 170.664C918.373 169.454 918 167.705 918 165.419C918 163.145 918.373 161.403 919.12 160.193C919.867 158.983 920.946 158.378 922.36 158.378ZM919.42 165.419C919.42 167.041 919.567 168.31 919.86 169.228L924.3 160.393C923.833 159.768 923.186 159.455 922.36 159.455C921.44 159.455 920.72 159.947 920.2 160.931C919.68 161.902 919.42 163.398 919.42 165.419ZM922.36 171.382C923.293 171.382 924.02 170.896 924.54 169.926C925.06 168.942 925.319 167.439 925.319 165.419C925.319 163.703 925.153 162.374 924.82 161.43L920.38 170.345C920.86 171.036 921.52 171.382 922.36 171.382Z" fill="url(#paint73_linear_175_1868)"/>
<path d="M922.36 181.171C923.786 181.171 924.866 181.776 925.599 182.986C926.346 184.183 926.719 185.924 926.719 188.211C926.719 190.498 926.346 192.247 925.599 193.457C924.866 194.666 923.786 195.271 922.36 195.271C920.946 195.271 919.867 194.666 919.12 193.457C918.373 192.247 918 190.498 918 188.211C918 185.938 918.373 184.196 919.12 182.986C919.867 181.776 920.946 181.171 922.36 181.171ZM919.42 188.211C919.42 189.833 919.567 191.103 919.86 192.021L924.3 183.186C923.833 182.561 923.186 182.248 922.36 182.248C921.44 182.248 920.72 182.74 920.2 183.724C919.68 184.695 919.42 186.19 919.42 188.211ZM922.36 194.174C923.293 194.174 924.02 193.689 924.54 192.719C925.06 191.735 925.319 190.232 925.319 188.211C925.319 186.496 925.153 185.167 924.82 184.223L920.38 193.137C920.86 193.829 921.52 194.174 922.36 194.174Z" fill="url(#paint74_linear_175_1868)"/>
<path d="M923.56 216.808H926.499V217.865H918.88V216.808H922.28V205.599L919.04 207.534L918.48 206.636L922.48 204.163H923.56V216.808Z" fill="url(#paint75_linear_175_1868)"/>
<path d="M922.36 226.757C923.786 226.757 924.866 227.362 925.599 228.572C926.346 229.768 926.719 231.51 926.719 233.797C926.719 236.084 926.346 237.832 925.599 239.042C924.866 240.252 923.786 240.857 922.36 240.857C920.946 240.857 919.867 240.252 919.12 239.042C918.373 237.832 918 236.084 918 233.797C918 231.523 918.373 229.782 919.12 228.572C919.867 227.362 920.946 226.757 922.36 226.757ZM919.42 233.797C919.42 235.419 919.567 236.689 919.86 237.606L924.3 228.771C923.833 228.146 923.186 227.834 922.36 227.834C921.44 227.834 920.72 228.326 920.2 229.31C919.68 230.28 919.42 231.776 919.42 233.797ZM922.36 239.76C923.293 239.76 924.02 239.275 924.54 238.304C925.06 237.32 925.319 235.818 925.319 233.797C925.319 232.082 925.153 230.752 924.82 229.808L920.38 238.723C920.86 239.414 921.52 239.76 922.36 239.76Z" fill="url(#paint76_linear_175_1868)"/>
<path d="M923.56 262.393H926.499V263.45H918.88V262.393H922.28V251.185L919.04 253.12L918.48 252.222L922.48 249.749H923.56V262.393Z" fill="url(#paint77_linear_175_1868)"/>
<path d="M923.56 285.186H926.499V286.243H918.88V285.186H922.28V273.978L919.04 275.912L918.48 275.015L922.48 272.542H923.56V285.186Z" fill="url(#paint78_linear_175_1868)"/>
<path d="M960.7 125.637H963.64V126.694H956.02V125.637H959.42V114.428L956.18 116.363L955.62 115.465L959.62 112.992H960.7V125.637Z" fill="url(#paint79_linear_175_1868)"/>
<path d="M959.5 135.586C960.927 135.586 962.006 136.191 962.74 137.4C963.486 138.597 963.86 140.339 963.86 142.626C963.86 144.913 963.486 146.661 962.74 147.871C962.006 149.081 960.927 149.686 959.5 149.686C958.087 149.686 957.007 149.081 956.26 147.871C955.514 146.661 955.14 144.913 955.14 142.626C955.14 140.352 955.514 138.61 956.26 137.4C957.007 136.191 958.087 135.586 959.5 135.586ZM956.56 142.626C956.56 144.248 956.707 145.518 957 146.435L961.44 137.6C960.973 136.975 960.327 136.663 959.5 136.663C958.58 136.663 957.86 137.155 957.34 138.138C956.82 139.109 956.56 140.605 956.56 142.626ZM959.5 148.589C960.433 148.589 961.16 148.104 961.68 147.133C962.2 146.149 962.46 144.647 962.46 142.626C962.46 140.911 962.293 139.581 961.96 138.637L957.52 147.552C958 148.243 958.66 148.589 959.5 148.589Z" fill="url(#paint80_linear_175_1868)"/>
<path d="M960.7 171.222H963.64V172.279H956.02V171.222H959.42V160.014L956.18 161.948L955.62 161.051L959.62 158.578H960.7V171.222Z" fill="url(#paint81_linear_175_1868)"/>
<path d="M960.7 194.015H963.64V195.072H956.02V194.015H959.42V182.807L956.18 184.741L955.62 183.844L959.62 181.371H960.7V194.015Z" fill="url(#paint82_linear_175_1868)"/>
<path d="M959.5 203.964C960.927 203.964 962.006 204.569 962.74 205.779C963.486 206.976 963.86 208.717 963.86 211.004C963.86 213.291 963.486 215.039 962.74 216.249C962.006 217.459 960.927 218.064 959.5 218.064C958.087 218.064 957.007 217.459 956.26 216.249C955.514 215.039 955.14 213.291 955.14 211.004C955.14 208.731 955.514 206.989 956.26 205.779C957.007 204.569 958.087 203.964 959.5 203.964ZM956.56 211.004C956.56 212.626 956.707 213.896 957 214.813L961.44 205.978C960.973 205.353 960.327 205.041 959.5 205.041C958.58 205.041 957.86 205.533 957.34 206.517C956.82 207.487 956.56 208.983 956.56 211.004ZM959.5 216.967C960.433 216.967 961.16 216.482 961.68 215.511C962.2 214.528 962.46 213.025 962.46 211.004C962.46 209.289 962.293 207.959 961.96 207.015L957.52 215.93C958 216.622 958.66 216.967 959.5 216.967Z" fill="url(#paint83_linear_175_1868)"/>
<path d="M960.7 239.601H963.64V240.658H956.02V239.601H959.42V228.392L956.18 230.327L955.62 229.429L959.62 226.956H960.7V239.601Z" fill="url(#paint84_linear_175_1868)"/>
<path d="M960.7 262.393H963.64V263.45H956.02V262.393H959.42V251.185L956.18 253.12L955.62 252.222L959.62 249.749H960.7V262.393Z" fill="url(#paint85_linear_175_1868)"/>
<path d="M959.5 272.342C960.927 272.342 962.006 272.947 962.74 274.157C963.486 275.354 963.86 277.096 963.86 279.383C963.86 281.669 963.486 283.418 962.74 284.628C962.006 285.838 960.927 286.443 959.5 286.443C958.087 286.443 957.007 285.838 956.26 284.628C955.514 283.418 955.14 281.669 955.14 279.383C955.14 277.109 955.514 275.367 956.26 274.157C957.007 272.947 958.087 272.342 959.5 272.342ZM956.56 279.383C956.56 281.005 956.707 282.274 957 283.192L961.44 274.357C960.973 273.732 960.327 273.419 959.5 273.419C958.58 273.419 957.86 273.911 957.34 274.895C956.82 275.866 956.56 277.362 956.56 279.383ZM959.5 285.346C960.433 285.346 961.16 284.86 961.68 283.89C962.2 282.906 962.46 281.404 962.46 279.383C962.46 277.667 962.293 276.338 961.96 275.394L957.52 284.309C958 285 958.66 285.346 959.5 285.346Z" fill="url(#paint86_linear_175_1868)"/>
<path d="M960.7 307.979H963.64V309.036H956.02V307.979H959.42V296.771L956.18 298.705L955.62 297.808L959.62 295.335H960.7V307.979Z" fill="url(#paint87_linear_175_1868)"/>
<path d="M959.5 317.928C960.927 317.928 962.006 318.533 962.74 319.743C963.486 320.94 963.86 322.681 963.86 324.968C963.86 327.255 963.486 329.003 962.74 330.213C962.006 331.423 960.927 332.028 959.5 332.028C958.087 332.028 957.007 331.423 956.26 330.213C955.514 329.003 955.14 327.255 955.14 324.968C955.14 322.695 955.514 320.953 956.26 319.743C957.007 318.533 958.087 317.928 959.5 317.928ZM956.56 324.968C956.56 326.59 956.707 327.86 957 328.777L961.44 319.942C960.973 319.317 960.327 319.005 959.5 319.005C958.58 319.005 957.86 319.497 957.34 320.481C956.82 321.451 956.56 322.947 956.56 324.968ZM959.5 330.931C960.433 330.931 961.16 330.446 961.68 329.475C962.2 328.492 962.46 326.989 962.46 324.968C962.46 323.253 962.293 321.923 961.96 320.979L957.52 329.894C958 330.586 958.66 330.931 959.5 330.931Z" fill="url(#paint88_linear_175_1868)"/>
<path d="M996.64 112.793C998.067 112.793 999.147 113.398 999.88 114.608C1000.63 115.804 1001 117.546 1001 119.833C1001 122.12 1000.63 123.868 999.88 125.078C999.147 126.288 998.067 126.893 996.64 126.893C995.227 126.893 994.147 126.288 993.401 125.078C992.654 123.868 992.281 122.12 992.281 119.833C992.281 117.559 992.654 115.818 993.401 114.608C994.147 113.398 995.227 112.793 996.64 112.793ZM993.701 119.833C993.701 121.455 993.847 122.725 994.14 123.642L998.58 114.807C998.114 114.182 997.467 113.87 996.64 113.87C995.72 113.87 995 114.362 994.48 115.346C993.96 116.316 993.701 117.812 993.701 119.833ZM996.64 125.796C997.574 125.796 998.3 125.311 998.82 124.34C999.34 123.356 999.6 121.854 999.6 119.833C999.6 118.118 999.433 116.788 999.1 115.844L994.66 124.759C995.14 125.45 995.8 125.796 996.64 125.796Z" fill="url(#paint89_linear_175_1868)"/>
<path d="M997.84 148.429H1000.78V149.486H993.161V148.429H996.56V137.221L993.321 139.156L992.761 138.258L996.76 135.785H997.84V148.429Z" fill="url(#paint90_linear_175_1868)"/>
<path d="M997.84 171.222H1000.78V172.279H993.161V171.222H996.56V160.014L993.321 161.948L992.761 161.051L996.76 158.578H997.84V171.222Z" fill="url(#paint91_linear_175_1868)"/>
<path d="M996.64 181.171C998.067 181.171 999.147 181.776 999.88 182.986C1000.63 184.183 1001 185.924 1001 188.211C1001 190.498 1000.63 192.247 999.88 193.457C999.147 194.666 998.067 195.271 996.64 195.271C995.227 195.271 994.147 194.666 993.401 193.457C992.654 192.247 992.281 190.498 992.281 188.211C992.281 185.938 992.654 184.196 993.401 182.986C994.147 181.776 995.227 181.171 996.64 181.171ZM993.701 188.211C993.701 189.833 993.847 191.103 994.14 192.021L998.58 183.186C998.114 182.561 997.467 182.248 996.64 182.248C995.72 182.248 995 182.74 994.48 183.724C993.96 184.695 993.701 186.19 993.701 188.211ZM996.64 194.174C997.574 194.174 998.3 193.689 998.82 192.719C999.34 191.735 999.6 190.232 999.6 188.211C999.6 186.496 999.433 185.167 999.1 184.223L994.66 193.137C995.14 193.829 995.8 194.174 996.64 194.174Z" fill="url(#paint92_linear_175_1868)"/>
<path d="M996.64 203.964C998.067 203.964 999.147 204.569 999.88 205.779C1000.63 206.976 1001 208.717 1001 211.004C1001 213.291 1000.63 215.039 999.88 216.249C999.147 217.459 998.067 218.064 996.64 218.064C995.227 218.064 994.147 217.459 993.401 216.249C992.654 215.039 992.281 213.291 992.281 211.004C992.281 208.731 992.654 206.989 993.401 205.779C994.147 204.569 995.227 203.964 996.64 203.964ZM993.701 211.004C993.701 212.626 993.847 213.896 994.14 214.813L998.58 205.978C998.114 205.353 997.467 205.041 996.64 205.041C995.72 205.041 995 205.533 994.48 206.517C993.96 207.487 993.701 208.983 993.701 211.004ZM996.64 216.967C997.574 216.967 998.3 216.482 998.82 215.511C999.34 214.528 999.6 213.025 999.6 211.004C999.6 209.289 999.433 207.959 999.1 207.015L994.66 215.93C995.14 216.622 995.8 216.967 996.64 216.967Z" fill="url(#paint93_linear_175_1868)"/>
</g>
<defs>
<filter id="filter0_f_175_1868" x="-537.19" y="-596.19" width="2141.38" height="1500.38" filterUnits="userSpaceOnUse" color-interpolation-filters="sRGB">
<feFlood flood-opacity="0" result="BackgroundImageFix"/>
<feBlend mode="normal" in="SourceGraphic" in2="BackgroundImageFix" result="shape"/>
<feGaussianBlur stdDeviation="200.095" result="effect1_foregroundBlur_175_1868"/>
</filter>
<linearGradient id="paint0_linear_175_1868" x1="73.5" y1="390" x2="73.5" y2="701.381" gradientUnits="userSpaceOnUse">
<stop stop-color="#F7DD43"/>
<stop offset="1" stop-color="#F7DD43" stop-opacity="0"/>
</linearGradient>
<linearGradient id="paint1_linear_175_1868" x1="73.5" y1="390" x2="73.5" y2="701.381" gradientUnits="userSpaceOnUse">
<stop stop-color="#F7DD43"/>
<stop offset="1" stop-color="#F7DD43" stop-opacity="0"/>
</linearGradient>
<linearGradient id="paint2_linear_175_1868" x1="73.5" y1="390" x2="73.5" y2="701.381" gradientUnits="userSpaceOnUse">
<stop stop-color="#F7DD43"/>
<stop offset="1" stop-color="#F7DD43" stop-opacity="0"/>
</linearGradient>
<linearGradient id="paint3_linear_175_1868" x1="73.5" y1="390" x2="73.5" y2="701.381" gradientUnits="userSpaceOnUse">
<stop stop-color="#F7DD43"/>
<stop offset="1" stop-color="#F7DD43" stop-opacity="0"/>
</linearGradient>
<linearGradient id="paint4_linear_175_1868" x1="73.5" y1="390" x2="73.5" y2="701.381" gradientUnits="userSpaceOnUse">
<stop stop-color="#F7DD43"/>
<stop offset="1" stop-color="#F7DD43" stop-opacity="0"/>
</linearGradient>
<linearGradient id="paint5_linear_175_1868" x1="73.5" y1="390" x2="73.5" y2="701.381" gradientUnits="userSpaceOnUse">
<stop stop-color="#F7DD43"/>
<stop offset="1" stop-color="#F7DD43" stop-opacity="0"/>
</linearGradient>
<linearGradient id="paint6_linear_175_1868" x1="73.5" y1="390" x2="73.5" y2="701.381" gradientUnits="userSpaceOnUse">
<stop stop-color="#F7DD43"/>
<stop offset="1" stop-color="#F7DD43" stop-opacity="0"/>
</linearGradient>
<linearGradient id="paint7_linear_175_1868" x1="73.5" y1="390" x2="73.5" y2="701.381" gradientUnits="userSpaceOnUse">
<stop stop-color="#F7DD43"/>
<stop offset="1" stop-color="#F7DD43" stop-opacity="0"/>
</linearGradient>
<linearGradient id="paint8_linear_175_1868" x1="73.5" y1="390" x2="73.5" y2="701.381" gradientUnits="userSpaceOnUse">
<stop stop-color="#F7DD43"/>
<stop offset="1" stop-color="#F7DD43" stop-opacity="0"/>
</linearGradient>
<linearGradient id="paint9_linear_175_1868" x1="73.5" y1="390" x2="73.5" y2="701.381" gradientUnits="userSpaceOnUse">
<stop stop-color="#F7DD43"/>
<stop offset="1" stop-color="#F7DD43" stop-opacity="0"/>
</linearGradient>
<linearGradient id="paint10_linear_175_1868" x1="73.5" y1="390" x2="73.5" y2="701.381" gradientUnits="userSpaceOnUse">
<stop stop-color="#F7DD43"/>
<stop offset="1" stop-color="#F7DD43" stop-opacity="0"/>
</linearGradient>
<linearGradient id="paint11_linear_175_1868" x1="73.5" y1="390" x2="73.5" y2="701.381" gradientUnits="userSpaceOnUse">
<stop stop-color="#F7DD43"/>
<stop offset="1" stop-color="#F7DD43" stop-opacity="0"/>
</linearGradient>
<linearGradient id="paint12_linear_175_1868" x1="73.5" y1="390" x2="73.5" y2="701.381" gradientUnits="userSpaceOnUse">
<stop stop-color="#F7DD43"/>
<stop offset="1" stop-color="#F7DD43" stop-opacity="0"/>
</linearGradient>
<linearGradient id="paint13_linear_175_1868" x1="73.5" y1="390" x2="73.5" y2="701.381" gradientUnits="userSpaceOnUse">
<stop stop-color="#F7DD43"/>
<stop offset="1" stop-color="#F7DD43" stop-opacity="0"/>
</linearGradient>
<linearGradient id="paint14_linear_175_1868" x1="73.5" y1="390" x2="73.5" y2="701.381" gradientUnits="userSpaceOnUse">
<stop stop-color="#F7DD43"/>
<stop offset="1" stop-color="#F7DD43" stop-opacity="0"/>
</linearGradient>
<linearGradient id="paint15_linear_175_1868" x1="73.5" y1="390" x2="73.5" y2="701.381" gradientUnits="userSpaceOnUse">
<stop stop-color="#F7DD43"/>
<stop offset="1" stop-color="#F7DD43" stop-opacity="0"/>
</linearGradient>
<linearGradient id="paint16_linear_175_1868" x1="73.5" y1="390" x2="73.5" y2="701.381" gradientUnits="userSpaceOnUse">
<stop stop-color="#F7DD43"/>
<stop offset="1" stop-color="#F7DD43" stop-opacity="0"/>
</linearGradient>
<linearGradient id="paint17_linear_175_1868" x1="73.5" y1="390" x2="73.5" y2="701.381" gradientUnits="userSpaceOnUse">
<stop stop-color="#F7DD43"/>
<stop offset="1" stop-color="#F7DD43" stop-opacity="0"/>
</linearGradient>
<linearGradient id="paint18_linear_175_1868" x1="73.5" y1="390" x2="73.5" y2="701.381" gradientUnits="userSpaceOnUse">
<stop stop-color="#F7DD43"/>
<stop offset="1" stop-color="#F7DD43" stop-opacity="0"/>
</linearGradient>
<linearGradient id="paint19_linear_175_1868" x1="73.5" y1="390" x2="73.5" y2="701.381" gradientUnits="userSpaceOnUse">
<stop stop-color="#F7DD43"/>
<stop offset="1" stop-color="#F7DD43" stop-opacity="0"/>
</linearGradient>
<linearGradient id="paint20_linear_175_1868" x1="73.5" y1="390" x2="73.5" y2="701.381" gradientUnits="userSpaceOnUse">
<stop stop-color="#F7DD43"/>
<stop offset="1" stop-color="#F7DD43" stop-opacity="0"/>
</linearGradient>
<linearGradient id="paint21_linear_175_1868" x1="73.5" y1="390" x2="73.5" y2="701.381" gradientUnits="userSpaceOnUse">
<stop stop-color="#F7DD43"/>
<stop offset="1" stop-color="#F7DD43" stop-opacity="0"/>
</linearGradient>
<linearGradient id="paint22_linear_175_1868" x1="73.5" y1="390" x2="73.5" y2="701.381" gradientUnits="userSpaceOnUse">
<stop stop-color="#F7DD43"/>
<stop offset="1" stop-color="#F7DD43" stop-opacity="0"/>
</linearGradient>
<linearGradient id="paint23_linear_175_1868" x1="73.5" y1="390" x2="73.5" y2="701.381" gradientUnits="userSpaceOnUse">
<stop stop-color="#F7DD43"/>
<stop offset="1" stop-color="#F7DD43" stop-opacity="0"/>
</linearGradient>
<linearGradient id="paint24_linear_175_1868" x1="73.5" y1="390" x2="73.5" y2="701.381" gradientUnits="userSpaceOnUse">
<stop stop-color="#F7DD43"/>
<stop offset="1" stop-color="#F7DD43" stop-opacity="0"/>
</linearGradient>
<linearGradient id="paint25_linear_175_1868" x1="73.5" y1="390" x2="73.5" y2="701.381" gradientUnits="userSpaceOnUse">
<stop stop-color="#F7DD43"/>
<stop offset="1" stop-color="#F7DD43" stop-opacity="0"/>
</linearGradient>
<linearGradient id="paint26_linear_175_1868" x1="73.5" y1="390" x2="73.5" y2="701.381" gradientUnits="userSpaceOnUse">
<stop stop-color="#F7DD43"/>
<stop offset="1" stop-color="#F7DD43" stop-opacity="0"/>
</linearGradient>
<linearGradient id="paint27_linear_175_1868" x1="73.5" y1="390" x2="73.5" y2="701.381" gradientUnits="userSpaceOnUse">
<stop stop-color="#F7DD43"/>
<stop offset="1" stop-color="#F7DD43" stop-opacity="0"/>
</linearGradient>
<linearGradient id="paint28_linear_175_1868" x1="73.5" y1="390" x2="73.5" y2="701.381" gradientUnits="userSpaceOnUse">
<stop stop-color="#F7DD43"/>
<stop offset="1" stop-color="#F7DD43" stop-opacity="0"/>
</linearGradient>
<linearGradient id="paint29_linear_175_1868" x1="73.5" y1="390" x2="73.5" y2="701.381" gradientUnits="userSpaceOnUse">
<stop stop-color="#F7DD43"/>
<stop offset="1" stop-color="#F7DD43" stop-opacity="0"/>
</linearGradient>
<linearGradient id="paint30_linear_175_1868" x1="73.5" y1="390" x2="73.5" y2="701.381" gradientUnits="userSpaceOnUse">
<stop stop-color="#F7DD43"/>
<stop offset="1" stop-color="#F7DD43" stop-opacity="0"/>
</linearGradient>
<linearGradient id="paint31_linear_175_1868" x1="73.5" y1="390" x2="73.5" y2="701.381" gradientUnits="userSpaceOnUse">
<stop stop-color="#F7DD43"/>
<stop offset="1" stop-color="#F7DD43" stop-opacity="0"/>
</linearGradient>
<linearGradient id="paint32_linear_175_1868" x1="73.5" y1="390" x2="73.5" y2="701.381" gradientUnits="userSpaceOnUse">
<stop stop-color="#F7DD43"/>
<stop offset="1" stop-color="#F7DD43" stop-opacity="0"/>
</linearGradient>
<linearGradient id="paint33_linear_175_1868" x1="73.5" y1="390" x2="73.5" y2="701.381" gradientUnits="userSpaceOnUse">
<stop stop-color="#F7DD43"/>
<stop offset="1" stop-color="#F7DD43" stop-opacity="0"/>
</linearGradient>
<linearGradient id="paint34_linear_175_1868" x1="73.5" y1="390" x2="73.5" y2="701.381" gradientUnits="userSpaceOnUse">
<stop stop-color="#F7DD43"/>
<stop offset="1" stop-color="#F7DD43" stop-opacity="0"/>
</linearGradient>
<linearGradient id="paint35_linear_175_1868" x1="73.5" y1="390" x2="73.5" y2="701.381" gradientUnits="userSpaceOnUse">
<stop stop-color="#F7DD43"/>
<stop offset="1" stop-color="#F7DD43" stop-opacity="0"/>
</linearGradient>
<linearGradient id="paint36_linear_175_1868" x1="73.5" y1="390" x2="73.5" y2="701.381" gradientUnits="userSpaceOnUse">
<stop stop-color="#F7DD43"/>
<stop offset="1" stop-color="#F7DD43" stop-opacity="0"/>
</linearGradient>
<linearGradient id="paint37_linear_175_1868" x1="73.5" y1="390" x2="73.5" y2="701.381" gradientUnits="userSpaceOnUse">
<stop stop-color="#F7DD43"/>
<stop offset="1" stop-color="#F7DD43" stop-opacity="0"/>
</linearGradient>
<linearGradient id="paint38_linear_175_1868" x1="73.5" y1="390" x2="73.5" y2="701.381" gradientUnits="userSpaceOnUse">
<stop stop-color="#F7DD43"/>
<stop offset="1" stop-color="#F7DD43" stop-opacity="0"/>
</linearGradient>
<linearGradient id="paint39_linear_175_1868" x1="73.5" y1="390" x2="73.5" y2="701.381" gradientUnits="userSpaceOnUse">
<stop stop-color="#F7DD43"/>
<stop offset="1" stop-color="#F7DD43" stop-opacity="0"/>
</linearGradient>
<linearGradient id="paint40_linear_175_1868" x1="73.5" y1="390" x2="73.5" y2="701.381" gradientUnits="userSpaceOnUse">
<stop stop-color="#F7DD43"/>
<stop offset="1" stop-color="#F7DD43" stop-opacity="0"/>
</linearGradient>
<linearGradient id="paint41_linear_175_1868" x1="73.5" y1="390" x2="73.5" y2="701.381" gradientUnits="userSpaceOnUse">
<stop stop-color="#F7DD43"/>
<stop offset="1" stop-color="#F7DD43" stop-opacity="0"/>
</linearGradient>
<linearGradient id="paint42_linear_175_1868" x1="73.5" y1="390" x2="73.5" y2="701.381" gradientUnits="userSpaceOnUse">
<stop stop-color="#F7DD43"/>
<stop offset="1" stop-color="#F7DD43" stop-opacity="0"/>
</linearGradient>
<linearGradient id="paint43_linear_175_1868" x1="73.5" y1="390" x2="73.5" y2="701.381" gradientUnits="userSpaceOnUse">
<stop stop-color="#F7DD43"/>
<stop offset="1" stop-color="#F7DD43" stop-opacity="0"/>
</linearGradient>
<linearGradient id="paint44_linear_175_1868" x1="73.5" y1="390" x2="73.5" y2="701.381" gradientUnits="userSpaceOnUse">
<stop stop-color="#F7DD43"/>
<stop offset="1" stop-color="#F7DD43" stop-opacity="0"/>
</linearGradient>
<linearGradient id="paint45_linear_175_1868" x1="73.5" y1="390" x2="73.5" y2="701.381" gradientUnits="userSpaceOnUse">
<stop stop-color="#F7DD43"/>
<stop offset="1" stop-color="#F7DD43" stop-opacity="0"/>
</linearGradient>
<linearGradient id="paint46_linear_175_1868" x1="73.5" y1="390" x2="73.5" y2="701.381" gradientUnits="userSpaceOnUse">
<stop stop-color="#F7DD43"/>
<stop offset="1" stop-color="#F7DD43" stop-opacity="0"/>
</linearGradient>
<linearGradient id="paint47_linear_175_1868" x1="959.5" y1="90" x2="959.5" y2="388.818" gradientUnits="userSpaceOnUse">
<stop stop-color="#F7DD43"/>
<stop offset="1" stop-color="#F7DD43" stop-opacity="0"/>
</linearGradient>
<linearGradient id="paint48_linear_175_1868" x1="959.5" y1="90" x2="959.5" y2="388.818" gradientUnits="userSpaceOnUse">
<stop stop-color="#F7DD43"/>
<stop offset="1" stop-color="#F7DD43" stop-opacity="0"/>
</linearGradient>
<linearGradient id="paint49_linear_175_1868" x1="959.5" y1="90" x2="959.5" y2="388.818" gradientUnits="userSpaceOnUse">
<stop stop-color="#F7DD43"/>
<stop offset="1" stop-color="#F7DD43" stop-opacity="0"/>
</linearGradient>
<linearGradient id="paint50_linear_175_1868" x1="959.5" y1="90" x2="959.5" y2="388.818" gradientUnits="userSpaceOnUse">
<stop stop-color="#F7DD43"/>
<stop offset="1" stop-color="#F7DD43" stop-opacity="0"/>
</linearGradient>
<linearGradient id="paint51_linear_175_1868" x1="959.5" y1="90" x2="959.5" y2="388.818" gradientUnits="userSpaceOnUse">
<stop stop-color="#F7DD43"/>
<stop offset="1" stop-color="#F7DD43" stop-opacity="0"/>
</linearGradient>
<linearGradient id="paint52_linear_175_1868" x1="959.5" y1="90" x2="959.5" y2="388.818" gradientUnits="userSpaceOnUse">
<stop stop-color="#F7DD43"/>
<stop offset="1" stop-color="#F7DD43" stop-opacity="0"/>
</linearGradient>
<linearGradient id="paint53_linear_175_1868" x1="959.5" y1="90" x2="959.5" y2="388.818" gradientUnits="userSpaceOnUse">
<stop stop-color="#F7DD43"/>
<stop offset="1" stop-color="#F7DD43" stop-opacity="0"/>
</linearGradient>
<linearGradient id="paint54_linear_175_1868" x1="959.5" y1="90" x2="959.5" y2="388.818" gradientUnits="userSpaceOnUse">
<stop stop-color="#F7DD43"/>
<stop offset="1" stop-color="#F7DD43" stop-opacity="0"/>
</linearGradient>
<linearGradient id="paint55_linear_175_1868" x1="959.5" y1="90" x2="959.5" y2="388.818" gradientUnits="userSpaceOnUse">
<stop stop-color="#F7DD43"/>
<stop offset="1" stop-color="#F7DD43" stop-opacity="0"/>
</linearGradient>
<linearGradient id="paint56_linear_175_1868" x1="959.5" y1="90" x2="959.5" y2="388.818" gradientUnits="userSpaceOnUse">
<stop stop-color="#F7DD43"/>
<stop offset="1" stop-color="#F7DD43" stop-opacity="0"/>
</linearGradient>
<linearGradient id="paint57_linear_175_1868" x1="959.5" y1="90" x2="959.5" y2="388.818" gradientUnits="userSpaceOnUse">
<stop stop-color="#F7DD43"/>
<stop offset="1" stop-color="#F7DD43" stop-opacity="0"/>
</linearGradient>
<linearGradient id="paint58_linear_175_1868" x1="959.5" y1="90" x2="959.5" y2="388.818" gradientUnits="userSpaceOnUse">
<stop stop-color="#F7DD43"/>
<stop offset="1" stop-color="#F7DD43" stop-opacity="0"/>
</linearGradient>
<linearGradient id="paint59_linear_175_1868" x1="959.5" y1="90" x2="959.5" y2="388.818" gradientUnits="userSpaceOnUse">
<stop stop-color="#F7DD43"/>
<stop offset="1" stop-color="#F7DD43" stop-opacity="0"/>
</linearGradient>
<linearGradient id="paint60_linear_175_1868" x1="959.5" y1="90" x2="959.5" y2="388.818" gradientUnits="userSpaceOnUse">
<stop stop-color="#F7DD43"/>
<stop offset="1" stop-color="#F7DD43" stop-opacity="0"/>
</linearGradient>
<linearGradient id="paint61_linear_175_1868" x1="959.5" y1="90" x2="959.5" y2="388.818" gradientUnits="userSpaceOnUse">
<stop stop-color="#F7DD43"/>
<stop offset="1" stop-color="#F7DD43" stop-opacity="0"/>
</linearGradient>
<linearGradient id="paint62_linear_175_1868" x1="959.5" y1="90" x2="959.5" y2="388.818" gradientUnits="userSpaceOnUse">
<stop stop-color="#F7DD43"/>
<stop offset="1" stop-color="#F7DD43" stop-opacity="0"/>
</linearGradient>
<linearGradient id="paint63_linear_175_1868" x1="959.5" y1="90" x2="959.5" y2="388.818" gradientUnits="userSpaceOnUse">
<stop stop-color="#F7DD43"/>
<stop offset="1" stop-color="#F7DD43" stop-opacity="0"/>
</linearGradient>
<linearGradient id="paint64_linear_175_1868" x1="959.5" y1="90" x2="959.5" y2="388.818" gradientUnits="userSpaceOnUse">
<stop stop-color="#F7DD43"/>
<stop offset="1" stop-color="#F7DD43" stop-opacity="0"/>
</linearGradient>
<linearGradient id="paint65_linear_175_1868" x1="959.5" y1="90" x2="959.5" y2="388.818" gradientUnits="userSpaceOnUse">
<stop stop-color="#F7DD43"/>
<stop offset="1" stop-color="#F7DD43" stop-opacity="0"/>
</linearGradient>
<linearGradient id="paint66_linear_175_1868" x1="959.5" y1="90" x2="959.5" y2="388.818" gradientUnits="userSpaceOnUse">
<stop stop-color="#F7DD43"/>
<stop offset="1" stop-color="#F7DD43" stop-opacity="0"/>
</linearGradient>
<linearGradient id="paint67_linear_175_1868" x1="959.5" y1="90" x2="959.5" y2="388.818" gradientUnits="userSpaceOnUse">
<stop stop-color="#F7DD43"/>
<stop offset="1" stop-color="#F7DD43" stop-opacity="0"/>
</linearGradient>
<linearGradient id="paint68_linear_175_1868" x1="959.5" y1="90" x2="959.5" y2="388.818" gradientUnits="userSpaceOnUse">
<stop stop-color="#F7DD43"/>
<stop offset="1" stop-color="#F7DD43" stop-opacity="0"/>
</linearGradient>
<linearGradient id="paint69_linear_175_1868" x1="959.5" y1="90" x2="959.5" y2="388.818" gradientUnits="userSpaceOnUse">
<stop stop-color="#F7DD43"/>
<stop offset="1" stop-color="#F7DD43" stop-opacity="0"/>
</linearGradient>
<linearGradient id="paint70_linear_175_1868" x1="959.5" y1="90" x2="959.5" y2="388.818" gradientUnits="userSpaceOnUse">
<stop stop-color="#F7DD43"/>
<stop offset="1" stop-color="#F7DD43" stop-opacity="0"/>
</linearGradient>
<linearGradient id="paint71_linear_175_1868" x1="959.5" y1="90" x2="959.5" y2="388.818" gradientUnits="userSpaceOnUse">
<stop stop-color="#F7DD43"/>
<stop offset="1" stop-color="#F7DD43" stop-opacity="0"/>
</linearGradient>
<linearGradient id="paint72_linear_175_1868" x1="959.5" y1="90" x2="959.5" y2="388.818" gradientUnits="userSpaceOnUse">
<stop stop-color="#F7DD43"/>
<stop offset="1" stop-color="#F7DD43" stop-opacity="0"/>
</linearGradient>
<linearGradient id="paint73_linear_175_1868" x1="959.5" y1="90" x2="959.5" y2="388.818" gradientUnits="userSpaceOnUse">
<stop stop-color="#F7DD43"/>
<stop offset="1" stop-color="#F7DD43" stop-opacity="0"/>
</linearGradient>
<linearGradient id="paint74_linear_175_1868" x1="959.5" y1="90" x2="959.5" y2="388.818" gradientUnits="userSpaceOnUse">
<stop stop-color="#F7DD43"/>
<stop offset="1" stop-color="#F7DD43" stop-opacity="0"/>
</linearGradient>
<linearGradient id="paint75_linear_175_1868" x1="959.5" y1="90" x2="959.5" y2="388.818" gradientUnits="userSpaceOnUse">
<stop stop-color="#F7DD43"/>
<stop offset="1" stop-color="#F7DD43" stop-opacity="0"/>
</linearGradient>
<linearGradient id="paint76_linear_175_1868" x1="959.5" y1="90" x2="959.5" y2="388.818" gradientUnits="userSpaceOnUse">
<stop stop-color="#F7DD43"/>
<stop offset="1" stop-color="#F7DD43" stop-opacity="0"/>
</linearGradient>
<linearGradient id="paint77_linear_175_1868" x1="959.5" y1="90" x2="959.5" y2="388.818" gradientUnits="userSpaceOnUse">
<stop stop-color="#F7DD43"/>
<stop offset="1" stop-color="#F7DD43" stop-opacity="0"/>
</linearGradient>
<linearGradient id="paint78_linear_175_1868" x1="959.5" y1="90" x2="959.5" y2="388.818" gradientUnits="userSpaceOnUse">
<stop stop-color="#F7DD43"/>
<stop offset="1" stop-color="#F7DD43" stop-opacity="0"/>
</linearGradient>
<linearGradient id="paint79_linear_175_1868" x1="959.5" y1="90" x2="959.5" y2="388.818" gradientUnits="userSpaceOnUse">
<stop stop-color="#F7DD43"/>
<stop offset="1" stop-color="#F7DD43" stop-opacity="0"/>
</linearGradient>
<linearGradient id="paint80_linear_175_1868" x1="959.5" y1="90" x2="959.5" y2="388.818" gradientUnits="userSpaceOnUse">
<stop stop-color="#F7DD43"/>
<stop offset="1" stop-color="#F7DD43" stop-opacity="0"/>
</linearGradient>
<linearGradient id="paint81_linear_175_1868" x1="959.5" y1="90" x2="959.5" y2="388.818" gradientUnits="userSpaceOnUse">
<stop stop-color="#F7DD43"/>
<stop offset="1" stop-color="#F7DD43" stop-opacity="0"/>
</linearGradient>
<linearGradient id="paint82_linear_175_1868" x1="959.5" y1="90" x2="959.5" y2="388.818" gradientUnits="userSpaceOnUse">
<stop stop-color="#F7DD43"/>
<stop offset="1" stop-color="#F7DD43" stop-opacity="0"/>
</linearGradient>
<linearGradient id="paint83_linear_175_1868" x1="959.5" y1="90" x2="959.5" y2="388.818" gradientUnits="userSpaceOnUse">
<stop stop-color="#F7DD43"/>
<stop offset="1" stop-color="#F7DD43" stop-opacity="0"/>
</linearGradient>
<linearGradient id="paint84_linear_175_1868" x1="959.5" y1="90" x2="959.5" y2="388.818" gradientUnits="userSpaceOnUse">
<stop stop-color="#F7DD43"/>
<stop offset="1" stop-color="#F7DD43" stop-opacity="0"/>
</linearGradient>
<linearGradient id="paint85_linear_175_1868" x1="959.5" y1="90" x2="959.5" y2="388.818" gradientUnits="userSpaceOnUse">
<stop stop-color="#F7DD43"/>
<stop offset="1" stop-color="#F7DD43" stop-opacity="0"/>
</linearGradient>
<linearGradient id="paint86_linear_175_1868" x1="959.5" y1="90" x2="959.5" y2="388.818" gradientUnits="userSpaceOnUse">
<stop stop-color="#F7DD43"/>
<stop offset="1" stop-color="#F7DD43" stop-opacity="0"/>
</linearGradient>
<linearGradient id="paint87_linear_175_1868" x1="959.5" y1="90" x2="959.5" y2="388.818" gradientUnits="userSpaceOnUse">
<stop stop-color="#F7DD43"/>
<stop offset="1" stop-color="#F7DD43" stop-opacity="0"/>
</linearGradient>
<linearGradient id="paint88_linear_175_1868" x1="959.5" y1="90" x2="959.5" y2="388.818" gradientUnits="userSpaceOnUse">
<stop stop-color="#F7DD43"/>
<stop offset="1" stop-color="#F7DD43" stop-opacity="0"/>
</linearGradient>
<linearGradient id="paint89_linear_175_1868" x1="959.5" y1="90" x2="959.5" y2="388.818" gradientUnits="userSpaceOnUse">
<stop stop-color="#F7DD43"/>
<stop offset="1" stop-color="#F7DD43" stop-opacity="0"/>
</linearGradient>
<linearGradient id="paint90_linear_175_1868" x1="959.5" y1="90" x2="959.5" y2="388.818" gradientUnits="userSpaceOnUse">
<stop stop-color="#F7DD43"/>
<stop offset="1" stop-color="#F7DD43" stop-opacity="0"/>
</linearGradient>
<linearGradient id="paint91_linear_175_1868" x1="959.5" y1="90" x2="959.5" y2="388.818" gradientUnits="userSpaceOnUse">
<stop stop-color="#F7DD43"/>
<stop offset="1" stop-color="#F7DD43" stop-opacity="0"/>
</linearGradient>
<linearGradient id="paint92_linear_175_1868" x1="959.5" y1="90" x2="959.5" y2="388.818" gradientUnits="userSpaceOnUse">
<stop stop-color="#F7DD43"/>
<stop offset="1" stop-color="#F7DD43" stop-opacity="0"/>
</linearGradient>
<linearGradient id="paint93_linear_175_1868" x1="959.5" y1="90" x2="959.5" y2="388.818" gradientUnits="userSpaceOnUse">
<stop stop-color="#F7DD43"/>
<stop offset="1" stop-color="#F7DD43" stop-opacity="0"/>
</linearGradient>
</defs>
</svg>
