<svg width="47" height="44" viewBox="0 0 47 44" fill="none" xmlns="http://www.w3.org/2000/svg">
<g clip-path="url(#clip0_105_992)">
<path d="M40.117 37.5565C30.9397 46.148 16.0604 46.148 6.88298 37.5565C-2.29433 28.965 -2.29433 15.0353 6.88298 6.44372C6.88628 6.44372 28.0016 0.602811 37.179 9.19433C46.3564 17.7858 40.1234 37.5505 40.117 37.5565Z" fill="#FFDA44"/>
<path d="M40.1169 37.5565C49.2942 28.965 49.2942 15.0353 40.1169 6.44367C30.9396 -2.14793 16.0602 -2.14785 6.88281 6.44367L40.1169 37.5565Z" fill="#D80027"/>
<path d="M29.6427 27.7525C28.6773 28.1074 27.5557 28.0698 26.5825 27.5586C24.8632 26.6552 24.2494 24.6104 25.2147 23.0005L24.9216 22.8467C27.8657 22.1821 30.0437 19.6805 30.0055 16.7284C29.9818 14.893 29.1058 13.251 27.7356 12.1274L25.59 14.1853C26.4011 14.7905 26.927 15.7188 26.9405 16.7632C26.9644 18.6091 25.3798 20.1291 23.4081 20.1513L23.4122 20.4656C21.3254 18.4112 17.9223 17.8962 15.2105 19.4032C13.5246 20.3402 12.4438 21.8713 12.0894 23.5441L15.0658 24.2548C15.2201 23.2945 15.8158 22.404 16.7751 21.8708C18.4707 20.9285 20.6691 21.4534 21.6756 23.0406L21.9646 22.8802C21.1074 25.5991 22.3324 28.6158 25.0826 30.0609C26.7924 30.9593 28.7491 31.07 30.4738 30.521L29.6427 27.7525ZM23.4328 22.064L23.4326 22.0641L23.4328 22.064Z" fill="#FF9811"/>
<path d="M32.2011 14.8999L30.5401 20.449L25.5565 19.5875L22.3485 13.397L13.6823 16.276L12.9988 14.473L10.7314 14.2115L12.4399 18.7188L18.4038 17.2909L20.0987 21.7621L15.9759 27.4582L22.9724 33.0446L21.6462 34.5001L22.538 36.4694L25.8535 32.8305L21.5506 28.7091L24.8394 25.0995L32.1701 25.594L33.8398 17.1283L35.8494 17.4757L37.2253 15.7682L32.2011 14.8999ZM23.4983 22.1497V22.1499V22.1497Z" fill="#FFEACF"/>
</g>
<defs>
<clipPath id="clip0_105_992">
<rect width="47" height="44" fill="white"/>
</clipPath>
</defs>
</svg>
