<svg width="46" height="44" viewBox="0 0 46 44" fill="none" xmlns="http://www.w3.org/2000/svg">
<g clip-path="url(#clip0_105_997)">
<path d="M46 21.9998C46 19.3088 45.494 16.7309 44.5694 14.3477L23 13.3911L1.43058 14.3476C0.506 16.7309 0 19.3088 0 21.9998C0 24.6909 0.506 27.2687 1.43058 29.6519L23 30.6085L44.5694 29.652C45.494 27.2687 46 24.6909 46 21.9998Z" fill="#FFDA44"/>
<path d="M23.0001 44.0002C32.8893 44.0002 41.3198 38.03 44.5695 29.6523H1.43066C4.6804 38.03 13.1109 44.0002 23.0001 44.0002Z" fill="#6DA544"/>
<path d="M1.43066 14.3479H44.5696C41.3198 5.97025 32.8893 0 23.0001 0C13.1109 0 4.6804 5.97025 1.43066 14.3479V14.3479Z" fill="#D80027"/>
</g>
<defs>
<clipPath id="clip0_105_997">
<rect width="46" height="44" fill="white"/>
</clipPath>
</defs>
</svg>
