<svg width="47" height="44" viewBox="0 0 47 44" fill="none" xmlns="http://www.w3.org/2000/svg">
<g clip-path="url(#clip0_105_1001)">
<path d="M23.5 44C36.4787 44 47 34.1503 47 22C47 9.84974 36.4787 0 23.5 0C10.5213 0 0 9.84974 0 22C0 34.1503 10.5213 44 23.5 44Z" fill="#F0F0F0"/>
<path d="M6.88326 6.4439C1.84683 11.1589 -0.424872 17.4816 0.066517 23.6473L25.2595 0.0623545C18.6735 -0.397755 11.9197 1.72894 6.88326 6.4439V6.4439Z" fill="#FFDA44"/>
<path d="M8.39111 38.8498C17.6241 46.122 31.4266 45.6919 40.117 37.5562C48.8074 29.4206 49.2669 16.4991 41.4988 7.85547L8.39111 38.8498Z" fill="#0052B4"/>
<path d="M23.4164 21.1138L25.4416 20.0869L23.4164 19.0599C22.9436 16.1844 20.5167 13.9123 17.445 13.4697L16.348 11.5737L15.251 13.4696C12.1795 13.9122 9.75255 16.1843 9.27962 19.0598L7.25439 20.0869L9.27953 21.1138C9.75237 23.9894 12.1793 26.2615 15.2509 26.7041L16.348 28.6L17.4449 26.7041C20.5167 26.2615 22.9436 23.9894 23.4164 21.1138V21.1138ZM16.3481 23.913C14.0909 23.913 12.2611 22.2001 12.2611 20.0869C12.2611 17.9737 14.0908 16.2608 16.3481 16.2608C18.6054 16.2608 20.435 17.9737 20.435 20.0869C20.435 22.2001 18.6053 23.913 16.3481 23.913Z" fill="black"/>
<path d="M16.3479 17.2173L17.2327 18.652H19.0024L18.1175 20.0868L19.0024 21.5216H17.2327L16.3479 22.9564L15.463 21.5216H13.6934L14.5782 20.0868L13.6934 18.652H15.463L16.3479 17.2173Z" fill="#D80027"/>
</g>
<defs>
<clipPath id="clip0_105_1001">
<rect width="47" height="44" fill="white"/>
</clipPath>
</defs>
</svg>
