<svg width="47" height="44" viewBox="0 0 47 44" fill="none" xmlns="http://www.w3.org/2000/svg">
<g clip-path="url(#clip0_105_1007)">
<path d="M23.5 44C36.4787 44 47 34.1503 47 22C47 9.84974 36.4787 0 23.5 0C10.5213 0 0 9.84974 0 22C0 34.1503 10.5213 44 23.5 44Z" fill="#F0F0F0"/>
<path d="M23.4999 0C15.1675 0 7.8485 4.05994 3.67578 10.1818L35.5439 40.8933C42.4051 37.0517 46.9999 30.0285 46.9999 22C46.9999 9.84981 36.4785 0 23.4999 0Z" fill="#FFDA44"/>
<path d="M47.0001 22.0002C47.0001 16.292 44.6778 11.0921 40.8696 7.18213V36.8183C44.6778 32.9082 47.0001 27.7083 47.0001 22.0002Z" fill="#0052B4"/>
<path d="M29.3556 41.411L31.8172 41.4096L32.5765 39.2174L33.3386 41.4087L34.5733 41.408C35.3303 41.0286 36.0626 40.6116 36.7672 40.1594L4.10231 9.57959C3.56401 10.3149 3.07308 11.0826 2.63163 11.8784L2.92189 12.713L5.38343 12.7116L3.3929 14.0672L4.155 16.2586L2.16264 14.9052L0.974332 15.7144C0.340842 17.7061 0 19.8158 0 22.0001C0 34.1502 10.5214 44.0001 23.5 44.0001C26.244 44.0001 28.8777 43.559 31.3257 42.7495L29.3556 41.411ZM5.24151 21.0436L6.00067 18.8515L4.00849 17.498L6.47003 17.4965L7.22928 15.3043L7.99138 17.4956L10.4529 17.4942L8.46229 18.8498L9.22439 21.0412L7.23203 19.6878L5.24151 21.0436ZM10.311 25.8262L11.0702 23.6341L9.07798 22.2806L11.5395 22.2791L12.2988 20.0869L13.0609 22.2782L15.5224 22.2768L13.5319 23.6324L14.294 25.8238L12.3016 24.4704L10.311 25.8262ZM15.3804 30.6088L16.1395 28.4167L14.1474 27.0631L16.6089 27.0617L17.3682 24.8695L18.1302 27.0608L20.5918 27.0594L18.6013 28.415L19.3634 30.6063L17.371 29.2528L15.3804 30.6088ZM22.4404 34.0357L20.4498 35.3913L21.2089 33.1993L19.2168 31.8457L21.6783 31.8443L22.4376 29.6521L23.1997 31.8434L25.6613 31.842L23.6707 33.1976L24.4328 35.3889L22.4404 34.0357ZM25.5193 40.1739L26.2784 37.9818L24.2862 36.6283L26.7478 36.6269L27.507 34.4347L28.2691 36.626L30.7307 36.6246L28.7401 37.9802L29.5022 40.1715L27.5099 38.818L25.5193 40.1739Z" fill="#0052B4"/>
</g>
<defs>
<clipPath id="clip0_105_1007">
<rect width="47" height="44" fill="white"/>
</clipPath>
</defs>
</svg>
