<svg width="47" height="44" viewBox="0 0 47 44" fill="none" xmlns="http://www.w3.org/2000/svg">
<g clip-path="url(#clip0_105_1013)">
<path d="M1.10964 15.3041C0.38977 17.4155 -9.17807e-05 19.6648 1.62072e-08 21.9998C-9.17807e-05 24.3346 0.38977 26.584 1.10973 28.6954L23.5 29.6521L45.8902 28.6954C46.61 26.584 46.9999 24.3345 46.9999 21.9999C46.9999 19.665 46.61 17.4155 45.8902 15.3041L23.4999 14.3477L1.10964 15.3041Z" fill="#F0F0F0"/>
<path d="M47 22C47 20.6949 46.8779 19.4165 46.645 18.1738H0.35507C0.12209 19.4165 0 20.6947 0 21.9999C0 23.3052 0.122182 24.5834 0.35507 25.826H46.645C46.8778 24.5833 47 23.3051 47 22Z" fill="black"/>
<path d="M23.5001 43.9997C33.9848 43.9997 42.8643 37.5714 45.8903 28.6953H1.10986C4.13595 37.5713 13.0156 43.9996 23.5001 43.9997V43.9997Z" fill="#338AF3"/>
<path d="M23.5002 3.44638e-09C13.0156 3.44638e-09 4.13613 6.42838 1.10986 15.3042L45.8902 15.3043C42.8643 6.42838 33.9847 -0.000171872 23.5002 3.44638e-09V3.44638e-09Z" fill="#338AF3"/>
</g>
<defs>
<clipPath id="clip0_105_1013">
<rect width="47" height="44" fill="white"/>
</clipPath>
</defs>
</svg>
