<svg width="47" height="44" viewBox="0 0 47 44" fill="none" xmlns="http://www.w3.org/2000/svg">
<g clip-path="url(#clip0_105_1019)">
<path d="M23.5 44C36.4787 44 47 34.1503 47 22C47 9.84974 36.4787 0 23.5 0C10.5213 0 0 9.84974 0 22C0 34.1503 10.5213 44 23.5 44Z" fill="#6DA544"/>
<path d="M23.4999 8.60889L42.913 22.0002L23.4999 35.3915L4.08691 22.0002L23.4999 8.60889Z" fill="#FFDA44"/>
<path d="M23.5 29.6519C28.0143 29.6519 31.6739 26.2259 31.6739 21.9998C31.6739 17.7736 28.0143 14.3477 23.5 14.3477C18.9857 14.3477 15.3262 17.7736 15.3262 21.9998C15.3262 26.2259 18.9857 29.6519 23.5 29.6519Z" fill="#F0F0F0"/>
<path d="M19.4129 21.5215C17.9915 21.5215 16.6198 21.7239 15.3286 22.0994C15.3858 26.2794 19.0213 29.6519 23.4999 29.6519C26.2692 29.6519 28.7151 28.3614 30.1936 26.3891C27.664 23.4245 23.7717 21.5215 19.4129 21.5215V21.5215Z" fill="#0052B4"/>
<path d="M31.5225 23.4659C31.6209 22.9912 31.674 22.5014 31.674 21.9998C31.674 17.7736 28.0144 14.3477 23.5001 14.3477C20.1317 14.3477 17.2401 16.2556 15.9888 18.9796C17.0949 18.765 18.2402 18.652 19.4133 18.652C24.1607 18.6519 28.4555 20.4994 31.5225 23.4659V23.4659Z" fill="#0052B4"/>
</g>
<defs>
<clipPath id="clip0_105_1019">
<rect width="47" height="44" fill="white"/>
</clipPath>
</defs>
</svg>
