<svg width="47" height="44" viewBox="0 0 47 44" fill="none" xmlns="http://www.w3.org/2000/svg">
<g clip-path="url(#clip0_105_1026)">
<path d="M0 22C0 9.84981 10.5214 0 23.5 0C36.4786 0 47 9.84981 47 22H0Z" fill="#F0F0F0"/>
<path d="M17.3697 20.7974L16.085 22.0001H17.3697V20.7974Z" fill="#0052B4"/>
<path d="M29.6304 20.7974V22H30.915L29.6304 20.7974Z" fill="#0052B4"/>
<path d="M0.678012 16.7393C0.23601 18.425 0 20.1866 0 22H7.41508L13.0345 16.7393H0.678012Z" fill="#0052B4"/>
<path d="M33.9653 16.7393L39.5848 22H47C47 20.1866 46.7639 18.425 46.322 16.7393H33.9653Z" fill="#0052B4"/>
<path d="M32.5202 16.7393H29.6304L35.2498 22H38.1398L32.5202 16.7393Z" fill="#D80027"/>
<path d="M17.3696 19.4445V16.7393H17.3694L11.75 22H14.6399L17.3696 19.4445Z" fill="#D80027"/>
<path d="M11.0082 3.36377C10.0396 3.93405 9.11861 4.56844 8.25195 5.26084H13.0346L11.0082 3.36377Z" fill="#0052B4"/>
<path d="M38.7478 5.26084C37.8811 4.56836 36.9602 3.93396 35.9917 3.36377L33.9653 5.26084H38.7478Z" fill="#0052B4"/>
<path d="M26.5651 13.8695H45.3422C44.4538 11.7796 43.2327 9.84792 41.7407 8.13038H26.5652H26.5651V0.186227C25.5618 0.0639375 24.5388 0 23.5 0C22.4609 0 21.4381 0.0639375 20.4348 0.186227V8.13029V8.13038H5.25918C3.76721 9.84792 2.54613 11.7796 1.65771 13.8695H20.4346H20.4347V22H26.5651V13.8696V13.8695Z" fill="#D80027"/>
<path d="M17.3693 5.26101V5.26092L13.8266 1.94434C13.1717 2.22166 12.5333 2.52716 11.9121 2.85742L14.4796 5.26101H17.3693Z" fill="#D80027"/>
<path d="M29.6304 5.26074L33.1732 1.94415C32.4993 1.65893 31.8083 1.40318 31.1024 1.17725L29.6304 2.55543V5.26074Z" fill="#D80027"/>
<path d="M47 22C47 34.1502 36.4786 44 23.5 44C10.5214 44 0 34.1502 0 22H47Z" fill="#F0F0F0"/>
<path d="M43.0832 24.8057C41.1249 24.8057 41.1249 23.1294 39.1665 23.1294C37.2082 23.1294 37.2082 24.8057 35.25 24.8057C33.2918 24.8057 33.2917 23.1294 31.3335 23.1294C29.3752 23.1294 29.3752 24.8057 27.4168 24.8057C25.4584 24.8057 25.4583 23.1294 23.4998 23.1294C21.5415 23.1294 21.5415 24.8057 19.5833 24.8057C17.6253 24.8057 17.6253 23.1294 15.667 23.1294C13.7085 23.1294 13.7085 24.8057 11.75 24.8057C9.79152 24.8057 9.79152 23.1294 7.83304 23.1294C5.87501 23.1294 5.87501 24.8057 3.91671 24.8057C1.96896 24.8057 1.95767 23.1479 0.0307617 23.1302C0.0850137 24.1365 0.213346 25.1244 0.407404 26.0905C1.96832 26.3053 2.105 27.739 3.9168 27.739C5.8751 27.739 5.8751 26.0629 7.83313 26.0629C9.79162 26.0629 9.79162 27.739 11.7501 27.739C13.7086 27.739 13.7086 26.0629 15.6671 26.0629C17.6254 26.0629 17.6254 27.739 19.5834 27.739C21.5417 27.739 21.5417 26.0629 23.4999 26.0629C25.4584 26.0629 25.4584 27.739 27.4169 27.739C29.3754 27.739 29.3754 26.0629 31.3336 26.0629C33.2919 26.0629 33.2919 27.739 35.2501 27.739C37.2083 27.739 37.2084 26.0629 39.1666 26.0629C41.1251 26.0629 41.1251 27.739 43.0833 27.739C44.8953 27.739 45.032 26.3054 46.593 26.0906C46.7871 25.1244 46.9153 24.1366 46.9698 23.1303C45.0425 23.148 45.0311 24.8057 43.0832 24.8057V24.8057Z" fill="#0052B4"/>
<path d="M39.1663 28.8687C37.208 28.8687 37.208 30.545 35.2498 30.545C33.2916 30.545 33.2915 28.8687 31.3333 28.8687C29.375 28.8687 29.375 30.545 27.4166 30.545C25.4581 30.545 25.4581 28.8687 23.4996 28.8687C21.5413 28.8687 21.5413 30.545 19.5831 30.545C17.6251 30.545 17.6251 28.8687 15.6667 28.8687C13.7083 28.8687 13.7083 30.545 11.7498 30.545C9.79129 30.545 9.79129 28.8687 7.8328 28.8687C5.87478 28.8687 5.87478 30.545 3.91647 30.545C2.51721 30.545 2.11753 29.6894 1.28906 29.2005C1.84058 30.6923 2.55806 32.1114 3.42215 33.4379C3.57242 33.4639 3.736 33.4783 3.91647 33.4783C5.87478 33.4783 5.87478 31.8021 7.8328 31.8021C9.79129 31.8021 9.79129 33.4783 11.7498 33.4783C13.7083 33.4783 13.7083 31.8021 15.6667 31.8021C17.6251 31.8021 17.6251 33.4783 19.5831 33.4783C21.5414 33.4783 21.5414 31.8021 23.4996 31.8021C25.4581 31.8021 25.4581 33.4783 27.4166 33.4783C29.375 33.4783 29.3751 31.8021 31.3333 31.8021C33.2916 31.8021 33.2916 33.4783 35.2498 33.4783C37.208 33.4783 37.2081 31.8021 39.1663 31.8021C41.1248 31.8021 41.1248 33.4783 43.083 33.4783C43.2635 33.4783 43.4272 33.4639 43.5775 33.4379C44.4416 32.1114 45.1591 30.6923 45.7108 29.2006C44.8822 29.6892 44.4825 30.545 43.083 30.545C41.1248 30.545 41.1248 28.8687 39.1663 28.8687Z" fill="#0052B4"/>
<path d="M46.9873 21.3086C46.9892 21.3697 46.9914 21.4308 46.9928 21.4922C46.9914 21.4309 46.9892 21.3697 46.9873 21.3086Z" fill="#F0F0F0"/>
<path d="M0.00683594 21.4922C0.00833008 21.4309 0.0104395 21.3698 0.012373 21.3086C0.0105273 21.3698 0.00824219 21.431 0.00683594 21.4922V21.4922Z" fill="#F0F0F0"/>
<path d="M0 21.9999C0 21.8302 0.00263672 21.6611 0.0065918 21.4922C0.00254883 21.6611 0 21.8302 0 21.9999Z" fill="#F0F0F0"/>
<path d="M0 22C0 22.4007 0.0121172 22.7989 0.0349746 23.1943C1.95748 23.2145 1.97024 24.8695 3.91661 24.8695C5.87491 24.8695 5.87491 23.1934 7.83294 23.1934C9.79142 23.1934 9.79142 24.8695 11.7499 24.8695C13.7084 24.8695 13.7084 23.1934 15.6669 23.1934C17.6252 23.1934 17.6252 24.8695 19.5832 24.8695C21.5415 24.8695 21.5415 23.1934 23.4997 23.1934C25.4582 23.1934 25.4582 24.8695 27.4167 24.8695C29.3752 24.8695 29.3752 23.1934 31.3334 23.1934C33.2917 23.1934 33.2917 24.8695 35.2499 24.8695C37.2081 24.8695 37.2082 23.1934 39.1664 23.1934C41.1249 23.1934 41.1249 24.8695 43.0831 24.8695C45.0297 24.8695 45.0424 23.2145 46.9653 23.1943C46.9879 22.7988 47 22.4007 47 22H0Z" fill="#F0F0F0"/>
<path d="M46.9932 21.4922C46.9971 21.661 46.9998 21.8301 46.9998 21.9999C46.9998 21.8302 46.9972 21.6611 46.9932 21.4922Z" fill="#F0F0F0"/>
<path d="M39.1664 34.6079C37.2081 34.6079 37.2081 36.2842 35.2499 36.2842C33.2917 36.2842 33.2916 34.6079 31.3334 34.6079C29.3751 34.6079 29.3751 36.2842 27.4167 36.2842C25.4582 36.2842 25.4582 34.6079 23.4997 34.6079C21.5414 34.6079 21.5414 36.2842 19.5832 36.2842C17.6252 36.2842 17.6252 34.6079 15.6669 34.6079C13.7084 34.6079 13.7084 36.2842 11.7499 36.2842C9.7914 36.2842 9.7914 34.6079 7.83291 34.6079C6.48038 34.6079 6.06188 35.4075 5.28711 35.9022C7.34235 38.2591 9.90991 40.2085 12.8295 41.6043L23.5001 41.1011L34.1705 41.6043C37.09 40.2084 39.6576 38.2592 41.7128 35.9023C40.9377 35.4076 40.5192 34.6079 39.1664 34.6079V34.6079Z" fill="#0052B4"/>
<path d="M36.5338 35.1327L29.3851 36.4127L28.4795 29.6524L23.5002 34.6243L18.5211 29.6523L17.6151 36.4126L10.4668 35.1326L13.9724 41.1011L12.8275 41.6052C16.0301 43.1365 19.6573 44.0002 23.5002 44.0002C27.3431 44.0002 30.9703 43.1365 34.1729 41.6054L33.0284 41.1014L36.5338 35.1327Z" fill="#FFDA44"/>
</g>
<defs>
<clipPath id="clip0_105_1026">
<rect width="47" height="44" fill="white"/>
</clipPath>
</defs>
</svg>
