<svg width="47" height="44" viewBox="0 0 47 44" fill="none" xmlns="http://www.w3.org/2000/svg">
<g clip-path="url(#clip0_105_1084)">
<path d="M47 22C47 34.1502 36.4786 44 23.5 44C10.5214 44 0 34.1502 0 22C0 22.0052 23.5 0.00240625 23.5 0C36.4786 0 47 9.84981 47 22Z" fill="#0052B4"/>
<path d="M23.437 21.9998H23.4999C23.4999 21.98 23.4999 21.9608 23.4999 21.9409C23.479 21.9606 23.458 21.9802 23.437 21.9998Z" fill="#F0F0F0"/>
<path d="M23.5 11.4782C23.5 7.60719 23.5 5.07074 23.5 0H23.4961C10.5191 0.0020625 0 9.85093 0 22H12.2609V15.5366L19.165 22H23.4372C23.4581 21.9804 23.4791 21.9608 23.5001 21.9411C23.5001 20.459 23.5001 19.1365 23.5001 17.9419L16.5958 11.4782H23.5Z" fill="#F0F0F0"/>
<path d="M11.8893 2.86963C8.21386 4.82892 5.15821 7.68943 3.06543 11.1303V22.0001H9.1959V8.60897V8.60879H23.5002C23.5002 6.79869 23.5002 5.07427 23.5002 2.86963H11.8893Z" fill="#D80027"/>
<path d="M33.7174 22L27.3657 27.9463C28.5561 30.0957 30.9528 31.5652 33.7174 31.5652C36.4821 31.5652 38.8787 30.0957 40.0691 27.9463L33.7174 22Z" fill="#FFDA44"/>
<path d="M23.4999 19.2948L15.1505 11.4785H12.2607V11.4787L23.4997 22.0002H23.4999C23.4999 22.0002 23.4999 20.1347 23.4999 19.2948V19.2948Z" fill="#D80027"/>
<path d="M26.5654 11.478V21.9997V21.9998C26.5655 27.125 33.7176 28.6954 33.7176 28.6954C33.7176 28.6954 40.8697 27.125 40.8698 21.9998V21.9997V11.478H26.5654Z" fill="#6DA544"/>
<path d="M32.1846 16.2607H35.2498V23.9129H32.1846V16.2607Z" fill="#F0F0F0"/>
<path d="M33.7172 17.6958C34.5637 17.6958 35.2499 17.0534 35.2499 16.261C35.2499 15.4686 34.5637 14.8262 33.7172 14.8262C32.8708 14.8262 32.1846 15.4686 32.1846 16.261C32.1846 17.0534 32.8708 17.6958 33.7172 17.6958Z" fill="#A2001D"/>
<path d="M28.6089 13.3911H30.6524V15.3042H28.6089V13.3911Z" fill="#FFDA44"/>
<path d="M28.6089 17.6953H30.6524V19.6084H28.6089V17.6953Z" fill="#FFDA44"/>
<path d="M28.6089 22H30.6524V23.9131H28.6089V22Z" fill="#FFDA44"/>
<path d="M36.7827 13.3911H38.8262V15.3042H36.7827V13.3911Z" fill="#FFDA44"/>
<path d="M36.7827 17.6953H38.8262V19.6084H36.7827V17.6953Z" fill="#FFDA44"/>
<path d="M36.7827 22H38.8262V23.9131H36.7827V22Z" fill="#FFDA44"/>
</g>
<defs>
<clipPath id="clip0_105_1084">
<rect width="47" height="44" fill="white"/>
</clipPath>
</defs>
</svg>
