<svg width="46" height="44" viewBox="0 0 46 44" fill="none" xmlns="http://www.w3.org/2000/svg">
<g clip-path="url(#clip0_105_1055)">
<path d="M23 44C35.7025 44 46 34.1503 46 22C46 9.84974 35.7025 0 23 0C10.2975 0 0 9.84974 0 22C0 34.1503 10.2975 44 23 44Z" fill="#F0F0F0"/>
<path d="M42.1662 24.6328C40.2496 24.6328 40.2496 22.9565 38.3329 22.9565C36.4162 22.9565 36.4162 24.6328 34.4997 24.6328C32.5831 24.6328 32.5831 22.9565 30.6665 22.9565C28.7499 22.9565 28.7499 24.6328 26.8331 24.6328C24.9164 24.6328 24.9163 22.9565 22.9995 22.9565C21.0829 22.9565 21.0829 24.6328 19.1663 24.6328C17.25 24.6328 17.25 22.9565 15.3333 22.9565C13.4165 22.9565 13.4165 24.6328 11.4997 24.6328C9.58287 24.6328 9.58287 22.9565 7.66605 22.9565C5.74969 22.9565 5.74969 24.6328 3.83305 24.6328C1.92675 24.6328 1.9157 22.975 0.0297852 22.9573C0.0828828 23.9636 0.208484 24.9516 0.398414 25.9178C1.92612 26.1324 2.05989 27.5661 3.83323 27.5661C5.74987 27.5661 5.74987 25.8899 7.66623 25.8899C9.58305 25.8899 9.58305 27.5661 11.4999 27.5661C13.4167 27.5661 13.4167 25.8899 15.3335 25.8899C17.2501 25.8899 17.2501 27.5661 19.1665 27.5661C21.0831 27.5661 21.0831 25.8899 22.9997 25.8899C24.9165 25.8899 24.9165 27.5661 26.8333 27.5661C28.7501 27.5661 28.7501 25.8899 30.6667 25.8899C32.5833 25.8899 32.5833 27.5661 34.4999 27.5661C36.4165 27.5661 36.4165 25.8899 38.3331 25.8899C40.2499 25.8899 40.2499 27.5661 42.1664 27.5661C43.9398 27.5661 44.0736 26.1324 45.6014 25.9178C45.7914 24.9515 45.9169 23.9636 45.9702 22.9573C44.0839 22.9751 44.0726 24.6328 42.1662 24.6328V24.6328Z" fill="#0052B4"/>
<path d="M38.3326 28.6958C36.416 28.6958 36.416 30.3721 34.4995 30.3721C32.5829 30.3721 32.5828 28.6958 30.6663 28.6958C28.7496 28.6958 28.7496 30.3721 26.8329 30.3721C24.9161 30.3721 24.9161 28.6958 22.9993 28.6958C21.0826 28.6958 21.0826 30.3721 19.1661 30.3721C17.2497 30.3721 17.2497 28.6958 15.3331 28.6958C13.4163 28.6958 13.4163 30.3721 11.4995 30.3721C9.58264 30.3721 9.58264 28.6958 7.66582 28.6958C5.74945 28.6958 5.74945 30.3721 3.83282 30.3721C2.42092 30.3721 2.04816 29.4631 1.18359 28.9842C1.7072 30.4812 2.39496 31.9059 3.22556 33.24C3.40543 33.2815 3.60542 33.3054 3.83273 33.3054C5.74936 33.3054 5.74936 31.6293 7.66573 31.6293C9.58255 31.6293 9.58255 33.3054 11.4994 33.3054C13.4162 33.3054 13.4162 31.6293 15.333 31.6293C17.2496 31.6293 17.2496 33.3054 19.166 33.3054C21.0826 33.3054 21.0826 31.6293 22.9992 31.6293C24.916 31.6293 24.916 33.3054 26.8328 33.3054C28.7496 33.3054 28.7496 31.6293 30.6662 31.6293C32.5828 31.6293 32.5828 33.3054 34.4994 33.3054C36.4159 33.3054 36.416 31.6293 38.3325 31.6293C40.2494 31.6293 40.2494 33.3054 42.1659 33.3054C42.3934 33.3054 42.5936 33.2815 42.7735 33.2399C43.6042 31.9059 44.2919 30.4812 44.8154 28.9843C43.9508 29.4631 43.578 30.3722 42.1659 30.3722C40.2495 30.3721 40.2495 28.6958 38.3326 28.6958V28.6958Z" fill="#0052B4"/>
<path d="M45.4645 17.2682C44.0635 17.5464 43.8849 18.8936 42.166 18.8936C40.2494 18.8936 40.2494 17.2173 38.3327 17.2173C36.416 17.2173 36.416 18.8936 34.4995 18.8936C32.5829 18.8936 32.5828 17.2173 30.6663 17.2173C28.7497 17.2173 28.7497 18.8936 26.8329 18.8936C24.9162 18.8936 24.9161 17.2173 22.9993 17.2173C21.9637 17.2173 21.4875 17.7066 20.9663 18.1566V21.0899C21.4875 20.64 21.9636 20.1508 22.9993 20.1508C24.9161 20.1508 24.9161 21.8269 26.8329 21.8269C28.7497 21.8269 28.7497 20.1508 30.6663 20.1508C32.5829 20.1508 32.5829 21.8269 34.4995 21.8269C36.416 21.8269 36.4161 20.1508 38.3327 20.1508C40.2495 20.1508 40.2495 21.8269 42.166 21.8269C43.9394 21.8269 44.0732 20.3933 45.601 20.1786C45.6989 20.1786 45.8084 20.1777 45.9204 20.1764C45.8355 19.187 45.6819 18.2162 45.4645 17.2682V17.2682Z" fill="#0052B4"/>
<path d="M43.7849 12.5702C43.3877 12.8893 42.9286 13.1543 42.1665 13.1543C40.2499 13.1543 40.2499 11.478 38.3331 11.478C36.4165 11.478 36.4165 13.1543 34.5 13.1543C32.5834 13.1543 32.5833 11.478 30.6668 11.478C28.7501 11.478 28.7501 13.1543 26.8334 13.1543C24.9167 13.1543 24.9166 11.478 22.9998 11.478C21.9642 11.478 21.488 11.9674 20.9668 12.4173V15.3506C21.488 14.9007 21.9641 14.4115 22.9998 14.4115C24.9166 14.4115 24.9166 16.0876 26.8334 16.0876C28.75 16.0876 28.7501 14.4115 30.6667 14.4115C32.5833 14.4115 32.5833 16.0876 34.4999 16.0876C36.4164 16.0876 36.4164 14.4115 38.3331 14.4115C40.2499 14.4115 40.2499 16.0876 42.1664 16.0876C43.5264 16.0876 43.9225 15.245 44.7221 14.755C44.4496 14.0076 44.1367 13.2784 43.7849 12.5702V12.5702Z" fill="#0052B4"/>
<path d="M38.4964 5.74373C38.4433 5.74098 38.3891 5.73926 38.3327 5.73926C36.4161 5.73926 36.4161 7.41556 34.4996 7.41556C32.5829 7.41556 32.5829 5.73926 30.6664 5.73926C28.7497 5.73926 28.7497 7.41556 26.8329 7.41556C24.9161 7.41556 24.9161 5.73926 22.9993 5.73926C21.9637 5.73926 21.4875 6.22859 20.9663 6.67855V9.61186C21.4875 9.16198 21.9636 8.67273 22.9993 8.67273C24.9161 8.67273 24.9161 10.3489 26.8329 10.3489C28.7497 10.3489 28.7497 8.67273 30.6663 8.67273C32.5829 8.67273 32.5829 10.3489 34.4995 10.3489C36.416 10.3489 36.4161 8.67273 38.3327 8.67273C40.2495 8.67273 40.2495 10.3489 42.166 10.3489C42.2841 10.3489 42.3943 10.3422 42.4987 10.3302C41.3855 8.63174 40.0374 7.08856 38.4964 5.74373V5.74373Z" fill="#0052B4"/>
<path d="M28.8785 0.726344C28.3524 1.17906 27.877 1.6763 26.8331 1.6763C24.9163 1.6763 24.9162 0.000171875 22.9995 0H22.9992C22.008 8.59375e-05 21.5295 0.448422 21.0332 0.881461V3.81485C21.5294 3.38181 22.0081 2.93339 22.9995 2.93339C24.9163 2.93339 24.9163 4.60952 26.8332 4.60952C28.7499 4.60952 28.7499 2.93339 30.6665 2.93339C32.5832 2.93339 32.5832 4.60952 34.4997 4.60952C35.3039 4.60952 35.7704 4.31423 36.1829 3.97169C33.9965 2.50602 31.5314 1.3952 28.8785 0.726344V0.726344Z" fill="#0052B4"/>
<path d="M26.833 41.8502C24.9162 41.8502 24.9162 40.1739 22.9994 40.1739C21.0827 40.1739 21.0827 41.8502 19.1662 41.8502C17.2498 41.8502 17.2498 40.1739 15.3332 40.1739C13.865 40.1739 13.5207 41.1565 12.5791 41.617C15.1756 42.8815 18.0566 43.6875 21.1059 43.9253C21.5775 43.5131 22.0565 43.1073 22.9994 43.1073C23.9424 43.1073 24.4215 43.5131 24.8932 43.9253C27.9426 43.6876 30.8238 42.8815 33.4203 41.6171C32.4786 41.1567 32.1343 40.1738 30.6664 40.1738C28.7498 40.1739 28.7498 41.8502 26.833 41.8502V41.8502Z" fill="#0052B4"/>
<path d="M34.4997 36.1109C32.5831 36.1109 32.5831 34.4346 30.6665 34.4346C28.7499 34.4346 28.7499 36.1109 26.8331 36.1109C24.9163 36.1109 24.9163 34.4346 22.9995 34.4346C21.0829 34.4346 21.0829 36.1109 19.1663 36.1109C17.25 36.1109 17.25 34.4346 15.3333 34.4346C13.4165 34.4346 13.4165 36.1109 11.4997 36.1109C9.58288 36.1109 9.58288 34.4346 7.66606 34.4346C6.28777 34.4346 5.90072 35.3017 5.0791 35.7885C5.59409 36.4002 6.14159 36.9858 6.721 37.541C6.98055 37.4349 7.28513 37.368 7.66597 37.368C9.58279 37.368 9.58279 39.0441 11.4996 39.0441C13.4164 39.0441 13.4164 37.368 15.3332 37.368C17.2499 37.368 17.2499 39.0441 19.1662 39.0441C21.0829 39.0441 21.0829 37.368 22.9994 37.368C24.9162 37.368 24.9162 39.0441 26.8331 39.0441C28.7499 39.0441 28.7499 37.368 30.6664 37.368C32.583 37.368 32.5831 39.0441 34.4996 39.0441C36.4162 39.0441 36.4162 37.368 38.3328 37.368C38.7141 37.368 39.0187 37.4349 39.2784 37.5411C39.8579 36.9859 40.4054 36.4003 40.9204 35.7886C40.0987 35.3018 39.7116 34.4347 38.3329 34.4347C36.4162 34.4346 36.4162 36.1109 34.4997 36.1109V36.1109Z" fill="#0052B4"/>
<path d="M22.9385 21.9998H23C23 21.98 23 21.9608 23 21.9409C22.9795 21.9606 22.9591 21.9802 22.9385 21.9998Z" fill="#F0F0F0"/>
<path d="M23 11.4785V17.9421L15 10.522L23 11.4785Z" fill="#0052B4"/>
<path d="M12.0001 22.0003H18.7572L12 13.3916L11 20.0872L12.0001 22.0003Z" fill="#0052B4"/>
<path d="M23 11.4782C23 7.60719 23 5.07074 23 0H22.9961C10.2954 0.0020625 0 9.85093 0 22H12.0001V15.5366L18.7572 22H22.9385C22.959 21.9804 22.9795 21.9608 23.0001 21.9411C23.0001 20.459 23.0001 19.1365 23.0001 17.9419L16.2427 11.4782H23Z" fill="#F0F0F0"/>
<path d="M11.6361 2.86963C8.03889 4.82892 5.04835 7.68943 3 11.1303V22.0001H9.00004V8.60897V8.60879H23C23 6.79869 23 5.07427 23 2.86963H11.6361Z" fill="#D80027"/>
<path d="M23 19.2948L14.8283 11.4785H12V11.4787L22.9998 22.0002H23C23 22.0002 23 20.1347 23 19.2948V19.2948Z" fill="#D80027"/>
<path d="M30 11.478H39L34.5 15.7824L30 11.478Z" fill="#6DA544"/>
<path d="M33.5 14.8262H35.5V20.087H33.5V14.8262Z" fill="#A2001D"/>
<path d="M33.5 28.6958H35.5V33.9566H33.5V28.6958Z" fill="#A2001D"/>
<path d="M40.5 25.826C40.5 24.2412 39.1568 22.9565 37.5 22.9565C36.7315 22.9565 36.0309 23.2332 35.5 23.6877V21.9999H36.5V20.0869H35.5V19.1304H33.5V20.0869H32.5V21.9999H33.5V23.6877C32.9691 23.2332 32.2685 22.9565 31.5 22.9565C29.8432 22.9565 28.5 24.2412 28.5 25.826C28.5 26.6757 28.8864 27.4388 29.5 27.9643V29.6521H39.4999V27.9643C40.1136 27.4388 40.5 26.6757 40.5 25.826V25.826Z" fill="#FFDA44"/>
<path d="M37.4999 24.8696C37.1845 24.8696 36.9636 25.0021 36.8338 25.1132L35.4999 26.2554H33.5L32.1661 25.1132C32.0362 25.0021 31.8154 24.8696 31.5 24.8696C30.9486 24.8696 30.5 25.2987 30.5 25.8261C30.5 26.1976 30.7094 26.4323 30.8342 26.5393L31.5 27.1096V27.7392H37.5001V27.1096L38.1659 26.5393C38.2907 26.4324 38.5001 26.1976 38.5001 25.8261C38.5 25.2987 38.0514 24.8696 37.4999 24.8696V24.8696Z" fill="#D80027"/>
</g>
<defs>
<clipPath id="clip0_105_1055">
<rect width="46" height="44" fill="white"/>
</clipPath>
</defs>
</svg>
