<svg width="46" height="44" viewBox="0 0 46 44" fill="none" xmlns="http://www.w3.org/2000/svg">
<g clip-path="url(#clip0_105_1106)">
<path d="M23.0005 43.997C35.7012 43.997 45.9972 34.1487 45.9972 22.0002C45.9972 9.85171 35.7012 0.00341797 23.0005 0.00341797C10.2998 0.00341797 0.00390625 9.85171 0.00390625 22.0002C0.00390625 34.1487 10.2998 43.997 23.0005 43.997Z" fill="#F0F0F0"/>
<path d="M3.08452 11.0015C2.04654 12.7209 1.28087 14.5186 0.770996 16.3497L39.2302 37.5889C40.6331 36.2509 41.878 34.7176 42.9157 32.9982L3.08452 11.0015Z" fill="black"/>
<path d="M34.498 2.95021C25.2963 -2.1313 13.9506 -0.437693 6.76953 6.41098L45.2287 27.6499C47.839 18.2772 43.6994 8.0318 34.498 2.95021V2.95021Z" fill="#FFDA44"/>
<path d="M11.5016 41.05C20.703 46.1315 32.049 44.4379 39.2299 37.5893L0.770659 16.3501C-1.83945 25.7231 2.29992 35.9685 11.5016 41.05Z" fill="#FFDA44"/>
<path d="M29.4989 19.6095C29.4989 23.0427 26.5892 25.826 22.9998 25.826C19.4105 25.826 16.5008 23.0428 16.5008 19.6095C16.5008 18.5391 16.7837 17.5318 17.282 16.6523C15.8717 18.0319 15.001 19.9185 15.001 22.0004C15.001 26.226 18.5821 29.6515 22.9998 29.6515C27.4176 29.6515 30.9987 26.2261 30.9987 22.0004C30.9987 19.9185 30.1281 18.0319 28.7177 16.6523C29.216 17.5319 29.4989 18.5391 29.4989 19.6095V19.6095Z" fill="#D80027"/>
<path d="M21.5005 12.4365H24.5001V26.7823H21.5005V12.4365Z" fill="#D80027"/>
<path d="M27.9995 15.3057H18.001C18.001 15.9659 18.6023 16.5012 19.2925 16.5012H19.2508C19.2508 17.1614 19.8105 17.6967 20.5007 17.6967C20.5007 18.3569 21.0603 18.8922 21.7505 18.8922H24.2501C24.9404 18.8922 25.4999 18.3569 25.4999 17.6967C26.1902 17.6967 26.7498 17.1614 26.7498 16.5012H26.7082C27.3982 16.5011 27.9995 15.966 27.9995 15.3057Z" fill="#D80027"/>
<path d="M16.001 27.7388H29.9989V30.6079H16.001V27.7388Z" fill="#D80027"/>
<path d="M25.9995 28.6948H31.9986V31.564H25.9995V28.6948Z" fill="#D80027"/>
<path d="M14.0015 28.6948H20.0006V31.564H14.0015V28.6948Z" fill="#D80027"/>
</g>
<defs>
<clipPath id="clip0_105_1106">
<rect width="46" height="44" fill="white"/>
</clipPath>
</defs>
</svg>
