<svg width="46" height="44" viewBox="0 0 46 44" fill="none" xmlns="http://www.w3.org/2000/svg">
<g clip-path="url(#clip0_105_1123)">
<path d="M0 22C0 9.84981 10.2975 0 23 0C35.7025 0 46 9.84981 46 22C45 22 23 24.8695 23 24.8695L0 22Z" fill="#D80027"/>
<path d="M46 22C46 34.1502 35.7025 44 23 44C10.2975 44 0 34.1502 0 22" fill="#6DA544"/>
<path d="M22.9999 14.3477L24.7372 19.4625H30.3603L25.8113 22.6238L27.5487 27.739L22.9999 24.5777L18.451 27.739L20.1887 22.6238L15.6396 19.4625H21.2624L22.9999 14.3477Z" fill="#FFDA44"/>
</g>
<defs>
<clipPath id="clip0_105_1123">
<rect width="46" height="44" fill="white"/>
</clipPath>
</defs>
</svg>
