<svg width="47" height="44" viewBox="0 0 47 44" fill="none" xmlns="http://www.w3.org/2000/svg">
<g clip-path="url(#clip0_105_1127)">
<path d="M23.5 44C36.4787 44 47 34.1503 47 22C47 9.84974 36.4787 0 23.5 0C10.5213 0 0 9.84974 0 22C0 34.1503 10.5213 44 23.5 44Z" fill="#F0F0F0"/>
<path d="M37.8088 4.54612C29.3954 -1.51471 17.6043 -1.51471 9.19092 4.54603L23.4998 17.9416L37.8088 4.54612Z" fill="#D80027"/>
<path d="M23.4997 26.0583L9.19092 39.4537C17.6043 45.5145 29.3954 45.5145 37.8088 39.4537L23.4998 26.0581L23.4997 26.0583Z" fill="#D80027"/>
<path d="M19.1649 22.0001L4.85604 8.60449C-1.61803 16.4808 -1.61803 27.5193 4.85604 35.3957L19.1649 22.0001Z" fill="#6DA544"/>
<path d="M27.835 22.0001L42.1437 35.3957C48.6178 27.5193 48.6178 16.4808 42.1437 8.60449L27.835 22.0001Z" fill="#6DA544"/>
<path d="M23.5001 31.5649C29.143 31.5649 33.7174 27.2825 33.7174 21.9998C33.7174 16.7171 29.143 12.4346 23.5001 12.4346C17.8572 12.4346 13.2827 16.7171 13.2827 21.9998C13.2827 27.2825 17.8572 31.5649 23.5001 31.5649Z" fill="#F0F0F0"/>
<path d="M23.4997 15.3042L24.3845 16.739H26.1543L25.2694 18.1737L26.1543 19.6085H24.3845L23.4997 21.0434L22.6149 19.6085H20.8452L21.73 18.1737L20.8452 16.739H22.6149L23.4997 15.3042Z" fill="#D80027"/>
<path d="M19.0022 22L19.8871 23.4348H21.6567L20.7719 24.8695L21.6567 26.3044H19.8871L19.0022 27.7392L18.1173 26.3044H16.3477L17.2325 24.8695L16.3477 23.4348H18.1173L19.0022 22Z" fill="#D80027"/>
<path d="M27.9974 22L28.8822 23.4348H30.6518L29.767 24.8695L30.6518 26.3044H28.8822L27.9974 27.7392L27.1124 26.3044H25.3428L26.2276 24.8695L25.3428 23.4348H27.1124L27.9974 22Z" fill="#D80027"/>
</g>
<defs>
<clipPath id="clip0_105_1127">
<rect width="47" height="44" fill="white"/>
</clipPath>
</defs>
</svg>
