<svg width="47" height="44" viewBox="0 0 47 44" fill="none" xmlns="http://www.w3.org/2000/svg">
<g clip-path="url(#clip0_105_1140)">
<path d="M0 22.0002C0 25.8116 1.03574 29.3964 2.85736 32.522L23.5 34.4351L44.1426 32.522C45.9643 29.3964 47 25.8116 47 22.0002C47 18.1889 45.9643 14.6041 44.1426 11.4785L23.5 9.56543L2.85736 11.4785C1.03574 14.6041 0 18.1889 0 22.0002H0Z" fill="#D80027"/>
<path d="M2.85742 11.4782H44.1426C40.157 4.63968 32.4076 0 23.5001 0C14.5925 0 6.84315 4.63968 2.85742 11.4782V11.4782Z" fill="#0052B4"/>
<path d="M23.5001 44.0002C32.4076 44.0002 40.157 39.3605 44.1427 32.522H2.85742C6.84315 39.3605 14.5926 44.0002 23.5001 44.0002Z" fill="#0052B4"/>
<path d="M31.6739 26.3044V23.4349H29.6305V19.6088L27.5871 17.6957L25.5436 19.6088V15.7827L23.5001 13.8696L21.4566 15.7827V19.6088L19.4131 17.6957L17.3696 19.6088V23.4349H15.3262V26.3044H13.2827V29.174H33.7174V26.3044H31.6739Z" fill="#F0F0F0"/>
</g>
<defs>
<clipPath id="clip0_105_1140">
<rect width="47" height="44" fill="white"/>
</clipPath>
</defs>
</svg>
