<svg width="47" height="44" viewBox="0 0 47 44" fill="none" xmlns="http://www.w3.org/2000/svg">
<g clip-path="url(#clip0_105_1146)">
<path d="M33.7175 2.18298C30.6279 0.784438 27.1619 0 23.5001 0C19.8383 0 16.3723 0.784438 13.2827 2.18298L11.2393 22L13.2827 41.817C16.3723 43.2156 19.8383 44 23.5001 44C27.1619 44 30.6279 43.2156 33.7175 41.817L35.761 22L33.7175 2.18298Z" fill="#D80027"/>
<path d="M23.4997 14.3477L25.5284 20.193H32.0944L26.7827 23.8062L28.8115 29.6519L23.4997 26.039L18.1878 29.6519L20.217 23.8062L14.9053 20.193H21.4709L23.4997 14.3477Z" fill="#FFDA44"/>
<path d="M13.2826 2.18359C5.42207 5.74192 0 13.2777 0 21.9998C0 30.722 5.42207 38.2577 13.2826 41.8161V2.18359Z" fill="#496E2D"/>
<path d="M33.7173 2.18359V41.8161C41.5779 38.2577 46.9999 30.7219 46.9999 21.9998C46.9999 13.2778 41.5779 5.74192 33.7173 2.18359Z" fill="#FFDA44"/>
</g>
<defs>
<clipPath id="clip0_105_1146">
<rect width="47" height="44" fill="white"/>
</clipPath>
</defs>
</svg>
