<svg width="47" height="44" viewBox="0 0 47 44" fill="none" xmlns="http://www.w3.org/2000/svg">
<g clip-path="url(#clip0_105_1151)">
<path d="M23.5 44C36.4787 44 47 34.1503 47 22C47 9.84974 36.4787 0 23.5 0C10.5213 0 0 9.84974 0 22C0 34.1503 10.5213 44 23.5 44Z" fill="#F0F0F0"/>
<path d="M46.9999 22.0001C46.9999 13.278 41.5779 5.74161 33.7173 2.18311V41.8171C41.5779 38.2586 46.9999 30.7223 46.9999 22.0001V22.0001Z" fill="#D80027"/>
<path d="M0 22.0001C0 30.7223 5.42198 38.2586 13.2826 41.8171V2.18311C5.42198 5.74161 0 13.278 0 22.0001Z" fill="#D80027"/>
<path d="M27.587 24.8699L31.6739 22.9568L29.6305 22.0003V20.0873L25.5435 22.0003L27.587 18.1742H25.5435L23.5 15.3047L21.4566 18.1742H19.4131L21.4566 22.0003L17.3696 20.0873V22.0003L15.3262 22.9568L19.4131 24.8699L18.3914 26.7829H22.4783V29.6525H24.5217V26.7829H28.6087L27.587 24.8699Z" fill="#D80027"/>
</g>
<defs>
<clipPath id="clip0_105_1151">
<rect width="47" height="44" fill="white"/>
</clipPath>
</defs>
</svg>
