<svg width="47" height="44" viewBox="0 0 47 44" fill="none" xmlns="http://www.w3.org/2000/svg">
<g clip-path="url(#clip0_105_1157)">
<path d="M23.4999 0C20.6253 0 17.8717 0.484086 15.326 1.36838L14.3042 22L15.3259 42.6316C17.8717 43.516 20.6253 44 23.4999 44C26.3744 44 29.128 43.516 31.6737 42.6316L32.6955 22L31.6738 1.36838C29.128 0.484086 26.3744 0 23.4999 0V0Z" fill="#338AF3"/>
<path d="M47 21.9998C47 12.5406 40.6226 4.47661 31.6738 1.36816V42.6315C40.6226 39.523 47 31.459 47 21.9998V21.9998Z" fill="#FFDA44"/>
<path d="M15.3261 42.6314V1.36816C6.37731 4.47661 0 12.5406 0 21.9998C0 31.459 6.37731 39.523 15.3261 42.6314Z" fill="#F0F0F0"/>
</g>
<defs>
<clipPath id="clip0_105_1157">
<rect width="47" height="44" fill="white"/>
</clipPath>
</defs>
</svg>
