<svg width="46" height="44" viewBox="0 0 46 44" fill="none" xmlns="http://www.w3.org/2000/svg">
<g clip-path="url(#clip0_105_1161)">
<path d="M23 44C35.7025 44 46 34.1503 46 22C46 9.84974 35.7025 0 23 0C10.2975 0 0 9.84974 0 22C0 34.1503 10.2975 44 23 44Z" fill="#F0F0F0"/>
<path d="M23.0001 43.9998C29.9712 43.9998 36.2174 41.0329 40.4353 36.3477H5.56494C9.78284 41.0329 16.029 43.9998 23.0001 43.9998Z" fill="#0052B4"/>
<path d="M46 22C46 9.84981 35.7025 0 23 0C10.2975 0 0 9.84981 0 22C0 23.9858 0.276719 25.9092 0.792332 27.7392H45.2078C45.7233 25.9092 46 23.9858 46 22Z" fill="#0052B4"/>
<path d="M1.82812 30.6089C2.2715 31.6054 2.78981 32.5638 3.37586 33.4784H42.6243C43.2102 32.5637 43.7285 31.6053 44.172 30.6089H1.82812Z" fill="#D80027"/>
<path d="M16.4404 23.4346L16.8127 24.5306H18.0176L17.0429 25.2081L17.4152 26.3041L16.4404 25.6267L15.4656 26.3041L15.838 25.2081L14.8633 24.5306H16.0682L16.4404 23.4346Z" fill="#FFDA44"/>
<path d="M16.4404 37.7822L16.8127 38.8784H18.0176L17.0429 39.5557L17.4152 40.6518L16.4404 39.9744L15.4656 40.6518L15.838 39.5557L14.8633 38.8784H16.0682L16.4404 37.7822Z" fill="#FFDA44"/>
<path d="M9.45798 32.9302L9.83029 34.0261H11.0352L10.0605 34.7035L10.4328 35.7997L9.45798 35.1223L8.48317 35.7997L8.85566 34.7035L7.88086 34.0261H9.08566L9.45798 32.9302Z" fill="#FFDA44"/>
<path d="M12.1251 24.8691L12.4974 25.9653H13.7022L12.7276 26.6426L13.0999 27.7388L12.1251 27.0613L11.1503 27.7388L11.5227 26.6426L10.5479 25.9653H11.7527L12.1251 24.8691Z" fill="#FFDA44"/>
<path d="M7.88086 29.3828L9.08548 29.3829L9.45789 28.2866L9.83029 29.3828L11.0352 29.3828L10.0604 30.0602L10.4328 31.1563L9.45789 30.4789L8.48317 31.1561L8.85548 30.0601L7.88086 29.3828Z" fill="#FFDA44"/>
<path d="M11.1504 39.0076L11.5227 37.9117L10.5479 37.2343H11.7527L12.1251 36.1382L12.4976 37.2342H13.7024L12.7276 37.9116L13.0999 39.0078L12.1251 38.3303L11.1504 39.0076Z" fill="#FFDA44"/>
<path d="M23.4199 32.9302L23.0477 34.0261H21.8428L22.8174 34.7035L22.4451 35.7997L23.4199 35.1223L24.3947 35.7997L24.0223 34.7035L24.9971 34.0261H23.7922L23.4199 32.9302Z" fill="#FFDA44"/>
<path d="M20.7529 24.8691L20.3807 25.9653H19.1758L20.1504 26.6426L19.7781 27.7388L20.7529 27.0613L21.7277 27.7388L21.3553 26.6426L22.3301 25.9653H21.1252L20.7529 24.8691Z" fill="#FFDA44"/>
<path d="M24.9971 29.3828L23.7924 29.3829L23.42 28.2866L23.0477 29.3828L21.8428 29.3828L22.8175 30.0602L22.4451 31.1563L23.42 30.4789L24.3947 31.1561L24.0224 30.0601L24.9971 29.3828Z" fill="#FFDA44"/>
<path d="M21.7277 39.0076L21.3555 37.9117L22.3303 37.2343H21.1254L20.753 36.1382L20.3807 37.2342H19.1758L20.1506 37.9116L19.7783 39.0078L20.7531 38.3303L21.7277 39.0076Z" fill="#FFDA44"/>
</g>
<defs>
<clipPath id="clip0_105_1161">
<rect width="46" height="44" fill="white"/>
</clipPath>
</defs>
</svg>
