<svg width="47" height="44" viewBox="0 0 47 44" fill="none" xmlns="http://www.w3.org/2000/svg">
<g clip-path="url(#clip0_105_1178)">
<path d="M47 22C47 34.1502 36.4786 44 23.5 44C10.5214 44 0 34.1502 0 22C0 22.0052 23.5 0.00240625 23.5 0C36.4786 0 47 9.84981 47 22Z" fill="#0052B4"/>
<path d="M23.437 21.9998H23.4999C23.4999 21.98 23.4999 21.9608 23.4999 21.9409C23.479 21.9606 23.458 21.9802 23.437 21.9998Z" fill="#F0F0F0"/>
<path d="M23.5 11.4782C23.5 7.60719 23.5 5.07074 23.5 0H23.4961C10.5191 0.0020625 0 9.85093 0 22H12.2609V15.5366L19.165 22H23.4372C23.4581 21.9804 23.4791 21.9608 23.5001 21.9411C23.5001 20.459 23.5001 19.1365 23.5001 17.9419L16.5958 11.4782H23.5Z" fill="#F0F0F0"/>
<path d="M33.7173 16.2611C35.9745 16.2611 37.8043 14.5481 37.8043 12.435C37.8043 10.3219 35.9745 8.60889 33.7173 8.60889C31.4602 8.60889 29.6304 10.3219 29.6304 12.435C29.6304 14.5481 31.4602 16.2611 33.7173 16.2611Z" fill="#6DA544"/>
<path d="M11.8893 2.86963C8.21386 4.82892 5.15821 7.68943 3.06543 11.1303V22.0001H9.1959V8.60896V8.60879H23.5002C23.5002 6.79869 23.5002 5.07427 23.5002 2.86963H11.8893Z" fill="#D80027"/>
<path d="M23.5004 19.2948L15.151 11.4785H12.2612V11.4787L23.5002 22.0002H23.5004C23.5004 22.0002 23.5004 20.1347 23.5004 19.2948V19.2948Z" fill="#D80027"/>
<path d="M26.5654 11.4785H40.8698V17.2177H26.5654V11.4785Z" fill="#D80027"/>
<path d="M26.5654 25.8262V29.6523H28.7157C30.005 30.8351 31.7698 31.5653 33.7176 31.5653C35.6654 31.5653 37.4302 30.8351 38.7195 29.6523H38.8263H40.8698V25.8262H26.5654Z" fill="#FFDA44"/>
<path d="M26.5654 16.2607V21.9999C26.5654 27.1251 33.7176 28.6956 33.7176 28.6956C33.7176 28.6956 40.8698 27.1251 40.8698 21.9999V16.2607H26.5654Z" fill="#338AF3"/>
<path d="M33.7171 19.3267C31.9292 19.3267 31.9292 20.8571 30.1413 20.8571C28.3534 20.8571 28.3534 19.3267 26.5654 19.3267V22.0049C28.3534 22.0049 28.3534 23.5354 30.1413 23.5354C31.9292 23.5354 31.9292 22.0049 33.7171 22.0049C35.5053 22.0049 35.5053 23.5354 37.2935 23.5354C39.0817 23.5354 39.0816 22.0049 40.8698 22.0049V19.3267C39.0817 19.3267 39.0817 20.8571 37.2935 20.8571C35.5053 20.8571 35.5053 19.3267 33.7171 19.3267V19.3267Z" fill="#F3F3F3"/>
<path d="M33.7171 13.9653C31.9292 13.9653 31.9292 15.4958 30.1413 15.4958C28.3534 15.4958 28.3534 13.9653 26.5654 13.9653V16.6436C28.3534 16.6436 28.3534 18.174 30.1413 18.174C31.9292 18.174 31.9292 16.6436 33.7171 16.6436C35.5053 16.6436 35.5053 18.174 37.2935 18.174C39.0817 18.174 39.0816 16.6436 40.8698 16.6436V13.9653C39.0817 13.9653 39.0817 15.4958 37.2935 15.4958C35.5053 15.4958 35.5053 13.9653 33.7171 13.9653Z" fill="#F3F3F3"/>
</g>
<defs>
<clipPath id="clip0_105_1178">
<rect width="47" height="44" fill="white"/>
</clipPath>
</defs>
</svg>
