<svg width="46" height="44" viewBox="0 0 46 44" fill="none" xmlns="http://www.w3.org/2000/svg">
<g clip-path="url(#clip0_105_1197)">
<path d="M23 44C35.7025 44 46 34.1503 46 22C46 9.84974 35.7025 0 23 0C10.2975 0 0 9.84974 0 22C0 34.1503 10.2975 44 23 44Z" fill="#F0F0F0"/>
<path d="M43.2034 11.4784C40.2313 6.26809 35.1207 2.33482 29 0.756836L28 11.4784H43.2034Z" fill="#0052B4"/>
<path d="M2.79639 11.4784H17.9997L16.9998 0.756836C10.879 2.33482 5.76851 6.26818 2.79639 11.4784V11.4784Z" fill="#0052B4"/>
<path d="M28 22V32.5218H43.2034C44.9863 29.3961 46 25.8113 46 22H28Z" fill="#6DA544"/>
<path d="M18 22H0C0 25.8113 1.01371 29.3961 2.79657 32.5218H17.9999V22H18Z" fill="#6DA544"/>
<path d="M2.79639 32.522C5.76851 37.7323 10.879 41.6656 16.9998 43.2435L17.9997 33.867L2.79639 32.522Z" fill="#FFDA44"/>
<path d="M29 43.2435C35.1207 41.6656 40.2313 37.7323 43.2034 32.522L28 33.8668L29 43.2435Z" fill="#FFDA44"/>
<path d="M28 33.8668L43.2034 32.522H28V33.8668Z" fill="#FFDA44"/>
<path d="M17.9998 32.522H2.79639L17.9998 33.8668V32.522Z" fill="#FFDA44"/>
<path d="M23 0C20.924 0 18.9131 0.264688 17 0.757883V43.2422C18.9131 43.7353 20.924 44 23 44C25.0761 44 27.0869 43.7353 29.0001 43.2421V0.757883C27.0869 0.264688 25.0761 0 23 0V0Z" fill="#D80027"/>
<path d="M12.3711 4.78271L12.9916 6.60949H14.9999L13.3753 7.73853L13.9959 9.56531L12.3711 8.43635L10.7465 9.56531L11.3672 7.73853L9.74268 6.60949H11.7508L12.3711 4.78271Z" fill="#FFDA44"/>
</g>
<defs>
<clipPath id="clip0_105_1197">
<rect width="46" height="44" fill="white"/>
</clipPath>
</defs>
</svg>
