<svg width="47" height="44" viewBox="0 0 47 44" fill="none" xmlns="http://www.w3.org/2000/svg">
<g clip-path="url(#clip0_105_1212)">
<path d="M23.5 44C36.4787 44 47 34.1503 47 22C47 9.84974 36.4787 0 23.5 0C10.5213 0 0 9.84974 0 22C0 34.1503 10.5213 44 23.5 44Z" fill="#F0F0F0"/>
<path d="M23.4999 0C17.0105 0 11.1355 2.46245 6.88281 6.44359L23.4999 22V0Z" fill="black"/>
<path d="M0 22C0 28.0752 2.63035 33.5752 6.88293 37.5564L23.5 22H0Z" fill="black"/>
<path d="M23.5 44C29.9894 44 35.8644 41.5375 40.1171 37.5564L23.5 22V44Z" fill="black"/>
<path d="M47 21.9998C47 15.9246 44.3697 10.4246 40.1171 6.44336L23.5 21.9998H47Z" fill="black"/>
<path d="M15.3262 15.3046L23.5 16.2613L31.6739 15.3046V10.7133L28.4044 12.2437L23.5 7.65234L18.5957 12.2437L15.3262 10.7133V15.3046Z" fill="#FFDA44"/>
<path d="M23.5 33.4784C18.9929 33.4784 15.3262 30.0456 15.3262 25.8263V18.1745L18.3914 15.3047H28.6087L31.6739 18.1745V25.8263C31.6739 30.0456 28.0072 33.4784 23.5 33.4784Z" fill="#D80027"/>
<path d="M23.4998 30.6085C20.6828 30.6085 18.3911 28.463 18.3911 25.8259V18.1738H28.6085V25.8258C28.6085 28.463 26.3168 30.6085 23.4998 30.6085V30.6085Z" fill="#F0F0F0"/>
<path d="M15.3262 15.3042H18.3914V18.1737H15.3262V15.3042Z" fill="#FFDA44"/>
<path d="M28.6089 15.3042H31.6741V18.1737H28.6089V15.3042Z" fill="#FFDA44"/>
<path d="M28.6089 21.5215H31.6741V24.391H28.6089V21.5215Z" fill="#FFDA44"/>
<path d="M15.3262 21.5215H18.3914V24.391H15.3262V21.5215Z" fill="#FFDA44"/>
<path d="M23.4999 30.6084C22.966 30.6084 22.4513 30.531 21.9673 30.3882V33.3411C22.4641 33.4298 22.9759 33.478 23.4999 33.478C24.0239 33.478 24.5358 33.4298 25.0326 33.3411V30.3882C24.5485 30.5309 24.0338 30.6084 23.4999 30.6084Z" fill="#FFDA44"/>
<path d="M18.4599 26.6025L16.0137 28.8926C16.4378 29.7966 17.0429 30.6095 17.7866 31.2909L19.953 29.2628C19.1799 28.5635 18.6414 27.6389 18.4599 26.6025Z" fill="#FFDA44"/>
<path d="M30.9866 28.8926L28.5404 26.6025C28.3589 27.6388 27.8204 28.5634 27.0474 29.2629L29.2138 31.291C29.9573 30.6095 30.5625 29.7966 30.9866 28.8926Z" fill="#FFDA44"/>
<path d="M22.4785 19.7681V21.3622C22.4785 21.8904 22.9359 22.3187 23.5002 22.3187C24.0645 22.3187 24.5219 21.8904 24.5219 21.3622V19.7681H22.4785Z" fill="#0052B4"/>
<path d="M22.4785 26.145V27.7392C22.4785 28.2673 22.9359 28.6956 23.5002 28.6956C24.0645 28.6956 24.5219 28.2673 24.5219 27.7392V26.145H22.4785Z" fill="#0052B4"/>
<path d="M25.5435 22.9565V24.5509C25.5435 25.079 26.0009 25.5073 26.5652 25.5073C27.1294 25.5073 27.5869 25.079 27.5869 24.5509V22.9565H25.5435Z" fill="#0052B4"/>
<path d="M22.4785 22.9565V24.5509C22.4785 25.079 22.9359 25.5073 23.5002 25.5073C24.0645 25.5073 24.5219 25.079 24.5219 24.5509V22.9565H22.4785Z" fill="#0052B4"/>
<path d="M19.4131 22.9565V24.5509C19.4131 25.079 19.8705 25.5073 20.4348 25.5073C20.9991 25.5073 21.4565 25.079 21.4565 24.5509V22.9565H19.4131Z" fill="#0052B4"/>
</g>
<defs>
<clipPath id="clip0_105_1212">
<rect width="47" height="44" fill="white"/>
</clipPath>
</defs>
</svg>
