<svg width="46" height="44" viewBox="0 0 46 44" fill="none" xmlns="http://www.w3.org/2000/svg">
<g clip-path="url(#clip0_105_1235)">
<path d="M23 0C20.1866 0 17.4916 0.484086 15.0001 1.36838L14 22L15 42.6316C17.4916 43.516 20.1866 44 23 44C25.8134 44 28.5084 43.516 31 42.6316L32 22L31.0001 1.36838C28.5084 0.484086 25.8134 0 23 0V0Z" fill="#FFDA44"/>
<path d="M46 21.9998C46 12.5406 39.7584 4.47661 31 1.36816V42.6315C39.7584 39.523 46 31.459 46 21.9998V21.9998Z" fill="#D80027"/>
<path d="M15 42.6314V1.36816C6.24163 4.47661 0 12.5406 0 21.9998C0 31.459 6.24163 39.523 15 42.6314Z" fill="#0052B4"/>
</g>
<defs>
<clipPath id="clip0_105_1235">
<rect width="46" height="44" fill="white"/>
</clipPath>
</defs>
</svg>
