<svg width="47" height="44" viewBox="0 0 47 44" fill="none" xmlns="http://www.w3.org/2000/svg">
<g clip-path="url(#clip0_105_1239)">
<path d="M23.5 44C36.4787 44 47 34.1503 47 22C47 9.84974 36.4787 0 23.5 0C10.5213 0 0 9.84974 0 22C0 34.1503 10.5213 44 23.5 44Z" fill="#F0F0F0"/>
<path d="M47 22.0002C47 34.1504 36.4786 44.0002 23.5 44.0002C10.5214 44.0002 0 34.1504 0 22.0002C0 9.84999 23.5 22.0002 23.5 22.0002C23.5 22.0002 41.2867 22.0002 47 22.0002Z" fill="#D80027"/>
<path d="M0 22C0 9.84981 10.5214 0 23.5 0V22C23.5 22 8.17387 22 0 22Z" fill="#0052B4"/>
<path d="M13.9889 7.65234L15.5107 12.0367H20.4349L16.4511 14.7463L17.9727 19.1307L13.9889 16.421L10.0051 19.1307L11.5268 14.7463L7.54297 12.0367H12.4672L13.9889 7.65234Z" fill="#F0F0F0"/>
</g>
<defs>
<clipPath id="clip0_105_1239">
<rect width="47" height="44" fill="white"/>
</clipPath>
</defs>
</svg>
