<svg width="47" height="44" viewBox="0 0 47 44" fill="none" xmlns="http://www.w3.org/2000/svg">
<g clip-path="url(#clip0_105_1244)">
<path d="M23.5 44C36.4787 44 47 34.1503 47 22C47 9.84974 36.4787 0 23.5 0C10.5213 0 0 9.84974 0 22C0 34.1503 10.5213 44 23.5 44Z" fill="#D80027"/>
<path d="M12.8607 13.3887L14.8895 19.2324H21.4529L16.1471 22.8504L18.1758 28.6941L12.8607 25.0848L7.5457 28.6941L9.58359 22.8504L4.26855 19.2324H10.832L12.8607 13.3887Z" fill="#FFDA44"/>
<path d="M27.8605 34.074L26.3092 32.2865L24.0143 33.1201L25.3453 31.1865L23.7939 29.3904L26.1715 29.9834L27.5117 28.0498L27.6402 30.3529L30.027 30.9459L27.7229 31.7709L27.8605 34.074Z" fill="#FFDA44"/>
<path d="M30.9449 28.8318L31.6793 26.6318L29.6689 25.2998L32.1291 25.2654L32.8543 23.0654L33.6529 25.2482L36.1131 25.2225L34.1395 26.5975L34.9289 28.7803L32.9186 27.4482L30.9449 28.8318Z" fill="#FFDA44"/>
<path d="M35.1029 16.1476L34.0197 18.2187L35.7822 19.8257L33.3496 19.4991L32.2664 21.5616L31.8441 19.2929L29.4023 18.9663L31.5871 17.8921L31.1648 15.6147L32.9273 17.2218L35.1029 16.1476Z" fill="#FFDA44"/>
<path d="M27.9245 9.87402L27.7409 12.1686L30.0267 13.0365L27.6308 13.5865L27.4563 15.8896L26.162 13.9303L23.7661 14.4803L25.3542 12.7186L24.0507 10.7678L26.3364 11.6357L27.9245 9.87402Z" fill="#FFDA44"/>
</g>
<defs>
<clipPath id="clip0_105_1244">
<rect width="47" height="44" fill="white"/>
</clipPath>
</defs>
</svg>
