<svg width="47" height="44" viewBox="0 0 47 44" fill="none" xmlns="http://www.w3.org/2000/svg">
<g clip-path="url(#clip0_105_1252)">
<path d="M23.5 44C36.4787 44 47 34.1503 47 22C47 9.84974 36.4787 0 23.5 0C10.5213 0 0 9.84974 0 22C0 34.1503 10.5213 44 23.5 44Z" fill="#6DA544"/>
<path d="M36.0746 31.5654L36.7194 32.8278L38.1757 32.5127L37.5236 33.7718L38.6946 34.6411L37.2365 34.9488L37.2407 36.3481L36.0746 35.4727L34.9086 36.3481L34.9126 34.9488L33.4546 34.6411L34.6256 33.7718L33.9735 32.5127L35.4297 32.8278L36.0746 31.5654Z" fill="#FFDA44"/>
<path d="M30.0755 18.1738L30.7205 19.4362L32.1768 19.121L31.5246 20.3802L32.6956 21.2495L31.2376 21.5572L31.2416 22.9564L30.0755 22.0811L28.9095 22.9564L28.9135 21.5572L27.4556 21.2495L28.6266 20.3802L27.9744 19.121L29.4308 19.4362L30.0755 18.1738Z" fill="#FFDA44"/>
<path d="M36.075 10.522L36.7198 11.7843L38.1761 11.4691L37.5241 12.7282L38.695 13.5977L37.2369 13.9052L37.2409 15.3046L36.075 14.4291L34.909 15.3046L34.913 13.9052L33.4551 13.5977L34.626 12.7282L33.9739 11.4691L35.4301 11.7843L36.075 10.522Z" fill="#FFDA44"/>
<path d="M41.3148 16.2612L41.9597 17.5236L43.416 17.2084L42.7638 18.4676L43.9349 19.3369L42.4769 19.6446L42.4809 21.0439L41.3148 20.1685L40.1488 21.0439L40.1527 19.6446L38.6948 19.3369L39.8659 18.4676L39.2137 17.2084L40.6699 17.5236L41.3148 16.2612Z" fill="#FFDA44"/>
<path d="M37.568 22.9565L38.0754 24.4181H39.7168L38.3888 25.3213L38.8962 26.7827L37.568 25.8795L36.2402 26.7827L36.7474 25.3213L35.4194 24.4181H37.0609L37.568 22.9565Z" fill="#FFDA44"/>
<path d="M26.0545 28.2178C22.3865 28.2178 19.4131 25.4341 19.4131 22.0004C19.4131 18.5666 22.3865 15.783 26.0545 15.783C27.1981 15.783 28.2742 16.0537 29.2137 16.5303C27.7399 15.1809 25.7245 14.3481 23.5 14.3481C18.9857 14.3481 15.3262 17.7741 15.3262 22.0003C15.3262 26.2264 18.9857 29.6524 23.5 29.6524C25.7244 29.6524 27.7399 28.8197 29.2136 27.4703C28.2742 27.947 27.1981 28.2178 26.0545 28.2178V28.2178Z" fill="#FFDA44"/>
<path d="M14.7779 8.60886C14.0711 7.46554 12.7515 6.6958 11.2391 6.6958C9.72661 6.6958 8.40703 7.46554 7.7002 8.60886H14.7779Z" fill="#FFDA44"/>
<path d="M14.7917 8.63086L11.2392 11.9566L7.68679 8.63086C7.34723 9.18868 7.15234 9.83381 7.15234 10.5218C7.15234 12.6349 8.98213 14.3479 11.2393 14.3479C13.4965 14.3479 15.3263 12.635 15.3263 10.5218C15.3262 9.83381 15.1312 9.18868 14.7917 8.63086V8.63086Z" fill="#FFDA44"/>
<path d="M10.2173 11V14.2273C10.5438 14.3059 10.8862 14.3478 11.239 14.3478C11.5918 14.3478 11.9342 14.3058 12.2607 14.2273V11H10.2173Z" fill="#A2001D"/>
</g>
<defs>
<clipPath id="clip0_105_1252">
<rect width="47" height="44" fill="white"/>
</clipPath>
</defs>
</svg>
