<svg width="47" height="44" viewBox="0 0 47 44" fill="none" xmlns="http://www.w3.org/2000/svg">
<g clip-path="url(#clip0_105_1268)">
<path d="M23.5 44C36.4787 44 47 34.1503 47 22C47 9.84974 36.4787 0 23.5 0C10.5213 0 0 9.84974 0 22C0 34.1503 10.5213 44 23.5 44Z" fill="#F0F0F0"/>
<path d="M46.9993 21.9365H21.5248C16.4671 26.6715 13.4086 30.327 10.2856 33.2506L23.5683 34.3713L44.1798 32.4582C45.9786 29.3477 47.0002 25.7857 47.0002 22.0002C47.0002 21.9789 46.9993 21.9578 46.9993 21.9365V21.9365Z" fill="#D80027"/>
<path d="M10.2854 11.4146H44.1044C40.1078 4.61106 32.3794 0 23.4998 0C17.0277 0 11.1677 2.45016 6.91797 6.413L10.2854 11.4146Z" fill="#FFDA44"/>
<path d="M11.3072 32.458C9.19456 34.4358 8.37812 36.0928 6.84961 37.5237C11.1049 41.5238 16.9932 44 23.4999 44C32.4351 44 40.2051 39.3315 44.1796 32.458H11.3072Z" fill="#0052B4"/>
<path d="M6.88298 6.37988C-2.29433 14.9714 -2.29433 28.9011 6.88298 37.4927C10.6754 33.9424 14.3227 30.5278 23.5 21.9363L6.88298 6.37988Z" fill="#6DA544"/>
<path d="M6.19858 21.9364C6.19858 18.7311 8.60485 16.0533 11.8181 15.3964C11.3242 15.2955 10.8118 15.2407 10.2855 15.2407C6.33536 15.2407 3.1333 18.2384 3.1333 21.9364C3.1333 25.6343 6.33536 28.632 10.2855 28.632C10.8117 28.632 11.3242 28.5773 11.8181 28.4763C8.60485 27.8193 6.19858 25.1417 6.19858 21.9364V21.9364Z" fill="#F0F0F0"/>
<path d="M11.7394 16.1973L12.1199 17.2933H13.3509L12.3549 17.9708L12.7354 19.0668L11.7394 18.3894L10.7434 19.0668L11.1239 17.9708L10.1279 17.2933H11.3589L11.7394 16.1973Z" fill="#F0F0F0"/>
<path d="M11.7394 19.0669L12.1199 20.163H13.3509L12.3549 20.8404L12.7354 21.9365L11.7394 21.2591L10.7434 21.9365L11.1239 20.8404L10.1279 20.163H11.3589L11.7394 19.0669Z" fill="#F0F0F0"/>
<path d="M11.7394 21.9365L12.1199 23.0326H13.3509L12.3549 23.71L12.7354 24.8061L11.7394 24.1286L10.7434 24.8061L11.1239 23.71L10.1279 23.0326H11.3589L11.7394 21.9365Z" fill="#F0F0F0"/>
<path d="M11.7394 24.8062L12.1199 25.9022H13.3509L12.3549 26.5796L12.7354 27.6757L11.7394 26.9983L10.7434 27.6757L11.1239 26.5796L10.1279 25.9022H11.3589L11.7394 24.8062Z" fill="#F0F0F0"/>
</g>
<defs>
<clipPath id="clip0_105_1268">
<rect width="47" height="44" fill="white"/>
</clipPath>
</defs>
</svg>
