<svg width="47" height="44" viewBox="0 0 47 44" fill="none" xmlns="http://www.w3.org/2000/svg">
<g clip-path="url(#clip0_105_1280)">
<path d="M47 22C47 34.1502 36.4786 44 23.5 44C10.5214 44 0 34.1502 0 22C0 22.0052 23.5 0.00240625 23.5 0C36.4786 0 47 9.84981 47 22Z" fill="#0052B4"/>
<path d="M23.437 21.9998H23.4999C23.4999 21.98 23.4999 21.9608 23.4999 21.9409C23.479 21.9606 23.458 21.9802 23.437 21.9998Z" fill="#F0F0F0"/>
<path d="M23.5 11.4782C23.5 7.60719 23.5 5.07074 23.5 0H23.4961C10.5191 0.0020625 0 9.85093 0 22H12.2609V15.5366L19.165 22H23.4372C23.4581 21.9804 23.4791 21.9608 23.5001 21.9411C23.5001 20.459 23.5001 19.1365 23.5001 17.9419L16.5958 11.4782H23.5Z" fill="#F0F0F0"/>
<path d="M11.8893 2.86963C8.21386 4.82892 5.15821 7.68943 3.06543 11.1303V22.0001H9.1959V8.60896V8.60879H23.5002C23.5002 6.79869 23.5002 5.07427 23.5002 2.86963H11.8893Z" fill="#D80027"/>
<path d="M23.5004 19.2948L15.151 11.4785H12.2612V11.4787L23.5002 22.0002H23.5004C23.5004 22.0002 23.5004 20.1347 23.5004 19.2948V19.2948Z" fill="#D80027"/>
<path d="M31.6741 22L32.109 23.2526H33.5158L32.3777 24.0268L32.8124 25.2795L31.6741 24.5053L30.5359 25.2795L30.9706 24.0268L29.8325 23.2526H31.2393L31.6741 22Z" fill="#F0F0F0"/>
<path d="M25.8943 24.2412L27.1477 24.839L28.1426 23.9077L27.9225 25.2086L29.1761 25.8066L27.7865 26.0125L27.5664 27.3136L26.9276 26.1399L25.5381 26.346L26.5331 25.4147L25.8943 24.2412Z" fill="#F0F0F0"/>
<path d="M23.5 29.6521L24.838 29.2451L24.8382 27.9282L25.6649 28.9936L27.0031 28.5865L26.1761 29.6521L27.0031 30.7178L25.6649 30.3108L24.8382 31.3763V30.0593L23.5 29.6521Z" fill="#F0F0F0"/>
<path d="M25.8943 35.0631L26.5329 33.8895L25.5381 32.9583L26.9277 33.1643L27.5664 31.9907L27.7865 33.2916L29.1761 33.4976L27.9225 34.0956L28.1426 35.3966L27.1477 34.465L25.8943 35.0631Z" fill="#F0F0F0"/>
<path d="M31.6737 37.3044L31.2389 36.0517H29.832L30.9702 35.2775L30.5355 34.0249L31.6737 34.799L32.812 34.0249L32.3773 35.2775L33.5154 36.0517H32.1086L31.6737 37.3044Z" fill="#F0F0F0"/>
<path d="M37.4537 35.0631L36.2001 34.4653L35.2054 35.3966L35.4255 34.0956L34.1719 33.4977L35.5615 33.2916L35.7816 31.9907L36.4203 33.1643L37.8099 32.9583L36.8149 33.8896L37.4537 35.0631Z" fill="#F0F0F0"/>
<path d="M39.8478 29.6521L38.5097 30.0593V31.3763L37.6828 30.3108L36.3447 30.7178L37.1717 29.6521L36.3447 28.5865L37.6828 28.9936L38.5097 27.9282V29.2451L39.8478 29.6521Z" fill="#F0F0F0"/>
<path d="M37.4537 24.2416L36.8152 25.4151L37.8099 26.3464L36.4203 26.1403L35.7816 27.314L35.5615 26.0129L34.1719 25.8069L35.4255 25.209L35.2054 23.9082L36.2002 24.8394L37.4537 24.2416Z" fill="#F0F0F0"/>
</g>
<defs>
<clipPath id="clip0_105_1280">
<rect width="47" height="44" fill="white"/>
</clipPath>
</defs>
</svg>
