<svg width="47" height="44" viewBox="0 0 47 44" fill="none" xmlns="http://www.w3.org/2000/svg">
<g clip-path="url(#clip0_105_1298)">
<path d="M23.5 44C36.4787 44 47 34.1503 47 22C47 9.84974 36.4787 0 23.5 0C10.5213 0 0 9.84974 0 22C0 34.1503 10.5213 44 23.5 44Z" fill="#FCFCFC"/>
<path d="M31.6826 18.6339C31.6826 13.9809 27.6535 10.209 22.6833 10.209C19.0157 10.209 15.8627 12.2638 14.4608 15.21L13.3509 18.9771L14.3726 19.9336L12.3291 23.7597L14.3726 24.7162L13.3509 25.6727V26.6291L14.3726 27.5856V29.4987L15.3943 30.4552L18.4595 29.4987C18.4595 29.4987 18.4595 30.4552 19.4812 31.4117C20.5029 32.3682 21.5248 34.2814 21.5248 34.2814C21.5248 34.2814 24.59 35.2378 26.6334 32.3683C28.6769 29.4988 30.7204 28.5422 30.7204 28.5422L28.7508 24.8543C30.5521 23.314 31.6826 21.098 31.6826 18.6339V18.6339Z" fill="black"/>
<path d="M32.4159 21.8556C36.5678 21.2 37.2594 13.5889 37.2594 13.5889H31.5377C34.5007 20.2845 31.3994 20.7349 31.3994 20.7349C30.9792 20.4423 15.9431 13.7739 15.4664 13.6043C15.3516 13.7482 14.9289 14.1261 14.415 15.3025C13.901 16.479 13.7749 17.5374 13.7749 17.5374C14.0156 17.6843 29.9839 22.9042 30.406 22.9477C31.2437 23.4604 32.2744 24.9936 31.6983 29.5396L37.2056 28.0865C37.2058 28.0865 35.3367 23.4319 32.4159 21.8556V21.8556Z" fill="#ACABB1"/>
</g>
<defs>
<clipPath id="clip0_105_1298">
<rect width="47" height="44" fill="white"/>
</clipPath>
</defs>
</svg>
