<svg width="48" height="44" viewBox="0 0 48 44" fill="none" xmlns="http://www.w3.org/2000/svg">
<g clip-path="url(#clip0_105_1302)">
<path d="M24 44C37.2548 44 48 34.1503 48 22C48 9.84974 37.2548 0 24 0C10.7452 0 0 9.84974 0 22C0 34.1503 10.7452 44 24 44Z" fill="#F0F0F0"/>
<path d="M46.5072 14.3477H1.49278C0.528094 16.731 0 19.3087 0 21.9998C0 24.6908 0.528094 27.2686 1.49278 29.6519H46.5073C47.472 27.2686 48 24.6908 48 21.9998C48 19.3087 47.472 16.731 46.5072 14.3477Z" fill="#D80027"/>
<path d="M23.9999 0C16.7257 0 10.2079 2.96691 5.80664 7.65213H42.193C37.7918 2.96691 31.274 0 23.9999 0V0Z" fill="#0052B4"/>
<path d="M42.1931 36.3477H5.80664C10.2079 41.0329 16.7257 43.9998 23.9999 43.9998C31.274 43.9998 37.7918 41.0329 42.1931 36.3477Z" fill="#0052B4"/>
</g>
<defs>
<clipPath id="clip0_105_1302">
<rect width="48" height="44" fill="white"/>
</clipPath>
</defs>
</svg>
