<svg width="47" height="44" viewBox="0 0 47 44" fill="none" xmlns="http://www.w3.org/2000/svg">
<g clip-path="url(#clip0_105_1308)">
<path d="M47 21.9998C47 19.3088 46.4829 16.7309 45.5383 14.3477L23.5 13.3911L1.46168 14.3476C0.517092 16.7309 0 19.3088 0 21.9998C0 24.6909 0.517092 27.2687 1.46168 29.6519L23.5 30.6085L45.5383 29.652C46.4829 27.2687 47 24.6909 47 21.9998Z" fill="#F0F0F0"/>
<path d="M23.5002 44.0002C33.6044 44.0002 42.2182 38.03 45.5385 29.6523H1.46191C4.7823 38.03 13.3961 44.0002 23.5002 44.0002Z" fill="#0052B4"/>
<path d="M1.46191 14.3479H45.5386C42.2182 5.97025 33.6044 0 23.5002 0C13.3961 0 4.7823 5.97025 1.46191 14.3479V14.3479Z" fill="#D80027"/>
<path d="M29.6304 15.3046H25.5435L26.2247 10.5219L28.9492 8.60889L31.6738 10.5219V14.3481L29.6304 15.3046Z" fill="#338AF3"/>
<path d="M17.3696 15.3046H21.4566L20.7753 10.5219L18.0507 8.60889L15.3262 10.5219V14.3481L17.3696 15.3046Z" fill="#338AF3"/>
<path d="M26.2248 15.3046H20.7754V10.5219L23.5001 8.60889L26.2248 10.5219V15.3046Z" fill="#0052B4"/>
<path d="M15.3262 14.3481V24.8698C15.3262 27.3752 16.6189 29.6032 18.6127 30.9999L20.0432 30.6648L21.8482 32.3649C22.382 32.4678 22.9344 32.522 23.5001 32.522C24.0628 32.522 24.6124 32.4685 25.1434 32.3666L27.204 30.7604L28.3874 30.9968C30.3804 29.6002 31.674 27.3745 31.674 24.8698V14.3481H15.3262Z" fill="#F0F0F0"/>
<path d="M15.3262 14.3477H18.5957V17.4085H15.3262V14.3477Z" fill="#D80027"/>
<path d="M21.8652 14.3477H25.1348V17.4085H21.8652V14.3477Z" fill="#D80027"/>
<path d="M28.4043 14.3477H31.6738V17.4085H28.4043V14.3477Z" fill="#D80027"/>
<path d="M18.5957 17.4087H21.8652V20.4695H18.5957V17.4087Z" fill="#D80027"/>
<path d="M25.1348 17.4087H28.4043V20.4695H25.1348V17.4087Z" fill="#D80027"/>
<path d="M15.3262 20.4683H18.5957V23.5291H15.3262V20.4683Z" fill="#D80027"/>
<path d="M18.5957 23.5293H21.8652V26.5901H18.5957V23.5293Z" fill="#D80027"/>
<path d="M21.8652 20.4683H25.1348V23.5291H21.8652V20.4683Z" fill="#D80027"/>
<path d="M28.4043 20.4683H31.6738V23.5291H28.4043V20.4683Z" fill="#D80027"/>
<path d="M25.1348 23.5293H28.4043V26.5901H25.1348V23.5293Z" fill="#D80027"/>
<path d="M21.8652 26.5903H25.1348V29.6512H21.8652V26.5903Z" fill="#D80027"/>
<path d="M18.5957 26.5903H15.5371C15.8176 27.7281 16.3692 28.7693 17.1254 29.6512H18.5957V26.5903Z" fill="#D80027"/>
<path d="M28.4043 29.6512H29.8745C30.6309 28.7693 31.1823 27.7281 31.4628 26.5903H28.4043V29.6512Z" fill="#D80027"/>
<path d="M18.5957 29.6514V30.9869C19.5466 31.6568 20.6579 32.1371 21.8652 32.3676V29.6514H18.5957Z" fill="#D80027"/>
<path d="M25.1348 29.6514V32.3676C26.3422 32.1373 27.4534 31.6568 28.4043 30.9869V29.6514H25.1348Z" fill="#D80027"/>
</g>
<defs>
<clipPath id="clip0_105_1308">
<rect width="47" height="44" fill="white"/>
</clipPath>
</defs>
</svg>
