<svg width="47" height="45" viewBox="0 0 47 45" fill="none" xmlns="http://www.w3.org/2000/svg">
<g clip-path="url(#clip0_105_1333)">
<path d="M23.4999 45.0003C36.4785 45.0003 46.9998 34.9268 46.9998 22.5004C46.9998 10.074 36.4785 0.000488281 23.4999 0.000488281C10.5213 0.000488281 0 10.074 0 22.5004C0 34.9268 10.5213 45.0003 23.4999 45.0003Z" fill="#F0F0F0"/>
<path d="M23.4997 0C15.8116 0 8.9861 3.53522 4.69873 9H42.3007C38.0134 3.53514 31.1878 0 23.4997 0V0Z" fill="#0052B4"/>
<path d="M23.4997 44.9995C31.1879 44.9995 38.0134 41.4643 42.3008 35.9995H4.69873C8.98601 41.4644 15.8116 44.9995 23.4997 44.9995Z" fill="#0052B4"/>
<path d="M0 22.5C0 24.0412 0.162297 25.546 0.470643 27H46.5294C46.8378 25.546 47 24.0412 47 22.5C47 20.9588 46.8377 19.454 46.5294 18H0.470643C0.162297 19.454 0 20.9588 0 22.5V22.5Z" fill="#0052B4"/>
<path d="M6.88291 6.59033C-2.2943 15.377 -2.2943 29.6233 6.88291 38.4102C10.6753 34.7791 14.3226 31.287 23.4999 22.5003L6.88291 6.59033Z" fill="#D80027"/>
<path d="M9.51131 16.6304L11.0328 21.1141H15.9573L11.9736 23.8855L13.495 28.3693L9.51131 25.5981L5.52742 28.3693L7.04923 23.8855L3.06543 21.1141H7.9896L9.51131 16.6304Z" fill="#F0F0F0"/>
</g>
<defs>
<clipPath id="clip0_105_1333">
<rect width="47" height="45" fill="white"/>
</clipPath>
</defs>
</svg>
