<svg width="47" height="45" viewBox="0 0 47 45" fill="none" xmlns="http://www.w3.org/2000/svg">
<g clip-path="url(#clip0_105_1342)">
<path d="M23.5 45C36.4787 45 47 34.9264 47 22.5C47 10.0736 36.4787 0 23.5 0C10.5213 0 0 10.0736 0 22.5C0 34.9264 10.5213 45 23.5 45Z" fill="#FFDA44"/>
<path d="M23.5 44.9999C31.211 44.9999 38.0543 41.444 42.3394 35.9517H4.66064C8.94572 41.444 15.7891 44.9999 23.5 44.9999Z" fill="#0052B4"/>
<path d="M47 22.5C47 10.0737 36.4786 0 23.5 0C10.5214 0 0 10.0737 0 22.5C0 25.1607 0.483678 27.713 1.36924 30.0822H45.6307C46.5163 27.713 47 25.1607 47 22.5V22.5Z" fill="#0052B4"/>
<path d="M16.0849 14.4302L17.3529 18.1666H21.4566L18.1367 20.4762L19.4047 24.2128L16.0849 21.9033L12.765 24.2128L14.0332 20.4762L10.7134 18.1666H14.8169L16.0849 14.4302Z" fill="#F0F0F0"/>
<path d="M9.03775 10.5171L9.79856 12.759H12.2608L10.2689 14.1447L11.0297 16.3867L9.03775 15.001L7.04585 16.3867L7.80675 14.1447L5.81494 12.759H8.27712L9.03775 10.5171Z" fill="#F0F0F0"/>
</g>
<defs>
<clipPath id="clip0_105_1342">
<rect width="47" height="45" fill="white"/>
</clipPath>
</defs>
</svg>
