<svg width="47" height="45" viewBox="0 0 47 45" fill="none" xmlns="http://www.w3.org/2000/svg">
<g clip-path="url(#clip0_105_1350)">
<path d="M23.5 45C36.4787 45 47 34.9264 47 22.5C47 10.0736 36.4787 0 23.5 0C10.5213 0 0 10.0736 0 22.5C0 34.9264 10.5213 45 23.5 45Z" fill="#FCFCFC"/>
<path d="M36.7829 19.5654C36.0677 19.5654 35.1821 19.5654 33.7177 19.5654C33.7177 24.9682 29.1431 29.348 23.5003 29.348C17.8573 29.348 13.283 24.9682 13.283 19.5654C12.2952 19.5654 11.2053 19.5654 10.2178 19.5654C10.2178 25.3851 14.3005 30.2918 19.8735 31.8029C19.2625 32.9142 19.3556 34.3133 20.2284 35.3561C21.3748 34.4764 22.5616 33.5658 23.5684 32.7934C24.5753 33.5659 25.7622 34.4765 26.9085 35.3561C27.7899 34.3029 27.8766 32.886 27.2454 31.7694C32.7573 30.2212 36.7829 25.3437 36.7829 19.5654V19.5654Z" fill="#6DA544"/>
<path d="M15.3262 18.5871C15.3262 18.5871 15.3262 23.4784 20.4349 23.4784L21.4566 24.4566H23.5C23.5 24.4566 24.5217 21.5218 26.5652 21.5218C26.5652 21.5218 26.5652 19.5653 28.6087 19.5653C30.6522 19.5653 31.6739 19.5653 31.6739 19.5653C31.6739 19.5653 30.6522 15.6522 35.7609 12.7175L33.7174 11.7393C33.7174 11.7393 26.5652 16.6305 21.4566 15.6523V17.6089H19.4131L18.3914 16.6306L15.3262 18.5871Z" fill="#FFDA44"/>
</g>
<defs>
<clipPath id="clip0_105_1350">
<rect width="47" height="45" fill="white"/>
</clipPath>
</defs>
</svg>
