<svg width="47" height="45" viewBox="0 0 47 45" fill="none" xmlns="http://www.w3.org/2000/svg">
<g clip-path="url(#clip0_105_1354)">
<path d="M23.5 45C36.4787 45 47 34.9264 47 22.5C47 10.0736 36.4787 0 23.5 0C10.5213 0 0 10.0736 0 22.5C0 34.9264 10.5213 45 23.5 45Z" fill="#F0F0F0"/>
<path d="M21.4564 22.5C21.4564 22.5 6.89658 38.413 6.88281 38.4099C11.1354 42.4816 17.0105 45 23.4999 45C36.4785 45 46.9999 34.9263 46.9999 22.5H21.4564Z" fill="#D80027"/>
<path d="M6.88298 6.58984C-2.29433 15.3766 -2.29433 29.6229 6.88298 38.4098C10.6754 34.7787 14.3227 31.2866 23.5 22.4998L6.88298 6.58984Z" fill="#0052B4"/>
</g>
<defs>
<clipPath id="clip0_105_1354">
<rect width="47" height="45" fill="white"/>
</clipPath>
</defs>
</svg>
