<svg width="47" height="45" viewBox="0 0 47 45" fill="none" xmlns="http://www.w3.org/2000/svg">
<g clip-path="url(#clip0_105_1358)">
<path d="M44.3904 12.1831C43.3045 10.1687 41.8812 8.27805 40.1176 6.58949C38.3539 4.90085 36.3791 3.53811 34.2753 2.49854L17.7198 16.9659L2.60938 32.8168C3.69524 34.8312 5.11855 36.722 6.88215 38.4106C8.64575 40.0991 10.6206 41.4619 12.7244 42.5015L29.2799 28.0341L44.3904 12.1831Z" fill="#FFDA44"/>
<path d="M6.88214 38.4107C7.86795 39.3546 8.91985 40.1964 10.0232 40.9376L42.7564 9.59702C41.9825 8.54066 41.1033 7.53353 40.1175 6.58967C39.1316 5.64581 38.0798 4.80408 36.9765 4.06299L4.24316 35.4034C5.0171 36.4596 5.89624 37.4669 6.88214 38.4107V38.4107Z" fill="#D80027"/>
<path d="M6.88239 6.58933C-0.531769 13.688 -1.95508 24.3489 2.60961 32.8168L34.2755 2.49846C25.4312 -1.8719 14.2965 -0.508981 6.88239 6.58933V6.58933Z" fill="#338AF3"/>
<path d="M40.1176 38.4105C47.5317 31.3119 48.9549 20.6509 44.3905 12.1831L12.7246 42.5014C21.5688 46.8718 32.7036 45.5091 40.1176 38.4105V38.4105Z" fill="#338AF3"/>
<path d="M12.5233 6.84717L13.7914 10.584H17.8951L14.5752 12.8934L15.8432 16.6302L12.5233 14.3207L9.20321 16.6302L10.4715 12.8934L7.15137 10.584H11.2551L12.5233 6.84717Z" fill="#FFDA44"/>
</g>
<defs>
<clipPath id="clip0_105_1358">
<rect width="47" height="45" fill="white"/>
</clipPath>
</defs>
</svg>
