<svg width="46" height="45" viewBox="0 0 46 45" fill="none" xmlns="http://www.w3.org/2000/svg">
<g clip-path="url(#clip0_105_1365)">
<path d="M23 45C35.7025 45 46 34.9264 46 22.5C46 10.0736 35.7025 0 23 0C10.2975 0 0 10.0736 0 22.5C0 34.9264 10.2975 45 23 45Z" fill="#F0F0F0"/>
<path d="M18.0001 19.5652H45.8053C44.3352 8.52557 34.6857 0 23 0C21.2826 0 19.61 0.185713 18 0.534814V19.5652H18.0001Z" fill="#D80027"/>
<path d="M12.0001 19.5652V2.73584C5.68473 6.1068 1.16361 12.29 0.194824 19.5653H12.0001V19.5652Z" fill="#D80027"/>
<path d="M12 25.4346H0.194824C1.16361 32.7099 5.68473 38.8931 12.0001 42.264L12 25.4346Z" fill="#D80027"/>
<path d="M18 25.4347V44.465C19.61 44.8141 21.2826 44.9998 23 44.9998C34.6857 44.9998 44.3352 36.4742 45.8053 25.4346H18V25.4347Z" fill="#D80027"/>
</g>
<defs>
<clipPath id="clip0_105_1365">
<rect width="46" height="45" fill="white"/>
</clipPath>
</defs>
</svg>
