<svg width="47" height="45" viewBox="0 0 47 45" fill="none" xmlns="http://www.w3.org/2000/svg">
<g clip-path="url(#clip0_105_1372)">
<path d="M21.4564 24.4565C21.4564 24.4565 6.89658 6.58696 6.88281 6.59013C11.1354 2.51842 17.0105 0 23.4999 0C36.4785 0 46.9999 10.0737 46.9999 22.5L21.4564 24.4565Z" fill="#338AF3"/>
<path d="M21.4564 22.5C21.4564 22.5 6.89658 38.413 6.88281 38.4099C11.1354 42.4816 17.0105 45 23.4999 45C36.4785 45 46.9999 34.9263 46.9999 22.5H21.4564Z" fill="#6DA544"/>
<path d="M6.88298 6.58984C-2.29433 15.3766 -2.29433 29.6229 6.88298 38.4098C10.6754 34.7787 14.3227 31.2866 23.5 22.4998L6.88298 6.58984Z" fill="#F0F0F0"/>
<path d="M9.51131 16.6304L11.0328 21.1142H15.9574L11.9736 23.8856L13.495 28.3696L9.51131 25.5983L5.52742 28.3696L7.04923 23.8856L3.06543 21.1142H7.9896L9.51131 16.6304Z" fill="#D80027"/>
</g>
<defs>
<clipPath id="clip0_105_1372">
<rect width="47" height="45" fill="white"/>
</clipPath>
</defs>
</svg>
