<svg width="47" height="45" viewBox="0 0 47 45" fill="none" xmlns="http://www.w3.org/2000/svg">
<g clip-path="url(#clip0_105_1407)">
<path d="M23.5 45C36.4787 45 47 34.9264 47 22.5C47 10.0736 36.4787 0 23.5 0C10.5213 0 0 10.0736 0 22.5C0 34.9264 10.5213 45 23.5 45Z" fill="#F0F0F0"/>
<path d="M0.80957 28.3696C2.97946 36.0779 9.31868 42.1475 17.3696 44.225V28.3696H0.80957Z" fill="#D80027"/>
<path d="M17.3695 0.774902C9.31868 2.85237 2.97937 8.92192 0.80957 16.6302H17.3696V0.774902H17.3695Z" fill="#0052B4"/>
<path d="M46.1903 16.6302C44.0205 8.92192 37.6812 2.85237 29.6304 0.774902V16.6303H46.1903V16.6302Z" fill="#D80027"/>
<path d="M29.6304 44.225C37.6812 42.1474 44.0205 36.078 46.1904 28.3696H29.6304V44.225Z" fill="#0052B4"/>
<path d="M29.6306 22.5C29.6306 25.7417 26.8859 28.3696 23.5001 28.3696C20.1144 28.3696 17.3696 25.7417 17.3696 22.5C17.3696 19.2582 23.5001 16.6304 23.5001 16.6304C23.5001 16.6304 29.6306 19.2582 29.6306 22.5Z" fill="#496E2D"/>
<path d="M17.3696 22.5C17.3696 19.2582 20.1144 16.6304 23.5001 16.6304C26.8859 16.6304 29.6306 19.2582 29.6306 22.5" fill="#0052B4"/>
<path d="M20.0518 19.5654V23.2339C20.0518 25.0574 21.5956 26.5355 23.5001 26.5355C25.4046 26.5355 26.9485 25.0574 26.9485 23.2339V19.5654H20.0518Z" fill="#D80027"/>
</g>
<defs>
<clipPath id="clip0_105_1407">
<rect width="47" height="45" fill="white"/>
</clipPath>
</defs>
</svg>
