<svg width="46" height="45" viewBox="0 0 46 45" fill="none" xmlns="http://www.w3.org/2000/svg">
<g clip-path="url(#clip0_105_1377)">
<path d="M23 45C35.7025 45 46 34.9264 46 22.5C46 10.0736 35.7025 0 23 0C10.2975 0 0 10.0736 0 22.5C0 34.9264 10.2975 45 23 45Z" fill="#F0F0F0"/>
<path d="M27.5 44.5679C36.5925 42.8034 43.7549 35.7966 45.5586 26.9019H27.5V44.5679Z" fill="#496E2D"/>
<path d="M0.441406 26.9019C2.24502 35.7966 9.40754 42.8034 18.5 44.5679V26.9019H0.441406Z" fill="#496E2D"/>
<path d="M45.5586 18.0977C43.7549 9.20295 36.5925 2.19613 27.5 0.431641V18.0977H45.5586Z" fill="#496E2D"/>
<path d="M18.5 0.431641C9.40754 2.19613 2.24502 9.20295 0.441406 18.0977H18.5V0.431641Z" fill="#496E2D"/>
<path d="M21.5 26.9019H18.5V44.5679C19.479 44.7578 20.4805 44.8865 21.5 44.9507V26.9019Z" fill="#FFDA44"/>
<path d="M21.5 18.0977V0.0488281C20.4805 0.112988 19.4789 0.241748 18.5 0.43168V18.0977H21.5Z" fill="#FFDA44"/>
<path d="M24.5001 0.0489551C24.0039 0.0175781 23.5041 0 23 0C22.4959 0 21.9961 0.0175781 21.5 0.0489551V18.0979H24.5V0.0489551H24.5001Z" fill="black"/>
<path d="M21.5 44.9512C21.9961 44.9826 22.4959 45.0002 23 45.0002C23.5041 45.0002 24.0039 44.9826 24.5001 44.9512V26.9023H21.5001V44.9512H21.5Z" fill="black"/>
<path d="M18.4998 21.0324V18.0977H0.441164C0.246922 19.0555 0.115391 20.0351 0.0498047 21.0324H18.4998Z" fill="#FFDA44"/>
<path d="M27.5 21.0324H45.95C45.8845 20.0351 45.7528 19.0555 45.5587 18.0977H27.5001V21.0324H27.5Z" fill="#FFDA44"/>
<path d="M27.5 23.9676H45.95C45.982 23.4823 46 22.9933 46 22.5001C46 22.007 45.982 21.518 45.95 21.0327H27.5V23.9676Z" fill="black"/>
<path d="M0.050043 21.0327C0.0180586 21.518 0 22.007 0 22.5001C0 22.9933 0.0180586 23.4823 0.050043 23.9676H18.5001V21.0328H0.050043V21.0327Z" fill="black"/>
<path d="M23 33.261C29.0752 33.261 34 28.4432 34 22.5001C34 16.5571 29.0752 11.7393 23 11.7393C16.9249 11.7393 12 16.5571 12 22.5001C12 28.4432 16.9249 33.261 23 33.261Z" fill="#D80027"/>
<path d="M25.5062 23.7008C24.688 22.1001 23.6245 20.4776 23.6245 20.4776C23.6245 20.4776 23.651 19.7389 23.651 19.2987C23.651 18.6357 23.1015 18.0981 22.4237 18.0981C21.7816 18.0981 21.2555 18.5808 21.2018 19.1952C20.6969 19.2275 20.2974 19.6372 20.2974 20.1392C20.2974 20.5042 20.5088 20.8206 20.8182 20.9787C20.972 20.6268 21.2732 20.352 21.6456 20.2268C21.7064 20.2754 21.7716 20.3188 21.8412 20.3556L21.9985 20.4293C21.9985 20.4293 21.4155 22.0369 21.4155 22.9005C21.4155 25.3284 23.0519 26.0771 23.0519 26.0771V26.1022L22.2337 26.9025H23.87V25.3017L24.6882 26.1021C24.6954 26.0871 26.238 25.1326 25.5062 23.7008V23.7008Z" fill="#496E2D"/>
<path d="M23 13.6958L23.3723 14.8168H24.5771L23.6024 15.5096L23.9748 16.6306L23 15.9378L22.0252 16.6306L22.3976 15.5096L21.4229 14.8168H22.6277L23 13.6958Z" fill="#496E2D"/>
<path d="M17.7099 15.3775L18.6845 16.0704L19.6593 15.3774L19.287 16.4986L20.2618 17.1912L19.0569 17.1913L18.6846 18.3123L18.3122 17.1913L17.1074 17.1912L18.0821 16.4984L17.7099 15.3775Z" fill="#496E2D"/>
<path d="M14.4404 19.7796H15.6451L16.0175 18.6587L16.3899 19.7796L17.5948 19.7796L16.62 20.4725L16.9924 21.5934L16.0175 20.9006L15.0428 21.5934L15.4151 20.4724L14.4404 19.7796Z" fill="#496E2D"/>
<path d="M14.4404 25.2209L15.4151 24.5283L15.0427 23.4072L16.0175 24.1001L16.9924 23.4072L16.62 24.5282L17.5948 25.221L16.3899 25.2211L16.0175 26.342L15.6451 25.2209H14.4404Z" fill="#496E2D"/>
<path d="M17.71 29.6231L18.0822 28.5024L17.1074 27.8095H18.3123L18.6847 26.6885L19.057 27.8094H20.2619L19.2871 28.5024L19.6594 29.6232L18.6846 28.9304L17.71 29.6231Z" fill="#496E2D"/>
<path d="M23 31.3044L22.6277 30.1836H21.4229L22.3976 29.4907L22.0252 28.3697L23 29.0624L23.9747 28.3696L23.6024 29.4907L24.5771 30.1835L23.3723 30.1836L23 31.3044Z" fill="#496E2D"/>
<path d="M28.2897 29.6231L27.3151 28.9304L26.3404 29.6233L26.7126 28.5024L25.7378 27.8095L26.9427 27.8094L27.3149 26.6885L27.6874 27.8095H28.8922L27.9175 28.5024L28.2897 29.6231Z" fill="#496E2D"/>
<path d="M31.5592 25.2208H30.3545L29.9821 26.3419L29.6098 25.221H28.4048L29.3796 24.5281L29.0072 23.4072L29.9821 24.1L30.9567 23.4072L30.5846 24.5282L31.5592 25.2208Z" fill="#496E2D"/>
<path d="M31.5592 19.7796L30.5846 20.4723L30.9568 21.5933L29.9821 20.9005L29.0073 21.5934L29.3796 20.4724L28.4048 19.7796L29.6098 19.7795L29.982 18.6587L30.3545 19.7796H31.5592Z" fill="#496E2D"/>
<path d="M28.2897 15.3774L27.9175 16.4983L28.8922 17.1912H27.6874L27.3151 18.3122L26.9427 17.1912L25.7378 17.1913L26.7126 16.4983L26.3403 15.3775L27.3151 16.0702L28.2897 15.3774Z" fill="#496E2D"/>
</g>
<defs>
<clipPath id="clip0_105_1377">
<rect width="46" height="45" fill="white"/>
</clipPath>
</defs>
</svg>
