<svg width="46" height="45" viewBox="0 0 46 45" fill="none" xmlns="http://www.w3.org/2000/svg">
<g clip-path="url(#clip0_105_1416)">
<path d="M23 45C35.7025 45 46 34.9264 46 22.5C46 10.0736 35.7025 0 23 0C10.2975 0 0 10.0736 0 22.5C0 34.9264 10.2975 45 23 45Z" fill="#FFDA44"/>
<path d="M22.9998 0C17.3687 0 12.2111 1.98079 8.21289 5.26764L32.9998 22.5L8.21289 39.7324C12.2111 43.0192 17.3687 45 22.9998 45C35.7023 45 45.9998 34.9263 45.9998 22.5C45.9998 10.0737 35.7023 0 22.9998 0Z" fill="#D80027"/>
<path d="M6.73653 6.58984C-2.24551 15.3766 -2.24551 29.6229 6.73653 38.4098C10.4482 34.7787 14.018 31.2866 23 22.4998L6.73653 6.58984Z" fill="black"/>
<path d="M6.37678 17.3457L9.8771 20.5864L14.1095 18.3308L12.0408 22.5891L15.5412 25.8299L10.7621 25.221L8.69314 29.4792L7.80845 24.8445L3.0293 24.2354L7.26148 21.9801L6.37678 17.3457Z" fill="#F0F0F0"/>
</g>
<defs>
<clipPath id="clip0_105_1416">
<rect width="46" height="45" fill="white"/>
</clipPath>
</defs>
</svg>
