<svg width="47" height="44" viewBox="0 0 47 44" fill="none" xmlns="http://www.w3.org/2000/svg">
<g clip-path="url(#clip0_105_1421)">
<path d="M0 22C0 9.84981 10.5214 0 23.5 0C36.4786 0 47 9.84981 47 22L23.5 23.9131L0 22Z" fill="#FFDA44"/>
<path d="M3.14453 33.0002C7.20792 39.5758 14.8017 44.0002 23.4999 44.0002C32.1981 44.0002 39.7919 39.5758 43.8553 33.0002L23.4999 31.5654L3.14453 33.0002Z" fill="#D80027"/>
<path d="M43.8554 33C45.8549 29.7641 47 26.0074 47 22H0C0 26.0074 1.14507 29.7641 3.14459 33H43.8554Z" fill="#0052B4"/>
<path d="M23.5 29.6519C28.0143 29.6519 31.6739 26.2259 31.6739 21.9998C31.6739 17.7736 28.0143 14.3477 23.5 14.3477C18.9857 14.3477 15.3262 17.7736 15.3262 21.9998C15.3262 26.2259 18.9857 29.6519 23.5 29.6519Z" fill="#FFDA44"/>
<path d="M23.4998 26.7824C20.6828 26.7824 18.3911 24.6369 18.3911 21.9998V19.1302C18.3911 16.4931 20.6829 14.3477 23.4998 14.3477C26.3167 14.3477 28.6085 16.4932 28.6085 19.1302V21.9998C28.6085 24.637 26.3168 26.7824 23.4998 26.7824Z" fill="#338AF3"/>
<path d="M31.6741 10.5219H25.5436C25.5436 9.46543 24.6287 8.60889 23.5001 8.60889C22.3716 8.60889 21.4566 9.46543 21.4566 10.5219H15.3262C15.3262 11.5785 16.3092 12.435 17.4377 12.435H17.3697C17.3697 13.4916 18.2845 14.3481 19.4132 14.3481C19.4132 15.4047 20.328 16.2611 21.4566 16.2611H25.5436C26.6723 16.2611 27.5871 15.4047 27.5871 14.3481C28.7158 14.3481 29.6306 13.4916 29.6306 12.435H29.5626C30.6911 12.435 31.6741 11.5785 31.6741 10.5219V10.5219Z" fill="black"/>
</g>
<defs>
<clipPath id="clip0_105_1421">
<rect width="47" height="44" fill="white"/>
</clipPath>
</defs>
</svg>
