<svg width="47" height="44" viewBox="0 0 47 44" fill="none" xmlns="http://www.w3.org/2000/svg">
<g clip-path="url(#clip0_105_1428)">
<path d="M23.5 44C36.4787 44 47 34.1503 47 22C47 9.84974 36.4787 0 23.5 0C10.5213 0 0 9.84974 0 22C0 34.1503 10.5213 44 23.5 44Z" fill="#F0F0F0"/>
<path d="M23.5002 0C13.3961 0 4.7823 5.97025 1.46191 14.3479H45.5386C42.2182 5.97025 33.6044 0 23.5002 0V0Z" fill="#D80027"/>
<path d="M23.5002 44.0002C33.6044 44.0002 42.2182 38.03 45.5385 29.6523H1.46191C4.7823 38.03 13.3961 44.0002 23.5002 44.0002Z" fill="black"/>
<path d="M31.6741 19.6089H25.5436C25.5436 18.5523 24.6287 17.6958 23.5001 17.6958C22.3716 17.6958 21.4566 18.5523 21.4566 19.6089H15.3262C15.3262 20.6655 16.3092 21.5219 17.4378 21.5219H17.3697C17.3697 22.5785 18.2845 23.435 19.4132 23.435C19.4132 24.4916 20.328 25.348 21.4566 25.348H25.5436C26.6723 25.348 27.5871 24.4916 27.5871 23.435C28.7158 23.435 29.6306 22.5785 29.6306 21.5219H29.5626C30.6911 21.5219 31.6741 20.6655 31.6741 19.6089V19.6089Z" fill="#FF9811"/>
</g>
<defs>
<clipPath id="clip0_105_1428">
<rect width="47" height="44" fill="white"/>
</clipPath>
</defs>
</svg>
