<svg width="47" height="44" viewBox="0 0 47 44" fill="none" xmlns="http://www.w3.org/2000/svg">
<g clip-path="url(#clip0_105_1433)">
<path d="M23.5 44C36.4787 44 47 34.1503 47 22C47 9.84974 36.4787 0 23.5 0C10.5213 0 0 9.84974 0 22C0 34.1503 10.5213 44 23.5 44Z" fill="#F0F0F0"/>
<path d="M23.5002 0C14.1834 0 6.13316 5.0759 2.33203 12.4348H44.6683C40.8673 5.0759 32.8169 0 23.5002 0V0Z" fill="#0052B4"/>
<path d="M23.5002 44.0002C32.8169 44.0002 40.8673 38.9243 44.6684 31.5654H2.33203C6.13316 38.9243 14.1834 44.0002 23.5002 44.0002Z" fill="#0052B4"/>
<path d="M18.7808 22.9563L23.5 15.3042L28.2193 22.9563H18.7808Z" fill="#FFDA44"/>
<path d="M29.6306 25.4833L23.5001 28.3529L17.3696 25.4833V21.6572H29.6306V25.4833Z" fill="#6DA544"/>
<path d="M29.2798 15.6328L27.1123 17.6619C28.0368 18.5274 28.6087 19.723 28.6087 21.0437C28.6087 23.6851 26.3214 25.8263 23.5 25.8263C20.6787 25.8263 18.3914 23.685 18.3914 21.0437C18.3914 19.723 18.9633 18.5274 19.8877 17.6619L17.7203 15.6328C16.241 17.0174 15.3262 18.9305 15.3262 21.0437C15.3262 25.2699 18.9857 28.6958 23.5 28.6958C28.0143 28.6958 31.6739 25.2698 31.6739 21.0437C31.6738 18.9305 30.759 17.0174 29.2798 15.6328V15.6328Z" fill="#FFDA44"/>
</g>
<defs>
<clipPath id="clip0_105_1433">
<rect width="47" height="44" fill="white"/>
</clipPath>
</defs>
</svg>
