<svg width="47" height="44" viewBox="0 0 47 44" fill="none" xmlns="http://www.w3.org/2000/svg">
<g clip-path="url(#clip0_105_1441)">
<path d="M23.5 44C36.4787 44 47 34.1503 47 22C47 9.84974 36.4787 0 23.5 0C10.5213 0 0 9.84974 0 22C0 34.1503 10.5213 44 23.5 44Z" fill="#F0F0F0"/>
<path d="M46.8011 19.1305H26.5654H26.5653V0.186227C25.5618 0.0639375 24.5389 0 23.5 0C22.4611 0 21.4381 0.0639375 20.4348 0.186227V19.1303V19.1304H0.198924C0.0682969 20.0698 0 21.0273 0 22C0 22.9727 0.0682969 23.9302 0.198924 24.8695H20.4346H20.4347V43.8138C21.4382 43.9361 22.4611 44 23.5 44C24.5389 44 25.5618 43.9361 26.5652 43.8138V24.8697V24.8696H46.8011C46.9317 23.9302 47 22.9727 47 22C47 21.0273 46.9317 20.0698 46.8011 19.1305V19.1305Z" fill="#D80027"/>
</g>
<defs>
<clipPath id="clip0_105_1441">
<rect width="47" height="44" fill="white"/>
</clipPath>
</defs>
</svg>
