<svg width="47" height="44" viewBox="0 0 47 44" fill="none" xmlns="http://www.w3.org/2000/svg">
<g clip-path="url(#clip0_105_1444)">
<path d="M23.5 44C36.4787 44 47 34.1503 47 22C47 9.84974 36.4787 0 23.5 0C10.5213 0 0 9.84974 0 22C0 34.1503 10.5213 44 23.5 44Z" fill="#F0F0F0"/>
<path d="M14.3044 14.3479H45.5383C42.218 5.97025 33.6041 0 23.5 0C17.0105 0 11.1362 2.46288 6.88379 6.44437L14.3044 14.3479Z" fill="#6DA544"/>
<path d="M14.3044 29.6523H45.5383C42.218 38.03 33.6041 44.0002 23.5 44.0002C17.0105 44.0002 11.1362 41.5373 6.88379 37.5558L14.3044 29.6523Z" fill="#D80027"/>
<path d="M6.88298 6.44336C-2.29433 15.0349 -2.29433 28.9646 6.88298 37.5562C10.6754 34.0058 14.3227 30.5913 23.5 21.9998L6.88298 6.44336Z" fill="#0052B4"/>
<path d="M27.5869 18.1738V22.9564C27.5869 25.8852 31.6739 26.7826 31.6739 26.7826C31.6739 26.7826 35.7609 25.8852 35.7609 22.9564V18.1738H27.5869Z" fill="#DEDDE0"/>
<path d="M30.6523 22.0957H32.6958V24.8696H30.6523V22.0957Z" fill="#786145"/>
<path d="M33.7176 21.0434C33.7176 19.9868 32.8027 19.1304 31.6741 19.1304C30.5454 19.1304 29.6306 19.9868 29.6306 21.0434C29.0663 21.0434 28.6089 21.4717 28.6089 21.9999C28.6089 22.5282 29.0663 22.9564 29.6306 22.9564H33.7176C34.2818 22.9564 34.7393 22.5282 34.7393 21.9999C34.7393 21.4717 34.2819 21.0434 33.7176 21.0434V21.0434Z" fill="#6DA544"/>
</g>
<defs>
<clipPath id="clip0_105_1444">
<rect width="47" height="44" fill="white"/>
</clipPath>
</defs>
</svg>
