<svg width="46" height="44" viewBox="0 0 46 44" fill="none" xmlns="http://www.w3.org/2000/svg">
<g clip-path="url(#clip0_105_1452)">
<path d="M20.9998 20.0869C20.9998 20.0869 6.7498 37.5595 6.73633 37.5563C10.8984 41.5375 16.6485 44 22.9998 44C35.7023 44 45.9998 34.1502 45.9998 22L20.9998 20.0869Z" fill="#338AF3"/>
<path d="M20.9998 22C20.9998 22 6.7498 6.44059 6.73633 6.44368C10.8984 2.46245 16.6485 0 22.9998 0C35.7023 0 45.9998 9.84981 45.9998 22H20.9998Z" fill="#6DA544"/>
<path d="M6.73653 6.44336C-2.24551 15.0349 -2.24551 28.9646 6.73653 37.5562C6.7359 37.5597 46 21.9998 46 21.9998L6.73653 6.44336Z" fill="#D80027"/>
<path d="M12 12.9131C7.58872 12.9131 4 16.3459 4 20.5652V23.4348C4 27.6542 7.58881 31.0869 12 31.0869C16.4111 31.0869 19.9999 27.6541 19.9999 23.4348V20.5652C20 16.3459 16.4112 12.9131 12 12.9131ZM16.9999 23.4348C16.9999 25.5723 15.5263 27.3863 13.4999 27.9973V24.8697L15.6224 22.8395L13.5011 20.8104L13.4999 20.0883V19.1306H10.5V22L8.37898 24.0288L10.5 26.0575V27.9974C8.47359 27.3864 6.99997 25.5724 6.99997 23.4349V20.5654C6.99997 17.9282 9.24301 15.7828 12 15.7828C14.7569 15.7828 16.9999 17.9283 16.9999 20.5654V23.4348Z" fill="#FFDA44"/>
</g>
<defs>
<clipPath id="clip0_105_1452">
<rect width="46" height="44" fill="white"/>
</clipPath>
</defs>
</svg>
