<svg width="46" height="44" viewBox="0 0 46 44" fill="none" xmlns="http://www.w3.org/2000/svg">
<g clip-path="url(#clip0_105_1461)">
<path d="M0 21.9998C0 24.691 0.50609 27.2688 1.43067 29.6521L23 31.5649L44.5693 29.6521C45.494 27.2688 46 24.6909 46 21.9998C46 19.3456 45.5085 16.8012 44.608 14.4454L23 12.4346L1.39204 14.4455C0.491535 16.8012 0 19.3456 0 21.9998H0Z" fill="#FFDA44"/>
<path d="M23.0001 44.0002C32.8893 44.0002 41.3198 38.03 44.5695 29.6523H1.43066C4.6804 38.03 13.1109 44.0002 23.0001 44.0002Z" fill="#D80027"/>
<path d="M23.0001 0C13.1109 0 4.6804 5.97025 1.43066 14.3479H44.5696C41.3198 5.97025 32.8893 0 23.0001 0V0Z" fill="#6DA544"/>
<path d="M23 32.5215C29.0752 32.5215 34 27.8108 34 21.9998C34 16.1888 29.0752 11.478 23 11.478C16.9249 11.478 12 16.1888 12 21.9998C12 27.8108 16.9249 32.5215 23 32.5215Z" fill="#0052B4"/>
<path d="M22.9978 13.8525L24.9835 19.6982H31.4196L26.2107 23.3111L28.212 29.1741L22.9978 25.544L17.7915 29.1674L19.7848 23.3111L14.5806 19.6982H21.012L22.9978 13.8525Z" fill="#FFDA44"/>
<path d="M30.9173 23.455L24.6178 21.497L28.511 16.3716L26.8931 15.2471L22.9997 20.3727L19.1067 15.2472L17.4886 16.3716L21.3817 21.4973L15.0825 23.4549L15.7005 25.2744L21.9999 23.3167V29.6522H23.9999V23.3166L30.2991 25.2744L30.9173 23.455Z" fill="#FFDA44"/>
</g>
<defs>
<clipPath id="clip0_105_1461">
<rect width="46" height="44" fill="white"/>
</clipPath>
</defs>
</svg>
