<svg width="47" height="44" viewBox="0 0 47 44" fill="none" xmlns="http://www.w3.org/2000/svg">
<g clip-path="url(#clip0_105_1469)">
<path d="M23.5 44C36.4787 44 47 34.1503 47 22C47 9.84974 36.4787 0 23.5 0C10.5213 0 0 9.84974 0 22C0 34.1503 10.5213 44 23.5 44Z" fill="#0052B4"/>
<path d="M23.5003 8.60889L24.2612 10.8011H26.7232L24.7313 12.1559L25.4922 14.3481L23.5003 12.9932L21.5083 14.3481L22.2692 12.1559L20.2773 10.8011H22.7394L23.5003 8.60889Z" fill="#FFDA44"/>
<path d="M13.3852 12.5311L15.5792 13.5775L17.3201 11.9478L16.9348 14.2242L19.1287 15.2707L16.6969 15.6313L16.3117 17.9079L15.1939 15.8541L12.7622 16.2148L14.5031 14.585L13.3852 12.5311Z" fill="#FFDA44"/>
<path d="M9.1958 22.0002L11.5374 21.2878V18.9829L12.9845 20.8478L15.3263 20.1354L13.8789 22.0002L15.3263 23.8649L12.9845 23.1527L11.5374 25.0174V22.7125L9.1958 22.0002Z" fill="#FFDA44"/>
<path d="M13.3852 31.4691L14.503 29.4151L12.7622 27.7853L15.194 28.1461L16.3116 26.0923L16.6969 28.3689L19.1286 28.7295L16.935 29.7759L17.3201 32.0524L15.5792 30.4226L13.3852 31.4691Z" fill="#FFDA44"/>
<path d="M23.5003 35.3913L22.7393 33.1992H20.2773L22.2693 31.8444L21.5083 29.6523L23.5003 31.0071L25.4922 29.6523L24.7313 31.8444L26.7232 33.1992H24.2611L23.5003 35.3913Z" fill="#FFDA44"/>
<path d="M33.6149 31.4691L31.421 30.4227L29.68 32.0525L30.0653 29.7758L27.8716 28.7295L30.3033 28.3689L30.6885 26.0923L31.8062 28.1461L34.2379 27.7853L32.497 29.4153L33.6149 31.4691Z" fill="#FFDA44"/>
<path d="M37.8046 22.0002L35.463 22.7125V25.0174L34.0158 23.1526L31.6743 23.8649L33.1215 22.0002L31.6743 20.1354L34.0159 20.8478L35.463 18.9829V21.2879L37.8046 22.0002Z" fill="#FFDA44"/>
<path d="M33.6149 12.531L32.497 14.5849L34.238 16.2147L31.8061 15.854L30.6885 17.9078L30.3033 15.6312L27.8716 15.2705L30.0653 14.2242L29.68 11.9478L31.4211 13.5775L33.6149 12.531Z" fill="#FFDA44"/>
</g>
<defs>
<clipPath id="clip0_105_1469">
<rect width="47" height="44" fill="white"/>
</clipPath>
</defs>
</svg>
