<svg width="46" height="44" viewBox="0 0 46 44" fill="none" xmlns="http://www.w3.org/2000/svg">
<g clip-path="url(#clip0_105_1480)">
<path d="M46 22C46 34.1502 35.7025 44 23 44C10.2975 44 0 34.1502 0 22C0 22.0052 23 0.00240625 23 0C35.7025 0 46 9.84981 46 22Z" fill="#0052B4"/>
<path d="M22.9385 21.9998H23C23 21.98 23 21.9608 23 21.9409C22.9795 21.9606 22.9591 21.9802 22.9385 21.9998Z" fill="#F0F0F0"/>
<path d="M23 11.4782C23 7.60719 23 5.07074 23 0H22.9961C10.2954 0.0020625 0 9.85093 0 22H12V15.5366L18.7573 22H22.9385L23.0001 21.9411C23.0001 20.459 23.0001 19.1365 23.0001 17.9419L16.2427 11.4782H23Z" fill="#F0F0F0"/>
<path d="M11.6361 2.86963C8.03889 4.82892 5.04835 7.68943 3 11.1303V22.0001H9.00004V8.60896V8.60879H23C23 6.79869 23 5.07427 23 2.86963H11.6361Z" fill="#D80027"/>
<path d="M22.9999 19.2948L14.8284 11.4785H12V11.4787L22.9998 22.0002H22.9999C22.9999 22.0002 22.9999 20.1347 22.9999 19.2948Z" fill="#D80027"/>
<path d="M37 25.8262V26.7827H29.0001V25.8262H26V29.6522H28V30.6088H38.0001V29.6522H40V25.8262H37Z" fill="#FFDA44"/>
<path d="M26 11.478V21.9998C26 27.125 33 28.6954 33 28.6954C33 28.6954 40 27.125 40 21.9998V11.478H26Z" fill="#338AF3"/>
<path d="M32.9995 19.3267C31.2497 19.3267 31.2497 20.8571 29.4998 20.8571C27.7499 20.8571 27.7499 19.3267 26 19.3267V22.0049C27.7499 22.0049 27.7499 23.5354 29.4998 23.5354C31.2497 23.5354 31.2497 22.0049 32.9995 22.0049C34.7496 22.0049 34.7496 23.5354 36.4998 23.5354C38.2499 23.5354 38.2498 22.0049 40 22.0049V19.3267C38.2499 19.3267 38.2499 20.8571 36.4998 20.8571C34.7496 20.8571 34.7496 19.3267 32.9995 19.3267V19.3267Z" fill="#F3F3F3"/>
<path d="M32.9995 13.9653C31.2497 13.9653 31.2497 15.4958 29.4998 15.4958C27.7499 15.4958 27.7499 13.9653 26 13.9653V16.6436C27.7499 16.6436 27.7499 18.174 29.4998 18.174C31.2497 18.174 31.2497 16.6436 32.9995 16.6436C34.7496 16.6436 34.7496 18.174 36.4998 18.174C38.2499 18.174 38.2498 16.6436 40 16.6436V13.9653C38.2499 13.9653 38.2499 15.4958 36.4998 15.4958C34.7496 15.4958 34.7496 13.9653 32.9995 13.9653Z" fill="#F3F3F3"/>
</g>
<defs>
<clipPath id="clip0_105_1480">
<rect width="46" height="44" fill="white"/>
</clipPath>
</defs>
</svg>
