<svg width="47" height="44" viewBox="0 0 47 44" fill="none" xmlns="http://www.w3.org/2000/svg">
<g clip-path="url(#clip0_105_1494)">
<path d="M23.5 44C36.4787 44 47 34.1503 47 22C47 9.84974 36.4787 0 23.5 0C10.5213 0 0 9.84974 0 22C0 34.1503 10.5213 44 23.5 44Z" fill="#F0F0F0"/>
<path d="M45.9782 21.9998L46.8006 19.1303C46.664 18.1522 46.4592 17.1942 46.1905 16.2607H21.4564V0.0834961C20.4136 0.167543 19.3905 0.316129 18.3912 0.523582L14.3043 2.86933L12.2608 2.67623C11.1854 3.22554 10.1608 3.85117 9.19559 4.54546V16.2606H0.809484C0.540795 17.1941 0.335904 18.1521 0.199311 19.1302L1.02163 21.9998L0.199219 24.8693C0.335812 25.8474 0.540703 26.8054 0.809393 27.7389H9.1955V39.454C10.1607 40.1484 11.1854 40.774 12.2607 41.3233L15.3259 41.1302L18.3911 43.4759C19.3905 43.6833 20.4135 43.8319 21.4563 43.916V27.739H46.1902C46.4589 26.8055 46.6638 25.8475 46.8004 24.8694L45.9782 21.9998Z" fill="#0052B4"/>
<path d="M46.8011 19.1305H18.3914H18.3913V0.522949C16.2196 0.973777 14.1607 1.7045 12.2608 2.675V19.1304H0.198924C0.0682969 20.0698 0 21.0275 0 22C0 22.9726 0.0682969 23.9303 0.198924 24.8696H12.2608H12.2608V41.325C14.1607 42.2954 16.2196 43.0263 18.3913 43.477V24.8698V24.8696H46.8011C46.9317 23.9303 47 22.9726 47 22C47 21.0275 46.9317 20.0698 46.8011 19.1305V19.1305Z" fill="#D80027"/>
</g>
<defs>
<clipPath id="clip0_105_1494">
<rect width="47" height="44" fill="white"/>
</clipPath>
</defs>
</svg>
