<svg width="47" height="44" viewBox="0 0 47 44" fill="none" xmlns="http://www.w3.org/2000/svg">
<g clip-path="url(#clip0_105_1498)">
<path d="M47 22C47 34.1502 36.4786 44 23.5 44C10.5214 44 0 34.1502 0 22C0 22.0052 23.5 0.00240625 23.5 0C36.4786 0 47 9.84981 47 22Z" fill="#338AF3"/>
<path d="M23.5 10.522V17.9421L15.3262 10.522H23.5Z" fill="#0052B4"/>
<path d="M12.261 22.0003H19.1652L12.261 13.3916L11.2393 20.0873L12.261 22.0003Z" fill="#0052B4"/>
<path d="M23.437 21.9998H23.4999C23.4999 21.98 23.4999 21.9608 23.4999 21.9409C23.479 21.9606 23.458 21.9802 23.437 21.9998Z" fill="#F0F0F0"/>
<path d="M23.5 11.4782C23.5 7.60719 23.5 5.07074 23.5 0H23.4961C10.5192 0.0020625 0 9.85093 0 22H12.2608V15.5366L19.1651 22H23.4373C23.4582 21.9804 23.4792 21.9608 23.5002 21.9411C23.5002 20.459 23.5002 19.1365 23.5002 17.9419L16.5958 11.4782H23.5Z" fill="#F0F0F0"/>
<path d="M11.8893 2.86963C8.21386 4.82892 5.15831 7.68943 3.06543 11.1303V22.0001H9.1959V8.60896V8.60879H23.5002C23.5002 6.79869 23.5002 5.07427 23.5002 2.86963H11.8893Z" fill="#D80027"/>
<path d="M23.5003 19.2948L15.1511 11.4785H12.2612V11.4787L23.5001 22.0002H23.5003C23.5003 22.0002 23.5003 20.1347 23.5003 19.2948Z" fill="#D80027"/>
<path d="M26.5654 14.3476V21.9997C26.5654 27.125 33.7176 28.6954 33.7176 28.6954C33.7176 28.6954 40.8698 27.125 40.8698 21.9997V14.3476L33.7176 12.4346L26.5654 14.3476Z" fill="#F3F3F3"/>
<path d="M40.8698 14.3481V11.4785H26.5654V14.3481H32.6957V20.0873H26.5654V22.0002V22.0004L32.6957 22.0004V28.4025C33.3124 28.6067 33.7176 28.6959 33.7176 28.6959C33.7176 28.6959 34.1226 28.6069 34.7392 28.4025V22.0004H40.8698V22.0002V20.0872H34.7392V14.348H40.8698V14.3481Z" fill="#D80027"/>
</g>
<defs>
<clipPath id="clip0_105_1498">
<rect width="47" height="44" fill="white"/>
</clipPath>
</defs>
</svg>
