<svg width="47" height="44" viewBox="0 0 47 44" fill="none" xmlns="http://www.w3.org/2000/svg">
<g clip-path="url(#clip0_105_1512)">
<path d="M23.5 44C36.4787 44 47 34.1503 47 22C47 9.84974 36.4787 0 23.5 0C10.5213 0 0 9.84974 0 22C0 34.1503 10.5213 44 23.5 44Z" fill="#F0F0F0"/>
<path d="M46.8011 19.1305H18.3914H18.3913V0.522949C16.2196 0.973777 14.1607 1.7045 12.2608 2.675V19.1303V19.1304H0.198924C0.0681133 20.0698 0 21.0275 0 22C0 22.9726 0.0681133 23.9303 0.198924 24.8696H12.2608H12.2608V41.325C14.1607 42.2954 16.2196 43.0263 18.3913 43.477V24.8698V24.8696H46.8011C46.9317 23.9303 47 22.9726 47 22C47 21.0275 46.9317 20.0698 46.8011 19.1305V19.1305Z" fill="#0052B4"/>
</g>
<defs>
<clipPath id="clip0_105_1512">
<rect width="47" height="44" fill="white"/>
</clipPath>
</defs>
</svg>
