<svg width="47" height="44" viewBox="0 0 47 44" fill="none" xmlns="http://www.w3.org/2000/svg">
<g clip-path="url(#clip0_105_1515)">
<path d="M23.5 44C36.4787 44 47 34.1503 47 22C47 9.84974 36.4787 0 23.5 0C10.5213 0 0 9.84974 0 22C0 34.1503 10.5213 44 23.5 44Z" fill="#F0F0F0"/>
<path d="M47 21.9998C47 12.5406 40.6226 4.47661 31.6738 1.36816V42.6315C40.6226 39.523 47 31.459 47 21.9998V21.9998Z" fill="#D80027"/>
<path d="M0 21.9998C0 31.459 6.3774 39.523 15.3261 42.6314V1.36816C6.3774 4.47661 0 12.5406 0 21.9998Z" fill="#0052B4"/>
</g>
<defs>
<clipPath id="clip0_105_1515">
<rect width="47" height="44" fill="white"/>
</clipPath>
</defs>
</svg>
