<svg width="47" height="44" viewBox="0 0 47 44" fill="none" xmlns="http://www.w3.org/2000/svg">
<g clip-path="url(#clip0_105_1519)">
<path d="M23.5 44C36.4787 44 47 34.1503 47 22C47 9.84974 36.4787 0 23.5 0C10.5213 0 0 9.84974 0 22C0 34.1503 10.5213 44 23.5 44Z" fill="#F0F0F0"/>
<path d="M2.85742 11.4782H44.1426C40.157 4.63968 32.4076 0 23.5001 0C14.5925 0 6.84315 4.63968 2.85742 11.4782V11.4782Z" fill="#D80027"/>
<path d="M23.5001 44.0002C32.4076 44.0002 40.157 39.3605 44.1427 32.522H2.85742C6.84315 39.3605 14.5926 44.0002 23.5001 44.0002Z" fill="#D80027"/>
<path d="M31.6739 21.9998C31.6739 26.226 28.0143 28.6954 23.5 28.6954C18.9857 28.6954 15.3262 26.226 15.3262 21.9998C15.3262 17.7736 18.9857 14.3477 23.5 14.3477C28.0143 14.3477 31.6739 17.7736 31.6739 21.9998Z" fill="#FFDA44"/>
<path d="M31.6739 22C31.6739 26.2262 28.0143 29.6521 23.5 29.6521C18.9857 29.6521 15.3262 26.2262 15.3262 22" fill="#0052B4"/>
<path d="M18.3911 20.0869H20.4346V23.913H18.3911V20.0869Z" fill="#D80027"/>
<path d="M26.5649 20.0869H28.6084V23.913H26.5649V20.0869Z" fill="#D80027"/>
<path d="M22.478 17.2173H24.5215V23.9129H22.478V17.2173Z" fill="#D80027"/>
</g>
<defs>
<clipPath id="clip0_105_1519">
<rect width="47" height="44" fill="white"/>
</clipPath>
</defs>
</svg>
