<svg width="46" height="44" viewBox="0 0 46 44" fill="none" xmlns="http://www.w3.org/2000/svg">
<g clip-path="url(#clip0_105_1530)">
<path d="M44.5694 29.6519C45.494 27.2687 46 24.6908 46 21.9998C46 19.3087 45.494 16.731 44.5694 14.3476L23 12.4346L1.43058 14.3476C0.50609 16.731 0 19.3087 0 21.9998C0 24.6908 0.50609 27.2687 1.43058 29.6519L23 31.5649L44.5694 29.6519Z" fill="#FFDA44"/>
<path d="M23.0002 44.0002C32.8893 44.0002 41.3199 38.03 44.5695 29.6523H1.43066C4.68049 38.03 13.1109 44.0002 23.0002 44.0002Z" fill="#0052B4"/>
<path d="M23.0002 0C13.1109 0 4.68049 5.97025 1.43066 14.3479H44.5696C41.3199 5.97025 32.8893 0 23.0002 0Z" fill="#6DA544"/>
</g>
<defs>
<clipPath id="clip0_105_1530">
<rect width="46" height="44" fill="white"/>
</clipPath>
</defs>
</svg>
