<svg width="47" height="44" viewBox="0 0 47 44" fill="none" xmlns="http://www.w3.org/2000/svg">
<g clip-path="url(#clip0_105_1534)">
<path d="M47 21.9998C47 19.3088 46.483 16.7309 45.5383 14.3477L23.5 13.3911L1.46168 14.3476C0.517092 16.7309 0 19.3088 0 21.9998C0 24.6909 0.517092 27.2687 1.46168 29.6519L23.5 30.6085L45.5383 29.652C46.483 27.2687 47 24.6909 47 21.9998Z" fill="#F0F0F0"/>
<path d="M23.5002 44.0002C33.6044 44.0002 42.2182 38.03 45.5385 29.6523H1.46191C4.7823 38.03 13.3961 44.0002 23.5002 44.0002Z" fill="#0052B4"/>
<path d="M1.46191 14.3479H45.5386C42.2182 5.97025 33.6044 0 23.5002 0C13.3961 0 4.7823 5.97025 1.46191 14.3479V14.3479Z" fill="#6DA544"/>
</g>
<defs>
<clipPath id="clip0_105_1534">
<rect width="47" height="44" fill="white"/>
</clipPath>
</defs>
</svg>
