<svg width="46" height="44" viewBox="0 0 46 44" fill="none" xmlns="http://www.w3.org/2000/svg">
<g clip-path="url(#clip0_105_1538)">
<path d="M23 44C35.7025 44 46 34.1503 46 22C46 9.84974 35.7025 0 23 0C10.2975 0 0 9.84974 0 22C0 34.1503 10.2975 44 23 44Z" fill="#F0F0F0"/>
<path d="M23 0C13.4914 0 5.33104 5.51942 1.82812 13.3913H44.1719C40.669 5.51942 32.5086 0 23 0Z" fill="#A2001D"/>
<path d="M23 44.0002C32.5086 44.0002 40.669 38.4808 44.1718 30.6089H1.82812C5.33104 38.4808 13.4914 44.0002 23 44.0002Z" fill="#496E2D"/>
<path d="M45.2077 16.2607H0.792332C0.276719 18.0906 0 20.0141 0 21.9999C0 23.9857 0.276719 25.9092 0.792332 27.7391H45.2078C45.7233 25.9092 46 23.9857 46 21.9999C46 20.0141 45.7233 18.0906 45.2077 16.2607V16.2607Z" fill="#0052B4"/>
</g>
<defs>
<clipPath id="clip0_105_1538">
<rect width="46" height="44" fill="white"/>
</clipPath>
</defs>
</svg>
