<svg width="46" height="44" viewBox="0 0 46 44" fill="none" xmlns="http://www.w3.org/2000/svg">
<g clip-path="url(#clip0_105_1551)">
<path d="M1.43066 29.6522C4.6804 38.0298 13.1109 44.0001 23.0001 44.0001C32.8893 44.0001 41.3198 38.0298 44.5695 29.6522L23.0001 27.7393L1.43066 29.6522Z" fill="#FFDA44"/>
<path d="M23.0001 0C13.1109 0 4.6804 5.97025 1.43066 14.3479L23.0001 16.2608L44.5695 14.3478C41.3198 5.97025 32.8893 0 23.0001 0Z" fill="black"/>
<path d="M1.43058 14.3477C0.50609 16.731 0 19.3087 0 21.9998C0 24.6908 0.50609 27.2686 1.43058 29.6519H44.5695C45.494 27.2686 46 24.6908 46 21.9998C46 19.3087 45.494 16.731 44.5694 14.3477H1.43058Z" fill="#D80027"/>
</g>
<defs>
<clipPath id="clip0_105_1551">
<rect width="46" height="44" fill="white"/>
</clipPath>
</defs>
</svg>
