<svg width="47" height="44" viewBox="0 0 47 44" fill="none" xmlns="http://www.w3.org/2000/svg">
<g clip-path="url(#clip0_105_1555)">
<path d="M0 21.9998C0 24.6909 0.517092 27.2686 1.46168 29.6519L23.5 30.6085L45.5383 29.652C46.483 27.2686 47 24.6909 47 21.9998C47 19.3088 46.483 16.731 45.5383 14.3477L23.5 13.3911L1.46168 14.3476C0.517092 16.731 0 19.3088 0 21.9998H0Z" fill="#FFDA44"/>
<path d="M23.5002 0C13.3961 0 4.7823 5.97025 1.46191 14.3479H45.5386C42.2182 5.97025 33.6044 0 23.5002 0V0Z" fill="#D80027"/>
<path d="M45.5385 29.6523H1.46191C4.7823 38.0299 13.3961 44.0002 23.5002 44.0002C33.6044 44.0002 42.2182 38.0299 45.5385 29.6523Z" fill="#496E2D"/>
<path d="M23.4997 14.3477L25.5284 20.1931H32.0944L26.7828 23.8062L28.8115 29.6519L23.4997 26.0391L18.1878 29.6519L20.2169 23.8062L14.9053 20.1931H21.471L23.4997 14.3477Z" fill="black"/>
</g>
<defs>
<clipPath id="clip0_105_1555">
<rect width="47" height="44" fill="white"/>
</clipPath>
</defs>
</svg>
