<svg width="47" height="44" viewBox="0 0 47 44" fill="none" xmlns="http://www.w3.org/2000/svg">
<g clip-path="url(#clip0_105_1560)">
<path d="M23.5 44C36.4787 44 47 34.1503 47 22C47 9.84974 36.4787 0 23.5 0C10.5213 0 0 9.84974 0 22C0 34.1503 10.5213 44 23.5 44Z" fill="#F9F9F9"/>
<path d="M23.4998 44.0002C33.6039 44.0002 42.2178 38.03 45.5381 29.6523H1.46143C4.7819 38.03 13.3956 44.0002 23.4998 44.0002Z" fill="#D80027"/>
<path d="M32.6956 18.1739V15.3043H33.7173V13.3913H31.6738V14.3479H29.6304V13.3913H27.5869V15.3043H28.6086V18.1739H26.5651V11.4784H27.5869V9.56543H25.5434V10.5217H24.5216V9.56543H22.4782V10.5217H21.4564V9.56543H19.4129V11.4784H20.4347V18.1739H18.3912V15.3043H19.4129V13.3913H17.3694V14.3479H15.326V13.3913H13.2825V15.3043H14.3042V18.1739H12.2607V25.8261H34.739V18.1739H32.6956Z" fill="#D80027"/>
<path d="M23.5 24.8696C21.8071 24.8696 20.4348 26.1544 20.4348 27.7392C20.4348 28.9884 21.2879 30.0509 22.4783 30.4448V34.4349H19.4131V38.261H24.5218V30.4449C25.7121 30.051 26.5653 28.9885 26.5653 27.7393C26.5652 26.1545 25.1928 24.8696 23.5 24.8696V24.8696ZM23.5 28.6957C22.9357 28.6957 22.4783 28.2674 22.4783 27.7393C22.4783 27.211 22.9357 26.7828 23.5 26.7828C24.0642 26.7828 24.5217 27.211 24.5217 27.7393C24.5217 28.2674 24.0642 28.6957 23.5 28.6957Z" fill="#FFDA44"/>
</g>
<defs>
<clipPath id="clip0_105_1560">
<rect width="47" height="44" fill="white"/>
</clipPath>
</defs>
</svg>
