<svg width="47" height="44" viewBox="0 0 47 44" fill="none" xmlns="http://www.w3.org/2000/svg">
<g clip-path="url(#clip0_105_1574)">
<path d="M0 22C0 9.84981 10.5214 0 23.5 0C36.4786 0 47 9.84981 47 22C45.9783 22 23.5 24.8695 23.5 24.8695L0 22Z" fill="#F0F0F0"/>
<path d="M47 22C47 34.1502 36.4786 44 23.5 44C10.5214 44 0 34.1502 0 22" fill="#D80027"/>
<path d="M16.348 32.5215C22.5553 32.5215 27.5872 27.8108 27.5872 21.9998C27.5872 16.1888 22.5553 11.478 16.348 11.478C10.1408 11.478 5.10889 16.1888 5.10889 21.9998C5.10889 27.8108 10.1408 32.5215 16.348 32.5215Z" fill="#F0F0F0"/>
<path d="M5.10889 21.9998C5.10889 16.1889 10.1408 11.478 16.348 11.478C22.5553 11.478 27.5872 16.1889 27.5872 21.9998" fill="#D80027"/>
</g>
<defs>
<clipPath id="clip0_105_1574">
<rect width="47" height="44" fill="white"/>
</clipPath>
</defs>
</svg>
