<svg width="47" height="44" viewBox="0 0 47 44" fill="none" xmlns="http://www.w3.org/2000/svg">
<g clip-path="url(#clip0_105_1566)">
<path d="M23.5 44C36.4787 44 47 34.1503 47 22C47 9.84974 36.4787 0 23.5 0C10.5213 0 0 9.84974 0 22C0 34.1503 10.5213 44 23.5 44Z" fill="#F0F0F0"/>
<path d="M23.5 16.2606H46.1904C45.6012 14.2141 44.7056 12.2856 43.5508 10.5215H23.5V16.2606Z" fill="#338AF3"/>
<path d="M8.87157 39.2172H38.1284C40.2731 37.6181 42.1123 35.6757 43.5508 33.478H3.44922C4.88777 35.6756 6.72701 37.6181 8.87157 39.2172V39.2172Z" fill="#338AF3"/>
<path d="M8.17391 5.32275C6.32641 6.81214 4.72923 8.56603 3.44922 10.5216H8.17391V5.32275Z" fill="#338AF3"/>
<path d="M23.5 21.9999C23.5 19.759 23.5 17.8836 23.5 16.2607H14.3043V21.9999H8.17387V16.2607H0.809557C0.282734 18.0907 0 20.0141 0 21.9999C0 23.9857 0.282734 25.9091 0.809557 27.7391H46.1905C46.7173 25.9091 47 23.9857 47 21.9999H23.5Z" fill="#338AF3"/>
<path d="M23.4999 0C20.2366 0 17.1288 0.623305 14.3042 1.74866V10.5218H23.4999C23.4999 8.51838 23.4999 6.8145 23.4999 4.78259H38.1283C34.114 1.78956 29.0305 0 23.4999 0V0Z" fill="#338AF3"/>
</g>
<defs>
<clipPath id="clip0_105_1566">
<rect width="47" height="44" fill="white"/>
</clipPath>
</defs>
</svg>
