<svg width="47" height="44" viewBox="0 0 47 44" fill="none" xmlns="http://www.w3.org/2000/svg">
<g clip-path="url(#clip0_105_1579)">
<path d="M23.5 44C36.4787 44 47 34.1503 47 22C47 9.84974 36.4787 0 23.5 0C10.5213 0 0 9.84974 0 22C0 34.1503 10.5213 44 23.5 44Z" fill="#FFDA44"/>
<path d="M10.2549 3.82611C14.0264 1.41247 18.5866 0 23.5 0C28.4133 0 32.9736 1.41247 36.7451 3.82611L23.5 4.78259L10.2549 3.82611Z" fill="#A2001D"/>
<path d="M23.5 22.0002L22.0003 20.5962L21.6021 21.264L23.5 22.0002Z" fill="#0052B4"/>
<path d="M6.88298 6.44336C-2.29433 15.0349 -2.29433 28.9646 6.88298 37.5562C10.6754 34.0058 14.3227 30.5913 23.5 21.9998L6.88298 6.44336Z" fill="#496E2D"/>
<path d="M40.1171 6.44336C49.2944 15.0349 49.2944 28.9646 40.1171 37.5562C36.3247 34.0058 32.6773 30.5913 23.5 21.9998L40.1171 6.44336Z" fill="#496E2D"/>
<path d="M23.5 29.6519C28.0143 29.6519 31.6739 26.2259 31.6739 21.9998C31.6739 17.7736 28.0143 14.3477 23.5 14.3477C18.9857 14.3477 15.3262 17.7736 15.3262 21.9998C15.3262 26.2259 18.9857 29.6519 23.5 29.6519Z" fill="#A2001D"/>
<path d="M23.4997 14.3477L25.3319 19.6267H31.2617L26.4646 22.89L28.2968 28.1693L23.4997 24.9066L18.7024 28.1693L20.5349 22.89L15.7378 19.6267H21.6673L23.4997 14.3477Z" fill="#FFDA44"/>
<path d="M23.508 0H23.4923C17.0065 0.00197656 11.1351 2.46348 6.88428 6.44256H40.1159C35.865 2.46348 29.9936 0.00197656 23.508 0Z" fill="#A2001D"/>
<path d="M6.88428 37.5576C11.1369 41.5382 17.0113 44.0001 23.5 44.0001C29.9886 44.0001 35.8631 41.5382 40.1157 37.5576H6.88428Z" fill="#A2001D"/>
<path d="M23.4997 2.39111L23.8802 3.48716H25.1112L24.1153 4.16461L24.4958 5.26065L23.4997 4.58329L22.5038 5.26065L22.8843 4.16461L21.8882 3.48716H23.1192L23.4997 2.39111Z" fill="#FFDA44"/>
<path d="M17.8014 2.39111L18.1819 3.48716H19.4129L18.417 4.16461L18.7975 5.26065L17.8014 4.58329L16.8056 5.26065L17.186 4.16461L16.1899 3.48716H17.4209L17.8014 2.39111Z" fill="#FFDA44"/>
<path d="M29.1984 2.39111L29.5789 3.48716H30.8099L29.814 4.16461L30.1945 5.26065L29.1984 4.58329L28.2025 5.26065L28.583 4.16461L27.5869 3.48716H28.8179L29.1984 2.39111Z" fill="#FFDA44"/>
<path d="M23.4997 38.7388L23.8802 39.8348H25.1112L24.1153 40.5123L24.4958 41.6083L23.4997 40.9309L22.5038 41.6083L22.8843 40.5123L21.8882 39.8348H23.1192L23.4997 38.7388Z" fill="#FFDA44"/>
<path d="M17.8014 38.7388L18.1819 39.8348H19.4129L18.417 40.5123L18.7975 41.6083L17.8014 40.9309L16.8056 41.6083L17.186 40.5123L16.1899 39.8348H17.4209L17.8014 38.7388Z" fill="#FFDA44"/>
<path d="M29.1984 38.7388L29.5789 39.8348H30.8099L29.814 40.5123L30.1945 41.6083L29.1984 40.9309L28.2025 41.6083L28.583 40.5123L27.5869 39.8348H28.8179L29.1984 38.7388Z" fill="#FFDA44"/>
<path d="M7.16022 21.6364C7.76378 22.5292 7.48013 23.7109 6.52645 24.276C5.57287 24.8412 4.31048 24.5756 3.70682 23.6828C2.61398 22.0665 3.24765 19.4268 3.24765 19.4268C3.24765 19.4268 6.06728 20.02 7.16022 21.6364V21.6364Z" fill="#FFDA44"/>
<path d="M5.9802 24.4247C6.54446 24.4247 7.00189 23.9965 7.00189 23.4682C7.00189 22.94 6.54446 22.5117 5.9802 22.5117C5.41593 22.5117 4.9585 22.94 4.9585 23.4682C4.9585 23.9965 5.41593 24.4247 5.9802 24.4247Z" fill="#A2001D"/>
</g>
<defs>
<clipPath id="clip0_105_1579">
<rect width="47" height="44" fill="white"/>
</clipPath>
</defs>
</svg>
