<svg width="46" height="44" viewBox="0 0 46 44" fill="none" xmlns="http://www.w3.org/2000/svg">
<g clip-path="url(#clip0_105_1602)">
<path d="M10.0366 40.1738C13.7278 42.5874 18.1912 43.9999 22.9999 43.9999C27.8086 43.9999 32.272 42.5874 35.9632 40.1738L22.9999 38.2607L10.0366 40.1738Z" fill="#D80027"/>
<path d="M35.9632 3.82611C32.272 1.41255 27.8086 0 22.9999 0C18.1912 0 13.7278 1.41255 10.0366 3.82611L22.9999 5.73916L35.9632 3.82611Z" fill="#D80027"/>
<path d="M46 22.0001C46 14.7203 41.4435 7.40959 35.9633 3.82617H10.0367C3.97738 7.78823 0 14.4496 0 22.0001C0 29.5508 3.97738 36.2119 10.0367 40.1739H35.9633C42.0227 36.2119 46 29.5508 46 22.0001Z" fill="#0052B4"/>
<path d="M21.6984 35.8871C21.3842 35.6293 14 29.4892 14 21.9998C14 14.5105 21.3841 8.37031 21.6984 8.11258L23 7.04541L24.3016 8.1125C24.6158 8.37031 32 14.5104 32 21.9998C32 29.4893 24.6159 35.6294 24.3016 35.8871L23 36.9542L21.6984 35.8871Z" fill="#D80027"/>
<path d="M30 22.0002C30 15.3046 23 9.56543 23 9.56543C23 9.56543 16 15.3048 16 22.0002C16 24.0486 16.6556 26.007 17.565 27.7394H28.435C29.3444 26.007 30 24.0486 30 22.0002Z" fill="#338AF3"/>
<path d="M30 22C30 24.0483 29.3444 26.0067 28.435 27.7392L23 28.6956L17.565 27.7392C16.6556 26.0068 16 24.0483 16 22H30Z" fill="#0052B4"/>
<path d="M22.9999 34.4349C22.9999 34.4349 26.3716 31.6697 28.435 27.7393H17.5649C19.6283 31.6697 22.9999 34.4349 22.9999 34.4349Z" fill="#FFDA44"/>
<path d="M18.5 18.1738H27.5L23 22.4782L18.5 18.1738Z" fill="#6DA544"/>
<path d="M21.5 21.0435H24.5V29.6522H21.5V21.0435Z" fill="#A2001D"/>
</g>
<defs>
<clipPath id="clip0_105_1602">
<rect width="46" height="44" fill="white"/>
</clipPath>
</defs>
</svg>
