<svg width="47" height="44" viewBox="0 0 47 44" fill="none" xmlns="http://www.w3.org/2000/svg">
<g clip-path="url(#clip0_105_1613)">
<path d="M23.5 44C36.4787 44 47 34.1503 47 22C47 9.84974 36.4787 0 23.5 0C10.5213 0 0 9.84974 0 22C0 34.1503 10.5213 44 23.5 44Z" fill="#F0F0F0"/>
<path d="M46.9999 22.0001C46.9999 13.278 41.5779 5.74161 33.7173 2.18311V41.8171C41.5779 38.2586 46.9999 30.7222 46.9999 22.0001V22.0001Z" fill="#338AF3"/>
<path d="M0 22.0001C0 30.7222 5.42198 38.2586 13.2826 41.8171V2.18311C5.42198 5.74161 0 13.278 0 22.0001Z" fill="#338AF3"/>
<path d="M29.641 25.7202L25.6675 22.0003L29.4498 18.4593L29.2784 16.5891L28.1956 15.5752L23.5 19.9711L18.8044 15.5752L17.7216 16.5891L17.5502 18.4593L21.3325 22.0003L17.3589 25.7202L19.5264 27.7492L23.5 24.0294L27.4736 27.7492L29.641 25.7202Z" fill="#ACABB1"/>
<path d="M29.2798 16.5894L27.1124 18.6184C28.0369 19.4839 28.6088 20.6796 28.6088 22.0002C28.6088 24.6416 26.3215 26.7828 23.5001 26.7828C20.6788 26.7828 18.3914 24.6416 18.3914 22.0002C18.3914 20.6796 18.9633 19.4839 19.8877 18.6184L17.7203 16.5894C16.241 17.974 15.3262 19.887 15.3262 22.0002C15.3262 26.2265 18.9857 29.6524 23.5 29.6524C28.0143 29.6524 31.6739 26.2264 31.6739 22.0002C31.6739 19.8871 30.7591 17.9741 29.2798 16.5894V16.5894Z" fill="#6DA544"/>
</g>
<defs>
<clipPath id="clip0_105_1613">
<rect width="47" height="44" fill="white"/>
</clipPath>
</defs>
</svg>
