<svg width="46" height="44" viewBox="0 0 46 44" fill="none" xmlns="http://www.w3.org/2000/svg">
<g clip-path="url(#clip0_105_1620)">
<path d="M23 44C35.7025 44 46 34.1503 46 22C46 9.84974 35.7025 0 23 0C10.2975 0 0 9.84974 0 22C0 34.1503 10.2975 44 23 44Z" fill="#F0F0F0"/>
<path d="M45.8053 19.1305H26.0002H26.0001V0.186227C25.018 0.0639375 24.0168 0 23 0C21.9832 0 20.982 0.0639375 20 0.186227V19.1305H0.194691C0.0668438 20.0698 0 21.0274 0 22C0 22.9726 0.0668438 23.9302 0.194691 24.8695H19.9998H19.9999V43.8138C20.982 43.9361 21.9832 44 23 44C24.0168 44 25.018 43.9361 26 43.8138V24.8698V24.8696H45.8053C45.9332 23.9302 46 22.9726 46 22C46 21.0274 45.9332 20.0698 45.8053 19.1305V19.1305Z" fill="#D80027"/>
<path d="M29.5 22.9563L30.9999 23.9128V20.0867L29.5 21.0433H23.9999V15.7824L25 14.3477H20.9999L22 15.7824V21.0433H16.4999L15 20.0867V23.9128L16.4999 22.9563H22V28.2172L20.9999 29.6519H25L23.9999 28.2172V22.9563H29.5Z" fill="#FFDA44"/>
</g>
<defs>
<clipPath id="clip0_105_1620">
<rect width="46" height="44" fill="white"/>
</clipPath>
</defs>
</svg>
