<svg width="46" height="44" viewBox="0 0 46 44" fill="none" xmlns="http://www.w3.org/2000/svg">
<g clip-path="url(#clip0_105_1631)">
<path d="M31.0001 1.36847C28.5083 0.484086 25.8133 0 22.9998 0C20.1866 0 17.4916 0.484086 15.0001 1.3683L14 22L15 42.6317C17.4916 43.516 20.1866 44 22.9998 44C25.8134 44 28.5083 43.516 31.0001 42.6315L32 22L31.0001 1.36847Z" fill="#FFDA44"/>
<path d="M0 21.9999C0 31.459 6.24163 39.523 15 42.6314V1.36816C6.24163 4.4767 0 12.5406 0 21.9999Z" fill="#D80027"/>
<path d="M46 21.9999C46 12.5406 39.7584 4.4767 31 1.36816V42.6315C39.7584 39.523 46 31.459 46 21.9999Z" fill="#6DA544"/>
</g>
<defs>
<clipPath id="clip0_105_1631">
<rect width="46" height="44" fill="white"/>
</clipPath>
</defs>
</svg>
