<svg width="47" height="44" viewBox="0 0 47 44" fill="none" xmlns="http://www.w3.org/2000/svg">
<g clip-path="url(#clip0_105_1624)">
<path d="M23.5 0C21.379 0 19.3242 0.264688 17.3696 0.757883L15.3262 22L17.3697 43.2421C19.3242 43.7353 21.379 44 23.5 44C36.4787 44 47 34.1502 47 22C47 9.84981 36.4787 0 23.5 0Z" fill="#FFDA44"/>
<path d="M15.3262 22L17.3697 43.2421C19.3242 43.7353 21.379 44 23.5 44C36.4787 44 47 34.1502 47 22H15.3262Z" fill="#6DA544"/>
<path d="M0 21.9998C0 30.3388 4.95611 37.5936 12.2608 41.3248V2.6748C4.95611 6.40604 0 13.6609 0 21.9998Z" fill="#D80027"/>
<path d="M0 21.9999C0 32.1645 7.36404 40.7175 17.3695 43.242V0.757812C7.36404 3.28231 0 11.8353 0 21.9999Z" fill="#D80027"/>
<path d="M8.87997 16.2607L10.4015 20.6449H15.326L11.3422 23.3547L12.8637 27.7391L8.87997 25.0294L4.89607 27.7391L6.41788 23.3547L2.43408 20.6449H7.35834L8.87997 16.2607Z" fill="black"/>
</g>
<defs>
<clipPath id="clip0_105_1624">
<rect width="47" height="44" fill="white"/>
</clipPath>
</defs>
</svg>
