<svg width="47" height="44" viewBox="0 0 47 44" fill="none" xmlns="http://www.w3.org/2000/svg">
<g clip-path="url(#clip0_105_1635)">
<path d="M23.5 44C36.4787 44 47 34.1503 47 22C47 9.84974 36.4787 0 23.5 0C10.5213 0 0 9.84974 0 22C0 34.1503 10.5213 44 23.5 44Z" fill="#F0F0F0"/>
<path d="M23.5001 0C19.3453 0 15.4432 1.0108 12.0566 2.78197V41.218C15.4433 42.9892 19.3453 44 23.5001 44C36.4787 44 47.0001 34.1502 47.0001 22C47.0001 9.84981 36.4787 0 23.5001 0Z" fill="#6DA544"/>
<path d="M12.1255 2.74561C10.6471 3.5126 9.26666 4.42422 8.00546 5.46063C8.13297 5.35596 8.26176 5.25249 8.39156 5.15039L26.3897 21.9998L8.39147 38.8492C8.26158 38.7471 8.13288 38.6437 8.00537 38.539C9.26657 39.5754 10.6471 40.487 12.1254 41.254L46.9999 21.9998L12.1255 2.74561Z" fill="#F0F0F0"/>
<path d="M10.141 3.8999C9.42435 4.36448 8.73606 4.86438 8.08017 5.39865L23.5002 21.9999L8.08008 38.6011C8.73597 39.1354 9.42426 39.6354 10.1409 40.0999L42.9775 21.9999L10.141 3.8999Z" fill="#FFDA44"/>
<path d="M8.39149 5.15039C7.86908 5.56134 7.36493 5.99215 6.88281 6.44341L21.4564 21.9998L6.88281 37.5562C7.36493 38.0076 7.86899 38.4385 8.39149 38.8492L26.3897 21.9998L8.39149 5.15039Z" fill="black"/>
<path d="M6.88298 6.44336C-2.29433 15.0349 -2.29433 28.9646 6.88298 37.5562C10.6754 34.0058 14.3227 30.5913 23.5 21.9998L6.88298 6.44336Z" fill="#D80027"/>
</g>
<defs>
<clipPath id="clip0_105_1635">
<rect width="47" height="44" fill="white"/>
</clipPath>
</defs>
</svg>
