<svg width="47" height="44" viewBox="0 0 47 44" fill="none" xmlns="http://www.w3.org/2000/svg">
<g clip-path="url(#clip0_105_1642)">
<path d="M47 22C47 34.1502 36.4786 44 23.5 44C10.5214 44 0 34.1502 0 22C0 9.84981 23.5 0 23.5 0C23.5 0 47 9.84981 47 22Z" fill="#A2001D"/>
<path d="M0 22C0 9.84981 10.5214 0 23.5 0C36.4786 0 47 9.84981 47 22" fill="#0052B4"/>
<path d="M31.6739 27.7391L23.5 26.7825L15.3262 27.7391V16.2607H31.6739V27.7391Z" fill="#F0F0F0"/>
<path d="M23.5001 26.7826C25.7572 26.7826 27.587 25.0696 27.587 22.9565C27.587 20.8434 25.7572 19.1304 23.5001 19.1304C21.2429 19.1304 19.4131 20.8434 19.4131 22.9565C19.4131 25.0696 21.2429 26.7826 23.5001 26.7826Z" fill="#0052B4"/>
<path d="M23.5 24.8696C24.6286 24.8696 25.5435 24.0131 25.5435 22.9565C25.5435 21.9 24.6286 21.0435 23.5 21.0435C22.3714 21.0435 21.4565 21.9 21.4565 22.9565C21.4565 24.0131 22.3714 24.8696 23.5 24.8696Z" fill="#A2001D"/>
<path d="M20.4346 18.1738H26.5649L23.4998 21.0435L20.4346 18.1738Z" fill="#6DA544"/>
<path d="M22.4785 20.0869H24.522V25.8261H22.4785V20.0869Z" fill="#FFDA44"/>
<path d="M26.7696 25.252H20.2303L15.3262 27.739H31.6739L26.7696 25.252Z" fill="#6DA544"/>
</g>
<defs>
<clipPath id="clip0_105_1642">
<rect width="47" height="44" fill="white"/>
</clipPath>
</defs>
</svg>
