<svg width="47" height="44" viewBox="0 0 47 44" fill="none" xmlns="http://www.w3.org/2000/svg">
<g clip-path="url(#clip0_105_1651)">
<path d="M23.5 44C36.4787 44 47 34.1503 47 22C47 9.84974 36.4787 0 23.5 0C10.5213 0 0 9.84974 0 22C0 34.1503 10.5213 44 23.5 44Z" fill="#F0F0F0"/>
<path d="M23.4998 44C29.4589 44 34.899 41.9224 39.0415 38.5H7.95801C12.1005 41.9224 17.5406 44 23.4998 44Z" fill="#D80027"/>
<path d="M0.740234 27.5001C1.27679 29.4514 2.09249 31.2976 3.14449 33.0001H43.8552C44.9072 31.2976 45.7229 29.4514 46.2595 27.5001L23.4999 25.8262L0.740234 27.5001Z" fill="#0052B4"/>
<path d="M46.2594 16.5C45.7229 14.5487 44.9071 12.7024 43.8552 11L23.4998 10.5218C23.4998 6.67923 23.4998 3.04777 23.4998 0C21.7541 0 20.0527 0.17832 18.4155 0.516312C18.3841 0.522844 3.06494 11.8351 3.06494 22C3.45664 22.0638 23.4998 23.9131 23.4998 23.9131C23.4998 23.9131 23.4998 19.7227 23.4998 16.5H46.2594Z" fill="#0052B4"/>
<path d="M23.5 13.7259V2.72591H16.0576L18.4165 0.517578C8.73273 2.517 1.29213 10.1073 0.153301 19.489C0.0532422 20.3131 0 21.1506 0 21.9998H11.9033V17.615L16.6334 21.9998H25.0406L16.0575 13.7259H23.5Z" fill="#F0F0F0"/>
<path d="M23.5107 21.9999L14.6727 13.726H11.9033V13.7261L20.7412 21.9999H8.94019V10.9999H43.8554C42.5759 8.92941 40.9458 7.07282 39.0419 5.4999H8.94019V4.73291C6.56926 6.4875 4.56882 8.66068 3.06519 11.1334V21.9999H0C0 23.899 0.257031 25.742 0.740342 27.4999H46.2597C46.743 25.742 47 23.899 47 21.9999H23.5107Z" fill="#D80027"/>
</g>
<defs>
<clipPath id="clip0_105_1651">
<rect width="47" height="44" fill="white"/>
</clipPath>
</defs>
</svg>
