<svg width="47" height="44" viewBox="0 0 47 44" fill="none" xmlns="http://www.w3.org/2000/svg">
<g clip-path="url(#clip0_105_1659)">
<path d="M23.5 44C36.4787 44 47 34.1503 47 22C47 9.84974 36.4787 0 23.5 0C10.5213 0 0 9.84974 0 22C0 34.1503 10.5213 44 23.5 44Z" fill="#F0F0F0"/>
<path d="M23.5002 44.0002C32.8169 44.0002 40.8673 38.9243 44.6684 31.5654H2.33203C6.13316 38.9243 14.1834 44.0002 23.5002 44.0002Z" fill="#338AF3"/>
<path d="M23.5002 0C14.1834 0 6.13316 5.0759 2.33203 12.4348H44.6683C40.8673 5.0759 32.8169 0 23.5002 0V0Z" fill="#338AF3"/>
<path d="M14.4622 14.3477L15.2231 16.5398H17.6851L15.6933 17.8946L16.4542 20.0867L14.4622 18.7319L12.4703 20.0867L13.2312 17.8946L11.2393 16.5398H13.7013L14.4622 14.3477Z" fill="#338AF3"/>
<path d="M14.4622 23.9131L15.2231 26.1054H17.6851L15.6933 27.4601L16.4542 29.6522L14.4622 28.2974L12.4703 29.6522L13.2312 27.4601L11.2393 26.1054H13.7013L14.4622 23.9131Z" fill="#338AF3"/>
<path d="M32.5379 14.3477L33.2988 16.5398H35.7609L33.769 17.8946L34.5299 20.0867L32.5379 18.7319L30.5459 20.0867L31.3068 17.8946L29.3149 16.5398H31.7771L32.5379 14.3477Z" fill="#338AF3"/>
<path d="M32.5379 23.9131L33.2988 26.1054H35.7609L33.769 27.4601L34.5299 29.6522L32.5379 28.2974L30.5459 29.6522L31.3068 27.4601L29.3149 26.1054H31.7771L32.5379 23.9131Z" fill="#338AF3"/>
<path d="M23.5003 19.1304L24.2612 21.3226H26.7233L24.7314 22.6774L25.4923 24.8694L23.5003 23.5146L21.5083 24.8694L22.2692 22.6774L20.2773 21.3226H22.7394L23.5003 19.1304Z" fill="#338AF3"/>
</g>
<defs>
<clipPath id="clip0_105_1659">
<rect width="47" height="44" fill="white"/>
</clipPath>
</defs>
</svg>
