<svg width="47" height="44" viewBox="0 0 47 44" fill="none" xmlns="http://www.w3.org/2000/svg">
<g clip-path="url(#clip0_105_1669)">
<path d="M23.5 44C36.4787 44 47 34.1503 47 22C47 9.84974 36.4787 0 23.5 0C10.5213 0 0 9.84974 0 22C0 34.1503 10.5213 44 23.5 44Z" fill="#D80027"/>
<path d="M25.9264 16.6434C25.3923 18.723 24.4434 18.3264 23.9778 20.14C21.2346 19.5225 19.5452 16.9401 20.2047 14.3719C20.864 11.8038 23.6228 10.2222 26.366 10.8397C25.4346 14.4668 26.4042 14.7834 25.9264 16.6434Z" fill="#F0F0F0"/>
<path d="M18.8081 18.1842C20.7557 19.3023 20.0595 20.0247 21.758 20.9999C20.283 23.2515 17.1375 23.9575 14.7323 22.5767C12.3271 21.196 11.5728 18.2512 13.0478 15.9995C16.4448 17.9496 17.0659 17.1842 18.8081 18.1842V18.1842Z" fill="#F0F0F0"/>
<path d="M18.174 24.9986C19.9118 23.61 20.4304 24.453 21.9459 23.2422C23.7777 25.2511 23.5228 28.27 21.377 29.9848C19.231 31.6997 16.0063 31.4609 14.1748 29.4521C17.2054 27.0301 16.6196 26.2405 18.174 24.9986Z" fill="#F0F0F0"/>
<path d="M24.9002 27.6691C24.0263 25.6928 25.0431 25.4914 24.2812 23.7681C26.8882 22.758 29.8764 23.9177 30.9553 26.3582C32.0342 28.7987 30.7953 31.5961 28.1884 32.6062C26.6648 29.1593 25.6818 29.4368 24.9002 27.6691Z" fill="#F0F0F0"/>
<path d="M29.6918 22.5052C27.4141 22.6725 27.5234 21.7048 25.5374 21.8508C25.3168 19.2177 27.4184 16.9154 30.2311 16.7087C33.0438 16.5025 35.503 18.4698 35.7235 21.1031C31.7508 21.3947 31.7289 22.3557 29.6918 22.5052Z" fill="#F0F0F0"/>
</g>
<defs>
<clipPath id="clip0_105_1669">
<rect width="47" height="44" fill="white"/>
</clipPath>
</defs>
</svg>
