<svg width="47" height="44" viewBox="0 0 47 44" fill="none" xmlns="http://www.w3.org/2000/svg">
<g clip-path="url(#clip0_105_1681)">
<path d="M23.5 44C36.4787 44 47 34.1503 47 22C47 9.84974 36.4787 0 23.5 0C10.5213 0 0 9.84974 0 22C0 34.1503 10.5213 44 23.5 44Z" fill="#F0F0F0"/>
<path d="M0.80957 27.7393C2.16927 32.4623 5.16598 36.5558 9.19567 39.4544V27.7393H0.80957Z" fill="#0052B4"/>
<path d="M21.4565 43.9164C22.1301 43.9707 22.8114 44.0001 23.5 44.0001C34.3577 44.0001 43.4939 37.1061 46.1905 27.7393H21.4565V43.9164Z" fill="#0052B4"/>
<path d="M46.1905 16.2608C43.4939 6.89399 34.3577 0 23.5 0C22.8114 0 22.1301 0.0293906 21.4565 0.0837031V16.2608H46.1905Z" fill="#0052B4"/>
<path d="M9.19567 4.5459C5.16598 7.44457 2.16927 11.538 0.80957 16.2611H9.19567V4.5459Z" fill="#0052B4"/>
<path d="M46.8011 19.1305H18.3914H18.3913V0.522949C16.2196 0.973777 14.1607 1.7045 12.2608 2.675V19.1304H0.198924C0.0681133 20.0698 0 21.0275 0 22C0 22.9726 0.0681133 23.9303 0.198924 24.8696H12.2608H12.2608V41.325C14.1607 42.2954 16.2196 43.0263 18.3913 43.477V24.8698V24.8696H46.8011C46.9317 23.9303 47 22.9726 47 22C47 21.0275 46.9317 20.0698 46.8011 19.1305V19.1305Z" fill="#D80027"/>
</g>
<defs>
<clipPath id="clip0_105_1681">
<rect width="47" height="44" fill="white"/>
</clipPath>
</defs>
</svg>
