<svg width="46" height="44" viewBox="0 0 46 44" fill="none" xmlns="http://www.w3.org/2000/svg">
<g clip-path="url(#clip0_105_1689)">
<path d="M23 44C35.7025 44 46 34.1503 46 22C46 9.84974 35.7025 0 23 0C10.2975 0 0 9.84974 0 22C0 34.1503 10.2975 44 23 44Z" fill="#F0F0F0"/>
<path d="M23 0C13.8814 0 6.00248 5.0759 2.28223 12.4348H43.7177C39.9976 5.0759 32.1185 0 23 0V0Z" fill="#FF9811"/>
<path d="M23 44.0002C32.1185 44.0002 39.9976 38.9243 43.7178 31.5654H2.28223C6.00248 38.9243 13.8814 44.0002 23 44.0002Z" fill="#6DA544"/>
<path d="M23 29.6519C27.4182 29.6519 30.9999 26.2259 30.9999 21.9998C30.9999 17.7736 27.4182 14.3477 23 14.3477C18.5817 14.3477 15 17.7736 15 21.9998C15 26.2259 18.5817 29.6519 23 29.6519Z" fill="#0052B4"/>
<path d="M23 26.7825C25.7614 26.7825 28 24.6412 28 21.9999C28 19.3585 25.7614 17.2173 23 17.2173C20.2386 17.2173 18 19.3585 18 21.9999C18 24.6412 20.2386 26.7825 23 26.7825Z" fill="#F0F0F0"/>
<path d="M23 16.0981L24.5425 19.4444L28.3433 19.049L26.085 21.9998L28.3433 24.9507L24.5425 24.5553L23 27.9015L21.4575 24.5553L17.6567 24.9506L19.9151 21.9998L17.6567 19.049L21.4575 19.4444L23 16.0981Z" fill="#0052B4"/>
</g>
<defs>
<clipPath id="clip0_105_1689">
<rect width="46" height="44" fill="white"/>
</clipPath>
</defs>
</svg>
