<svg width="46" height="44" viewBox="0 0 46 44" fill="none" xmlns="http://www.w3.org/2000/svg">
<g clip-path="url(#clip0_105_1699)">
<path d="M23 44C35.7025 44 46 34.1503 46 22C46 9.84974 35.7025 0 23 0C10.2975 0 0 9.84974 0 22C0 34.1503 10.2975 44 23 44Z" fill="#F0F0F0"/>
<path d="M30.4704 16.2608H27.4612C27.4861 16.5772 27.5002 16.8963 27.5002 17.2173C27.5002 19.3455 26.944 21.4082 25.9745 22.8766C25.6754 23.3294 25.1728 23.969 24.5001 24.4004V16.2607H21.5001V24.4004C20.8275 23.969 20.3248 23.3295 20.0257 22.8766C19.0561 21.4082 18.5001 19.3455 18.5001 17.2173C18.5001 16.8963 18.5143 16.5771 18.5391 16.2608H15.5298C15.5105 16.5756 15.5 16.8944 15.5 17.2173C15.5 23.1174 18.7944 27.7391 23 27.7391C27.2056 27.7391 30.5 23.1174 30.5 17.2173C30.5001 16.8944 30.4896 16.5756 30.4704 16.2608V16.2608Z" fill="#D80027"/>
<path d="M9.5 10.5218H12.5V12.4348H15.4999V10.5218H18.4999V12.4348H21.4999V10.5218H24.4999V12.4348H27.4998V10.5218H30.4998V12.4348H33.4998V10.5218H36.4998V12.4348H43.7175C39.9976 5.0759 32.1185 0 23 0C13.8815 0 6.00248 5.0759 2.28223 12.4348H9.5V10.5218Z" fill="#6DA544"/>
<path d="M36.5 31.5654V33.4785H33.5001V31.5654H30.5001V33.4785H27.5001V31.5654H24.5001V33.4785H21.5002V31.5654H18.5002V33.4785H15.5002V31.5654H12.5V33.4785H9.5V31.5654H2.28223C6.00248 38.9243 13.8814 44.0002 23 44.0002C32.1186 44.0002 39.9976 38.9243 43.7178 31.5654H36.5Z" fill="#D80027"/>
</g>
<defs>
<clipPath id="clip0_105_1699">
<rect width="46" height="44" fill="white"/>
</clipPath>
</defs>
</svg>
