<svg width="47" height="45" viewBox="0 0 47 45" fill="none" xmlns="http://www.w3.org/2000/svg">
<g clip-path="url(#clip0_105_1704)">
<path d="M23.5 45C36.4787 45 47 34.9264 47 22.5C47 10.0736 36.4787 0 23.5 0C10.5213 0 0 10.0736 0 22.5C0 34.9264 10.5213 45 23.5 45Z" fill="#F0F0F0"/>
<path d="M23.5002 0C13.3961 0 4.7823 6.10594 1.46191 14.674H45.5386C42.2182 6.10594 33.6044 0 23.5002 0V0Z" fill="#A2001D"/>
<path d="M23.5002 45.0001C33.6044 45.0001 42.2182 38.8942 45.5385 30.3262H1.46191C4.7823 38.8942 13.3961 45.0001 23.5002 45.0001Z" fill="black"/>
<path d="M17.8804 21.0325C17.8676 21.0325 17.855 21.0333 17.8422 21.0335V21.0325H13.3499C13.5776 20.19 14.3761 19.5651 15.3261 19.5651V16.6304C12.5091 16.6304 10.2174 18.8246 10.2174 21.5217V23.9184V23.9674H17.8422H17.8804C18.1622 23.9674 18.3913 24.1869 18.3913 24.4565V25.4347H8.17383V28.3695H21.4565V24.4564C21.4565 22.5685 19.8522 21.0325 17.8804 21.0325V21.0325Z" fill="#496E2D"/>
<path d="M25.5432 25.4347V16.6304H22.478V28.3696H27.5867V25.4347H25.5432Z" fill="#496E2D"/>
<path d="M35.7606 25.4348V16.6304H32.6954V25.4348H31.6736V22.5001H28.6084V28.3697H37.8041V25.4348H35.7606Z" fill="#496E2D"/>
</g>
<defs>
<clipPath id="clip0_105_1704">
<rect width="47" height="45" fill="white"/>
</clipPath>
</defs>
</svg>
