<svg width="47" height="45" viewBox="0 0 47 45" fill="none" xmlns="http://www.w3.org/2000/svg">
<g clip-path="url(#clip0_105_1716)">
<path d="M23.5 45C36.4787 45 47 34.9264 47 22.5C47 10.0736 36.4787 0 23.5 0C10.5213 0 0 10.0736 0 22.5C0 34.9264 10.5213 45 23.5 45Z" fill="#D80027"/>
<path d="M32.2011 15.083L30.5401 20.7582L25.5565 19.8771L22.3485 13.5459L13.6823 16.4903L12.9988 14.6464L10.7314 14.3789L12.4399 18.9887L18.4038 17.5284L20.0987 22.1013L15.9759 27.9268L22.9724 33.6402L21.6463 35.1288L22.538 37.1428L25.8535 33.4211L21.5506 29.2062L24.8394 25.5145L32.1701 26.0202L33.8398 17.3621L35.8494 17.7175L37.2253 15.9711L32.2011 15.083Z" fill="#F0F0F0"/>
</g>
<defs>
<clipPath id="clip0_105_1716">
<rect width="47" height="45" fill="white"/>
</clipPath>
</defs>
</svg>
