<svg width="47" height="45" viewBox="0 0 47 45" fill="none" xmlns="http://www.w3.org/2000/svg">
<g clip-path="url(#clip0_105_1719)">
<path d="M23.5 45C36.4787 45 47 34.9264 47 22.5C47 10.0736 36.4787 0 23.5 0C10.5213 0 0 10.0736 0 22.5C0 34.9264 10.5213 45 23.5 45Z" fill="#F0F0F0"/>
<path d="M32.3485 17.6086H26.4494L23.4999 12.7173L20.5506 17.6086H14.6514L17.6012 22.4999L14.6514 27.3912H20.5506L23.4999 32.2824L26.4494 27.3912H32.3485L29.3987 22.4999L32.3485 17.6086ZM27.1236 22.4999L25.3119 25.5047H21.6882L19.8763 22.4999L21.6881 19.4951H25.3118L27.1236 22.4999ZM23.4999 16.4902L24.1743 17.6085H22.8258L23.4999 16.4902ZM18.0643 19.4951H19.413L18.7386 20.6134L18.0643 19.4951ZM18.0643 25.5047L18.7387 24.3863L19.4131 25.5047H18.0643ZM23.4999 28.5095L22.8257 27.3912H24.1743L23.4999 28.5095ZM28.9356 25.5047H27.5869L28.2614 24.3863L28.9356 25.5047ZM27.5869 19.4951H28.9356L28.2613 20.6134L27.5869 19.4951Z" fill="#0052B4"/>
<path d="M38.1285 4.89111H8.87157C6.72692 6.52658 4.88768 8.51309 3.44922 10.7607H43.5509C42.1123 8.51317 40.2731 6.52658 38.1285 4.89111V4.89111Z" fill="#0052B4"/>
<path d="M8.87157 40.1084H38.1284C40.2731 38.4729 42.1123 36.4864 43.5508 34.2388H3.44922C4.88777 36.4863 6.72701 38.4729 8.87157 40.1084V40.1084Z" fill="#0052B4"/>
</g>
<defs>
<clipPath id="clip0_105_1719">
<rect width="47" height="45" fill="white"/>
</clipPath>
</defs>
</svg>
