<svg width="47" height="45" viewBox="0 0 47 45" fill="none" xmlns="http://www.w3.org/2000/svg">
<g clip-path="url(#clip0_105_1725)">
<path d="M23.5 45C36.4787 45 47 34.9264 47 22.5C47 10.0736 36.4787 0 23.5 0C10.5213 0 0 10.0736 0 22.5C0 34.9264 10.5213 45 23.5 45Z" fill="#F0F0F0"/>
<path d="M47 22.4999C47 12.8257 40.6226 4.57851 31.6738 1.39941V43.6005C40.6226 40.4214 47 32.1741 47 22.4999V22.4999Z" fill="#D80027"/>
<path d="M0 22.4999C0 32.1741 6.37731 40.4214 15.3261 43.6004V1.39941C6.37731 4.57851 0 12.8257 0 22.4999Z" fill="#6DA544"/>
</g>
<defs>
<clipPath id="clip0_105_1725">
<rect width="47" height="45" fill="white"/>
</clipPath>
</defs>
</svg>
