<svg width="46" height="45" viewBox="0 0 46 45" fill="none" xmlns="http://www.w3.org/2000/svg">
<g clip-path="url(#clip0_105_1729)">
<path d="M23 45C25.8134 45 28.5084 44.505 31 43.6005L32 22.5L31.0001 1.39948C28.5084 0.495088 25.8134 0 23 0C20.1866 0 17.4916 0.495088 15.0001 1.39948L14 22.5L15 43.6005C17.4916 44.505 20.1866 45 23 45Z" fill="#F0F0F0"/>
<path d="M0 22.4999C0 32.1741 6.24163 40.4214 15 43.6004V1.39941C6.24163 4.57851 0 12.8257 0 22.4999Z" fill="#FF9811"/>
<path d="M31 1.39941V43.6005C39.7584 40.4214 46 32.1741 46 22.4999C46 12.8257 39.7584 4.57851 31 1.39941V1.39941Z" fill="#6DA544"/>
</g>
<defs>
<clipPath id="clip0_105_1729">
<rect width="46" height="45" fill="white"/>
</clipPath>
</defs>
</svg>
