<svg width="47" height="45" viewBox="0 0 47 45" fill="none" xmlns="http://www.w3.org/2000/svg">
<g clip-path="url(#clip0_105_1733)">
<path d="M23.5 45C36.4787 45 47 34.9264 47 22.5C47 10.0736 36.4787 0 23.5 0C10.5213 0 0 10.0736 0 22.5C0 34.9264 10.5213 45 23.5 45Z" fill="#FFDA44"/>
<path d="M37.8071 4.65117C33.8446 1.73487 28.8843 0 23.5001 0C18.1158 0 13.1555 1.73496 9.19287 4.65117L23.5001 18.3495L37.8071 4.65117Z" fill="#6DA544"/>
<path d="M4.8578 8.80176C1.81207 12.5957 0 17.3449 0 22.5C0 27.6552 1.81207 32.4044 4.85789 36.1985L19.1651 22.5L4.8578 8.80176Z" fill="black"/>
<path d="M9.19287 40.3487C13.1556 43.265 18.1158 44.9998 23.5001 44.9998C28.8843 44.9998 33.8446 43.2649 37.8072 40.3487L23.5001 26.6504L9.19287 40.3487Z" fill="#6DA544"/>
<path d="M42.1421 36.1983C45.188 32.4043 46.9999 27.6552 46.9999 22.5C46.9999 17.3449 45.188 12.5957 42.1421 8.80176L27.835 22.5L42.1421 36.1983Z" fill="black"/>
</g>
<defs>
<clipPath id="clip0_105_1733">
<rect width="47" height="45" fill="white"/>
</clipPath>
</defs>
</svg>
