<svg width="47" height="45" viewBox="0 0 47 45" fill="none" xmlns="http://www.w3.org/2000/svg">
<g clip-path="url(#clip0_105_1742)">
<path d="M23.5 45C36.4787 45 47 34.9264 47 22.5C47 10.0736 36.4787 0 23.5 0C10.5213 0 0 10.0736 0 22.5C0 34.9264 10.5213 45 23.5 45Z" fill="#F0F0F0"/>
<path d="M42.144 36.1998L27.8351 22.4999H27.835L42.144 8.79979C41.5268 8.03197 40.8517 7.29325 40.1173 6.58986C39.3826 5.88656 38.6112 5.24013 37.8091 4.64941L23.5003 18.3494L23.5002 18.3495L9.19137 4.64941C8.38952 5.24021 7.61788 5.88647 6.88323 6.58986C6.14858 7.29325 5.4735 8.03197 4.85654 8.79979L19.1654 22.4997L19.1655 22.4997L4.85645 36.1999C5.4736 36.9677 6.14867 37.7064 6.88314 38.4098C7.61779 39.1131 8.38925 39.7595 9.19128 40.3502L23.5002 26.6503L23.5003 26.6502L37.8091 40.3501C38.611 39.7593 39.3826 39.113 40.1173 38.4097C40.8519 37.7063 41.5269 36.9676 42.144 36.1998V36.1998Z" fill="#D80027"/>
<path d="M19.4131 6.84783L23.5001 7.82605L27.587 6.84783V3.52179L25.9522 4.30436L23.5001 1.95654L21.0479 4.30436L19.4131 3.52179V6.84783Z" fill="#FFDA44"/>
<path d="M19.4131 6.84766V9.29348C19.4131 12.2888 23.5001 13.2065 23.5001 13.2065C23.5001 13.2065 27.587 12.2887 27.587 9.29348V6.84766H19.4131Z" fill="#D80027"/>
</g>
<defs>
<clipPath id="clip0_105_1742">
<rect width="47" height="45" fill="white"/>
</clipPath>
</defs>
</svg>
