<svg width="46" height="45" viewBox="0 0 46 45" fill="none" xmlns="http://www.w3.org/2000/svg">
<g clip-path="url(#clip0_105_1747)">
<path d="M23 45C35.7025 45 46 34.9264 46 22.5C46 10.0736 35.7025 0 23 0C10.2975 0 0 10.0736 0 22.5C0 34.9264 10.2975 45 23 45Z" fill="#F0F0F0"/>
<path d="M14 14.674H44.5693C41.3197 6.10594 32.8891 0 23 0C16.6486 0 10.8992 2.51886 6.7373 6.59083L14 14.674Z" fill="black"/>
<path d="M14 30.3262H44.5693C41.3197 38.8942 32.8891 45.0001 23 45.0001C16.6486 45.0001 10.8992 42.4813 6.7373 38.4093L14 30.3262Z" fill="#6DA544"/>
<path d="M6.73653 6.58984C-2.24551 15.3766 -2.24551 29.6229 6.73653 38.4098C10.4482 34.7787 14.018 31.2866 23 22.4998L6.73653 6.58984Z" fill="#D80027"/>
<path d="M9.12855 17.6089L10.3908 20.191L13.2414 19.5465L11.9647 22.1218L14.2571 23.9002L11.403 24.5294L11.4109 27.3915L9.12855 25.6009L6.84607 27.3915L6.85407 24.5294L4 23.9002L6.29227 22.1218L5.01577 19.5465L7.86625 20.191L9.12855 17.6089Z" fill="#F0F0F0"/>
</g>
<defs>
<clipPath id="clip0_105_1747">
<rect width="46" height="45" fill="white"/>
</clipPath>
</defs>
</svg>
