<svg width="47" height="45" viewBox="0 0 47 45" fill="none" xmlns="http://www.w3.org/2000/svg">
<g clip-path="url(#clip0_105_1753)">
<path d="M23.5 45C36.4787 45 47 34.9264 47 22.5C47 10.0736 36.4787 0 23.5 0C10.5213 0 0 10.0736 0 22.5C0 34.9264 10.5213 45 23.5 45Z" fill="#338AF3"/>
<path d="M36.7826 22.7446H10.2173C10.2173 24.5006 11.8146 25.924 13.6485 25.924H13.5379C13.5379 27.68 15.0246 29.1033 16.8586 29.1033C16.8586 30.8593 18.3453 32.2827 20.1793 32.2827H26.8206C28.6546 32.2827 30.1412 30.8593 30.1412 29.1033C31.9753 29.1033 33.4619 27.68 33.4619 25.924H33.3514C35.185 25.924 36.7826 24.5006 36.7826 22.7446V22.7446Z" fill="#FFDA44"/>
<path d="M32.6955 18.5869C32.6955 23.4494 28.5784 27.3913 23.4999 27.3913C18.4212 27.3913 14.3042 23.4494 14.3042 18.5869" fill="#338AF3"/>
<path d="M30.5238 18.5867L27.6537 19.8794L29.182 22.5407L26.0655 21.9698L25.6706 24.9841L23.4999 22.7671L21.3291 24.9841L20.9343 21.9698L17.8178 22.5405L19.346 19.8793L16.4761 18.5867L19.3461 17.2942L17.8178 14.633L20.9342 15.2038L21.3292 12.1895L23.4999 14.4065L25.6707 12.1895L26.0655 15.2038L29.1821 14.633L27.6538 17.2943L30.5238 18.5867Z" fill="#FFDA44"/>
</g>
<defs>
<clipPath id="clip0_105_1753">
<rect width="47" height="45" fill="white"/>
</clipPath>
</defs>
</svg>
