<svg width="47" height="45" viewBox="0 0 47 45" fill="none" xmlns="http://www.w3.org/2000/svg">
<g clip-path="url(#clip0_105_1758)">
<path d="M23.5 45C36.4787 45 47 34.9264 47 22.5C47 10.0736 36.4787 0 23.5 0C10.5213 0 0 10.0736 0 22.5C0 34.9264 10.5213 45 23.5 45Z" fill="#F0F0F0"/>
<path d="M23.5002 0C14.1834 0 6.13316 5.19126 2.33203 12.7174H44.6683C40.8673 5.19126 32.8169 0 23.5002 0V0Z" fill="black"/>
<path d="M23.5002 45.0001C14.1834 45.0001 6.13316 39.8089 2.33203 32.2827H44.6683C40.8673 39.8089 32.8169 45.0001 23.5002 45.0001V45.0001Z" fill="#496E2D"/>
<path d="M45.8903 15.6523H1.10973C0.389861 17.8117 0 20.1123 0 22.5002C0 24.8881 0.389861 27.1886 1.10973 29.348H45.8902C46.6101 27.1886 47 24.8881 47 22.5002C47 20.1123 46.6101 17.8117 45.8903 15.6523Z" fill="#A2001D"/>
<path d="M30.8178 10.3973L28.0348 9.16748L23.5002 18.9981L18.9656 9.16748L16.1826 10.3973L21.8123 22.4998L16.1826 34.6022L18.9656 35.8321L23.5002 26.0014L28.0348 35.8321L30.8178 34.6022L25.1881 22.4998L30.8178 10.3973Z" fill="#F0F0F0"/>
<path d="M25.3902 11.5563C24.3129 10.4298 23.5001 9.78223 23.5001 9.78223C23.5001 9.78223 22.6872 10.4297 21.6099 11.5563V33.4428C22.6872 34.5695 23.5001 35.2171 23.5001 35.2171C23.5001 35.2171 24.3129 34.5696 25.3902 33.4429V11.5563Z" fill="#F0F0F0"/>
<path d="M18.3911 15.7539V29.2462C19.5296 31.1776 20.923 32.7607 21.9672 33.8103V11.1899C20.923 12.2394 19.5295 13.8226 18.3911 15.7539V15.7539Z" fill="#A2001D"/>
<path d="M28.6084 15.7539C27.4698 13.8225 26.0765 12.2394 25.0322 11.1899V33.8103C26.0764 32.7607 27.4698 31.1776 28.6084 29.2462V15.7539Z" fill="#A2001D"/>
<path d="M28.6089 15.7539V29.2462C29.7614 27.2907 30.6524 24.9784 30.6524 22.5001C30.6524 20.0219 29.7614 17.7095 28.6089 15.7539Z" fill="black"/>
<path d="M18.3911 15.7539V29.2462C17.2386 27.2907 16.3477 24.9784 16.3477 22.5001C16.3477 20.0219 17.2386 17.7095 18.3911 15.7539Z" fill="black"/>
</g>
<defs>
<clipPath id="clip0_105_1758">
<rect width="47" height="45" fill="white"/>
</clipPath>
</defs>
</svg>
