<svg width="47" height="45" viewBox="0 0 47 45" fill="none" xmlns="http://www.w3.org/2000/svg">
<g clip-path="url(#clip0_105_1771)">
<path d="M0 22.5C0 10.0737 10.5214 0 23.5 0C36.4786 0 47 10.0737 47 22.5" fill="#D80027"/>
<path d="M31.6739 20.9248L28.3339 22.4288L30.1125 25.526L26.4857 24.8616L26.0262 28.3695L23.5 25.7895L20.9738 28.3695L20.5143 24.8616L16.8875 25.5258L18.6661 22.4288L15.3262 20.9248L18.6661 19.4204L16.8875 16.3236L20.5143 16.9877L20.9739 13.48L23.5 16.0598L26.0263 13.48L26.4857 16.9877L30.1126 16.3236L28.3342 19.4207L31.6739 20.9248Z" fill="#FFDA44"/>
<path d="M29.6306 7.33705H25.0327C25.0327 6.52679 24.3465 5.86963 23.5001 5.86963C22.6537 5.86963 21.9675 6.5267 21.9675 7.33705H17.3696C17.3696 8.1474 18.1069 8.80447 18.9533 8.80447H18.9022C18.9022 9.61482 19.5883 10.2719 20.4348 10.2719C20.4348 11.0822 21.1209 11.7393 21.9675 11.7393H25.0327C25.8789 11.7393 26.5653 11.0823 26.5653 10.2719C27.4116 10.2719 28.0979 9.61491 28.0979 8.80447H28.0468C28.8933 8.80447 29.6306 8.14749 29.6306 7.33705V7.33705Z" fill="#FFDA44"/>
<path d="M47 22.5C47 34.9263 36.4786 45 23.5 45C10.5214 45 0 34.9263 0 22.5H47Z" fill="#F0F0F0"/>
<path d="M23.5001 45.0002C30.8458 45.0002 37.4033 41.7725 41.7128 36.7184C40.9376 36.2124 40.5191 35.3945 39.1664 35.3945C37.2081 35.3945 37.2081 37.1089 35.2499 37.1089C33.2917 37.1089 33.2916 35.3945 31.3334 35.3945C29.3751 35.3945 29.3751 37.1089 27.4167 37.1089C25.4583 37.1089 25.4582 35.3945 23.4997 35.3945C21.5414 35.3945 21.5414 37.1089 19.5832 37.1089C17.6252 37.1089 17.6252 35.3945 15.6669 35.3945C13.7084 35.3945 13.7084 37.1089 11.7499 37.1089C9.7914 37.1089 9.7914 35.3945 7.83291 35.3945C6.48038 35.3945 6.06187 36.2123 5.28711 36.7182C9.59642 41.7725 16.1542 45.0002 23.5001 45.0002V45.0002Z" fill="#0052B4"/>
<path d="M43.0832 25.3697C41.1249 25.3697 41.1249 23.6553 39.1665 23.6553C37.2082 23.6553 37.2082 25.3697 35.25 25.3697C33.2918 25.3697 33.2917 23.6553 31.3335 23.6553C29.3752 23.6553 29.3752 25.3697 27.4168 25.3697C25.4584 25.3697 25.4583 23.6553 23.4998 23.6553C21.5415 23.6553 21.5415 25.3697 19.5833 25.3697C17.6253 25.3697 17.6253 23.6553 15.667 23.6553C13.7085 23.6553 13.7085 25.3697 11.75 25.3697C9.79152 25.3697 9.79152 23.6553 7.83304 23.6553C5.87501 23.6553 5.87501 25.3697 3.91671 25.3697C1.96896 25.3697 1.95767 23.6742 0.0307617 23.6561C0.0850137 24.6853 0.213346 25.6957 0.407404 26.6837C1.96832 26.9034 2.105 28.3696 3.9168 28.3696C5.8751 28.3696 5.8751 26.6554 7.83313 26.6554C9.79162 26.6554 9.79162 28.3696 11.7501 28.3696C13.7086 28.3696 13.7086 26.6554 15.6671 26.6554C17.6254 26.6554 17.6254 28.3696 19.5834 28.3696C21.5417 28.3696 21.5417 26.6554 23.4999 26.6554C25.4584 26.6554 25.4584 28.3696 27.4169 28.3696C29.3754 28.3696 29.3754 26.6554 31.3336 26.6554C33.2919 26.6554 33.2919 28.3696 35.2501 28.3696C37.2083 28.3696 37.2084 26.6554 39.1666 26.6554C41.1251 26.6554 41.1251 28.3696 43.0833 28.3696C44.8953 28.3696 45.032 26.9034 46.593 26.6838C46.7871 25.6957 46.9153 24.6853 46.9698 23.6562C45.0425 23.6743 45.0311 25.3697 43.0832 25.3697V25.3697Z" fill="#0052B4"/>
<path d="M39.1663 29.5249C37.208 29.5249 37.208 31.2393 35.2498 31.2393C33.2916 31.2393 33.2915 29.5249 31.3333 29.5249C29.375 29.5249 29.375 31.2393 27.4166 31.2393C25.4581 31.2393 25.4581 29.5249 23.4996 29.5249C21.5413 29.5249 21.5413 31.2393 19.5831 31.2393C17.6251 31.2393 17.6251 29.5249 15.6667 29.5249C13.7083 29.5249 13.7083 31.2393 11.7498 31.2393C9.79129 31.2393 9.79129 29.5249 7.8328 29.5249C5.87478 29.5249 5.87478 31.2393 3.91647 31.2393C2.51721 31.2393 2.11753 30.3643 1.28906 29.8643C1.84058 31.39 2.55806 32.8414 3.42215 34.198C3.57242 34.2246 3.736 34.2393 3.91647 34.2393C5.87478 34.2393 5.87478 32.525 7.8328 32.525C9.79129 32.525 9.79129 34.2393 11.7498 34.2393C13.7083 34.2393 13.7083 32.525 15.6667 32.525C17.6251 32.525 17.6251 34.2393 19.5831 34.2393C21.5414 34.2393 21.5414 32.525 23.4996 32.525C25.4581 32.525 25.4581 34.2393 27.4166 34.2393C29.3751 34.2393 29.3751 32.525 31.3333 32.525C33.2916 32.525 33.2916 34.2393 35.2498 34.2393C37.208 34.2393 37.2081 32.525 39.1663 32.525C41.1248 32.525 41.1248 34.2393 43.083 34.2393C43.2636 34.2393 43.4272 34.2246 43.5775 34.198C44.4416 32.8414 45.159 31.39 45.7108 29.8644C44.8822 30.3641 44.4824 31.2393 43.083 31.2393C41.1248 31.2393 41.1248 29.5249 39.1663 29.5249Z" fill="#0052B4"/>
<path d="M46.9271 20.7226C45.0425 20.7653 45.0165 22.4351 43.083 22.4351C41.1247 22.4351 41.1247 20.7207 39.1663 20.7207C37.208 20.7207 37.208 22.4351 35.2498 22.4351C33.2916 22.4351 33.2915 20.7207 31.3333 20.7207C29.375 20.7207 29.375 22.4351 27.4166 22.4351C25.4582 22.4351 25.4581 20.7207 23.4996 20.7207C21.5413 20.7207 21.5413 22.4351 19.5831 22.4351C17.6251 22.4351 17.6251 20.7207 15.6668 20.7207C13.7083 20.7207 13.7083 22.4351 11.7498 22.4351C9.79133 22.4351 9.79133 20.7207 7.83284 20.7207C5.87482 20.7207 5.87482 22.4351 3.91651 22.4351C1.98336 22.4351 1.9572 20.7654 0.0727949 20.7226C0.0249687 21.3092 0 21.902 0 22.5002C0 22.9101 0.0121172 23.3173 0.0349746 23.7216C1.95748 23.7423 1.97024 25.435 3.91661 25.435C5.87491 25.435 5.87491 23.7208 7.83294 23.7208C9.79142 23.7208 9.79142 25.435 11.7499 25.435C13.7084 25.435 13.7084 23.7208 15.6669 23.7208C17.6252 23.7208 17.6252 25.435 19.5832 25.435C21.5415 25.435 21.5415 23.7208 23.4997 23.7208C25.4582 23.7208 25.4582 25.435 27.4167 25.435C29.3752 25.435 29.3752 23.7208 31.3334 23.7208C33.2917 23.7208 33.2917 25.435 35.2499 25.435C37.2081 25.435 37.2082 23.7208 39.1664 23.7208C41.1249 23.7208 41.1249 25.435 43.0831 25.435C45.0297 25.435 45.0424 23.7423 46.9653 23.7216C46.9879 23.3172 47 22.9101 47 22.5002C47 21.902 46.975 21.3092 46.9271 20.7226V20.7226Z" fill="#F0F0F0"/>
</g>
<defs>
<clipPath id="clip0_105_1771">
<rect width="47" height="45" fill="white"/>
</clipPath>
</defs>
</svg>
