<svg width="47" height="45" viewBox="0 0 47 45" fill="none" xmlns="http://www.w3.org/2000/svg">
<g clip-path="url(#clip0_105_1782)">
<path d="M23.5 45C36.4787 45 47 34.9264 47 22.5C47 10.0736 36.4787 0 23.5 0C10.5213 0 0 10.0736 0 22.5C0 34.9264 10.5213 45 23.5 45Z" fill="#0052B4"/>
<path d="M10.3224 13.6953L10.8297 15.1902H12.471L11.1432 16.1138L11.6504 17.6084L10.3224 16.6847L8.9944 17.6084L9.50176 16.1138L8.17383 15.1902H9.81506L10.3224 13.6953Z" fill="#F0F0F0"/>
<path d="M15.4312 12.228L15.9385 13.7228H17.5798L16.252 14.6464L16.7592 16.141L15.4312 15.2174L14.1033 16.141L14.6106 14.6464L13.2827 13.7228H14.924L15.4312 12.228Z" fill="#F0F0F0"/>
<path d="M20.5396 10.7607L21.0469 12.2555H22.6882L21.3604 13.1792L21.8676 14.6738L20.5396 13.7501L19.2117 14.6738L19.719 13.1792L18.3911 12.2555H20.0324L20.5396 10.7607Z" fill="#F0F0F0"/>
<path d="M36.6774 13.6953L36.1701 15.1902H34.5288L35.8567 16.1138L35.3495 17.6084L36.6774 16.6847L38.0054 17.6084L37.4981 16.1138L38.826 15.1902H37.1847L36.6774 13.6953Z" fill="#F0F0F0"/>
<path d="M31.569 12.228L31.0617 13.7228H29.4204L30.7483 14.6464L30.2411 16.141L31.569 15.2174L32.8969 16.141L32.3897 14.6464L33.7175 13.7228H32.0762L31.569 12.228Z" fill="#F0F0F0"/>
<path d="M26.4601 10.7607L25.9529 12.2555H24.3115L25.6394 13.1792L25.1322 14.6738L26.4601 13.7501L27.7881 14.6738L27.2808 13.1792L28.6086 12.2555H26.9673L26.4601 10.7607Z" fill="#F0F0F0"/>
<path d="M27.5868 23.4782L23.4998 18.5869L21.4563 19.5651V21.5217L18.3911 23.4782H16.3477V26.0059C19.3428 27.1671 21.4563 29.9768 21.4563 33.2609H23.4998V31.3043L25.5433 29.3478L27.5868 31.3043L29.6303 29.3478V27.3913L31.6738 24.4565L27.5868 23.4782Z" fill="#FFDA44"/>
</g>
<defs>
<clipPath id="clip0_105_1782">
<rect width="47" height="45" fill="white"/>
</clipPath>
</defs>
</svg>
