<svg width="47" height="45" viewBox="0 0 47 45" fill="none" xmlns="http://www.w3.org/2000/svg">
<g clip-path="url(#clip0_105_1792)">
<path d="M45.5383 30.3259C46.4829 27.8884 47 25.2521 47 22.4999C47 19.7477 46.4829 17.1113 45.5383 14.6738L23.5 12.7173L1.46168 14.6738C0.517092 17.1113 0 19.7477 0 22.4999C0 25.2521 0.517092 27.8884 1.46168 30.3259L23.5 32.2824L45.5383 30.3259Z" fill="#F0F0F0"/>
<path d="M23.4998 45.0001C33.6039 45.0001 42.2178 38.8942 45.5381 30.3262H1.46143C4.7819 38.8942 13.3956 45.0001 23.4998 45.0001Z" fill="#D80027"/>
<path d="M23.4998 0C13.3956 0 4.7819 6.10594 1.46143 14.674H45.5382C42.2178 6.10594 33.6039 0 23.4998 0Z" fill="#6DA544"/>
<path d="M6.88298 6.58984C-2.29433 15.3766 -2.29433 29.6229 6.88298 38.4098C9.27842 36.1163 11.6165 33.8777 15.3261 30.3259V14.6738L6.88298 6.58984Z" fill="black"/>
</g>
<defs>
<clipPath id="clip0_105_1792">
<rect width="47" height="45" fill="white"/>
</clipPath>
</defs>
</svg>
