<svg width="46" height="45" viewBox="0 0 46 45" fill="none" xmlns="http://www.w3.org/2000/svg">
<g clip-path="url(#clip0_105_1797)">
<path d="M23 45C35.7025 45 46 34.9264 46 22.5C46 10.0736 35.7025 0 23 0C10.2975 0 0 10.0736 0 22.5C0 34.9264 10.2975 45 23 45Z" fill="#D80027"/>
<path d="M34.2483 22.5001L29.6523 24.615L32.0998 28.9697L27.1087 28.0355L26.4765 32.9676L23 29.3403L19.5238 32.9676L18.8914 28.0355L13.9007 28.9695L16.3481 24.6148L11.752 22.5001L16.3481 20.3854L13.9007 16.0306L18.8912 16.9649L19.524 12.0327L23 15.66L26.4767 12.0327L27.1087 16.9649L32.0999 16.0306L29.6524 20.3857L34.2483 22.5001Z" fill="#FFDA44"/>
<path d="M23 29.348C26.866 29.348 30 26.2821 30 22.5002C30 18.7182 26.866 15.6523 23 15.6523C19.134 15.6523 16 18.7182 16 22.5002C16 26.2821 19.134 29.348 23 29.348Z" fill="#D80027"/>
<path d="M19.4999 22.5C19.3313 22.5 19.1648 22.5084 19.0005 22.5244C19.0065 23.4729 19.3573 24.341 19.9366 25.0153C20.2456 24.2017 20.7071 23.4599 21.289 22.8249C20.7332 22.6158 20.1303 22.5 19.4999 22.5Z" fill="#FFDA44"/>
<path d="M21.6548 26.1857C22.0753 26.3327 22.528 26.4133 23.0002 26.4133C23.4724 26.4133 23.9251 26.3327 24.3456 26.1857C24.1164 25.3057 23.6432 24.5202 23.0002 23.9028C22.3572 24.5201 21.884 25.3057 21.6548 26.1857Z" fill="#FFDA44"/>
<path d="M26.464 20.5441C25.7724 19.3746 24.4807 18.5869 23.0001 18.5869C21.5194 18.5869 20.2277 19.3745 19.5361 20.5441C20.797 20.5503 21.9793 20.8857 23.0001 21.4648C24.0208 20.8857 25.2029 20.5503 26.464 20.5441Z" fill="#FFDA44"/>
<path d="M24.7109 22.8249C25.2929 23.4598 25.7543 24.2016 26.0634 25.0153C26.6427 24.341 26.9934 23.4729 26.9994 22.5244C26.835 22.5083 26.6685 22.5 26.5 22.5C25.8698 22.4999 25.2669 22.6158 24.7109 22.8249V22.8249Z" fill="#FFDA44"/>
</g>
<defs>
<clipPath id="clip0_105_1797">
<rect width="46" height="45" fill="white"/>
</clipPath>
</defs>
</svg>
