<svg width="47" height="45" viewBox="0 0 47 45" fill="none" xmlns="http://www.w3.org/2000/svg">
<g clip-path="url(#clip0_105_1806)">
<path d="M44.6684 12.7174C40.8673 5.19126 32.817 0 23.5002 0C14.1834 0 6.13316 5.19126 2.33203 12.7174L23.5002 14.674L44.6684 12.7174Z" fill="#D80027"/>
<path d="M2.33203 32.2827C6.13316 39.8089 14.1834 45.0001 23.5002 45.0001C32.817 45.0001 40.8673 39.8089 44.6684 32.2827L23.5002 30.3262L2.33203 32.2827Z" fill="#D80027"/>
<path d="M44.6682 12.7173H2.33182C0.837922 15.6752 0 18.9938 0 22.4999C0 26.0059 0.837922 29.3245 2.33182 32.2824H44.6681C46.1622 29.3245 47 26.0059 47 22.4999C47 18.9938 46.1622 15.6752 44.6682 12.7173V12.7173Z" fill="#0052B4"/>
<path d="M23.5 30.3259C28.0143 30.3259 31.6739 26.8221 31.6739 22.4999C31.6739 18.1777 28.0143 14.6738 23.5 14.6738C18.9857 14.6738 15.3262 18.1777 15.3262 22.4999C15.3262 26.8221 18.9857 30.3259 23.5 30.3259Z" fill="#F0F0F0"/>
</g>
<defs>
<clipPath id="clip0_105_1806">
<rect width="47" height="45" fill="white"/>
</clipPath>
</defs>
</svg>
