<svg width="46" height="45" viewBox="0 0 46 45" fill="none" xmlns="http://www.w3.org/2000/svg">
<g clip-path="url(#clip0_105_1812)">
<path d="M23 45C35.7025 45 46 34.9264 46 22.5C46 10.0736 35.7025 0 23 0C10.2975 0 0 10.0736 0 22.5C0 34.9264 10.2975 45 23 45Z" fill="#F0F0F0"/>
<path d="M23.0001 0C12.3735 0 3.43173 7.05067 0.79248 16.6304H45.2079C42.5686 7.05067 33.6268 0 23.0001 0Z" fill="#A2001D"/>
<path d="M23.0001 45C33.6268 45 42.5686 37.9494 45.2078 28.3696H0.79248C3.43173 37.9493 12.3735 45 23.0001 45Z" fill="#A2001D"/>
</g>
<defs>
<clipPath id="clip0_105_1812">
<rect width="46" height="45" fill="white"/>
</clipPath>
</defs>
</svg>
