<svg width="47" height="45" viewBox="0 0 47 45" fill="none" xmlns="http://www.w3.org/2000/svg">
<g clip-path="url(#clip0_105_1817)">
<path d="M23.5 45C36.4787 45 47 34.9264 47 22.5C47 10.0736 36.4787 0 23.5 0C10.5213 0 0 10.0736 0 22.5C0 34.9264 10.5213 45 23.5 45Z" fill="#F0F0F0"/>
<path d="M23.5002 0C14.1834 0 6.13316 5.19126 2.33203 12.7174H44.6683C40.8673 5.19126 32.8169 0 23.5002 0V0Z" fill="#D80027"/>
<path d="M23.5002 45.0001C32.8169 45.0001 40.8673 39.8089 44.6684 32.2827H2.33203C6.13316 39.8089 14.1834 45.0001 23.5002 45.0001Z" fill="#D80027"/>
<path d="M29.6306 26.4132L23.5001 15.6523L17.3696 26.4132H21.9675V29.348H25.0327V26.4132H29.6306Z" fill="#6DA544"/>
</g>
<defs>
<clipPath id="clip0_105_1817">
<rect width="47" height="45" fill="white"/>
</clipPath>
</defs>
</svg>
