<svg width="46" height="45" viewBox="0 0 46 45" fill="none" xmlns="http://www.w3.org/2000/svg">
<g clip-path="url(#clip0_105_1823)">
<path d="M0 22.5001C0 26.0061 0.820004 29.3247 2.28221 32.2827L23 33.261L43.7178 32.2828C45.18 29.3247 46 26.0061 46 22.5001C46 18.9942 45.18 15.6756 43.7178 12.7176L23 11.7393L2.28221 12.7175C0.820004 15.6756 0 18.9942 0 22.5001H0Z" fill="#F0F0F0"/>
<path d="M23 45.0001C32.1185 45.0001 39.9976 39.8089 43.7178 32.2827H2.28223C6.00248 39.8089 13.8814 45.0001 23 45.0001Z" fill="#6DA544"/>
<path d="M23 0C13.8814 0 6.00248 5.19126 2.28223 12.7174H43.7177C39.9976 5.19126 32.1185 0 23 0V0Z" fill="#0052B4"/>
<path d="M24.4998 22.0108V16.6304H21.4999V22.0108L17.8765 25.5555C18.9302 27.243 20.8305 28.3695 22.9999 28.3695C25.1693 28.3695 27.0695 27.243 28.1233 25.5555L24.4998 22.0108Z" fill="black"/>
</g>
<defs>
<clipPath id="clip0_105_1823">
<rect width="46" height="45" fill="white"/>
</clipPath>
</defs>
</svg>
