<svg width="46" height="45" viewBox="0 0 46 45" fill="none" xmlns="http://www.w3.org/2000/svg">
<g clip-path="url(#clip0_105_1828)">
<path d="M23 45C35.7025 45 46 34.9264 46 22.5C46 10.0736 35.7025 0 23 0C10.2975 0 0 10.0736 0 22.5C0 34.9264 10.2975 45 23 45Z" fill="#F0F0F0"/>
<path d="M5.25732 8.18169H40.7427C39.4321 6.6291 37.9119 5.2523 36.2257 4.09082H9.7744C8.08812 5.25212 6.56805 6.62901 5.25732 8.18169V8.18169Z" fill="#F0F0F0"/>
<path d="M0 22.5C0 23.1897 0.0335117 23.8715 0.0955938 24.5455H45.9044C45.9665 23.8715 46 23.1897 46 22.5C46 21.8103 45.9665 21.1284 45.9044 20.4546H0.0955938C0.0335117 21.1284 0 21.8103 0 22.5H0Z" fill="#F0F0F0"/>
<path d="M2.5082 32.727H43.492C44.1693 31.431 44.7216 30.0624 45.134 28.6362H0.866211C1.2785 30.0624 1.83104 31.4311 2.5082 32.727V32.727Z" fill="#F0F0F0"/>
<path d="M9.7744 40.9092H36.2256C37.9118 39.7478 39.432 38.3709 40.7426 36.8184H5.25732C6.56805 38.3708 8.08812 39.7478 9.7744 40.9092V40.9092Z" fill="#F0F0F0"/>
<path d="M0.866211 16.3638H45.1342C44.7218 14.9375 44.1694 13.5689 43.4921 12.2729H2.50829C1.83113 13.5689 1.27859 14.9375 0.866211 16.3638V16.3638Z" fill="#F0F0F0"/>
<path d="M11 4.09087H36.2256C32.4845 1.51409 27.9231 0 23 0C20 0 14.7411 1.51409 11 4.09087Z" fill="#D80027"/>
<path d="M22 12.273H43.4919C42.727 10.8094 41.8033 9.43835 40.7427 8.18213H22V12.273Z" fill="#D80027"/>
<path d="M22 20.4546H45.9044C45.775 19.05 45.515 17.682 45.134 16.3638H22V20.4546Z" fill="#D80027"/>
<path d="M0.866203 28.6363H45.134C45.5151 27.3181 45.7751 25.9501 45.9045 24.5454H0.0957031C0.225078 25.9501 0.485086 27.318 0.866203 28.6363V28.6363Z" fill="#D80027"/>
<path d="M5.25752 36.8179H40.7429C41.8035 35.5615 42.7273 34.1906 43.4921 32.7271H2.5083C3.27314 34.1907 4.19691 35.5617 5.25752 36.8179V36.8179Z" fill="#D80027"/>
<path d="M23 45.0001C27.9232 45.0001 32.4846 43.486 36.2257 40.9092H9.77441C13.5155 43.486 18.0769 45.0001 23 45.0001Z" fill="#D80027"/>
<path d="M0.866113 16.3637C0.484996 17.682 0.225078 19.0499 0.0957031 20.4545H23.0001V0C12.4722 0 3.59664 6.91981 0.866113 16.3637V16.3637Z" fill="#0052B4"/>
<path d="M13.6911 5.86963L15.1802 10.3534H20L16.1009 13.1247L17.59 17.6087L13.6911 14.8375L9.79193 17.6087L11.2814 13.1247L7.38232 10.3534H12.2018L13.6911 5.86963Z" fill="#F0F0F0"/>
</g>
<defs>
<clipPath id="clip0_105_1828">
<rect width="46" height="45" fill="white"/>
</clipPath>
</defs>
</svg>
