<svg width="47" height="45" viewBox="0 0 47 45" fill="none" xmlns="http://www.w3.org/2000/svg">
<g clip-path="url(#clip0_105_1845)">
<path d="M2.33182 12.7173C0.837922 15.6753 0 18.9938 0 22.4999C0 26.0059 0.837922 29.3244 2.33182 32.2824L23.5 34.239L44.6682 32.2824C46.1621 29.3244 47 26.0059 47 22.4999C47 18.9938 46.1621 15.6753 44.6682 12.7173L23.5 10.7607L2.33182 12.7173Z" fill="black"/>
<path d="M2.33252 32.2827C6.13346 39.8089 14.183 45.0001 23.4999 45.0001C32.8166 45.0001 40.8663 39.8089 44.6672 32.2827H2.33252Z" fill="#496E2D"/>
<path d="M2.33252 12.7174H44.6672C40.8663 5.19126 32.8166 0 23.4999 0C14.183 0 6.13346 5.19126 2.33252 12.7174Z" fill="#D80027"/>
<path d="M28.9701 18.3853L30.8982 20.9292L34.0208 19.9598L32.0896 22.5016L34.0175 25.0455L30.8961 24.0724L28.9648 26.6142L28.9669 23.4711L25.8452 22.498L28.968 21.5286L28.9701 18.3853Z" fill="#F0F0F0"/>
<path d="M23.7077 28.8587C20.0399 28.8587 17.0664 26.0117 17.0664 22.5C17.0664 18.9882 20.0399 16.1412 23.7077 16.1412C24.8513 16.1412 25.9274 16.4181 26.8669 16.9055C25.393 15.5256 23.3775 14.6738 21.1534 14.6738C16.639 14.6738 12.9795 18.1777 12.9795 22.4999C12.9795 26.8221 16.6391 30.3259 21.1534 30.3259C23.3776 30.3259 25.3931 29.4742 26.8669 28.0942C25.9273 28.5818 24.8514 28.8587 23.7077 28.8587Z" fill="#F0F0F0"/>
</g>
<defs>
<clipPath id="clip0_105_1845">
<rect width="47" height="45" fill="white"/>
</clipPath>
</defs>
</svg>
