<svg width="46" height="45" viewBox="0 0 46 45" fill="none" xmlns="http://www.w3.org/2000/svg">
<g clip-path="url(#clip0_105_1852)">
<path d="M46 22.5002C46 34.9265 35.7025 45.0002 23 45.0002C10.2975 45.0002 0 34.9265 0 22.5002C0.999961 22.5002 23 19.5654 23 19.5654L46 22.5002Z" fill="#D80027"/>
<path d="M0 22.5C0 10.0737 10.2975 0 23 0C35.7025 0 46 10.0737 46 22.5" fill="#0052B4"/>
<path d="M17 15.652C17 14.0312 15.6568 12.7173 14 12.7173C13.2314 12.7173 12.5309 13.0003 12 13.4651V11.739H13V9.78242H12V8.8042H9.99998V9.78242H9.00002V11.739H9.99998V13.4651C9.4691 13.0003 8.76859 12.7173 7.99997 12.7173C6.34316 12.7173 5 14.0312 5 15.652C5 16.521 5.38642 17.3015 5.99996 17.8389V19.5651H15.9999V17.8389C16.6137 17.3015 17 16.521 17 15.652V15.652Z" fill="#FFDA44"/>
</g>
<defs>
<clipPath id="clip0_105_1852">
<rect width="46" height="45" fill="white"/>
</clipPath>
</defs>
</svg>
