<svg width="47" height="45" viewBox="0 0 47 45" fill="none" xmlns="http://www.w3.org/2000/svg">
<g clip-path="url(#clip0_105_1856)">
<path d="M45.5383 30.3259C46.483 27.8885 47 25.2521 47 22.4999C47 19.7477 46.483 17.1112 45.5383 14.6738L23.5 12.7173L1.46168 14.6738C0.517 17.1112 0 19.7477 0 22.4999C0 25.2521 0.517 27.8885 1.46168 30.3259L23.5 32.2824L45.5383 30.3259Z" fill="#6DA544"/>
<path d="M45.5385 14.674C42.2182 6.10594 33.6044 0 23.5002 0C13.3961 0 4.7823 6.10594 1.46191 14.674H45.5385Z" fill="#FFDA44"/>
<path d="M23.5002 45.0001C33.6044 45.0001 42.2182 38.8942 45.5385 30.3262H1.46191C4.7823 38.8942 13.3961 45.0001 23.5002 45.0001Z" fill="#D80027"/>
</g>
<defs>
<clipPath id="clip0_105_1856">
<rect width="47" height="45" fill="white"/>
</clipPath>
</defs>
</svg>
