<svg width="46" height="45" viewBox="0 0 46 45" fill="none" xmlns="http://www.w3.org/2000/svg">
<g clip-path="url(#clip0_105_1860)">
<path d="M23 45C35.7025 45 46 34.9264 46 22.5C46 10.0736 35.7025 0 23 0C10.2975 0 0 10.0736 0 22.5C0 34.9264 10.2975 45 23 45Z" fill="#F0F0F0"/>
<path d="M23.0001 0C13.1109 0 4.6804 6.10594 1.43066 14.674H44.5696C41.3198 6.10594 32.8893 0 23.0001 0V0Z" fill="#D80027"/>
<path d="M23.0001 45.0001C32.8893 45.0001 41.3198 38.8942 44.5695 30.3262H1.43066C4.6804 38.8942 13.1109 45.0001 23.0001 45.0001Z" fill="#338AF3"/>
</g>
<defs>
<clipPath id="clip0_105_1860">
<rect width="46" height="45" fill="white"/>
</clipPath>
</defs>
</svg>
