<svg width="47" height="45" viewBox="0 0 47 45" fill="none" xmlns="http://www.w3.org/2000/svg">
<g clip-path="url(#clip0_105_1864)">
<path d="M23.5 45C36.4787 45 47 34.9264 47 22.5C47 10.0736 36.4787 0 23.5 0C10.5213 0 0 10.0736 0 22.5C0 34.9264 10.5213 45 23.5 45Z" fill="#496E2D"/>
<path d="M27.5871 21.5619C27.0103 21.5619 26.4626 21.672 25.9541 21.8473C26.2327 21.2528 26.4195 20.5913 26.4195 19.8849C26.4195 17.0899 23.5003 14.9937 23.5003 14.9937C23.5003 14.9937 20.581 17.0899 20.581 19.8849C20.581 20.5912 20.7678 21.2528 21.0464 21.8473C20.5378 21.6722 19.9901 21.5619 19.4134 21.5619C16.4941 21.5619 14.3047 24.3569 14.3047 24.3569C14.3047 24.3569 16.4941 27.152 19.4134 27.152C21.1249 27.152 22.5847 26.1915 23.5003 25.3965C24.416 26.1914 25.8758 27.152 27.5873 27.152C30.5066 27.152 32.696 24.3569 32.696 24.3569C32.696 24.3569 30.5064 21.5619 27.5871 21.5619V21.5619Z" fill="#F0F0F0"/>
<path d="M23.5001 8.8042L24.1032 10.581H26.0545L24.476 11.6793L25.0786 13.4561L23.5001 12.3578L21.9217 13.4561L22.5242 11.6793L20.9458 10.581H22.8971L23.5001 8.8042Z" fill="#FFDA44"/>
<path d="M16.08 11.9121L17.2402 12.9121L18.5921 12.1649L17.9572 13.5303L19.1172 14.5305L17.5648 14.3742L16.9299 15.7396L16.6051 14.2777L15.0527 14.1214L16.4045 13.374L16.08 11.9121Z" fill="#FFDA44"/>
<path d="M10.6479 17.1126L12.1749 17.4233L12.9554 16.1289L13.1187 17.6152L14.6454 17.9262L13.2195 18.5341L13.3827 20.0204L12.3379 18.9099L10.912 19.5177L11.6925 18.2233L10.6479 17.1126Z" fill="#FFDA44"/>
<path d="M30.9204 11.9121L29.7604 12.9121L28.4085 12.1649L29.0432 13.5303L27.8833 14.5305L29.4358 14.3742L30.0706 15.7396L30.3954 14.2777L31.9478 14.1214L30.596 13.374L30.9204 11.9121Z" fill="#FFDA44"/>
<path d="M36.3525 17.1126L34.8255 17.4233L34.0451 16.1289L33.8817 17.6152L32.355 17.9262L33.781 18.5341L33.6177 20.0204L34.6625 18.9099L36.0885 19.5177L35.3079 18.2233L36.3525 17.1126Z" fill="#FFDA44"/>
<path d="M23.4999 34.9778C25.8188 34.9778 27.9561 34.2371 29.6707 32.9907H17.3291C19.0437 34.237 21.181 34.9778 23.4999 34.9778Z" fill="#F0F0F0"/>
<path d="M14.1338 29.1084C14.4581 29.8191 14.8694 30.4847 15.3524 31.0955H31.648C32.131 30.4848 32.5423 29.8191 32.8666 29.1084H14.1338Z" fill="#F0F0F0"/>
</g>
<defs>
<clipPath id="clip0_105_1864">
<rect width="47" height="45" fill="white"/>
</clipPath>
</defs>
</svg>
