<svg width="47" height="45" viewBox="0 0 47 45" fill="none" xmlns="http://www.w3.org/2000/svg">
<g clip-path="url(#clip0_105_1876)">
<path d="M23.5 45C36.4787 45 47 34.9264 47 22.5C47 10.0736 36.4787 0 23.5 0C10.5213 0 0 10.0736 0 22.5C0 34.9264 10.5213 45 23.5 45Z" fill="#F0F0F0"/>
<path d="M15.3262 22.4999V43.6004C17.8719 44.5049 20.6255 44.9999 23.5 44.9999C36.4787 44.9999 47 34.9262 47 22.4999C47 10.0735 15.3262 22.4999 15.3262 22.4999Z" fill="#6DA544"/>
<path d="M23.5 0C20.6255 0 17.8719 0.495088 15.3262 1.39948V22.5H47C47 10.0737 36.4787 0 23.5 0Z" fill="#D80027"/>
</g>
<defs>
<clipPath id="clip0_105_1876">
<rect width="47" height="45" fill="white"/>
</clipPath>
</defs>
</svg>
