<svg width="47" height="45" viewBox="0 0 47 45" fill="none" xmlns="http://www.w3.org/2000/svg">
<g clip-path="url(#clip0_105_1880)">
<path d="M33.7175 2.2326C30.6279 0.802266 27.162 0 23.5001 0C19.8382 0 16.3723 0.802266 13.2827 2.2326L11.2393 22.5L13.2827 42.7674C16.3723 44.1977 19.8382 45 23.5001 45C27.162 45 30.6279 44.1977 33.7175 42.7674L35.761 22.5L33.7175 2.2326Z" fill="#FFDA44"/>
<path d="M13.2826 2.2334C5.42198 5.87269 0 13.5797 0 22.5C0 31.4203 5.42198 39.1273 13.2826 42.7666V2.2334Z" fill="#0052B4"/>
<path d="M33.7173 2.2334V42.7666C41.5779 39.1273 46.9999 31.4203 46.9999 22.5C46.9999 13.5797 41.5779 5.87269 33.7173 2.2334Z" fill="#0052B4"/>
<path d="M30.1414 24.4564L31.6739 26.4129V18.5868L30.1414 20.5433H25.5435V16.1412L27.587 14.6738H19.4131L21.4566 16.1412V20.5433H16.8587L15.3262 18.5868V26.4129L16.8587 24.4564H21.4566V28.8586L19.4131 30.3259H27.587L25.5435 28.8586V24.4564H30.1414Z" fill="#D80027"/>
<path d="M29.6306 21.5217H24.5218V16.6304H22.4784V21.5217H17.3696V23.4782H22.4784V28.3696H24.5218V23.4782H29.6306V21.5217Z" fill="#F0F0F0"/>
</g>
<defs>
<clipPath id="clip0_105_1880">
<rect width="47" height="45" fill="white"/>
</clipPath>
</defs>
</svg>
