<svg width="47" height="45" viewBox="0 0 47 45" fill="none" xmlns="http://www.w3.org/2000/svg">
<g clip-path="url(#clip0_105_1887)">
<path d="M0 22.5002C0 25.2524 0.517092 27.8887 1.46168 30.3262L23.5 31.3045L45.5383 30.3263C46.483 27.8887 47 25.2524 47 22.5002C47 19.7479 46.483 17.1116 45.5383 14.6741L23.5 13.6958L1.46168 14.674C0.517092 17.1116 0 19.7479 0 22.5002H0Z" fill="#D80027"/>
<path d="M23.5002 0C13.3961 0 4.7823 6.10594 1.46191 14.674H45.5386C42.2182 6.10594 33.6044 0 23.5002 0V0Z" fill="black"/>
<path d="M45.5385 30.3262H1.46191C4.7823 38.8941 13.3961 45.0001 23.5002 45.0001C33.6044 45.0001 42.2182 38.8941 45.5385 30.3262Z" fill="#496E2D"/>
<path d="M30.5238 10.7607L27.6538 9.46814L29.1821 6.8069L26.0656 7.37775L25.6707 4.36328L23.4999 6.58032L21.3292 4.36328L20.9342 7.37775L17.8178 6.8069L19.3461 9.46814L16.4761 10.7607H30.5238Z" fill="#D80027"/>
</g>
<defs>
<clipPath id="clip0_105_1887">
<rect width="47" height="45" fill="white"/>
</clipPath>
</defs>
</svg>
