<svg width="47" height="45" viewBox="0 0 47 45" fill="none" xmlns="http://www.w3.org/2000/svg">
<g clip-path="url(#clip0_105_1892)">
<path d="M23.5 45C36.4787 45 47 34.9264 47 22.5C47 10.0736 36.4787 0 23.5 0C10.5213 0 0 10.0736 0 22.5C0 34.9264 10.5213 45 23.5 45Z" fill="#F0F0F0"/>
<path d="M22.4785 22.5H47.0002C47.0002 20.4691 46.7175 18.5019 46.1907 16.6304H22.4785V22.5Z" fill="#D80027"/>
<path d="M22.4785 10.7607H43.551C42.1125 8.51317 40.2733 6.52658 38.1287 4.89111H22.4785V10.7607Z" fill="#D80027"/>
<path d="M23.5001 44.9997C29.0307 44.9997 34.1142 43.1695 38.1285 40.1084H8.87158C12.886 43.1695 17.9694 44.9997 23.5001 44.9997V44.9997Z" fill="#D80027"/>
<path d="M3.44919 34.2387H43.5508C44.7057 32.4345 45.6013 30.4622 46.1905 28.3691H0.80957C1.39863 30.4622 2.29429 32.4345 3.44919 34.2387V34.2387Z" fill="#D80027"/>
<path d="M23.5 22.5C23.5 10.0737 23.5 8.60871 23.5 0C10.5214 0 0 10.0737 0 22.5H23.5Z" fill="#0052B4"/>
<path d="M15.627 19.2597C12.4176 19.2597 9.81588 16.7686 9.81588 13.6959C9.81588 10.6231 12.4177 8.13205 15.627 8.13205C16.6277 8.13205 17.5692 8.37436 18.3913 8.80081C17.1017 7.59346 15.3381 6.84814 13.3919 6.84814C9.44199 6.84814 6.23975 9.91403 6.23975 13.696C6.23975 17.4779 9.44199 20.5438 13.3919 20.5438C15.3381 20.5438 17.1017 19.7985 18.3913 18.5911C17.5692 19.0174 16.6278 19.2597 15.627 19.2597V19.2597Z" fill="#FFDA44"/>
<path d="M17.2644 9.78271L18.2961 11.8483L20.626 11.3329L19.5827 13.393L21.4564 14.8157L19.1235 15.3192L19.13 17.6088L17.2644 16.1764L15.3988 17.6088L15.4052 15.3192L13.0723 14.8157L14.946 13.393L13.9026 11.3329L16.2326 11.8483L17.2644 9.78271Z" fill="#FFDA44"/>
</g>
<defs>
<clipPath id="clip0_105_1892">
<rect width="47" height="45" fill="white"/>
</clipPath>
</defs>
</svg>
