<svg width="46" height="45" viewBox="0 0 46 45" fill="none" xmlns="http://www.w3.org/2000/svg">
<g clip-path="url(#clip0_105_1903)">
<path d="M23 45C35.7025 45 46 34.9264 46 22.5C46 10.0736 35.7025 0 23 0C10.2975 0 0 10.0736 0 22.5C0 34.9264 10.2975 45 23 45Z" fill="#D80027"/>
<path d="M8 11.7393H38V33.261H8V11.7393Z" fill="#6DA544"/>
<path d="M26.7041 28.8587C23.1143 28.8587 20.204 26.0117 20.204 22.5C20.204 18.9882 23.1143 16.1412 26.7041 16.1412C27.8233 16.1412 28.8766 16.4181 29.796 16.9055C28.3536 15.5256 26.3811 14.6738 24.2041 14.6738C19.7859 14.6738 16.2041 18.1777 16.2041 22.4999C16.2041 26.8221 19.7859 30.3259 24.2041 30.3259C26.3811 30.3259 28.3537 29.4742 29.796 28.0942C28.8766 28.5818 27.8233 28.8587 26.7041 28.8587Z" fill="#F0F0F0"/>
</g>
<defs>
<clipPath id="clip0_105_1903">
<rect width="46" height="45" fill="white"/>
</clipPath>
</defs>
</svg>
