<svg width="47" height="45" viewBox="0 0 47 45" fill="none" xmlns="http://www.w3.org/2000/svg">
<g clip-path="url(#clip0_105_1907)">
<path d="M31.6739 1.39948C29.1281 0.495088 26.3746 0 23.5001 0C20.6255 0 17.872 0.495088 15.3262 1.39948L13.2827 22.5L15.3262 43.6005C17.872 44.505 20.6255 45 23.5001 45C26.3746 45 29.1281 44.505 31.6739 43.6005L33.7174 22.5L31.6739 1.39948Z" fill="#FFDA44"/>
<path d="M47 22.4998C47 12.8257 40.6226 4.57842 31.6738 1.39941V43.6005C40.6226 40.4213 47 32.1741 47 22.4998V22.4998Z" fill="#D80027"/>
<path d="M0 22.4998C0 32.1741 6.37731 40.4213 15.3261 43.6004V1.39941C6.37731 4.57842 0 12.8257 0 22.4998V22.4998Z" fill="#6DA544"/>
</g>
<defs>
<clipPath id="clip0_105_1907">
<rect width="47" height="45" fill="white"/>
</clipPath>
</defs>
</svg>
