<svg width="47" height="45" viewBox="0 0 47 45" fill="none" xmlns="http://www.w3.org/2000/svg">
<g clip-path="url(#clip0_105_1915)">
<path d="M23.5 45C36.4786 45 47 34.9263 47 22.5C47 18.724 46.027 15.1659 44.3102 12.041L23.4724 22.5264L34.4238 2.57537C31.1601 0.931641 27.4439 0 23.5 0C10.5214 0 0 10.0737 0 22.5C0 28.7133 2.63035 34.3383 6.88293 38.41C11.1356 42.4817 17.0106 45 23.5 45Z" fill="#0052B4"/>
<path d="M44.2854 12.0654C43.2097 10.1051 41.8112 8.26455 40.0896 6.61625C38.368 4.96795 36.4459 3.62894 34.3983 2.59912L6.85547 38.4361L44.2854 12.0654Z" fill="#F0F0F0"/>
<path d="M6.85547 38.436L44.2854 12.0653C43.2097 10.105 41.8112 8.26451 40.0896 6.61621L6.85547 38.436Z" fill="#FF9811"/>
<path d="M20.4071 13.1943L17.5371 14.4868L19.0654 17.1481L15.9489 16.5773L15.554 19.5916L13.3832 17.3745L11.2124 19.5916L10.8177 16.5773L7.70117 17.1479L9.22931 14.4867L6.35938 13.1943L9.2294 11.9016L7.70117 9.2405L10.8175 9.81117L11.2125 6.79688L13.3832 9.01392L15.554 6.79688L15.9489 9.81117L19.0655 9.2405L17.5372 11.9017L20.4071 13.1943Z" fill="#F0F0F0"/>
</g>
<defs>
<clipPath id="clip0_105_1915">
<rect width="47" height="45" fill="white"/>
</clipPath>
</defs>
</svg>
