<svg width="46" height="45" viewBox="0 0 46 45" fill="none" xmlns="http://www.w3.org/2000/svg">
<g clip-path="url(#clip0_105_1920)">
<path d="M23 45C35.7025 45 46 34.9264 46 22.5C46 10.0736 35.7025 0 23 0C10.2975 0 0 10.0736 0 22.5C0 34.9264 10.2975 45 23 45Z" fill="#F0F0F0"/>
<path d="M45.8029 19.5653C45.1684 14.8204 42.9897 10.2355 39.2635 6.59025C35.5372 2.94499 30.8503 0.813555 26 0.192871L26.0001 19.5653H45.8029Z" fill="#0052B4"/>
<path d="M20.0002 0.192871C15.1499 0.813555 10.463 2.9449 6.73672 6.59017C3.01054 10.2355 0.831742 14.8205 0.197266 19.5655L20.0003 19.5654L20.0002 0.192871Z" fill="#0052B4"/>
<path d="M0.197266 25.4351C0.831742 30.1799 3.01054 34.765 6.73672 38.4102C10.463 42.0554 15.1498 44.1867 20.0003 44.8076L20.0002 25.4352L0.197266 25.4351Z" fill="#0052B4"/>
<path d="M26.0005 44.8074C30.8508 44.1867 35.5376 42.0554 39.2639 38.4101C42.9901 34.7648 45.1688 30.1799 45.8033 25.4351H26.0005V44.8074Z" fill="#0052B4"/>
<path d="M30.8514 14.277C30.8514 13.9778 31.1 13.7346 31.4059 13.7346H32.594C34.4721 13.7346 36 12.2399 36 10.4028C36 8.56558 34.4722 7.07082 32.594 7.07082H31.4657C31.0975 6.8002 30.6034 6.6333 30.0584 6.6333C28.9216 6.6333 28.0001 7.35444 28.0001 8.24407C28.0001 9.12509 28.904 9.83981 30.0256 9.8537L30.0251 9.86012H32.594C32.8999 9.86012 33.1485 10.1034 33.1485 10.4026C33.1485 10.7018 32.8999 10.945 32.594 10.945H31.4059C29.5278 10.945 28 12.4396 28 14.2768C28 16.114 29.5277 17.6087 31.4059 17.6087H36V14.8193H31.4059C31.1 14.8193 30.8514 14.5762 30.8514 14.277V14.277Z" fill="#F0F0F0"/>
<path d="M12.8518 14.277C12.8518 13.9778 13.1004 13.7346 13.4063 13.7346H14.5944C16.4725 13.7346 18.0004 12.2399 18.0004 10.4028C18.0004 8.56558 16.4726 7.07082 14.5944 7.07082H13.4661C13.0979 6.8002 12.6038 6.6333 12.0588 6.6333C10.922 6.6333 10.0005 7.35444 10.0005 8.24407C10.0005 9.12509 10.9044 9.83981 12.026 9.8537L12.0255 9.86012H14.5945C14.9004 9.86012 15.149 10.1034 15.149 10.4026C15.149 10.7018 14.9004 10.945 14.5945 10.945H13.4064C11.5283 10.945 10.0005 12.4396 10.0005 14.2768C10.0005 16.114 11.5282 17.6087 13.4064 17.6087H18.0004V14.8193H13.4063C13.1004 14.8193 12.8518 14.5762 12.8518 14.277V14.277Z" fill="#F0F0F0"/>
<path d="M30.8515 35.0353C30.8515 34.7361 31.1001 34.4929 31.406 34.4929H32.5941C34.4722 34.4929 36.0001 32.9982 36.0001 31.1611C36.0001 29.3239 34.4723 27.8291 32.5941 27.8291H31.4658C31.0975 27.5585 30.6035 27.3916 30.0585 27.3916C28.9216 27.3916 28.0001 28.1128 28.0001 29.0024C28.0001 29.8834 28.904 30.5981 30.0256 30.612L30.0251 30.6184H32.594C32.8999 30.6184 33.1485 30.8617 33.1485 31.1609C33.1485 31.4601 32.8999 31.7033 32.594 31.7033H31.4059C29.5278 31.7033 28 33.1979 28 35.0351C28 36.8723 29.5277 38.367 31.4059 38.367H36V35.5776H31.406C31.1001 35.5777 30.8515 35.3344 30.8515 35.0353V35.0353Z" fill="#F0F0F0"/>
<path d="M12.8514 35.0353C12.8514 34.7361 13.1 34.4929 13.4059 34.4929H14.594C16.4721 34.4929 18 32.9982 18 31.1611C18 29.3239 16.4722 27.8291 14.594 27.8291H13.4657C13.0975 27.5585 12.6034 27.3916 12.0584 27.3916C10.9215 27.3916 10 28.1128 10 29.0024C10 29.8834 10.9039 30.5981 12.0255 30.612L12.025 30.6184H14.594C14.8999 30.6184 15.1485 30.8617 15.1485 31.1609C15.1485 31.4601 14.8999 31.7033 14.594 31.7033H13.4059C11.5278 31.7033 10 33.1979 10 35.0351C10 36.8723 11.5277 38.367 13.4059 38.367H18V35.5776H13.4059C13.1 35.5777 12.8514 35.3344 12.8514 35.0353Z" fill="#F0F0F0"/>
</g>
<defs>
<clipPath id="clip0_105_1920">
<rect width="46" height="45" fill="white"/>
</clipPath>
</defs>
</svg>
