<svg width="47" height="45" viewBox="0 0 47 45" fill="none" xmlns="http://www.w3.org/2000/svg">
<g clip-path="url(#clip0_105_1932)">
<path d="M23.5 45C36.4787 45 47 34.9264 47 22.5C47 10.0736 36.4787 0 23.5 0C10.5213 0 0 10.0736 0 22.5C0 34.9264 10.5213 45 23.5 45Z" fill="#496E2D"/>
<path d="M23.5 25.9939C19.5871 25.9939 16.3182 23.3609 15.5162 19.8448C15.393 20.3853 15.3262 20.9458 15.3262 21.5219C15.3262 25.8442 18.9857 29.3479 23.5 29.3479C28.0144 29.3479 31.6739 25.8441 31.6739 21.5219C31.6739 20.9458 31.6071 20.3853 31.4839 19.8447C30.6819 23.361 27.413 25.9939 23.5 25.9939Z" fill="#FFDA44"/>
<path d="M23.4998 15.6523L24.2606 17.8943H26.7228L24.7309 19.2799L25.4917 21.5219L23.4998 20.1363L21.5079 21.5219L22.2688 19.2799L20.2769 17.8943H22.7389L23.4998 15.6523Z" fill="#FFDA44"/>
</g>
<defs>
<clipPath id="clip0_105_1932">
<rect width="47" height="45" fill="white"/>
</clipPath>
</defs>
</svg>
