<svg width="47" height="45" viewBox="0 0 47 45" fill="none" xmlns="http://www.w3.org/2000/svg">
<g clip-path="url(#clip0_105_1937)">
<path d="M2.85742 11.7391L23.5001 13.6956L44.1427 11.7391C40.157 4.74513 32.4076 0 23.5001 0C14.5926 0 6.84315 4.74513 2.85742 11.7391V11.7391Z" fill="#D80027"/>
<path d="M2.85736 33.2609L23.5 35.2174L44.1426 33.2609C45.9643 30.0642 47 26.3979 47 22.5L23.5 20.5435L0 22.5C0 26.3979 1.03574 30.0642 2.85736 33.2609Z" fill="#FFDA44"/>
<path d="M2.85736 11.7393C1.03574 14.9359 0 18.6022 0 22.5001H47C47 18.6022 45.9643 14.9359 44.1426 11.7393H23.5H2.85736Z" fill="#0052B4"/>
<path d="M23.5001 44.9999C32.4076 44.9999 40.157 40.2547 44.1427 33.2607H2.85742C6.84315 40.2547 14.5926 44.9999 23.5001 44.9999Z" fill="#6DA544"/>
</g>
<defs>
<clipPath id="clip0_105_1937">
<rect width="47" height="45" fill="white"/>
</clipPath>
</defs>
</svg>
