<svg width="47" height="45" viewBox="0 0 47 45" fill="none" xmlns="http://www.w3.org/2000/svg">
<g clip-path="url(#clip0_105_1942)">
<path d="M23.5 45C36.4787 45 47 34.9264 47 22.5C47 10.0736 36.4787 0 23.5 0C10.5213 0 0 10.0736 0 22.5C0 34.9264 10.5213 45 23.5 45Z" fill="#338AF3"/>
<path d="M11.2393 24.4565H35.761V27.3913H11.2393V24.4565Z" fill="#818085"/>
<path d="M15.3262 15.6523L23.5 16.6307L31.6739 15.6523V10.9567L28.4044 12.5219L23.5 7.82617L18.5957 12.5219L15.3262 10.9567V15.6523Z" fill="#FFDA44"/>
<path d="M13.2826 30.3261H10.2173V24.9456L11.2391 23.4781L10.2173 22.0108V18.5869H13.2826V30.3261Z" fill="#F0F0F0"/>
<path d="M36.7826 30.3261H33.7173V18.5869H36.7826V22.0107L35.7608 23.5027L36.7826 24.9458V30.3261Z" fill="#F0F0F0"/>
<path d="M10.2173 22.0107H36.7825V24.9455H10.2173V22.0107Z" fill="#ACABB1"/>
<path d="M23.5 34.2392C18.9929 34.2392 15.3262 30.7284 15.3262 26.4131V15.6523H31.674V26.4131C31.6739 30.7284 28.0072 34.2392 23.5 34.2392Z" fill="#F0F0F0"/>
<path d="M23.4998 31.3042C20.6828 31.3042 18.3911 29.1099 18.3911 26.4129V18.5869H28.6085V26.4129C28.6085 29.1099 26.3168 31.3042 23.4998 31.3042V31.3042Z" fill="#0052B4"/>
<path d="M15.3262 15.6523H18.3914V18.5871H15.3262V15.6523Z" fill="#D80027"/>
<path d="M28.6089 15.6523H31.6741V18.5871H28.6089V15.6523Z" fill="#D80027"/>
<path d="M28.6089 22.0112H31.6741V24.946H28.6089V22.0112Z" fill="#D80027"/>
<path d="M15.3262 22.0112H18.3914V24.946H15.3262V22.0112Z" fill="#D80027"/>
<path d="M21.9673 15.6523H25.0325V18.5871H21.9673V15.6523Z" fill="#D80027"/>
<path d="M23.4999 31.3043C22.966 31.3043 22.4513 31.2252 21.9673 31.0791V34.0991C22.4641 34.1898 22.9759 34.2391 23.4999 34.2391C24.0239 34.2391 24.5358 34.1898 25.0326 34.0991V31.0791C24.5485 31.2251 24.0338 31.3043 23.4999 31.3043Z" fill="#D80027"/>
<path d="M18.4599 27.207L16.0137 29.5491C16.4378 30.4737 17.0429 31.305 17.7866 32.002L19.953 29.9278C19.1799 29.2126 18.6414 28.2669 18.4599 27.207Z" fill="#D80027"/>
<path d="M30.9866 29.5496L28.5404 27.2075C28.3589 28.2673 27.8204 29.2129 27.0474 29.9283L29.2138 32.0026C29.9573 31.3055 30.5625 30.4741 30.9866 29.5496Z" fill="#D80027"/>
</g>
<defs>
<clipPath id="clip0_105_1942">
<rect width="47" height="45" fill="white"/>
</clipPath>
</defs>
</svg>
