<svg width="47" height="45" viewBox="0 0 47 45" fill="none" xmlns="http://www.w3.org/2000/svg">
<g clip-path="url(#clip0_105_1961)">
<path d="M23.5 45C36.4787 45 47 34.9264 47 22.5C47 10.0736 36.4787 0 23.5 0C10.5213 0 0 10.0736 0 22.5C0 34.9264 10.5213 45 23.5 45Z" fill="#F0F0F0"/>
<path d="M46.9999 22.4998C46.9999 13.5795 41.5779 5.8718 33.7173 2.23242V42.7671C41.5779 39.1279 46.9999 31.4202 46.9999 22.4998V22.4998Z" fill="#D80027"/>
<path d="M0 22.4998C0 31.4202 5.42198 39.1279 13.2826 42.7672V2.23242C5.42198 5.8718 0 13.5795 0 22.4998Z" fill="#6DA544"/>
<path d="M17.3696 22.5C17.3696 25.7417 20.1144 28.3696 23.5001 28.3696C26.8858 28.3696 29.6306 25.7417 29.6306 22.5V20.5435H17.3696V22.5Z" fill="#6DA544"/>
<path d="M31.6741 18.5869H25.5436C25.5436 17.5064 24.6287 16.6304 23.5001 16.6304C22.3716 16.6304 21.4566 17.5064 21.4566 18.5869H15.3262C15.3262 19.6675 16.3092 20.5434 17.4377 20.5434H17.3697C17.3697 21.6241 18.2845 22.5 19.4132 22.5C19.4132 23.5806 20.328 24.4565 21.4566 24.4565H25.5436C26.6723 24.4565 27.5871 23.5806 27.5871 22.5C28.7158 22.5 29.6306 21.6241 29.6306 20.5434H29.5625C30.6911 20.5434 31.6741 19.6675 31.6741 18.5869Z" fill="#FF9811"/>
</g>
<defs>
<clipPath id="clip0_105_1961">
<rect width="47" height="45" fill="white"/>
</clipPath>
</defs>
</svg>
