<svg width="47" height="45" viewBox="0 0 47 45" fill="none" xmlns="http://www.w3.org/2000/svg">
<g clip-path="url(#clip0_105_1968)">
<path d="M23.5 45C36.4787 45 47 34.9264 47 22.5C47 10.0736 36.4787 0 23.5 0C10.5213 0 0 10.0736 0 22.5C0 34.9264 10.5213 45 23.5 45Z" fill="#338AF3"/>
<path d="M23.4999 9.78271L24.5143 12.7721H27.7973L25.1414 14.6196L26.1558 17.6088L23.4999 15.7614L20.844 17.6088L21.8586 14.6196L19.2026 12.7721H22.4856L23.4999 9.78271Z" fill="#F0F0F0"/>
<path d="M10.2173 22.5004L13.3395 21.5291V18.3857L15.2691 20.9288L18.3912 19.9575L16.4617 22.5004L18.3912 25.0431L15.2691 24.0717L13.3395 26.6147V23.4715L10.2173 22.5004Z" fill="#F0F0F0"/>
<path d="M23.5001 35.2177L22.4857 32.2284H19.2026L21.8587 30.3808L20.8442 27.3916L23.5001 29.2391L26.1559 27.3916L25.1413 30.3808L27.7973 32.2284H24.5145L23.5001 35.2177Z" fill="#F0F0F0"/>
<path d="M36.7824 22.5002L33.6602 23.4714V26.6147L31.7305 24.0717L28.6084 25.043L30.538 22.5002L28.6084 19.9574L31.7305 20.9288L33.6602 18.3857V21.529L36.7824 22.5002Z" fill="#F0F0F0"/>
</g>
<defs>
<clipPath id="clip0_105_1968">
<rect width="47" height="45" fill="white"/>
</clipPath>
</defs>
</svg>
