<svg width="46" height="44" viewBox="0 0 46 44" fill="none" xmlns="http://www.w3.org/2000/svg">
<g clip-path="url(#clip0_105_1975)">
<path d="M32.9999 2.18298C29.9762 0.784438 26.5838 0 23 0C19.4161 0 16.0238 0.784438 13 2.18298L11 22L13 41.817C16.0238 43.2156 19.4161 44 23 44C26.5838 44 29.9762 43.2156 32.9999 41.817L35 22L32.9999 2.18298Z" fill="#FFDA44"/>
<path d="M13 2.18359C5.30671 5.74201 0 13.2778 0 21.9998C0 30.7219 5.30671 38.2577 13 41.8161V2.18359Z" fill="#0052B4"/>
<path d="M33 2.18359V41.8161C40.6933 38.2577 46 30.7219 46 21.9998C46 13.2778 40.6933 5.74201 33 2.18359Z" fill="#D80027"/>
<path d="M30.9999 17.3093H25.4999C25.4999 15.9886 24.3807 14.918 23 14.918C21.6192 14.918 20.5 15.9886 20.5 17.3093H15C15 18.6096 16.1842 19.6636 17.5435 19.6636H17.4615C17.4615 20.964 18.5636 22.0182 19.9231 22.0182C19.9231 23.1695 20.7876 24.1262 21.9293 24.3307L19.9896 28.5195C20.919 28.8808 21.9348 29.0817 23 29.0817C24.0651 29.0817 25.0809 28.8808 26.0103 28.5195L24.0706 24.3307C25.2124 24.1262 26.0768 23.1695 26.0768 22.0182C27.4364 22.0182 28.5384 20.964 28.5384 19.6636H28.4563C29.8158 19.6636 30.9999 18.6095 30.9999 17.3093V17.3093Z" fill="#FF9811"/>
<path d="M23 20.5654L19.75 22.0002V24.8698L23 26.7828L26.25 24.8698V22.0002L23 20.5654Z" fill="#0052B4"/>
<path d="M19.75 19.1304H26.25V21.9999H19.75V19.1304Z" fill="#D80027"/>
</g>
<defs>
<clipPath id="clip0_105_1975">
<rect width="46" height="44" fill="white"/>
</clipPath>
</defs>
</svg>
