<svg width="46" height="44" viewBox="0 0 46 44" fill="none" xmlns="http://www.w3.org/2000/svg">
<g clip-path="url(#clip0_105_1985)">
<path d="M23 44C25.8134 44 28.5084 43.516 31 42.6316L32 22L31.0001 1.36838C28.5084 0.484086 25.8134 0 23 0C20.1866 0 17.4916 0.484086 15.0001 1.36838L14 22L15 42.6316C17.4916 43.516 20.1866 44 23 44Z" fill="#0052B4"/>
<path d="M0 21.9998C0 31.459 6.24163 39.523 15 42.6314V1.36816C6.24163 4.47661 0 12.5406 0 21.9998Z" fill="#A2001D"/>
<path d="M31 1.36816V42.6315C39.7584 39.523 46 31.459 46 21.9998C46 12.5406 39.7584 4.47661 31 1.36816V1.36816Z" fill="#A2001D"/>
<path d="M11 22H13V29.6521H11V22Z" fill="#FFDA44"/>
<path d="M3 22H5.00001V29.6521H3V22Z" fill="#FFDA44"/>
<path d="M8.00001 26.7822C9.10459 26.7822 10 25.9257 10 24.8691C10 23.8126 9.10459 22.9561 8.00001 22.9561C6.89544 22.9561 6 23.8126 6 24.8691C6 25.9257 6.89544 26.7822 8.00001 26.7822Z" fill="#FFDA44"/>
<path d="M7.99996 19.1303C8.55222 19.1303 8.99992 18.702 8.99992 18.1738C8.99992 17.6455 8.55222 17.2173 7.99996 17.2173C7.4477 17.2173 7 17.6455 7 18.1738C7 18.702 7.4477 19.1303 7.99996 19.1303Z" fill="#FFDA44"/>
<path d="M6 27.7388H10V29.6518H6V27.7388Z" fill="#FFDA44"/>
<path d="M6 20.0869H10V22H6V20.0869Z" fill="#FFDA44"/>
<path d="M7.99997 11.478L8.7083 13.5629H11L9.14611 14.8514L9.8539 16.9363L7.99997 15.6477L6.14614 16.9363L6.85393 14.8514L5 13.5629H7.29173L7.99997 11.478Z" fill="#FFDA44"/>
</g>
<defs>
<clipPath id="clip0_105_1985">
<rect width="46" height="44" fill="white"/>
</clipPath>
</defs>
</svg>
