<svg width="47" height="44" viewBox="0 0 47 44" fill="none" xmlns="http://www.w3.org/2000/svg">
<g clip-path="url(#clip0_105_1998)">
<path d="M23.5 44C36.4787 44 47 34.1503 47 22C47 9.84974 36.4787 0 23.5 0C10.5213 0 0 9.84974 0 22C0 34.1503 10.5213 44 23.5 44Z" fill="#FFDA44"/>
<path d="M47 22.0001C47 14.4495 42.9362 7.78815 36.7451 3.82617H10.2549C4.06385 7.78815 0 14.4495 0 22.0001C0 29.5508 4.06385 36.212 10.2549 40.174H36.7451C42.9362 36.212 47 29.5508 47 22.0001Z" fill="#A2001D"/>
<path d="M18.3916 16.2611H28.609V12.435L26.5655 13.3915L23.5003 10.522L20.4351 13.3915L18.3916 12.435V16.2611Z" fill="#FFDA44"/>
<path d="M32.6957 22.0004H27.589C27.7893 21.6761 27.9057 21.3008 27.9057 20.8993C27.9057 19.6801 26.8499 18.6919 25.5478 18.6919C24.6481 18.6919 23.8667 19.1639 23.4691 19.8574C23.0715 19.1638 22.2902 18.6919 21.3905 18.6919C20.0883 18.6919 19.0326 19.6801 19.0326 20.8993C19.0326 21.3009 19.1491 21.6762 19.3493 22.0004H14.3042C14.3042 23.4633 15.6653 24.6492 17.2278 24.6492H17.1337C17.1337 25.8491 17.9862 26.8623 19.155 27.1878L16.8585 29.3378L19.026 31.3669L22.1005 28.4886C22.2209 28.5299 22.3455 28.5629 22.4743 28.5856L20.6165 32.5125C21.5068 32.8515 22.4797 33.0396 23.5 33.0396C24.5203 33.0396 25.4932 32.8515 26.3836 32.5125L24.5258 28.5856C24.6545 28.563 24.779 28.5299 24.8994 28.4886L27.9739 31.3669L30.1413 29.3378L27.8447 27.1878C29.0135 26.8622 29.8661 25.8492 29.8661 24.6493H29.7718C31.3345 24.6492 32.6957 23.4633 32.6957 22.0004V22.0004Z" fill="#FFDA44"/>
<path d="M23.4999 23.4346L20.1792 24.8693V27.7389L23.4999 29.6519L26.8205 27.7389V24.8693L23.4999 23.4346Z" fill="#6DA544"/>
<path d="M20.1792 22H26.8205V25.8261H20.1792V22Z" fill="#0052B4"/>
</g>
<defs>
<clipPath id="clip0_105_1998">
<rect width="47" height="44" fill="white"/>
</clipPath>
</defs>
</svg>
