<svg width="46" height="44" viewBox="0 0 46 44" fill="none" xmlns="http://www.w3.org/2000/svg">
<g clip-path="url(#clip0_105_2006)">
<path d="M46 22C46 34.1502 35.7025 44 23 44C10.2975 44 0 34.1502 0 22C0 22.0052 23 0.00240625 23 0C35.7025 0 46 9.84981 46 22Z" fill="#0052B4"/>
<path d="M22.9385 21.9998H23C23 21.98 23 21.9608 23 21.9409C22.9795 21.9606 22.9591 21.9802 22.9385 21.9998Z" fill="#F0F0F0"/>
<path d="M23 11.4782C23 7.60719 23 5.07074 23 0H22.9961C10.2953 0.0020625 0 9.85093 0 22H12V15.5366L18.7572 22H22.9385C22.959 21.9804 22.9795 21.9608 23.0001 21.9411C23.0001 20.459 23.0001 19.1365 23.0001 17.9419L16.2427 11.4782H23Z" fill="#F0F0F0"/>
<path d="M11.6361 2.86963C8.03889 4.82892 5.04826 7.68943 3 11.1303V22.0001H9.00004V8.60896V8.60879H23C23 6.79869 23 5.07427 23 2.86963H11.6361Z" fill="#D80027"/>
<path d="M23 19.2948L14.8283 11.4785H12V11.4787L22.9998 22.0002H23C23 22.0002 23 20.1347 23 19.2948V19.2948Z" fill="#D80027"/>
<path d="M26 11.478V21.9997C26 27.125 33 28.6954 33 28.6954C33 28.6954 40 27.125 40 21.9997V11.478H26Z" fill="#338AF3"/>
<path d="M26 22C26 27.1253 33 28.6957 33 28.6957C33 28.6957 40 27.1253 40 22H26Z" fill="#A2001D"/>
<path d="M36 16.2608H33.9999V14.3477H31.9999V16.2608H30V18.1738H31.9999V23.9128H33.9999V18.1738H36V16.2608Z" fill="black"/>
</g>
<defs>
<clipPath id="clip0_105_2006">
<rect width="46" height="44" fill="white"/>
</clipPath>
</defs>
</svg>
