<svg width="47" height="44" viewBox="0 0 47 44" fill="none" xmlns="http://www.w3.org/2000/svg">
<g clip-path="url(#clip0_105_2018)">
<path d="M23.5 44C36.4787 44 47 34.1503 47 22C47 9.84974 36.4787 0 23.5 0C10.5213 0 0 9.84974 0 22C0 34.1503 10.5213 44 23.5 44Z" fill="#D80027"/>
<path d="M37.3878 18.0548H26.7785L23.5001 8.60889L20.2216 18.0548H9.6123L18.1954 23.8927L14.9169 33.3389L23.5001 27.5009L32.0833 33.3389L28.8047 23.8928L37.3878 18.0548ZM20.5976 23.162L21.7063 19.9678H25.2938L26.4025 23.162V23.1621L23.5001 25.1361L20.5977 23.1621L20.5976 23.162ZM24.6299 18.0548H22.3703L23.5001 14.7995L24.6299 18.0548ZM28.1407 21.9797L27.4424 19.9678H31.0986L28.1407 21.9797ZM19.5577 19.9678L18.8594 21.9797L15.9014 19.9678H19.5577ZM18.8038 28.3304L19.9337 25.0752L21.7618 26.3185L18.8038 28.3304ZM25.2383 26.3186L27.0665 25.0753L28.1963 28.3305L25.2383 26.3186Z" fill="#FFDA44"/>
</g>
<defs>
<clipPath id="clip0_105_2018">
<rect width="47" height="44" fill="white"/>
</clipPath>
</defs>
</svg>
