<svg width="47" height="44" viewBox="0 0 47 44" fill="none" xmlns="http://www.w3.org/2000/svg">
<g clip-path="url(#clip0_105_2021)">
<path d="M23.5 44C36.4787 44 47 34.1503 47 22C47 9.84974 36.4787 0 23.5 0C10.5213 0 0 9.84974 0 22C0 34.1503 10.5213 44 23.5 44Z" fill="#F0F0F0"/>
<path d="M12.7021 30.6089L6.88379 37.5558C11.1362 41.5373 17.0105 44.0002 23.5 44.0002C33.2149 44.0002 41.5513 38.4805 45.1302 30.6089H12.7021Z" fill="#FFDA44"/>
<path d="M45.1668 13.471C41.6079 5.55689 33.2478 0 23.5 0C17.0105 0 11.1362 2.46288 6.88379 6.44437L12.7689 13.471H45.1668Z" fill="#496E2D"/>
<path d="M5.10889 16.1812V27.7391H46.1907C46.7178 25.9094 47.0002 23.9857 47.0002 22C47.0002 19.9854 46.7103 18.0347 46.1684 16.1812H5.10889Z" fill="black"/>
<path d="M6.88298 6.44336C-2.29433 15.0349 -2.29433 28.9646 6.88298 37.5562C10.6754 34.0058 14.3227 30.5913 23.5 21.9998L6.88298 6.44336Z" fill="#A2001D"/>
<path d="M9.51131 16.2607L11.0328 20.6449H15.9574L11.9736 23.3547L13.495 27.7391L9.51131 25.0294L5.52742 27.7391L7.04923 23.3547L3.06543 20.6449H7.9896L9.51131 16.2607Z" fill="#FFDA44"/>
<path d="M5.05859 22H13.9651V25.8261H5.05859V22Z" fill="#F0F0F0"/>
<path d="M15.6515 17.6136L14.2065 16.2607L9.51129 20.6563L4.81607 16.2607L3.37109 17.6136L8.07045 22.0051L3.37109 26.4046L4.81607 27.7391L9.51129 23.3514L14.2065 27.7391L15.6515 26.4046L10.9521 22.0051L15.6515 17.6136Z" fill="black"/>
</g>
<defs>
<clipPath id="clip0_105_2021">
<rect width="47" height="44" fill="white"/>
</clipPath>
</defs>
</svg>
