<svg width="47" height="44" viewBox="0 0 47 44" fill="none" xmlns="http://www.w3.org/2000/svg">
<g clip-path="url(#clip0_105_2030)">
<path d="M45.5383 29.6519C46.483 27.2687 47 24.6908 47 21.9998C47 19.3087 46.483 16.7308 45.5383 14.3476L23.5 12.4346L1.46168 14.3476C0.517092 16.7308 0 19.3087 0 21.9998C0 24.6908 0.517092 27.2687 1.46168 29.6519L23.5 31.5649L45.5383 29.6519Z" fill="#6DA544"/>
<path d="M45.5385 14.3479C42.2182 5.97025 33.6044 0 23.5002 0C13.3961 0 4.7823 5.97025 1.46191 14.3479H45.5385Z" fill="#FFDA44"/>
<path d="M23.5002 44.0002C33.6044 44.0002 42.2182 38.03 45.5385 29.6523H1.46191C4.7823 38.03 13.3961 44.0002 23.5002 44.0002Z" fill="#D80027"/>
<path d="M39.615 18.6131H27.3043L23.5001 7.65234L19.6959 18.6131H7.38525L17.3448 25.3872L13.5405 36.3481L23.5001 29.6523L33.4597 36.348L29.6555 25.3871L39.615 18.6131Z" fill="#F0F0F0"/>
</g>
<defs>
<clipPath id="clip0_105_2030">
<rect width="47" height="44" fill="white"/>
</clipPath>
</defs>
</svg>
