<svg width="47" height="44" viewBox="0 0 47 44" fill="none" xmlns="http://www.w3.org/2000/svg">
<g clip-path="url(#clip0_105_2035)">
<path d="M23.5 44C36.4787 44 47 34.1503 47 22C47 9.84974 36.4787 0 23.5 0C10.5213 0 0 9.84974 0 22C0 34.1503 10.5213 44 23.5 44Z" fill="#F0F0F0"/>
<path d="M6.88303 37.5562C7.86883 38.4791 8.92064 39.3021 10.0239 40.0268L42.7559 9.38403C41.9819 8.35114 41.1028 7.36647 40.1169 6.44359C39.1311 5.52071 38.0793 4.69777 36.976 3.97314L4.24414 34.6159C5.01808 35.6486 5.89722 36.6333 6.88303 37.5562V37.5562Z" fill="#A2001D"/>
<path d="M6.88311 6.44362C-0.530773 13.3843 -1.95399 23.8078 2.61042 32.0872L34.275 2.44383C25.4311 -1.82924 14.2968 -0.496697 6.88311 6.44362V6.44362Z" fill="#0052B4"/>
<path d="M40.117 37.5562C47.5307 30.6157 48.9539 20.1921 44.3897 11.9126L12.7251 41.5561C21.5689 45.8291 32.7032 44.4967 40.117 37.5562Z" fill="#496E2D"/>
<path d="M19.4132 12.435L16.78 13.5945L18.1822 15.982L15.3229 15.47L14.9605 18.174L12.9688 16.1852L10.9771 18.174L10.6149 15.47L7.75541 15.9819L9.15761 13.5944L6.52441 12.435L9.1577 11.2753L7.75541 8.88798L10.6148 9.4L10.9772 6.6958L12.9688 8.68474L14.9605 6.6958L15.3229 9.4L18.1822 8.88798L16.7801 11.2754L19.4132 12.435Z" fill="#FFDA44"/>
</g>
<defs>
<clipPath id="clip0_105_2035">
<rect width="47" height="44" fill="white"/>
</clipPath>
</defs>
</svg>
