<svg width="47" height="44" viewBox="0 0 47 44" fill="none" xmlns="http://www.w3.org/2000/svg">
<g clip-path="url(#clip0_105_2041)">
<path d="M23.5 44C36.4787 44 47 34.1503 47 22C47 9.84974 36.4787 0 23.5 0C10.5213 0 0 9.84974 0 22C0 34.1503 10.5213 44 23.5 44Z" fill="#0052B4"/>
<path d="M33.5854 23.535C33.6719 23.0351 33.7175 22.5225 33.7175 22.0002C33.7175 22.5225 33.6719 23.0351 33.5854 23.535L37.8045 22.0002L33.5854 20.4654L31.268 19.6225L27.5029 18.2529L26.04 14.7282C28.5069 15.4852 30.4592 17.3128 31.2679 19.6224L33.5853 20.4653C32.885 16.418 29.4627 13.2141 25.1395 12.5586L23.5001 8.60889L21.8606 12.5587C17.5374 13.2144 14.1152 16.4181 13.4149 20.4654L9.1958 22.0002L13.415 23.535C14.1153 27.5823 17.5375 30.7861 21.8607 31.4417L23.5001 35.3915L25.1396 31.4417C29.4628 30.7861 32.8851 27.5823 33.5854 23.535V23.535ZM25.9243 19.7308L23.5001 22.0002H32.1626L25.9242 24.2696L23.5001 22.0002V30.1098L21.076 24.2695L23.5001 22.0002H14.8377L21.076 19.7308L23.5001 22.0002V13.8907L25.9243 19.7308ZM20.9602 14.7282L19.4972 18.253L15.7323 19.6226C16.5409 17.3128 18.4932 15.4853 20.9602 14.7282ZM15.7324 24.378L19.4972 25.7476L20.9602 29.2721C18.4932 28.515 16.5411 26.6876 15.7324 24.378ZM26.0401 29.2721L27.503 25.7476L31.2679 24.378C30.4592 26.6876 28.5071 28.515 26.0401 29.2721Z" fill="#F0F0F0"/>
<path d="M32.1624 22H23.5L25.9242 24.2694L32.1624 22Z" fill="#0052B4"/>
<path d="M14.8374 22.0003H23.4998L21.0756 19.731L14.8374 22.0003Z" fill="#0052B4"/>
<path d="M23.4999 30.1096V22L21.0757 24.2694L23.4999 30.1096Z" fill="#0052B4"/>
<path d="M23.5 22.0001L25.9242 19.7308L23.5 13.8906V22.0001Z" fill="#0052B4"/>
<path d="M22.4785 2.86963H24.522V6.69574H22.4785V2.86963Z" fill="#F0F0F0"/>
<path d="M3.06543 21.0435H7.15241V22.9565H3.06543V21.0435Z" fill="#F0F0F0"/>
<path d="M22.4785 37.3047H24.522V41.1308H22.4785V37.3047Z" fill="#F0F0F0"/>
<path d="M39.8481 21.0435H43.9351V22.9565H39.8481V21.0435Z" fill="#F0F0F0"/>
</g>
<defs>
<clipPath id="clip0_105_2041">
<rect width="47" height="44" fill="white"/>
</clipPath>
</defs>
</svg>
