<svg width="46" height="44" viewBox="0 0 46 44" fill="none" xmlns="http://www.w3.org/2000/svg">
<g clip-path="url(#clip0_105_2054)">
<path d="M23 44C35.7025 44 46 34.1503 46 22C46 9.84974 35.7025 0 23 0C10.2975 0 0 9.84974 0 22C0 34.1503 10.2975 44 23 44Z" fill="#0052B4"/>
<path d="M23 44C35.7025 44 46 34.1503 46 22C46 9.84974 35.7025 0 23 0C10.2975 0 0 9.84974 0 22C0 34.1503 10.2975 44 23 44Z" fill="#FFDA44"/>
<path d="M22.9998 0C10.9712 0 1.10111 8.83274 0.0874023 20.0869H45.9123C44.8985 8.83274 35.0284 0 22.9998 0V0Z" fill="#0052B4"/>
<path d="M22.9998 44C35.0284 44 44.8985 35.1673 45.9123 23.9131H0.0874023C1.10111 35.1673 10.9712 44 22.9998 44Z" fill="#0052B4"/>
<path d="M18.9999 29.6522L16.4227 30.8118L17.7951 33.1992L14.9965 32.6871L14.6419 35.3913L12.6926 33.4025L10.7433 35.3913L10.3887 32.6871L7.59006 33.1991L8.96251 30.8117L6.38525 29.6522L8.9626 28.4926L7.59006 26.1053L10.3886 26.6173L10.7434 23.9131L12.6926 25.9019L14.642 23.9131L14.9965 26.6173L17.7951 26.1053L16.4228 28.4927L18.9999 29.6522Z" fill="#F0F0F0"/>
</g>
<defs>
<clipPath id="clip0_105_2054">
<rect width="46" height="44" fill="white"/>
</clipPath>
</defs>
</svg>
