<svg width="47" height="44" viewBox="0 0 47 44" fill="none" xmlns="http://www.w3.org/2000/svg">
<g clip-path="url(#clip0_105_2061)">
<path d="M23.5 44C36.4787 44 47 34.1503 47 22C47 9.84974 36.4787 0 23.5 0C10.5213 0 0 9.84974 0 22C0 34.1503 10.5213 44 23.5 44Z" fill="#F0F0F0"/>
<path d="M46.8636 24.3926L46.8617 24.3906L46.8613 24.3926H46.8636Z" fill="#0052B4"/>
<path d="M46.8614 24.3912C46.8614 24.391 46.8615 24.3908 46.8615 24.3905L21.09 0.114258C19.9274 0.225203 18.7897 0.415469 17.6835 0.679211C7.51798 3.10222 0 21.9999 0 21.9999C0 21.9999 32.8998 42.6107 36.6531 40.2327C37.4041 39.757 38.1242 39.2416 38.8097 38.6899L23.5363 24.3912H46.8614Z" fill="#0052B4"/>
<path d="M40.8695 21.9999L18.0147 0.604004C7.6823 2.91718 0 11.618 0 21.9999C0 34.1501 10.5214 43.9999 23.5 43.9999C28.423 43.9999 32.9915 42.5818 36.7673 40.1595L17.3695 21.9999H40.8695Z" fill="#D80027"/>
<path d="M22.35 32.4842L19.48 31.2204L21.0083 28.6183L17.8918 29.1765L17.4969 26.229L15.3262 28.3968L13.1555 26.229L12.7605 29.1765L9.64404 28.6182L11.1724 31.2204L8.30225 32.4842L11.1724 33.7479L9.64404 36.3501L12.7606 35.792L13.1554 38.7394L15.3262 36.5716L17.4969 38.7394L17.8918 35.792L21.0082 36.3502L19.4799 33.7481L22.35 32.4842Z" fill="#F0F0F0"/>
<path d="M20.4347 12.2019L18.3473 11.2828L19.4588 9.39017L17.1921 9.79614L16.9049 7.65234L15.3261 9.22904L13.7472 7.65234L13.4599 9.79614L11.1932 9.39017L12.3048 11.2828L10.2173 12.2019L15.3261 13.1585L20.4347 12.2019Z" fill="#F0F0F0"/>
<path d="M21.4567 12.2017C21.4567 15.3713 18.712 17.9408 15.3263 17.9408C11.9405 17.9408 9.1958 15.3713 9.1958 12.2017" fill="#F0F0F0"/>
</g>
<defs>
<clipPath id="clip0_105_2061">
<rect width="47" height="44" fill="white"/>
</clipPath>
</defs>
</svg>
