<svg width="46" height="44" viewBox="0 0 46 44" fill="none" xmlns="http://www.w3.org/2000/svg">
<g clip-path="url(#clip0_105_2071)">
<path d="M23 44C35.7025 44 46 34.1503 46 22C46 9.84974 35.7025 0 23 0C10.2975 0 0 9.84974 0 22C0 34.1503 10.2975 44 23 44Z" fill="#F0F0F0"/>
<path d="M23.0001 0C13.1109 0 4.6804 5.97025 1.43066 14.3479H44.5696C41.3198 5.97025 32.8893 0 23.0001 0V0Z" fill="#A2001D"/>
<path d="M23.0001 44.0002C32.8893 44.0002 41.3198 38.03 44.5695 29.6523H1.43066C4.6804 38.03 13.1109 44.0002 23.0001 44.0002Z" fill="#0052B4"/>
</g>
<defs>
<clipPath id="clip0_105_2071">
<rect width="46" height="44" fill="white"/>
</clipPath>
</defs>
</svg>
