<svg width="47" height="44" viewBox="0 0 47 44" fill="none" xmlns="http://www.w3.org/2000/svg">
<g clip-path="url(#clip0_105_2075)">
<path d="M47 22C47 34.1502 36.4786 44 23.5 44C10.5214 44 0 34.1502 0 22C0 22.0052 23.5 0.00240625 23.5 0C36.4786 0 47 9.84981 47 22Z" fill="#0052B4"/>
<path d="M23.437 21.9998H23.4999C23.4999 21.98 23.4999 21.9608 23.4999 21.9409C23.479 21.9606 23.458 21.9802 23.437 21.9998Z" fill="#F0F0F0"/>
<path d="M23.5 11.4782C23.5 7.60719 23.5 5.07074 23.5 0H23.4961C10.5192 0.0020625 0 9.85093 0 22H12.2609V15.5366L19.1651 22H23.4372C23.4581 21.9804 23.4792 21.9608 23.5001 21.9411C23.5001 20.459 23.5001 19.1365 23.5001 17.9419L16.5958 11.4782H23.5Z" fill="#F0F0F0"/>
<path d="M11.8893 2.86963C8.21386 4.82892 5.15831 7.68943 3.06543 11.1303V22.0001H9.1959V8.60897V8.60879H23.5002C23.5002 6.79869 23.5002 5.07427 23.5002 2.86963H11.8893Z" fill="#D80027"/>
<path d="M23.5003 19.2948L15.1511 11.4785C15.1511 11.4785 12.2612 11.4787 12.2612 11.4785V11.4787L23.5002 22.0002H23.5003C23.5003 22.0002 23.5003 20.1347 23.5003 19.2948Z" fill="#D80027"/>
<path d="M40.6966 16.3247L41.2038 17.7862H42.8452L41.5173 18.6894L42.0246 20.1507L40.6966 19.2476L39.3686 20.1507L39.8759 18.6894L38.5479 17.7862H40.1893L40.6966 16.3247Z" fill="#D80027"/>
<path d="M34.8289 26.8462L35.5899 29.0385H38.0519L36.0599 30.3932L36.8209 32.5854L34.8289 31.2306L32.837 32.5854L33.598 30.3932L31.606 29.0385H34.068L34.8289 26.8462Z" fill="#D80027"/>
<path d="M35.0504 9.62891L35.6846 11.4559H37.7363L36.0763 12.5846L36.7104 14.4115L35.0504 13.2824L33.3906 14.4115L34.0246 12.5846L32.3647 11.4559H34.4164L35.0504 9.62891Z" fill="#D80027"/>
<path d="M29.4046 16.2607L30.1654 18.453H32.6276L30.6356 19.8077L31.3966 21.9999L29.4046 20.6451L27.4126 21.9999L28.1736 19.8077L26.1816 18.453H28.6437L29.4046 16.2607Z" fill="#D80027"/>
</g>
<defs>
<clipPath id="clip0_105_2075">
<rect width="47" height="44" fill="white"/>
</clipPath>
</defs>
</svg>
