<svg width="46" height="44" viewBox="0 0 46 44" fill="none" xmlns="http://www.w3.org/2000/svg">
<g clip-path="url(#clip0_105_2088)">
<path d="M23 44C35.7025 44 46 34.1503 46 22C46 9.84974 35.7025 0 23 0C10.2975 0 0 9.84974 0 22C0 34.1503 10.2975 44 23 44Z" fill="#F0F0F0"/>
<path d="M23 0C13.8814 0 6.00248 5.0759 2.28223 12.4348H43.7177C39.9976 5.0759 32.1185 0 23 0V0Z" fill="#338AF3"/>
<path d="M23 44.0002C32.1185 44.0002 39.9976 38.9243 43.7178 31.5654H2.28223C6.00248 38.9243 13.8814 44.0002 23 44.0002Z" fill="#338AF3"/>
<path d="M23 15.3042C19.134 15.3042 16 18.302 16 21.9998C16 25.6977 19.134 28.6955 23 28.6955C26.866 28.6955 30 25.6977 30 21.9998C30 18.302 26.866 15.3042 23 15.3042ZM23 25.826C20.7909 25.826 19 24.1131 19 21.9998C19 19.8866 20.7908 18.1737 23 18.1737C25.2092 18.1737 27 19.8866 27 21.9998C27 24.1131 25.2091 25.826 23 25.826Z" fill="#FFDA44"/>
<path d="M26.4644 22.9565L23.0002 22L19.536 22.9565L18.3813 24.8695H27.619L26.4644 22.9565Z" fill="#0052B4"/>
<path d="M22.9999 17.2173L20.6904 21.0434L22.9999 21.9999L25.3093 21.0434L22.9999 17.2173Z" fill="#338AF3"/>
<path d="M19.5356 22.9564H26.464L25.3093 21.0435H20.6904L19.5356 22.9564Z" fill="#6DA544"/>
</g>
<defs>
<clipPath id="clip0_105_2088">
<rect width="46" height="44" fill="white"/>
</clipPath>
</defs>
</svg>
