<svg width="47" height="44" viewBox="0 0 47 44" fill="none" xmlns="http://www.w3.org/2000/svg">
<g clip-path="url(#clip0_105_2097)">
<path d="M2.33182 12.435C0.837922 15.3273 0 18.5721 0 22.0002C0 25.4283 0.837922 28.6731 2.33182 31.5654L23.5 33.4785L44.6682 31.5654C46.1621 28.6731 47 25.4283 47 22.0002C47 18.5721 46.1621 15.3273 44.6682 12.435L23.5 10.522L2.33182 12.435Z" fill="#F0F0F0"/>
<path d="M2.33252 31.5654C6.13346 38.9243 14.183 44.0002 23.4999 44.0002C32.8167 44.0002 40.8663 38.9243 44.6672 31.5654H2.33252Z" fill="#6DA544"/>
<path d="M2.33252 12.4348H44.6672C40.8663 5.0759 32.8166 0 23.4999 0C14.1831 0 6.13346 5.0759 2.33252 12.4348Z" fill="#FF9811"/>
<path d="M23.5 29.6519C28.0143 29.6519 31.6739 26.2259 31.6739 21.9998C31.6739 17.7736 28.0143 14.3477 23.5 14.3477C18.9857 14.3477 15.3262 17.7736 15.3262 21.9998C15.3262 26.2259 18.9857 29.6519 23.5 29.6519Z" fill="#FF9811"/>
</g>
<defs>
<clipPath id="clip0_105_2097">
<rect width="47" height="44" fill="white"/>
</clipPath>
</defs>
</svg>
