<svg width="47" height="44" viewBox="0 0 47 44" fill="none" xmlns="http://www.w3.org/2000/svg">
<g clip-path="url(#clip0_105_2108)">
<path d="M47 22C47 34.1502 36.4786 44 23.5 44C10.5214 44 0 34.1502 0 22C0 22.0052 23.5 0.00240625 23.5 0C36.4786 0 47 9.84981 47 22Z" fill="#FFDA44"/>
<path d="M23.5 10.522V17.9421L15.3262 10.522H23.5Z" fill="#0052B4"/>
<path d="M12.261 22.0003H19.1651L12.261 13.3916L11.2393 20.0872L12.261 22.0003Z" fill="#0052B4"/>
<path d="M23.437 21.9998H23.4999C23.4999 21.98 23.4999 21.9608 23.4999 21.9409C23.479 21.9606 23.458 21.9802 23.437 21.9998Z" fill="#F0F0F0"/>
<path d="M23.5 11.4782C23.5 7.60719 23.5 5.07074 23.5 0H23.4961C10.5191 0.0020625 0 9.85093 0 22H12.2609V15.5366L19.165 22H23.4372C23.4581 21.9804 23.4791 21.9608 23.5001 21.9411C23.5001 20.459 23.5001 19.1365 23.5001 17.9419L16.5958 11.4782H23.5Z" fill="#F0F0F0"/>
<path d="M23.5004 19.2948L15.151 11.4785H12.2612V11.4787L23.5002 22.0002H23.5004C23.5004 22.0002 23.5004 20.1347 23.5004 19.2948V19.2948Z" fill="#D80027"/>
<path d="M11.8893 2.86963C10.9834 3.3526 10.1154 3.89082 9.28999 4.47838H10.2542L7.70576 6.21208L8.67899 9.01682L6.13053 7.28347L5.85936 7.46797C4.80122 8.5929 3.86305 9.81905 3.06543 11.1303V22.0001H9.1959V8.60897V8.60879H23.5002C23.5002 6.79869 23.5002 5.07427 23.5002 2.86963H11.8893Z" fill="#D80027"/>
<path d="M10.0387 3.96631C9.78527 4.13243 9.53539 4.30318 9.28929 4.47841L7.70533 6.21211L6.1301 7.28341L5.85663 7.46938C5.2796 8.08297 4.73846 8.72682 4.23633 9.39825C4.80868 9.65829 5.45117 9.80447 6.1301 9.80447C8.52838 9.80447 10.4725 7.98449 10.4725 5.73929C10.4726 5.10352 10.3166 4.50221 10.0387 3.96631V3.96631Z" fill="#0052B4"/>
<path d="M5.85693 7.46948L6.1304 7.28352L8.67886 9.01696L7.70554 6.21222L10.2538 4.47852H9.2894C8.04152 5.36702 6.89158 6.3694 5.85693 7.46948V7.46948Z" fill="#FFDA44"/>
<path d="M16.243 3.82617L16.7503 5.28754H18.3916L17.0638 6.19083L17.5708 7.6522L16.243 6.74899L14.9152 7.6522L15.4221 6.19083L14.0942 5.28754H15.7357L16.243 3.82617Z" fill="#FFDA44"/>
<path d="M6.13062 13.3916L6.63789 14.853H8.27922L6.95147 15.7563L7.45846 17.2177L6.13062 16.3144L4.80269 17.2177L5.30968 15.7563L3.98193 14.853H5.62326L6.13062 13.3916Z" fill="#FFDA44"/>
</g>
<defs>
<clipPath id="clip0_105_2108">
<rect width="47" height="44" fill="white"/>
</clipPath>
</defs>
</svg>
