<svg width="47" height="44" viewBox="0 0 47 44" fill="none" xmlns="http://www.w3.org/2000/svg">
<g clip-path="url(#clip0_105_2125)">
<path d="M33.7175 2.18298C30.6279 0.784438 27.162 0 23.5001 0C19.8382 0 16.3723 0.784438 13.2827 2.18298L11.2393 22L13.2827 41.817C16.3723 43.2156 19.8382 44 23.5001 44C27.162 44 30.6279 43.2156 33.7175 41.817L35.761 22L33.7175 2.18298Z" fill="#F0F0F0"/>
<path d="M13.2826 2.18359C5.42198 5.74192 0 13.2777 0 21.9998C0 30.722 5.42198 38.2577 13.2826 41.8161V2.18359Z" fill="#6DA544"/>
<path d="M33.7173 2.18359V41.8161C41.5779 38.2577 46.9999 30.7219 46.9999 21.9998C46.9999 13.2778 41.5779 5.74192 33.7173 2.18359Z" fill="#6DA544"/>
<path d="M29.6306 28.6954L23.5001 10.5215L17.3696 28.6954H21.9675V33.478H25.0327V28.6954H29.6306Z" fill="#6DA544"/>
</g>
<defs>
<clipPath id="clip0_105_2125">
<rect width="47" height="44" fill="white"/>
</clipPath>
</defs>
</svg>
