<svg width="47" height="44" viewBox="0 0 47 44" fill="none" xmlns="http://www.w3.org/2000/svg">
<g clip-path="url(#clip0_105_2131)">
<path d="M23.5 44C36.4787 44 47 34.1503 47 22C47 9.84974 36.4787 0 23.5 0C10.5213 0 0 9.84974 0 22C0 34.1503 10.5213 44 23.5 44Z" fill="#F0F0F0"/>
<path d="M23.5002 0C16.3776 0 9.99562 2.96691 5.68604 7.65213H41.3143C37.0048 2.96691 30.6228 0 23.5002 0V0Z" fill="#0052B4"/>
<path d="M41.3144 36.3477H5.68604C9.99562 41.0329 16.3776 43.9998 23.5002 43.9998C30.6228 43.9998 37.0048 41.0329 41.3144 36.3477Z" fill="#0052B4"/>
<path d="M43.5508 10.522H3.44918C1.26175 13.8637 0 17.7938 0 22.0002C0 26.2066 1.26175 30.1369 3.44918 33.4785H43.5508C45.7383 30.1369 47 26.2066 47 22.0002C47 17.7938 45.7383 13.8637 43.5508 10.522Z" fill="#D80027"/>
<path d="M14.4574 30.465C19.4514 30.465 23.4998 26.675 23.4998 21.9999C23.4998 17.3247 19.4514 13.5347 14.4574 13.5347C9.46344 13.5347 5.41504 17.3247 5.41504 21.9999C5.41504 26.675 9.46344 30.465 14.4574 30.465Z" fill="#F0F0F0"/>
<path d="M14.4576 13.5347L16.4864 19.3802H23.0625L17.7404 22.9932L19.7851 28.8562L14.4576 25.226L9.13815 28.8494L11.1748 22.9932L5.85742 19.3802H12.4287L14.4576 13.5347Z" fill="#D80027"/>
</g>
<defs>
<clipPath id="clip0_105_2131">
<rect width="47" height="44" fill="white"/>
</clipPath>
</defs>
</svg>
