<svg width="47" height="44" viewBox="0 0 47 44" fill="none" xmlns="http://www.w3.org/2000/svg">
<g clip-path="url(#clip0_105_2146)">
<path d="M23.5 44C36.4787 44 47 34.1503 47 22C47 9.84974 36.4787 0 23.5 0C10.5213 0 0 9.84974 0 22C0 34.1503 10.5213 44 23.5 44Z" fill="#338AF3"/>
<path d="M22.759 35.8521C22.1255 35.8234 21.6014 35.438 21.396 34.9147C21.0333 35.3576 20.41 35.5805 19.796 35.4323C19.1809 35.284 18.7508 34.8077 18.6619 34.2547C18.2102 34.6201 17.5522 34.7195 16.9832 34.4585C16.413 34.1964 16.0943 33.6482 16.127 33.0905C15.6069 33.3641 14.9408 33.3374 14.4391 32.9738C13.9384 32.6103 13.7433 32.0144 13.8945 31.474C13.3263 31.6442 12.6806 31.4931 12.2668 31.0426C11.853 30.593 11.7896 29.9722 12.0533 29.472C11.4607 29.5312 10.8599 29.2615 10.5513 28.7431C10.2417 28.2247 10.3133 27.604 10.68 27.1628C10.0864 27.1093 9.55505 26.7314 9.36503 26.1652C9.174 25.5989 9.37834 25.004 9.83301 24.6414C9.26286 24.4768 8.82554 24.0062 8.76119 23.4161C8.69684 22.826 9.02382 22.2837 9.54587 22.0139C9.02373 21.746 8.69473 21.2038 8.75706 20.6145H8.75807C8.8204 20.0233 9.25772 19.5519 9.82677 19.3853C9.3721 19.0238 9.16574 18.4298 9.35475 17.8635C9.54376 17.2963 10.074 16.9175 10.6677 16.8619C10.3009 16.4219 10.2274 15.801 10.5349 15.2818C10.8424 14.7633 11.4432 14.4926 12.0369 14.551C11.7712 14.0508 11.8335 13.4299 12.2464 12.9785C12.6582 12.528 13.3039 12.3759 13.873 12.5443C13.7197 12.0048 13.9138 11.4079 14.4145 11.0435C14.9142 10.679 15.5803 10.6512 16.1004 10.9229C16.0667 10.3653 16.3844 9.81713 16.9535 9.55407C17.5216 9.29196 18.1807 9.38959 18.6332 9.75491C18.7201 9.20216 19.1502 8.72392 19.7642 8.57456C20.3773 8.42537 21.0006 8.64632 21.3643 9.08821C21.5696 8.56502 22.0928 8.17856 22.7262 8.14891C23.3587 8.1184 23.9206 8.45115 24.1822 8.95157C24.4949 8.4771 25.0896 8.19592 25.7159 8.28486C26.3432 8.37286 26.8245 8.80513 26.9737 9.34567C27.3824 8.93807 28.0261 8.77651 28.6207 8.98113C29.2164 9.18678 29.5944 9.70137 29.623 10.26C30.1104 9.93864 30.7766 9.90126 31.315 10.215C31.8535 10.5278 32.112 11.1027 32.02 11.6546C32.5667 11.4317 33.2267 11.5207 33.6865 11.9281C34.1463 12.3366 34.2771 12.9477 34.0687 13.4709C34.652 13.3552 35.2795 13.5656 35.6432 14.0525C36.0069 14.5384 36.0038 15.162 35.6882 15.6355C36.2838 15.6317 36.853 15.9569 37.1053 16.5012C37.3567 17.0464 37.2187 17.6576 36.807 18.0622C37.3925 18.1713 37.8798 18.5969 38.0085 19.1785C38.1362 19.76 37.8695 20.3311 37.3802 20.6496C37.9278 20.8669 38.314 21.3747 38.315 21.9677V21.9869V21.9994C38.315 22.5923 37.9308 23.1013 37.3832 23.3203C37.8737 23.637 38.1423 24.208 38.0147 24.7895C37.888 25.371 37.4016 25.7977 36.8162 25.9087C37.229 26.3123 37.369 26.9226 37.1186 27.4688C36.8683 28.014 36.2992 28.3402 35.7025 28.3373C36.0192 28.8108 36.0243 29.4344 35.6616 29.9213C35.2989 30.4083 34.6726 30.6205 34.0891 30.5057C34.2986 31.028 34.1688 31.6402 33.7101 32.0496C33.2503 32.4581 32.5913 32.5479 32.0446 32.327C32.1376 32.8779 31.8801 33.4538 31.3427 33.7685C30.8052 34.0832 30.139 34.0468 29.6507 33.7264C29.623 34.285 29.247 34.8006 28.6525 35.0072C28.0579 35.2138 28.6525 35.0072 28.6515 35.0072C28.0568 35.2129 27.4131 35.0522 27.0034 34.6458C26.8563 35.1872 26.3761 35.6204 25.7488 35.7104C25.1224 35.7993 24.5268 35.52 24.2131 35.0455C23.9638 35.5267 23.4366 35.8538 22.8358 35.8538C22.8102 35.8541 22.7846 35.8532 22.759 35.8521V35.8521Z" fill="#F3F3F3"/>
<path d="M23.5001 31.5649C29.143 31.5649 33.7174 27.2825 33.7174 21.9998C33.7174 16.7171 29.143 12.4346 23.5001 12.4346C17.8572 12.4346 13.2827 16.7171 13.2827 21.9998C13.2827 27.2825 17.8572 31.5649 23.5001 31.5649Z" fill="#338AF3"/>
<path d="M25.7364 18.753C26.2384 18.4044 26.5652 17.8473 26.5652 17.2172V16.2607C26.5652 15.2041 25.6503 14.3477 24.5217 14.3477H22.4783C21.3496 14.3477 20.4348 15.2041 20.4348 16.2607V17.2172C20.4348 17.8473 20.7616 18.4044 21.2635 18.753L19.4131 36.3476C19.4131 36.3476 20.4348 37.3042 23.5001 37.3042C26.5653 37.3042 27.587 36.3476 27.587 36.3476L25.7364 18.753Z" fill="#BDBCC1"/>
<path d="M23.4997 14.3477L25.2748 19.4625H31.02L26.3723 22.624L28.1474 27.739L23.4997 24.5777L18.8518 27.739L20.6273 22.624L15.9795 19.4625H21.7244L23.4997 14.3477Z" fill="#F0F0F0"/>
</g>
<defs>
<clipPath id="clip0_105_2146">
<rect width="47" height="44" fill="white"/>
</clipPath>
</defs>
</svg>
