<svg width="46" height="44" viewBox="0 0 46 44" fill="none" xmlns="http://www.w3.org/2000/svg">
<g clip-path="url(#clip0_105_2139)">
<path d="M23 44C35.7025 44 46 34.1503 46 22C46 9.84974 35.7025 0 23 0C10.2975 0 0 9.84974 0 22C0 34.1503 10.2975 44 23 44Z" fill="#F0F0F0"/>
<path d="M5.56462 7.65234C4.75755 8.54893 4.02488 9.50825 3.37549 10.5219H42.6239C41.9745 9.50825 41.2419 8.54884 40.4348 7.65234H5.56462Z" fill="#D80027"/>
<path d="M5.56453 36.3481H40.4348C41.2418 35.4515 41.9745 34.4921 42.6239 33.4785H3.37549C4.02479 34.4921 4.75746 35.4515 5.56453 36.3481V36.3481Z" fill="#D80027"/>
<path d="M20.0563 17.9771L21.9434 20.4645L24.9996 19.5166L23.1096 22.0019L24.9965 24.4893L21.9413 23.5378L20.0513 26.0231L20.0532 22.9499L16.998 21.9984L20.0544 21.0505L20.0563 17.9771Z" fill="#D80027"/>
<path d="M14.9062 28.2178C11.3164 28.2178 8.40618 25.4341 8.40618 22.0004C8.40618 18.5666 11.3164 15.783 14.9062 15.783C16.0255 15.783 17.0787 16.0537 17.9982 16.5303C16.5557 15.181 14.583 14.3481 12.4062 14.3481C7.98787 14.3481 4.40625 17.7741 4.40625 22.0003C4.40625 26.2264 7.98796 29.6524 12.4062 29.6524C14.583 29.6524 16.5557 28.8196 17.9982 27.4703C17.0787 27.9471 16.0256 28.2178 14.9062 28.2178Z" fill="#D80027"/>
</g>
<defs>
<clipPath id="clip0_105_2139">
<rect width="46" height="44" fill="white"/>
</clipPath>
</defs>
</svg>
