<svg width="46" height="44" viewBox="0 0 46 44" fill="none" xmlns="http://www.w3.org/2000/svg">
<g clip-path="url(#clip0_105_2152)">
<path d="M23 44C35.7025 44 46 34.1503 46 22C46 9.84974 35.7025 0 23 0C10.2975 0 0 9.84974 0 22C0 34.1503 10.2975 44 23 44Z" fill="#F0F0F0"/>
<path d="M0.79248 27.7393C2.12325 32.4623 5.0562 36.5558 9.00016 39.4544V27.7393H0.79248Z" fill="#D80027"/>
<path d="M21 43.9164C21.6593 43.9707 22.326 44.0001 23 44.0001C33.6266 44.0001 42.5684 37.1061 45.2077 27.7393H21V43.9164Z" fill="#D80027"/>
<path d="M45.2077 16.2608C42.5684 6.89399 33.6266 0 23 0C22.326 0 21.6593 0.0293906 21 0.0837031V16.2608H45.2077Z" fill="#D80027"/>
<path d="M9.00016 4.5459C5.0562 7.44457 2.12325 11.538 0.79248 16.2611H9.00016V4.5459Z" fill="#D80027"/>
<path d="M45.8053 19.1305H18.0001H18V0.522949C15.8745 0.973777 13.8594 1.7045 12 2.675V19.1303V19.1304H0.194691C0.0666641 20.0698 0 21.0275 0 22C0 22.9726 0.0666641 23.9303 0.194691 24.8696H11.9999H12V41.325C13.8594 42.2954 15.8745 43.0263 18 43.477V24.8698V24.8696H45.8053C45.9332 23.9303 46 22.9726 46 22C46 21.0275 45.9332 20.0698 45.8053 19.1305V19.1305Z" fill="#0052B4"/>
</g>
<defs>
<clipPath id="clip0_105_2152">
<rect width="46" height="44" fill="white"/>
</clipPath>
</defs>
</svg>
