<svg width="47" height="44" viewBox="0 0 47 44" fill="none" xmlns="http://www.w3.org/2000/svg">
<g clip-path="url(#clip0_105_2160)">
<path d="M23.5 44C36.4787 44 47 34.1503 47 22C47 9.84974 36.4787 0 23.5 0C10.5213 0 0 9.84974 0 22C0 34.1503 10.5213 44 23.5 44Z" fill="#F0F0F0"/>
<path d="M0 21.9998C0 30.3388 4.95611 37.5936 12.2608 41.3248V2.6748C4.95611 6.40604 0 13.6609 0 21.9998Z" fill="#D80027"/>
<path d="M45.5384 29.6519C46.483 27.2686 47 24.6908 47 21.9998C47 19.3087 46.483 16.7309 45.5384 14.3477H1.46177C0.517092 16.7309 0 19.3087 0 21.9998C0 24.6908 0.517092 27.2686 1.46177 29.6519L23.5 31.565L45.5384 29.6519Z" fill="#D80027"/>
<path d="M23.5001 44.0002C33.6044 44.0002 42.2181 38.03 45.5385 29.6523H1.46191C4.78221 38.03 13.3961 44.0002 23.5001 44.0002V44.0002Z" fill="#6DA544"/>
<path d="M0 21.9999C0 32.1645 7.36404 40.7176 17.3695 43.2421V0.757812C7.36404 3.28231 0 11.8353 0 21.9999Z" fill="#D80027"/>
<path d="M14.3771 9.68141L12.2097 7.65234L10.7648 9.00517L9.31994 7.65234L7.15253 9.68141L8.5975 11.0342L7.15234 12.387L9.31976 14.4161L10.7647 13.0632L12.2097 14.4161L14.3771 12.387L12.9322 11.0342L14.3771 9.68141Z" fill="#F0F0F0"/>
</g>
<defs>
<clipPath id="clip0_105_2160">
<rect width="47" height="44" fill="white"/>
</clipPath>
</defs>
</svg>
