<svg width="46" height="44" viewBox="0 0 46 44" fill="none" xmlns="http://www.w3.org/2000/svg">
<g clip-path="url(#clip0_105_2168)">
<path d="M45.2077 27.739C45.7233 25.909 46 23.9855 46 21.9998C46 20.014 45.7233 18.0906 45.2077 16.2606L21 0.0834961C16.5059 0.453887 12.3818 2.06006 9.00001 4.54546L0.792332 16.2606C0.276719 18.0906 0 20.014 0 21.9998C0 23.9739 0.273395 25.8868 0.783258 27.7072L8.99992 39.4541C12.3817 41.9395 16.5058 43.5458 20.9999 43.9161L45.2077 27.739Z" fill="#FFDA44"/>
<path d="M0.79248 27.7393C2.12325 32.4623 5.05629 36.5558 9.00016 39.4544V27.7393H0.79248Z" fill="#D80027"/>
<path d="M21 43.9164C21.6593 43.9707 22.326 44.0001 23 44.0001C33.6266 44.0001 42.5684 37.1061 45.2077 27.7393H21V43.9164Z" fill="#D80027"/>
<path d="M45.2077 16.2608C42.5684 6.89399 33.6266 0 23 0C22.326 0 21.6593 0.0293906 21 0.0837031V16.2608H45.2077Z" fill="#D80027"/>
<path d="M9.00016 4.5459C5.05629 7.44457 2.12325 11.538 0.79248 16.2611H9.00016V4.5459Z" fill="#D80027"/>
<path d="M45.8053 19.1305H18.0001H18V0.522949C15.8745 0.973777 13.8594 1.7045 12 2.675V19.1304H0.194691C0.0668438 20.0698 0 21.0275 0 22C0 22.9726 0.0668438 23.9303 0.194691 24.8696H11.9999H12V41.325C13.8594 42.2954 15.8745 43.0263 18 43.477V24.8698V24.8696H45.8053C45.9332 23.9303 46 22.9726 46 22C46 21.0275 45.9332 20.0698 45.8053 19.1305V19.1305Z" fill="#0052B4"/>
</g>
<defs>
<clipPath id="clip0_105_2168">
<rect width="46" height="44" fill="white"/>
</clipPath>
</defs>
</svg>
