<svg width="47" height="44" viewBox="0 0 47 44" fill="none" xmlns="http://www.w3.org/2000/svg">
<g clip-path="url(#clip0_105_2176)">
<path d="M45.5383 29.6519C46.483 27.2686 47 24.6908 47 21.9998C47 19.3087 46.483 16.7309 45.5383 14.3476L23.5 12.4346L1.46168 14.3476C0.517092 16.7309 0 19.3087 0 21.9998C0 24.6908 0.517092 27.2686 1.46168 29.6519L23.5 31.5649L45.5383 29.6519Z" fill="#D80027"/>
<path d="M23.4998 44.0002C33.6039 44.0002 42.2178 38.03 45.5381 29.6523H1.46143C4.7819 38.03 13.3956 44.0002 23.4998 44.0002Z" fill="#FFDA44"/>
<path d="M23.4998 0C13.3956 0 4.7819 5.97025 1.46143 14.3479H45.5382C42.2178 5.97025 33.6039 0 23.4998 0Z" fill="#F0F0F0"/>
</g>
<defs>
<clipPath id="clip0_105_2176">
<rect width="47" height="44" fill="white"/>
</clipPath>
</defs>
</svg>
