<svg width="47" height="44" viewBox="0 0 47 44" fill="none" xmlns="http://www.w3.org/2000/svg">
<g clip-path="url(#clip0_105_2180)">
<path d="M23.5 44C36.4787 44 47 34.1503 47 22C47 9.84974 36.4787 0 23.5 0C10.5213 0 0 9.84974 0 22C0 34.1503 10.5213 44 23.5 44Z" fill="#F0F0F0"/>
<path d="M0 21.9998C0 30.3388 4.95602 37.5935 12.2608 41.3248V2.6748C4.95602 6.40612 0 13.6609 0 21.9998Z" fill="#F0F0F0"/>
<path d="M23.4999 0C19.4287 0 15.5995 0.969633 12.2607 2.67498V41.3249C15.5995 43.0304 19.4287 44 23.4999 44C36.4785 44 46.9999 34.1502 46.9999 22C46.9999 9.84981 36.4785 0 23.4999 0Z" fill="#496E2D"/>
<path d="M33.5476 25.6388C30.5745 27.6499 26.4229 27.0239 24.2749 24.2407C22.1267 21.4574 22.7954 17.5708 25.7684 15.5599C26.6954 14.9329 27.7369 14.5623 28.7965 14.4334C26.758 14.148 24.6031 14.5781 22.8005 15.7974C19.1414 18.2726 18.3183 23.056 20.9621 26.4816C23.606 29.907 28.7156 30.6777 32.3748 28.2023C34.1776 26.983 35.2902 25.203 35.6407 23.3012C35.1775 24.2024 34.4746 25.0117 33.5476 25.6388V25.6388Z" fill="#F0F0F0"/>
<path d="M33.4201 14.3481L35.0948 16.0378L37.3288 15.0691L36.1297 17.0821L37.8043 18.7719L35.3886 18.3263L34.1895 20.3394L33.8957 18.0509L31.48 17.6053L33.714 16.6367L33.4201 14.3481Z" fill="#F0F0F0"/>
</g>
<defs>
<clipPath id="clip0_105_2180">
<rect width="47" height="44" fill="white"/>
</clipPath>
</defs>
</svg>
