<svg width="47" height="44" viewBox="0 0 47 44" fill="none" xmlns="http://www.w3.org/2000/svg">
<g clip-path="url(#clip0_105_2196)">
<path d="M23.5 44C36.4787 44 47 34.1503 47 22C47 9.84974 36.4787 0 23.5 0C10.5213 0 0 9.84974 0 22C0 34.1503 10.5213 44 23.5 44Z" fill="#F0F0F0"/>
<path d="M0 22C0 34.1502 10.5214 44 23.5 44C23.5 35.6336 23.5 22 23.5 22C23.5 22 8.17387 22 0 22Z" fill="#0052B4"/>
<path d="M23.5 0C36.4786 0 47 9.84981 47 22C38.0631 22 23.5 22 23.5 22C23.5 22 23.5 7.65213 23.5 0Z" fill="#D80027"/>
<path d="M13.9889 7.65234L15.5107 12.0367H20.4349L16.4511 14.7463L17.9727 19.1307L13.9889 16.421L10.0051 19.1307L11.5268 14.7463L7.54297 12.0367H12.4672L13.9889 7.65234Z" fill="#0052B4"/>
<path d="M33.0114 24.8696L34.5331 29.254H39.4574L35.4735 31.9636L36.9952 36.348L33.0114 33.6383L29.0276 36.348L30.5492 31.9636L26.5654 29.254H31.4897L33.0114 24.8696Z" fill="#D80027"/>
</g>
<defs>
<clipPath id="clip0_105_2196">
<rect width="47" height="44" fill="white"/>
</clipPath>
</defs>
</svg>
