<svg width="46" height="44" viewBox="0 0 46 44" fill="none" xmlns="http://www.w3.org/2000/svg">
<g clip-path="url(#clip0_105_2202)">
<path d="M39.2636 37.5566C30.2815 46.1481 15.7187 46.1481 6.73652 37.5566C-2.24552 28.965 -2.24552 15.0353 6.73661 6.44375C15.7186 -2.14777 28.8672 -0.795025 37.8492 7.79658C46.8312 16.3881 48.2455 28.965 39.2636 37.5566V37.5566Z" fill="black"/>
<path d="M6.73682 6.44356C15.7189 -2.14795 30.2815 -2.14778 39.2638 6.44365C48.2458 15.0352 48.2458 28.9648 39.2638 37.5564" fill="#A2001D"/>
<path d="M17.5772 29.6523L17.9495 30.7485H19.1544L18.1796 31.4258L18.552 32.522L17.5772 31.8445L16.6024 32.522L16.9747 31.4258L16 30.7485H17.2048L17.5772 29.6523Z" fill="#F0F0F0"/>
<path d="M14.5002 19.1304L15.121 20.9572H17.129L15.5043 22.0862L16.1249 23.9131L14.5002 22.7839L12.8757 23.9131L13.4963 22.0862L11.8716 20.9572H13.8798L14.5002 19.1304Z" fill="#F0F0F0"/>
<path d="M14.5002 32.522L15.1208 34.3488H17.129L15.5041 35.4777L16.1249 37.3046L14.5002 36.1754L12.8757 37.3046L13.4961 35.4777L11.8716 34.3488H13.8795L14.5002 32.522Z" fill="#F0F0F0"/>
<path d="M20.3712 23.9131L20.992 25.7399H23L21.3753 26.8688L21.9959 28.6957L20.3712 27.5665L18.7467 28.6957L19.3673 26.8688L17.7427 25.7399H19.7508L20.3712 23.9131Z" fill="#F0F0F0"/>
<path d="M8.62865 23.9131L9.24938 25.7399H11.2573L9.63274 26.8688L10.2532 28.6957L8.62865 27.5665L7.004 28.6957L7.62473 26.8688L6 25.7399H8.0081L8.62865 23.9131Z" fill="#F0F0F0"/>
<path d="M38.5025 16.2904C37.4746 15.3072 36.139 14.7263 34.7037 14.6265L39.0001 11.4303C37.289 9.79359 34.9956 9.05444 32.7578 9.21076C32.4899 8.28986 31.9791 7.42 31.222 6.6958L29.525 9.94235C29.4136 9.7483 29.2727 9.56568 29.1007 9.40129C28.1243 8.4674 26.5414 8.4674 25.5652 9.40129C24.5889 10.3352 24.5888 11.8492 25.5652 12.7831C25.7371 12.9475 25.9281 13.0823 26.1309 13.1889L22.7368 14.8122C23.4941 15.5366 24.4041 16.0255 25.3674 16.2816C25.2035 18.4221 25.9754 20.6154 27.6866 22.2522L31.4402 17.6358C31.7226 17.3698 32.0956 17.223 32.4923 17.223C32.893 17.223 33.2696 17.3722 33.5529 17.6433C33.8363 17.9143 33.9923 18.2746 33.9923 18.6578C33.9923 19.0411 33.8363 19.4013 33.5529 19.6724L34.9672 21.0252C35.6282 20.3929 35.9924 19.5521 35.9924 18.6579C35.9924 17.9262 35.7483 17.2306 35.2979 16.6555C35.9543 16.8232 36.5746 17.1516 37.0885 17.6433C38.6482 19.1351 38.6482 21.5625 37.0885 23.0542L38.5029 24.407C39.6361 23.323 40.2602 21.8818 40.2602 20.3488C40.2599 18.8156 39.6357 17.3744 38.5025 16.2904V16.2904Z" fill="#FFDA44"/>
</g>
<defs>
<clipPath id="clip0_105_2202">
<rect width="46" height="44" fill="white"/>
</clipPath>
</defs>
</svg>
