<svg width="47" height="44" viewBox="0 0 47 44" fill="none" xmlns="http://www.w3.org/2000/svg">
<g clip-path="url(#clip0_105_2218)">
<path d="M23.5 44C36.4787 44 47 34.1503 47 22C47 9.84974 36.4787 0 23.5 0C10.5213 0 0 9.84974 0 22C0 34.1503 10.5213 44 23.5 44Z" fill="#F0F0F0"/>
<path d="M47 22.0002C47 12.541 40.6226 4.47701 31.6738 1.36865V42.632C40.6226 39.5234 47 31.4595 47 22.0002V22.0002Z" fill="#D80027"/>
<path d="M0 22.0002C0 31.4595 6.37731 39.5234 15.3261 42.6319V1.36865C6.37731 4.47701 0 12.541 0 22.0002V22.0002Z" fill="#D80027"/>
</g>
<defs>
<clipPath id="clip0_105_2218">
<rect width="47" height="44" fill="white"/>
</clipPath>
</defs>
</svg>
