<svg width="48" height="44" viewBox="0 0 48 44" fill="none" xmlns="http://www.w3.org/2000/svg">
<g clip-path="url(#clip0_105_2223)">
<path d="M24 44C37.2548 44 48 34.1503 48 22C48 9.84974 37.2548 0 24 0C10.7452 0 0 9.84974 0 22C0 34.1503 10.7452 44 24 44Z" fill="#F0F0F0"/>
<path d="M23.9999 0V22L7.0293 37.5564C11.3725 41.5375 17.3725 44 23.9999 44C37.2547 44 47.9999 34.1502 47.9999 22C47.9999 9.84981 23.9999 0 23.9999 0Z" fill="#D80027"/>
<path d="M23.9999 0C17.3725 0 11.3725 2.46245 7.0293 6.44359C12.9177 11.8413 15.0081 13.7576 23.9999 22H47.9999C47.9999 9.84981 37.2547 0 23.9999 0Z" fill="#0052B4"/>
<path d="M16.4335 22.0003L13.5025 20.7365L15.0633 18.1344L11.8805 18.6925L11.4772 15.7451L9.2602 17.9128L7.04329 15.7451L6.63988 18.6925L3.45716 18.1343L5.01801 20.7365L2.08691 22.0003L5.01801 23.264L3.45716 25.8661L6.64016 25.3081L7.0432 28.2554L9.2602 26.0877L11.4772 28.2554L11.8805 25.3081L15.0631 25.8662L13.5024 23.2641L16.4335 22.0003Z" fill="#FFDA44"/>
<path d="M6.40066 8.60889L7.37604 9.85868L8.97401 9.3947L7.97857 10.6312L8.95395 11.881L7.36338 11.3953L6.36804 12.6317L6.38051 11.0951L4.79004 10.6094L6.38829 10.1454L6.40066 8.60889Z" fill="#FFDA44"/>
<path d="M6.40066 31.3687L7.37604 32.6184L8.97401 32.1544L7.97857 33.3909L8.95395 34.6407L7.36338 34.1551L6.36804 35.3915L6.38051 33.8549L4.79004 33.3692L6.38829 32.9052L6.40066 31.3687Z" fill="#FFDA44"/>
<path d="M20.3126 19.9888L19.3373 21.2386L17.7393 20.7744L18.7347 22.011L17.7593 23.2608L19.3499 22.7751L20.3453 24.0115L20.3328 22.475L21.9232 21.9893L20.3251 21.5253L20.3126 19.9888Z" fill="#FFDA44"/>
</g>
<defs>
<clipPath id="clip0_105_2223">
<rect width="48" height="44" fill="white"/>
</clipPath>
</defs>
</svg>
