<svg width="47" height="44" viewBox="0 0 47 44" fill="none" xmlns="http://www.w3.org/2000/svg">
<g clip-path="url(#clip0_105_2232)">
<path d="M47 22C47 34.1502 36.4786 44 23.5 44C10.5214 44 0 34.1502 0 22C0 22.0052 23.5 0.00240625 23.5 0C36.4786 0 47 9.84981 47 22Z" fill="#0052B4"/>
<path d="M23.437 21.9998H23.4999C23.4999 21.98 23.4999 21.9608 23.4999 21.9409C23.479 21.9606 23.458 21.9802 23.437 21.9998Z" fill="#F0F0F0"/>
<path d="M23.5 11.4782C23.5 7.60719 23.5 5.07074 23.5 0H23.4961C10.5191 0.0020625 0 9.85093 0 22H12.2609V15.5366L19.165 22H23.4372C23.4581 21.9804 23.4791 21.9608 23.5001 21.9411C23.5001 20.459 23.5001 19.1365 23.5001 17.9419L16.5958 11.4782H23.5Z" fill="#F0F0F0"/>
<path d="M11.8893 2.86963C8.21386 4.82892 5.15821 7.68943 3.06543 11.1303V22.0001H9.1959V8.60896V8.60879H23.5002C23.5002 6.79869 23.5002 5.07427 23.5002 2.86963H11.8893Z" fill="#D80027"/>
<path d="M23.5004 19.2948L15.151 11.4785H12.2612V11.4787L23.5002 22.0002H23.5004C23.5004 22.0002 23.5004 20.1347 23.5004 19.2948V19.2948Z" fill="#D80027"/>
<path d="M36.7825 13.3915L33.7173 14.3481L30.6521 13.3915L29.6304 11.0002L30.6521 8.60889H36.7825L35.7608 11.0002L36.7825 13.3915Z" fill="#ACABB1"/>
<path d="M26.5654 13.3911V23.9128C26.5654 29.0381 33.7176 30.6085 33.7176 30.6085C33.7176 30.6085 40.8698 29.0381 40.8698 23.9128V13.3911H26.5654Z" fill="#338AF3"/>
<path d="M27.21 26.4055C28.9681 29.5653 33.7174 30.6085 33.7174 30.6085C33.7174 30.6085 38.4668 29.5653 40.2249 26.4055L33.7174 16.2607L27.21 26.4055Z" fill="#6DA544"/>
<path d="M40.8698 23.8065L33.7176 13.3911L26.5654 23.8066V23.9128C26.5654 24.8614 26.8109 25.6879 27.2101 26.4055L33.7176 16.9287L40.2251 26.4054C40.6243 25.6877 40.8698 24.8613 40.8698 23.9127V23.8065Z" fill="#FFDA44"/>
</g>
<defs>
<clipPath id="clip0_105_2232">
<rect width="47" height="44" fill="white"/>
</clipPath>
</defs>
</svg>
