<svg width="47" height="44" viewBox="0 0 47 44" fill="none" xmlns="http://www.w3.org/2000/svg">
<g clip-path="url(#clip0_105_2248)">
<path d="M0 21.9998C0 31.4589 6.37731 39.5229 15.3259 42.6313L17.3695 21.9997L15.3259 1.36816C6.37731 4.4767 0 12.5406 0 21.9998Z" fill="#6DA544"/>
<path d="M47.0002 22C47.0002 9.84981 36.4788 0 23.5002 0C20.6257 0 17.8721 0.484086 15.3262 1.36838V42.6316C17.8721 43.516 20.6257 44 23.5002 44C36.4788 44 47.0002 34.1502 47.0002 22Z" fill="#D80027"/>
<path d="M15.3262 29.6519C19.8405 29.6519 23.5001 26.2259 23.5001 21.9998C23.5001 17.7736 19.8405 14.3477 15.3262 14.3477C10.8119 14.3477 7.15234 17.7736 7.15234 21.9998C7.15234 26.2259 10.8119 29.6519 15.3262 29.6519Z" fill="#FFDA44"/>
<path d="M10.7285 18.1738V22.9564C10.7285 25.3336 12.787 27.2608 15.3263 27.2608C17.8657 27.2608 19.9242 25.3337 19.9242 22.9564V18.1738H10.7285Z" fill="#D80027"/>
<path d="M15.3261 24.3912C14.481 24.3912 13.7935 23.7476 13.7935 22.9564V21.0435H16.8586V22.9565C16.8586 23.7476 16.1711 24.3912 15.3261 24.3912Z" fill="#F0F0F0"/>
</g>
<defs>
<clipPath id="clip0_105_2248">
<rect width="47" height="44" fill="white"/>
</clipPath>
</defs>
</svg>
