<svg width="47" height="44" viewBox="0 0 47 44" fill="none" xmlns="http://www.w3.org/2000/svg">
<g clip-path="url(#clip0_105_2254)">
<path d="M23.5 44C36.4787 44 47 34.1503 47 22C47 9.84974 36.4787 0 23.5 0C10.5213 0 0 9.84974 0 22C0 34.1503 10.5213 44 23.5 44Z" fill="#F0F0F0"/>
<path d="M23.5002 0C15.8121 0 8.9865 3.45666 4.69922 8.8H42.3012C38.014 3.45666 31.1884 0 23.5002 0Z" fill="#D80027"/>
<path d="M23.5002 44.0002C31.1884 44.0002 38.014 40.5435 42.3012 35.2002H4.69922C8.9865 40.5435 15.8121 44.0002 23.5002 44.0002Z" fill="#D80027"/>
<path d="M0 22.0001C0 23.507 0.162297 24.9784 0.470643 26.4001H46.5295C46.8379 24.9784 47 23.507 47 22.0001C47 20.4932 46.8377 19.0218 46.5294 17.6001H0.470643C0.162297 19.0218 0 20.4932 0 22.0001H0Z" fill="#D80027"/>
<path d="M6.88298 6.44336C-2.29433 15.0349 -2.29433 28.9646 6.88298 37.5562C10.6754 34.0058 14.3227 30.5913 23.5 21.9998L6.88298 6.44336Z" fill="#0052B4"/>
<path d="M9.51131 16.2607L11.0328 20.6449H15.9574L11.9736 23.3547L13.495 27.7391L9.51131 25.0294L5.52742 27.7391L7.04923 23.3547L3.06543 20.6449H7.9896L9.51131 16.2607Z" fill="#F0F0F0"/>
</g>
<defs>
<clipPath id="clip0_105_2254">
<rect width="47" height="44" fill="white"/>
</clipPath>
</defs>
</svg>
