<svg width="47" height="44" viewBox="0 0 47 44" fill="none" xmlns="http://www.w3.org/2000/svg">
<g clip-path="url(#clip0_105_2262)">
<path d="M23.5 44C36.4787 44 47 34.1503 47 22C47 9.84974 36.4787 0 23.5 0C10.5213 0 0 9.84974 0 22C0 34.1503 10.5213 44 23.5 44Z" fill="#F0F0F0"/>
<path d="M47.0001 22C47.0001 9.84981 36.4788 0 23.5001 0C18.903 0 14.6148 1.23707 10.9926 3.37313L16.1436 5.42197L9.1958 8.18555L16.1436 10.949L9.1958 13.7124L16.1436 16.4758L9.1958 19.2387L16.1436 22.0015L9.1958 24.765L16.1436 27.5282L9.1958 30.2912L16.1436 33.0544L9.1958 35.8178L16.1436 38.5808L10.9949 40.6285C14.6166 42.7635 18.9039 44 23.5001 44C36.4788 44 47.0001 34.1502 47.0001 22Z" fill="#751A46"/>
</g>
<defs>
<clipPath id="clip0_105_2262">
<rect width="47" height="44" fill="white"/>
</clipPath>
</defs>
</svg>
