<svg width="47" height="44" viewBox="0 0 47 44" fill="none" xmlns="http://www.w3.org/2000/svg">
<g clip-path="url(#clip0_105_2265)">
<path d="M23.5 44C36.4787 44 47 34.1503 47 22C47 9.84974 36.4787 0 23.5 0C10.5213 0 0 9.84974 0 22C0 34.1503 10.5213 44 23.5 44Z" fill="#FCFCFC"/>
<path d="M30.6523 18.1738V20.0869H33.4569C32.2865 21.6097 30.7275 22.8529 28.9162 23.69C28.4515 23.238 27.7991 22.9564 27.0762 22.9564C25.8576 22.9564 24.839 23.7556 24.5839 24.8245C24.2268 24.8539 23.8654 24.8695 23.5001 24.8695C23.1349 24.8695 22.7735 24.8538 22.4164 24.8245C22.1613 23.7556 21.1427 22.9564 19.9241 22.9564C19.2012 22.9564 18.549 23.238 18.0841 23.69C16.2728 22.853 14.7139 21.6096 13.5435 20.0869H16.348V18.1738H9.1958C9.1958 25.5695 15.6002 31.5651 23.5001 31.5651C31.4003 31.5651 37.8045 25.5695 37.8045 18.1738H30.6523Z" fill="#D80027"/>
</g>
<defs>
<clipPath id="clip0_105_2265">
<rect width="47" height="44" fill="white"/>
</clipPath>
</defs>
</svg>
