<svg width="47" height="45" viewBox="0 0 47 45" fill="none" xmlns="http://www.w3.org/2000/svg">
<g clip-path="url(#clip0_105_2281)">
<path d="M12.7389 42.5077L30.0027 28.7258L44.3971 12.1967C42.1591 8.04403 38.6104 4.64452 34.275 2.49902L16.9976 16.2742L2.61035 32.8162C4.85102 36.9674 8.40162 40.365 12.7389 42.5077V42.5077Z" fill="#FFDA44"/>
<path d="M40.1177 38.4105C47.5317 31.3119 48.955 20.651 44.3904 12.1831L12.7246 42.5014C21.5689 46.8717 32.7036 45.509 40.1177 38.4105Z" fill="#D80027"/>
<path d="M6.88229 6.58942C-0.531759 13.688 -1.95498 24.3489 2.60943 32.8168L34.2753 2.49847C25.4311 -1.87188 14.2963 -0.509049 6.88229 6.58942V6.58942Z" fill="#6DA544"/>
</g>
<defs>
<clipPath id="clip0_105_2281">
<rect width="47" height="45" fill="white"/>
</clipPath>
</defs>
</svg>
