<svg width="46" height="45" viewBox="0 0 46 45" fill="none" xmlns="http://www.w3.org/2000/svg">
<g clip-path="url(#clip0_105_2268)">
<path d="M23 45C35.7025 45 46 34.9264 46 22.5C46 10.0736 35.7025 0 23 0C10.2975 0 0 10.0736 0 22.5C0 34.9264 10.2975 45 23 45Z" fill="#FFDA44"/>
<path d="M26.4978 44.7413C30.2385 44.1831 33.6819 42.742 36.6013 40.6441L23 22.5L26.4978 44.7413Z" fill="#D80027"/>
<path d="M19.5025 0.258789C15.7618 0.81707 12.3185 2.25813 9.39893 4.35599L23.0004 22.5001L19.5025 0.258789Z" fill="#D80027"/>
<path d="M9.39893 40.6441C12.3183 42.7419 15.7617 44.183 19.5023 44.7414L23.0004 22.5L9.39893 40.6441Z" fill="#D80027"/>
<path d="M4.45289 9.19434C2.30832 12.0504 0.835426 15.4188 0.264648 19.0783L23.0002 22.5001L4.45289 9.19434Z" fill="#D80027"/>
<path d="M0.264648 25.9218C0.835336 29.5812 2.30841 32.9497 4.45298 35.8056L23.0002 22.5L0.264648 25.9218Z" fill="#D80027"/>
<path d="M45.7356 19.0782C45.1648 15.4188 43.6918 12.0503 41.5473 9.19434L23 22.5L45.7356 19.0782Z" fill="#D80027"/>
<path d="M36.6013 4.3559C33.6818 2.25804 30.2385 0.81707 26.4978 0.258789L23 22.5001L36.6013 4.3559Z" fill="#D80027"/>
<path d="M41.5474 35.8057C43.6919 32.9497 45.1649 29.5811 45.7358 25.9218L23 22.5L41.5474 35.8057Z" fill="#D80027"/>
<path d="M23.0004 30.3264C27.4187 30.3264 31.0004 26.8226 31.0004 22.5004C31.0004 18.1782 27.4187 14.6743 23.0004 14.6743C18.5822 14.6743 15.0005 18.1782 15.0005 22.5004C15.0005 26.8226 18.5822 30.3264 23.0004 30.3264Z" fill="#D80027"/>
<path d="M23 28.3696C26.3138 28.3696 29.0001 25.7417 29.0001 22.5C29.0001 19.2583 26.3138 16.6304 23 16.6304C19.6863 16.6304 17 19.2583 17 22.5C17 25.7417 19.6863 28.3696 23 28.3696Z" fill="#FFDA44"/>
</g>
<defs>
<clipPath id="clip0_105_2268">
<rect width="46" height="45" fill="white"/>
</clipPath>
</defs>
</svg>
