<svg width="46" height="45" viewBox="0 0 46 45" fill="none" xmlns="http://www.w3.org/2000/svg">
<g clip-path="url(#clip0_105_2285)">
<path d="M30.9999 1.39939C28.5082 0.495088 25.8133 1.1698e-08 23 1.1698e-08C20.1866 -8.78789e-05 17.4916 0.495088 15 1.39939L13 22.4999L15 43.6004C17.4916 44.505 20.1865 45 23 45C25.8132 45 28.5083 44.505 30.9999 43.6004L32.9998 22.5L30.9999 1.39939Z" fill="#FFDA44"/>
<path d="M46 22.4999C46 12.8258 39.7584 4.57842 31 1.39941V43.6006C39.7584 40.4213 46 32.1742 46 22.4999Z" fill="#D80027"/>
<path d="M0 22.4998C0 32.1741 6.24162 40.4212 14.9999 43.6004L15 1.39941C6.24162 4.57842 0 12.8255 0 22.4998H0Z" fill="#0052B4"/>
</g>
<defs>
<clipPath id="clip0_105_2285">
<rect width="46" height="45" fill="white"/>
</clipPath>
</defs>
</svg>
