<svg width="47" height="45" viewBox="0 0 47 45" fill="none" xmlns="http://www.w3.org/2000/svg">
<g clip-path="url(#clip0_105_2289)">
<path d="M23.5 45C36.4787 45 47 34.9264 47 22.5C47 10.0736 36.4787 0 23.5 0C10.5213 0 0 10.0736 0 22.5C0 34.9264 10.5213 45 23.5 45Z" fill="#F0F0F0"/>
<path d="M45.5383 30.3259C46.483 27.8884 47 25.2521 47 22.4999C47 19.7477 46.483 17.1113 45.5383 14.6738H1.46168C0.517092 17.1113 0 19.7477 0 22.4999C0 25.2521 0.517092 27.8884 1.46168 30.3259L23.5 32.2824L45.5383 30.3259Z" fill="#0052B4"/>
<path d="M23.5002 45.0001C33.6044 45.0001 42.2182 38.8942 45.5385 30.3262H1.46191C4.7823 38.8942 13.3961 45.0001 23.5002 45.0001Z" fill="#D80027"/>
</g>
<defs>
<clipPath id="clip0_105_2289">
<rect width="47" height="45" fill="white"/>
</clipPath>
</defs>
</svg>
