<svg width="46" height="45" viewBox="0 0 46 45" fill="none" xmlns="http://www.w3.org/2000/svg">
<g clip-path="url(#clip0_105_2293)">
<path d="M0 22.5C0 26.3979 1.01371 30.0642 2.79657 33.2609L23 35.2174L43.2034 33.2609C44.9863 30.0642 46 26.3979 46 22.5L23 20.5435L0 22.5Z" fill="#FFDA44"/>
<path d="M43.2034 11.7391C39.3025 4.74513 31.718 0 23 0C14.282 0 6.69749 4.74513 2.79657 11.7391C1.01371 14.9358 0 18.6021 0 22.5H46C46 18.6021 44.9863 14.9358 43.2034 11.7391Z" fill="#338AF3"/>
<path d="M22.9998 44.9999C31.7178 44.9999 39.3023 40.2547 43.2033 33.2607H2.79639C6.69731 40.2547 14.2818 44.9999 22.9998 44.9999Z" fill="#496E2D"/>
<path d="M26 13.1677L28.8091 14.4603L27.3132 17.1216L30.3634 16.5509L30.75 19.5651L32.8744 17.3481L34.999 19.5651L35.3854 16.5509L38.4356 17.1215L36.9399 14.4602L39.7488 13.1677L36.9398 11.8753L38.4356 9.21395L35.3855 9.78472L34.9989 6.77051L32.8744 8.98746L30.7499 6.77051L30.3634 9.78472L27.3132 9.21395L28.809 11.8754L26 13.1677Z" fill="#FFDA44"/>
</g>
<defs>
<clipPath id="clip0_105_2293">
<rect width="46" height="45" fill="white"/>
</clipPath>
</defs>
</svg>
