<svg width="47" height="45" viewBox="0 0 47 45" fill="none" xmlns="http://www.w3.org/2000/svg">
<g clip-path="url(#clip0_105_2298)">
<path d="M23.5 45C36.4787 45 47 34.9264 47 22.5C47 10.0736 36.4787 0 23.5 0C10.5213 0 0 10.0736 0 22.5C0 34.9264 10.5213 45 23.5 45Z" fill="#F0F0F0"/>
<path d="M23.5 8.33516e-06C23.4781 -0.015812 -0.00624094 22.4941 1.24417e-06 22.5C1.24417e-06 10.0737 10.5214 8.33516e-06 23.5 8.33516e-06Z" fill="#D80027"/>
<path d="M23.5 8.33519e-06C23.5219 -0.015812 47.0062 22.494 47 22.5C47 10.0737 36.4786 8.33519e-06 23.5 8.33519e-06Z" fill="#D80027"/>
<path d="M23.5 45C23.4781 45.0158 -0.00624094 22.506 1.24417e-06 22.5C1.24417e-06 34.9263 10.5214 45 23.5 45Z" fill="#0052B4"/>
<path d="M23.5 45C23.5219 45.0158 47.0062 22.506 47 22.5C47 34.9263 36.4786 45 23.5 45Z" fill="#0052B4"/>
<path d="M23.5 11.7393L26.0362 19.2125H34.2433L27.6035 23.8312L30.1397 31.3045L23.5 26.6858L16.8603 31.3045L19.3965 23.8312L12.7568 19.2125H20.9638L23.5 11.7393Z" fill="#FFDA44"/>
</g>
<defs>
<clipPath id="clip0_105_2298">
<rect width="47" height="45" fill="white"/>
</clipPath>
</defs>
</svg>
