<svg width="47" height="45" viewBox="0 0 47 45" fill="none" xmlns="http://www.w3.org/2000/svg">
<g clip-path="url(#clip0_105_2307)">
<path d="M2.33182 12.7173C0.837922 15.6753 0 18.9938 0 22.4999C0 26.0059 0.837922 29.3244 2.33182 32.2824L23.5 34.239L44.6682 32.2824C46.1621 29.3244 47 26.0059 47 22.4999C47 18.9938 46.1621 15.6753 44.6682 12.7173L23.5 10.7607L2.33182 12.7173Z" fill="#F0F0F0"/>
<path d="M2.33252 32.2827C6.13346 39.8089 14.1831 45.0001 23.4999 45.0001C32.8166 45.0001 40.8663 39.8089 44.6672 32.2827H2.33252Z" fill="#496E2D"/>
<path d="M2.33252 12.7174H44.6672C40.8663 5.19126 32.8167 0 23.4999 0C14.183 0 6.13346 5.19126 2.33252 12.7174Z" fill="black"/>
<path d="M6.88298 6.58984C-2.29433 15.3766 -2.29433 29.6229 6.88298 38.4098C10.6754 34.7787 14.3227 31.2866 23.5 22.4998L6.88298 6.58984Z" fill="#D80027"/>
<path d="M29.6307 22.4997C29.6307 19.2215 32.037 16.4829 35.2502 15.8111C34.7564 15.7078 34.244 15.6519 33.7176 15.6519C29.7675 15.6519 26.5654 18.7177 26.5654 22.4997C26.5654 26.2817 29.7675 29.3475 33.7176 29.3475C34.2439 29.3475 34.7563 29.2915 35.2502 29.1882C32.037 28.5164 29.6307 25.7778 29.6307 22.4997Z" fill="#D80027"/>
<path d="M35.5506 18.0977L36.5652 21.0872H39.848L37.1921 22.9345L38.2067 25.9238L35.5506 24.0763L32.8948 25.9238L33.9095 22.9345L31.2534 21.0872H34.5362L35.5506 18.0977Z" fill="#D80027"/>
</g>
<defs>
<clipPath id="clip0_105_2307">
<rect width="47" height="45" fill="white"/>
</clipPath>
</defs>
</svg>
