<svg width="47" height="45" viewBox="0 0 47 45" fill="none" xmlns="http://www.w3.org/2000/svg">
<g clip-path="url(#clip0_105_2315)">
<path d="M47 22.5C47 34.9263 36.4786 45 23.5 45C10.5214 45 0 34.9263 0 22.5C8.0717 14.7718 14.9174 8.21742 23.5 0C36.4786 0 47 10.0737 47 22.5Z" fill="#D80027"/>
<path d="M23.5 22.5C23.5 10.0737 23.5 8.60871 23.5 0C10.5214 0 0 10.0737 0 22.5H23.5Z" fill="#0052B4"/>
<path d="M18.8234 14.6738L19.2039 15.7949H20.4349L19.4389 16.4875L19.8194 17.6086L18.8234 16.9157L17.8274 17.6086L18.2079 16.4875L17.2119 15.7949H18.4429L18.8234 14.6738Z" fill="#F0F0F0"/>
<path d="M12.6404 5.86963L13.2744 7.7381H15.3263L13.6662 8.89254L14.3004 10.7609L12.6404 9.60612L10.9804 10.7609L11.6146 8.89254L9.95459 7.7381H12.0062L12.6404 5.86963Z" fill="#F0F0F0"/>
<path d="M18.7708 7.82617L19.4048 9.69473H21.4565L19.7966 10.8492L20.4306 12.7175L18.7708 11.5628L17.1108 12.7175L17.7449 10.8492L16.085 9.69473H18.1366L18.7708 7.82617Z" fill="#F0F0F0"/>
<path d="M13.925 15.6523L14.5592 17.5208H16.6108L14.9509 18.6753L15.585 20.5436L13.925 19.3889L12.2651 20.5436L12.8992 18.6753L11.2393 17.5208H13.291L13.925 15.6523Z" fill="#F0F0F0"/>
<path d="M8.55338 10.7607L9.18751 12.6292H11.2393L9.57921 13.7837L10.2133 15.652L8.55338 14.4973L6.89351 15.652L7.52755 13.7837L5.86768 12.6292H7.91934L8.55338 10.7607Z" fill="#F0F0F0"/>
</g>
<defs>
<clipPath id="clip0_105_2315">
<rect width="47" height="45" fill="white"/>
</clipPath>
</defs>
</svg>
