<svg width="47" height="45" viewBox="0 0 47 45" fill="none" xmlns="http://www.w3.org/2000/svg">
<g clip-path="url(#clip0_105_2324)">
<path d="M47 22.5002C47 34.9265 36.4786 45.0002 23.5 45.0002C10.5214 45.0002 0 34.9265 0 22.5002C1.0217 22.5002 23.5 19.5654 23.5 19.5654L47 22.5002Z" fill="#338AF3"/>
<path d="M0 22.5C0 10.0737 10.5214 0 23.5 0C36.4786 0 47 10.0737 47 22.5" fill="#F0F0F0"/>
<path d="M32.8278 15.5254L23.4998 24.4566L14.1718 15.5254C12.9655 17.2399 12.2607 19.3035 12.2607 21.5217V24.4565C12.2607 29.1688 15.441 33.1831 19.8544 34.636C19.2653 35.7413 19.3646 37.1207 20.2278 38.1521C21.3742 37.2724 22.561 36.3618 23.5678 35.5894C24.5746 36.3619 25.7616 37.2725 26.9079 38.1521C27.7811 37.1087 27.8733 35.7086 27.261 34.5968C31.614 33.1123 34.7389 29.1275 34.7389 24.4565V21.5218C34.7389 19.3035 34.0341 17.24 32.8278 15.5254V15.5254Z" fill="#6DA544"/>
<path d="M23.5 32.2826C18.9929 32.2826 15.3262 28.7719 15.3262 24.4566V21.5218C15.3262 17.2065 18.993 13.6958 23.5 13.6958C28.0071 13.6958 31.6739 17.2066 31.6739 21.5218V24.4566C31.6739 28.7719 28.0072 32.2826 23.5 32.2826Z" fill="#FFDA44"/>
<path d="M28.6085 24.4564V21.5217C28.6085 18.8246 26.3167 16.6304 23.4998 16.6304C20.6829 16.6304 18.3911 18.8246 18.3911 21.5217V24.4564L23.4998 25.4346L28.6085 24.4564Z" fill="#338AF3"/>
<path d="M18.3911 24.4565C18.3911 27.1536 20.6829 29.3478 23.4998 29.3478C26.3167 29.3478 28.6085 27.1536 28.6085 24.4565H18.3911Z" fill="#6DA544"/>
<path d="M29.6305 13.6955C29.6305 12.0747 28.2581 10.7607 26.5653 10.7607C25.78 10.7607 25.0642 11.0437 24.5218 11.5086V9.78241H25.5435V7.82588H24.5218V6.84766H22.4783V7.82588H21.4566V9.78241H22.4783V11.5086C21.9359 11.0437 21.22 10.7607 20.4348 10.7607C18.742 10.7607 17.3696 12.0747 17.3696 13.6955C17.3696 14.5645 17.7644 15.3449 18.3913 15.8824V17.6085H28.6087V15.8824C29.2357 15.3449 29.6305 14.5645 29.6305 13.6955V13.6955Z" fill="#FFDA44"/>
</g>
<defs>
<clipPath id="clip0_105_2324">
<rect width="47" height="45" fill="white"/>
</clipPath>
</defs>
</svg>
