<svg width="46" height="44" viewBox="0 0 46 44" fill="none" xmlns="http://www.w3.org/2000/svg">
<g clip-path="url(#clip0_105_2332)">
<path d="M23 44C35.7025 44 46 34.1503 46 22C46 9.84974 35.7025 0 23 0C10.2975 0 0 9.84974 0 22C0 34.1503 10.2975 44 23 44Z" fill="#FFDA44"/>
<path d="M14 14.3479H44.5693C41.3197 5.97025 32.8891 0 23 0C16.6486 0 10.8992 2.46288 6.7373 6.44437L14 14.3479Z" fill="#6DA544"/>
<path d="M14 29.6523H44.5693C41.3197 38.03 32.8891 44.0002 23 44.0002C16.6486 44.0002 10.8992 41.5373 6.7373 37.5558L14 29.6523Z" fill="#6DA544"/>
<path d="M6.73653 6.44336C-2.24551 15.0349 -2.24551 28.9646 6.73653 37.5562C10.4482 34.0058 14.018 30.5913 23 21.9998L6.73653 6.44336Z" fill="#D80027"/>
<path d="M29.2059 18.1738L30.1987 21.0967H33.4117L30.8124 22.9031L31.8052 25.826L29.2059 24.0196L26.6065 25.826L27.5993 22.9031L25 21.0967H28.213L29.2059 18.1738Z" fill="black"/>
<path d="M39.2059 18.1738L40.1987 21.0967H43.4117L40.8124 22.9031L41.8052 25.826L39.2059 24.0196L36.6065 25.826L37.5994 22.9031L35 21.0967H38.213L39.2059 18.1738Z" fill="black"/>
</g>
<defs>
<clipPath id="clip0_105_2332">
<rect width="46" height="44" fill="white"/>
</clipPath>
</defs>
</svg>
