<svg width="47" height="44" viewBox="0 0 47 44" fill="none" xmlns="http://www.w3.org/2000/svg">
<g clip-path="url(#clip0_105_2340)">
<path d="M23.5 44C36.4787 44 47 34.1503 47 22C47 9.84974 36.4787 0 23.5 0C10.5213 0 0 9.84974 0 22C0 34.1503 10.5213 44 23.5 44Z" fill="#F0F0F0"/>
<path d="M46.8011 19.1305H26.5654H26.5653V0.186227C25.5618 0.0639375 24.5389 0 23.5 0C22.4611 0 21.4381 0.0639375 20.4348 0.186227V19.1303V19.1304H0.198924C0.0682969 20.0698 0 21.0274 0 22C0 22.9726 0.0682969 23.9302 0.198924 24.8695H20.4346H20.4347V43.8138C21.4382 43.9361 22.4611 44 23.5 44C24.5389 44 25.5618 43.9361 26.5652 43.8138V24.8698V24.8696H46.8011C46.9317 23.9302 47 22.9726 47 22C47 21.0274 46.9317 20.0698 46.8011 19.1305V19.1305Z" fill="#D80027"/>
<path d="M34.739 7.65234C32.8345 7.65234 31.2344 8.87171 30.7808 10.5219L34.739 11.4784L38.6971 10.5219C38.2435 8.8718 36.6434 7.65234 34.739 7.65234V7.65234Z" fill="black"/>
<path d="M30.6521 16.2606L35.7608 17.2171V15.1836C37.1969 14.8374 38.3273 13.7789 38.697 12.4345L34.7391 11.478H29.6304L30.6521 14.3476V16.2606Z" fill="black"/>
<path d="M38.6972 10.522H29.6304V12.435V14.3481H30.6521V12.435H38.697C38.7811 12.1293 38.826 11.8088 38.826 11.4785C38.826 11.1482 38.7813 10.8277 38.6972 10.522V10.522Z" fill="#ACABB1"/>
<path d="M13.2824 7.65234C11.378 7.65234 9.77788 8.87171 9.32422 10.5219L13.2824 11.4784L17.2406 10.5219C16.7869 8.8718 15.1868 7.65234 13.2824 7.65234Z" fill="black"/>
<path d="M9.19562 16.2606L14.3043 17.2171V15.1836C15.7405 14.8374 16.8708 13.7789 17.2405 12.4345L13.2826 11.478H8.17383L9.19553 14.3476V16.2606H9.19562Z" fill="black"/>
<path d="M17.2408 10.522H8.17383V12.435V14.3481H9.19553V12.435H17.2404C17.3245 12.1293 17.3695 11.8088 17.3695 11.4785C17.3695 11.1482 17.3249 10.8277 17.2408 10.522Z" fill="#ACABB1"/>
<path d="M34.739 26.7827C32.8345 26.7827 31.2344 28.0021 30.7808 29.6523L34.739 30.6087L38.6971 29.6523C38.2435 28.0021 36.6434 26.7827 34.739 26.7827V26.7827Z" fill="black"/>
<path d="M30.6521 35.3915L35.7608 36.348V34.3144C37.1969 33.9683 38.3273 32.9098 38.697 31.5654L34.7391 30.6089H29.6304L30.6521 33.4784V35.3915Z" fill="black"/>
<path d="M38.6972 29.6523H29.6304V31.5654V33.4785H30.6521V31.5654H38.697C38.7811 31.2597 38.826 30.9392 38.826 30.6089C38.826 30.2787 38.7813 29.9581 38.6972 29.6523V29.6523Z" fill="#ACABB1"/>
<path d="M13.2824 26.7827C11.378 26.7827 9.77788 28.0021 9.32422 29.6523L13.2824 30.6087L17.2406 29.6523C16.7869 28.0021 15.1868 26.7827 13.2824 26.7827Z" fill="black"/>
<path d="M9.19562 35.3915L14.3043 36.348V34.3144C15.7405 33.9683 16.8708 32.9098 17.2405 31.5654L13.2826 30.6089H8.17383L9.19553 33.4784V35.3915H9.19562Z" fill="black"/>
<path d="M17.2408 29.6523H8.17383V31.5654V33.4785H9.19553V31.5654H17.2404C17.3245 31.2597 17.3695 30.9392 17.3695 30.6089C17.3695 30.2787 17.3249 29.9581 17.2408 29.6523Z" fill="#ACABB1"/>
</g>
<defs>
<clipPath id="clip0_105_2340">
<rect width="47" height="44" fill="white"/>
</clipPath>
</defs>
</svg>
