<svg width="46" height="44" viewBox="0 0 46 44" fill="none" xmlns="http://www.w3.org/2000/svg">
<g clip-path="url(#clip0_105_2355)">
<path d="M23 44C35.7025 44 46 34.1503 46 22C46 9.84974 35.7025 0 23 0C10.2975 0 0 9.84974 0 22C0 34.1503 10.2975 44 23 44Z" fill="#6DA544"/>
<path d="M13 26.3042C13 27.889 14.3432 29.1737 16 29.1737H25C25 30.4944 26.1193 31.565 27.5 31.565H30.4999C31.8807 31.565 32.9999 30.4944 32.9999 29.1737V26.3042H13Z" fill="#F0F0F0"/>
<path d="M33.25 12.4346V19.1302C33.25 20.1851 32.3528 21.0433 31.25 21.0433V23.9128C34.007 23.9128 36.25 21.7673 36.25 19.1302V12.4346H33.25Z" fill="#F0F0F0"/>
<path d="M11.75 19.1307C11.75 20.1856 10.8528 21.0438 9.75 21.0438V23.9133C12.507 23.9133 14.75 21.7678 14.75 19.1307V12.4351H11.75V19.1307Z" fill="#F0F0F0"/>
<path d="M28.75 12.4346H31.75V19.1302H28.75V12.4346Z" fill="#F0F0F0"/>
<path d="M24.25 16.2607C24.25 16.5244 24.0256 16.7389 23.75 16.7389C23.4743 16.7389 23.25 16.5243 23.25 16.2607V12.4346H20.25V16.2607C20.25 16.5244 20.0257 16.7389 19.75 16.7389C19.4744 16.7389 19.2501 16.5243 19.2501 16.2607V12.4346H16.25V16.2607C16.25 18.1067 17.8201 19.6085 19.75 19.6085C20.4933 19.6085 21.1826 19.3851 21.7501 19.0056C22.3174 19.385 23.0068 19.6085 23.7501 19.6085C23.8997 19.6085 24.0469 19.5985 24.1916 19.5809C23.9791 20.4187 23.1903 21.0433 22.25 21.0433V23.9128C25.0071 23.9128 27.25 21.7673 27.25 19.1302V16.2607V12.4346H24.25V16.2607H24.25Z" fill="#F0F0F0"/>
<path d="M16.25 21.0435H20.75V23.913H16.25V21.0435Z" fill="#F0F0F0"/>
</g>
<defs>
<clipPath id="clip0_105_2355">
<rect width="46" height="44" fill="white"/>
</clipPath>
</defs>
</svg>
