<svg width="47" height="44" viewBox="0 0 47 44" fill="none" xmlns="http://www.w3.org/2000/svg">
<g clip-path="url(#clip0_105_2364)">
<path d="M23.5 44C36.4787 44 47 34.1503 47 22C47 9.84974 36.4787 0 23.5 0C10.5213 0 0 9.84974 0 22C0 34.1503 10.5213 44 23.5 44Z" fill="#F0F0F0"/>
<path d="M37.8071 4.54781C33.8446 1.69632 28.8843 0 23.5001 0C18.1158 0 13.1555 1.69641 9.19287 4.54781L23.5001 17.9417L37.8071 4.54781Z" fill="#0052B4"/>
<path d="M4.8578 8.60596C1.81207 12.3156 0 16.9593 0 21.9998C0 27.0404 1.81207 31.6841 4.85789 35.3939L19.1651 21.9998L4.8578 8.60596Z" fill="#0052B4"/>
<path d="M9.19287 39.452C13.1556 42.3035 18.1158 43.9998 23.5001 43.9998C28.8843 43.9998 33.8446 42.3034 37.8072 39.452L23.5001 26.0581L9.19287 39.452Z" fill="#0052B4"/>
<path d="M42.1421 35.3937C45.188 31.684 46.9999 27.0404 46.9999 21.9998C46.9999 16.9593 45.188 12.3156 42.1421 8.60596L27.835 21.9998L42.1421 35.3937Z" fill="#0052B4"/>
</g>
<defs>
<clipPath id="clip0_105_2364">
<rect width="47" height="44" fill="white"/>
</clipPath>
</defs>
</svg>
