<svg width="46" height="44" viewBox="0 0 46 44" fill="none" xmlns="http://www.w3.org/2000/svg">
<g clip-path="url(#clip0_105_2371)">
<path d="M32.9999 2.18298C29.9762 0.784438 26.5838 0 23 0C19.4161 0 16.0238 0.784438 13 2.18298L11 22L13 41.817C16.0238 43.2156 19.4161 44 23 44C26.5838 44 29.9762 43.2156 32.9999 41.817L35 22L32.9999 2.18298Z" fill="#FFDA44"/>
<path d="M22.9999 14.3477L24.9855 20.1931H31.4118L26.2131 23.8062L28.1987 29.6519L22.9999 26.0391L17.8011 29.6519L19.7871 23.8062L14.5884 20.1931H21.0143L22.9999 14.3477Z" fill="#496E2D"/>
<path d="M13 2.18359C5.30671 5.74201 0 13.2778 0 21.9998C0 30.7219 5.30671 38.2577 13 41.8161V2.18359Z" fill="#496E2D"/>
<path d="M33 2.18359V41.8161C40.6933 38.2577 46 30.7219 46 21.9998C46 13.2778 40.6933 5.74201 33 2.18359Z" fill="#D80027"/>
</g>
<defs>
<clipPath id="clip0_105_2371">
<rect width="46" height="44" fill="white"/>
</clipPath>
</defs>
</svg>
