<svg width="47" height="44" viewBox="0 0 47 44" fill="none" xmlns="http://www.w3.org/2000/svg">
<g clip-path="url(#clip0_105_2377)">
<path d="M23.5 44C36.4787 44 47 34.1503 47 22C47 9.84974 36.4787 0 23.5 0C10.5213 0 0 9.84974 0 22C0 34.1503 10.5213 44 23.5 44Z" fill="#F0F0F0"/>
<path d="M23.5 0C10.5214 0 0 9.84981 0 22C0 24.691 0.517092 27.2689 1.46168 29.6521H45.5384C46.483 27.2689 47 24.691 47 22C47 9.84981 36.4786 0 23.5 0Z" fill="#0052B4"/>
<path d="M23.5002 0C13.3961 0 4.7823 5.97025 1.46191 14.3479H45.5386C42.2182 5.97025 33.6044 0 23.5002 0V0Z" fill="#D80027"/>
<path d="M6.07715 12.4346V23.4093C6.07715 29.6521 14.7888 31.565 14.7888 31.565C14.7888 31.565 23.5003 29.6521 23.5003 23.4093V12.4346H6.07715Z" fill="#D80027"/>
<path d="M9.67969 14.3481H19.8971V10.5219L17.8536 11.4784L14.7885 8.60889L11.7232 11.4784L9.67969 10.5219V14.3481Z" fill="#FFDA44"/>
<path d="M21.4565 24.9376L14.8151 18.7202L8.17383 24.9376L10.3412 26.9667L14.8151 22.7784L19.2891 26.9667L21.4565 24.9376Z" fill="#FFDA44"/>
<path d="M21.4565 19.1306H18.3578C18.532 18.8491 18.6333 18.523 18.6333 18.1743C18.6333 17.1176 17.7184 16.2612 16.5899 16.2612C15.81 16.2612 15.1329 16.6701 14.7883 17.2713C14.4438 16.6702 13.7666 16.2612 12.9868 16.2612C11.8583 16.2612 10.9433 17.1176 10.9433 18.1743C10.9433 18.523 11.0447 18.8492 11.2189 19.1306H8.17383C8.17383 20.1872 9.15688 21.0437 10.2853 21.0437H10.2173C10.2173 22.1003 11.1322 22.9567 12.2608 22.9567C12.2608 23.8922 12.9785 24.6694 13.9263 24.8358L12.3162 28.2391C13.0878 28.5328 13.9311 28.6959 14.8152 28.6959C15.6994 28.6959 16.5427 28.5328 17.3143 28.2391L15.7042 24.8358C16.652 24.6696 17.3697 23.8923 17.3697 22.9567C18.4983 22.9567 19.4132 22.1003 19.4132 21.0437H19.3451C20.4735 21.0437 21.4565 20.1871 21.4565 19.1306V19.1306Z" fill="#F0F0F0"/>
</g>
<defs>
<clipPath id="clip0_105_2377">
<rect width="47" height="44" fill="white"/>
</clipPath>
</defs>
</svg>
