<svg width="47" height="44" viewBox="0 0 47 44" fill="none" xmlns="http://www.w3.org/2000/svg">
<g clip-path="url(#clip0_105_2387)">
<path d="M23.5 44C36.4787 44 47 34.1503 47 22C47 9.84974 36.4787 0 23.5 0C10.5213 0 0 9.84974 0 22C0 34.1503 10.5213 44 23.5 44Z" fill="#F0F0F0"/>
<path d="M39.3633 5.76959C35.1829 2.18668 29.6144 0 23.5 0C22.4991 0 21.5127 0.0590391 20.5446 0.172734L9.19567 12.4348L0.743652 27.5113C1.28966 29.4931 2.12446 31.366 3.20151 33.0901L23.5 22L39.3633 5.76959Z" fill="#FFDA44"/>
<path d="M43.0647 34.189L10.186 40.129C13.9707 42.5697 18.5567 43.9998 23.5 43.9998C31.6626 43.9998 38.8521 40.1031 43.0647 34.189V34.189Z" fill="#6DA544"/>
<path d="M39.3666 5.77246L3.21484 33.1113C4.16044 34.6211 5.29257 36.0159 6.58205 37.268L46.9999 22C46.9999 15.5754 44.0578 9.79451 39.3666 5.77246V5.77246Z" fill="#D80027"/>
<path d="M0 22.0001C0 23.9034 0.258316 25.7501 0.743646 27.5114L20.5446 0.172852C8.96103 1.53359 0 10.787 0 22.0001Z" fill="#0052B4"/>
</g>
<defs>
<clipPath id="clip0_105_2387">
<rect width="47" height="44" fill="white"/>
</clipPath>
</defs>
</svg>
