<svg width="47" height="44" viewBox="0 0 47 44" fill="none" xmlns="http://www.w3.org/2000/svg">
<g clip-path="url(#clip0_105_2397)">
<path d="M23.5 44C36.4787 44 47 34.1503 47 22C47 9.84974 36.4787 0 23.5 0C10.5213 0 0 9.84974 0 22C0 34.1503 10.5213 44 23.5 44Z" fill="#F0F0F0"/>
<path d="M0 22.0001C0 9.84981 10.5214 0 23.5 0C36.4786 0 47 9.84981 47 22.0001" fill="#D80027"/>
<path d="M14.3045 11.4783C14.3045 8.27298 16.7108 5.59534 19.9241 4.93835C19.4302 4.83746 18.9179 4.78271 18.3914 4.78271C14.4413 4.78271 11.2393 7.78039 11.2393 11.4784C11.2393 15.1763 14.4413 18.174 18.3914 18.174C18.9177 18.174 19.4301 18.1193 19.9241 18.0183C16.7108 17.3613 14.3045 14.6837 14.3045 11.4783V11.4783Z" fill="#F0F0F0"/>
<path d="M23.5002 5.26074L24.0074 6.72211H25.6489L24.3208 7.6254L24.8281 9.08677L23.5002 8.18365L22.1722 9.08677L22.6795 7.6254L21.3516 6.72211H22.9929L23.5002 5.26074Z" fill="#F0F0F0"/>
<path d="M19.5184 8.13037L20.0256 9.59182H21.667L20.3391 10.495L20.8463 11.9564L19.5184 11.0533L18.1903 11.9564L18.6977 10.495L17.3696 9.59182H19.011L19.5184 8.13037Z" fill="#F0F0F0"/>
<path d="M27.4821 8.13037L27.9895 9.59182H29.6308L28.3028 10.495L28.8101 11.9564L27.4821 11.0533L26.1542 11.9564L26.6614 10.495L25.3335 9.59182H26.9748L27.4821 8.13037Z" fill="#F0F0F0"/>
<path d="M25.9494 12.4351L26.4566 13.8965H28.098L26.77 14.7997L27.2773 16.2611L25.9494 15.358L24.6214 16.2611L25.1287 14.7997L23.8008 13.8965H25.442L25.9494 12.4351Z" fill="#F0F0F0"/>
<path d="M21.051 12.4351L21.5582 13.8965H23.1997L21.8717 14.7997L22.3791 16.2611L21.051 15.358L19.723 16.2611L20.2303 14.7997L18.9023 13.8965H20.5438L21.051 12.4351Z" fill="#F0F0F0"/>
</g>
<defs>
<clipPath id="clip0_105_2397">
<rect width="47" height="44" fill="white"/>
</clipPath>
</defs>
</svg>
