<svg width="46" height="44" viewBox="0 0 46 44" fill="none" xmlns="http://www.w3.org/2000/svg">
<g clip-path="url(#clip0_105_2422)">
<path d="M20.9998 23.9131C20.9998 23.9131 6.7498 6.44059 6.73633 6.44368C10.8984 2.46245 16.6485 0 22.9998 0C35.7023 0 45.9998 9.84981 45.9998 22L20.9998 23.9131Z" fill="#D80027"/>
<path d="M20.9998 22C20.9998 22 6.7498 37.5594 6.73633 37.5563C10.8984 41.5375 16.6485 44 22.9998 44C35.7023 44 45.9998 34.1502 45.9998 22H20.9998Z" fill="#0052B4"/>
<path d="M6.73653 6.44336C-2.24551 15.0349 -2.24551 28.9646 6.73653 37.5562C10.4482 34.0058 14.018 30.5913 23 21.9998L6.73653 6.44336Z" fill="#F0F0F0"/>
<path d="M2.52111 22C2.50854 22.158 2.5 22.3171 2.5 22.4782C2.5 25.9119 5.41022 28.6956 9.00002 28.6956C12.5898 28.6956 15.5 25.9119 15.5 22.4782C15.5 22.3171 15.4915 22.1579 15.4789 22H2.52111Z" fill="#FFDA44"/>
<path d="M9.00001 19.1303C10.1046 19.1303 11 18.2738 11 17.2173C11 16.1607 10.1046 15.3042 9.00001 15.3042C7.89544 15.3042 7 16.1607 7 17.2173C7 18.2738 7.89544 19.1303 9.00001 19.1303Z" fill="#FFDA44"/>
<path d="M4.5 16.7393V22.9567C4.5 26.2515 9 27.261 9 27.261C9 27.261 13.5 26.2515 13.5 22.9567V16.7393H4.5Z" fill="#D80027"/>
<path d="M9.00224 25.259C8.16741 24.9716 6.5 24.2372 6.5 22.9567V18.6523H11.5001V22.9567C11.5001 24.2414 9.83284 24.974 9.00224 25.259V25.259Z" fill="#338AF3"/>
<path d="M9.99999 21.0437V20.0871L9.00003 19.6089L7.99998 20.0871V21.0437L7.5 21.5219V23.435H10.5001V21.5219L9.99999 21.0437Z" fill="#F3F3F3"/>
</g>
<defs>
<clipPath id="clip0_105_2422">
<rect width="46" height="44" fill="white"/>
</clipPath>
</defs>
</svg>
