<svg width="47" height="44" viewBox="0 0 47 44" fill="none" xmlns="http://www.w3.org/2000/svg">
<g clip-path="url(#clip0_105_2407)">
<path d="M10.2549 40.1738C14.0264 42.5874 18.5866 43.9999 23.5 43.9999C28.4133 43.9999 32.9736 42.5874 36.7451 40.1738L23.5 38.2607L10.2549 40.1738Z" fill="#D80027"/>
<path d="M36.7451 3.82611C32.9736 1.41255 28.4133 0 23.5 0C18.5866 0 14.0263 1.41255 10.2549 3.82611L23.5 5.73916L36.7451 3.82611Z" fill="#D80027"/>
<path d="M10.2549 40.1738C14.0264 42.5874 18.5866 43.9999 23.5 43.9999C28.4133 43.9999 32.9736 42.5874 36.7451 40.1738L23.5 38.2607L10.2549 40.1738Z" fill="#D80027"/>
<path d="M36.7451 3.82611C32.9736 1.41255 28.4133 0 23.5 0C18.5866 0 14.0263 1.41255 10.2549 3.82611L23.5 5.73916L36.7451 3.82611Z" fill="#D80027"/>
<path d="M46.9401 20.5653C46.3833 13.7754 41.9764 7.17404 36.745 3.82617H10.2548C4.45915 7.53532 0.527762 13.6101 0.0493164 20.5653L23.4999 22.0001L46.9401 20.5653Z" fill="#0052B4"/>
<path d="M0.0493164 23.4348C0.527762 30.3902 4.45905 36.4648 10.2547 40.174H36.7449C42.5409 36.4649 46.472 30.3902 46.9505 23.4348L23.4999 22L0.0493164 23.4348Z" fill="#0052B4"/>
<path d="M46.9401 20.5652H25.0326V2.86963H21.9675V20.5652H0.0494785C0.0168906 21.0396 0 21.518 0 22.0001C0 22.4821 0.0167988 22.9604 0.0493867 23.4348H21.9675V41.1305H25.0326V23.4348H46.9507C46.9832 22.9604 47 22.4821 47 22.0001C47 21.5215 46.9793 21.0429 46.9401 20.5652Z" fill="#D80027"/>
<path d="M9.1958 21.9999L23.5 13.583L37.8045 21.9999L23.5 30.4169L9.1958 21.9999Z" fill="#F0F0F0"/>
<path d="M15.3262 25.8261H33.7174L29.6305 20.0869L27.587 22L25.5435 21.0435L23.5 23.913H19.4131L17.3696 22L15.3262 25.8261Z" fill="#6DA544"/>
<path d="M23.5001 16.2607L24.0073 17.7221H25.6486L24.3207 18.6254L24.828 20.0869L23.5001 19.1836L22.1721 20.0869L22.6794 18.6254L21.3516 17.7221H22.9928L23.5001 16.2607Z" fill="#FFDA44"/>
<path d="M23.5001 11.1782L5.10889 22L23.5001 32.8218L41.8915 22L23.5001 11.1782ZM10.869 22L23.5001 14.5675L36.1315 22L23.5001 29.4325L10.869 22Z" fill="#D80027"/>
</g>
<defs>
<clipPath id="clip0_105_2407">
<rect width="47" height="44" fill="white"/>
</clipPath>
</defs>
</svg>
