<svg width="47" height="44" viewBox="0 0 47 44" fill="none" xmlns="http://www.w3.org/2000/svg">
<g clip-path="url(#clip0_105_2432)">
<path d="M23.5 44C36.4787 44 47 34.1503 47 22C47 9.84974 36.4787 0 23.5 0C10.5213 0 0 9.84974 0 22C0 34.1503 10.5213 44 23.5 44Z" fill="#F0F0F0"/>
<path d="M23.5 43.9998C36.4786 43.9998 47 34.15 47 21.9998C47 19.3087 46.483 16.7309 45.5383 14.3477H1.46168C0.517092 16.7309 0 19.3087 0 21.9998C0 34.15 10.5214 43.9998 23.5 43.9998Z" fill="#0052B4"/>
<path d="M23.5002 44.0002C33.6044 44.0002 42.2182 38.03 45.5385 29.6523H1.46191C4.7823 38.03 13.3961 44.0002 23.5002 44.0002Z" fill="#D80027"/>
<path d="M6.07666 12.4346V23.4093C6.07666 29.6521 14.7883 31.565 14.7883 31.565C14.7883 31.565 23.4998 29.6521 23.4998 23.4093V12.4346H6.07666Z" fill="#F0F0F0"/>
<path d="M8.12012 12.4346V23.4093C8.12012 24.1422 8.29398 24.8343 8.6384 25.4832H20.938C21.2824 24.8344 21.4563 24.1422 21.4563 23.4093V12.4346H8.12012Z" fill="#D80027"/>
<path d="M18.875 20.0867H15.8099V18.1737H17.8534V16.2606H15.8099V14.3477H13.7665V16.2606H11.7231V18.1737H13.7665V20.0867H10.7012V21.9998H13.7665V23.9128H15.8099V21.9998H18.875V20.0867Z" fill="#F0F0F0"/>
<path d="M11.4259 28.154C12.7427 28.9287 14.0956 29.3785 14.7882 29.5785C15.4808 29.3786 16.8337 28.9287 18.1506 28.154C19.4785 27.3726 20.4094 26.479 20.938 25.4834C20.355 25.0973 19.6436 24.8696 18.8752 24.8696C18.5954 24.8696 18.3236 24.9006 18.0623 24.9576C17.5085 23.7796 16.2513 22.9565 14.7883 22.9565C13.3254 22.9565 12.0681 23.7796 11.5144 24.9576C11.253 24.9006 10.9811 24.8696 10.7014 24.8696C9.93301 24.8696 9.22167 25.0973 8.63867 25.4834C9.16696 26.4789 10.0979 27.3725 11.4259 28.154Z" fill="#0052B4"/>
</g>
<defs>
<clipPath id="clip0_105_2432">
<rect width="47" height="44" fill="white"/>
</clipPath>
</defs>
</svg>
