<svg width="46" height="44" viewBox="0 0 46 44" fill="none" xmlns="http://www.w3.org/2000/svg">
<g clip-path="url(#clip0_105_2440)">
<path d="M23 44C35.7025 44 46 34.1503 46 22C46 9.84974 35.7025 0 23 0C10.2975 0 0 9.84974 0 22C0 34.1503 10.2975 44 23 44Z" fill="#F0F0F0"/>
<path d="M44.5694 14.3481H20V8.60889H7.99996V14.3481H1.43058C0.50609 16.7313 0 19.3091 0 22.0002C0 24.6912 0.50609 27.269 1.43058 29.6523L23 31.5654L44.5694 29.6523C45.4939 27.269 46 24.6912 46 22.0002C46 19.3091 45.4939 16.7313 44.5694 14.3481Z" fill="#0052B4"/>
<path d="M23.0001 44.0002C32.8893 44.0002 41.3198 38.03 44.5695 29.6523H1.43066C4.6804 38.03 13.1109 44.0002 23.0001 44.0002Z" fill="#D80027"/>
<path d="M8 14.3481V16.2611C8 20.6543 14 22.0003 14 22.0003C14 22.0003 20.0001 20.6543 20.0001 16.2611V14.3481L18.0001 16.2611L14 13.3916L10 16.2611L8 14.3481Z" fill="#F0F0F0"/>
</g>
<defs>
<clipPath id="clip0_105_2440">
<rect width="46" height="44" fill="white"/>
</clipPath>
</defs>
</svg>
