<svg width="47" height="44" viewBox="0 0 47 44" fill="none" xmlns="http://www.w3.org/2000/svg">
<g clip-path="url(#clip0_105_2445)">
<path d="M40.1175 37.5568C48.931 29.3059 49.279 16.133 41.1652 7.49121L23.4998 21.9998L8.00195 38.5376C17.2329 46.1335 31.3039 45.8077 40.1175 37.5568V37.5568Z" fill="#496E2D"/>
<path d="M6.88232 6.44307C15.6958 -1.80786 29.7669 -2.13365 38.9979 5.46227L23.4999 22.0002L5.83474 36.5087C-2.27917 27.8669 -1.93108 14.694 6.88232 6.44307V6.44307Z" fill="#0052B4"/>
<path d="M38.9976 5.4624L5.83447 36.5088C6.16971 36.8659 6.51781 37.2162 6.88215 37.5571C7.2464 37.8981 7.62065 38.2239 8.00216 38.538L41.1651 7.49155C40.8299 7.1344 40.4817 6.78412 40.1173 6.44303C39.7533 6.10221 39.379 5.77625 38.9976 5.4624V5.4624Z" fill="#FFDA44"/>
<path d="M9.90113 7.65137L10.4085 9.1129H12.0499L10.722 10.016L11.2291 11.4776L9.90113 10.5743L8.5731 11.4776L9.08046 10.016L7.75244 9.1129H9.39395L9.90113 7.65137Z" fill="#F0F0F0"/>
<path d="M18.2859 7.65137L18.7933 9.1129H20.4346L19.1066 10.016L19.6139 11.4776L18.2859 10.5743L16.9579 11.4776L17.4652 10.016L16.1372 9.1129H17.7786L18.2859 7.65137Z" fill="#F0F0F0"/>
<path d="M9.90113 15.3037L10.4085 16.7652H12.0499L10.722 17.6684L11.2291 19.13L9.90113 18.2267L8.5731 19.13L9.08046 17.6684L7.75244 16.7652H9.39395L9.90113 15.3037Z" fill="#F0F0F0"/>
<path d="M18.2859 15.3037L18.7933 16.7652H20.4346L19.1066 17.6684L19.6139 19.13L18.2859 18.2267L16.9579 19.13L17.4652 17.6684L16.1372 16.7652H17.7786L18.2859 15.3037Z" fill="#F0F0F0"/>
<path d="M14.0936 11.4775L14.601 12.9391H16.2423L14.9144 13.8423L15.4216 15.3038L14.0936 14.4005L12.7656 15.3038L13.2728 13.8423L11.9448 12.9391H13.5863L14.0936 11.4775Z" fill="#F0F0F0"/>
</g>
<defs>
<clipPath id="clip0_105_2445">
<rect width="47" height="44" fill="white"/>
</clipPath>
</defs>
</svg>
