<svg width="47" height="44" viewBox="0 0 47 44" fill="none" xmlns="http://www.w3.org/2000/svg">
<g clip-path="url(#clip0_105_2458)">
<path d="M45.5383 29.6519C46.4829 27.2686 47 24.6908 47 21.9998C47 19.3087 46.4829 16.7309 45.5383 14.3476L23.5 12.4346L1.46168 14.3476C0.517092 16.7309 0 19.3087 0 21.9998C0 24.6908 0.517092 27.2686 1.46168 29.6519L23.5 31.5649L45.5383 29.6519Z" fill="#F0F0F0"/>
<path d="M23.4998 44.0002C33.6039 44.0002 42.2178 38.03 45.5381 29.6523H1.46143C4.7819 38.03 13.3956 44.0002 23.4998 44.0002Z" fill="#D80027"/>
<path d="M23.4998 0C13.3956 0 4.7819 5.97025 1.46143 14.3479H45.5382C42.2178 5.97025 33.6039 0 23.4998 0Z" fill="#496E2D"/>
<path d="M23.5 17.2173L24.768 20.8707H28.8716L25.5518 23.1289L26.8199 26.7825L23.5 24.5246L20.1801 26.7825L21.4483 23.1289L18.1284 20.8707H22.232L23.5 17.2173Z" fill="black"/>
<path d="M30.4819 4.3042V8.76788C30.4819 9.47128 29.8708 10.0433 29.1196 10.0433V11.9563C30.9976 11.9563 32.5254 10.5261 32.5254 8.76788V4.3042H30.4819Z" fill="#F0F0F0"/>
<path d="M15.837 8.76788C15.837 9.47128 15.2259 10.0433 14.4746 10.0433V11.9563C16.3527 11.9563 17.8805 10.5261 17.8805 8.76788V4.3042H15.837V8.76788Z" fill="#F0F0F0"/>
<path d="M27.4165 4.3042H29.46V8.76788H27.4165V4.3042Z" fill="#F0F0F0"/>
<path d="M24.3512 6.85482C24.3512 7.03065 24.1984 7.17374 24.0106 7.17374C23.8228 7.17374 23.67 7.03065 23.67 6.85482V4.3042H21.6265V6.85482C21.6265 7.03065 21.4737 7.17374 21.2859 7.17374C21.0981 7.17374 20.9453 7.03065 20.9453 6.85482V4.3042H18.9019V6.85482C18.9019 8.08562 19.9713 9.08679 21.2859 9.08679C21.7922 9.08679 22.2618 8.93786 22.6482 8.68495C23.0347 8.93786 23.5043 9.08679 24.0105 9.08679C24.1125 9.08679 24.2128 9.08009 24.3114 9.06832C24.1665 9.62682 23.6292 10.0433 22.9888 10.0433V11.9563C24.8668 11.9563 26.3946 10.5261 26.3946 8.76788V6.85482V4.3042H24.3511L24.3512 6.85482Z" fill="#F0F0F0"/>
<path d="M18.9023 10.0435H21.9675V11.9565H18.9023V10.0435Z" fill="#F0F0F0"/>
</g>
<defs>
<clipPath id="clip0_105_2458">
<rect width="47" height="44" fill="white"/>
</clipPath>
</defs>
</svg>
