<svg width="47" height="44" viewBox="0 0 47 44" fill="none" xmlns="http://www.w3.org/2000/svg">
<g clip-path="url(#clip0_105_2469)">
<path d="M23.5 44C36.4787 44 47 34.1503 47 22C47 9.84974 36.4787 0 23.5 0C10.5213 0 0 9.84974 0 22C0 34.1503 10.5213 44 23.5 44Z" fill="#F0F0F0"/>
<path d="M6.88297 37.5562C-2.29432 28.9646 -2.29432 15.035 6.88297 6.44336C6.88233 6.4443 20.4349 21.9998 20.4349 21.9998L6.88297 37.5562Z" fill="black"/>
<path d="M20.435 21.9999L3.11696 11.0439C2.58004 11.9177 2.10655 12.8296 1.69971 13.7736L10.4671 21.9999L1.69998 30.2267C2.10646 31.17 2.57949 32.0814 3.11604 32.9545L20.435 21.9999Z" fill="#FFDA44"/>
<path d="M46.8009 19.1304H20.434L6.88261 6.44385C5.4223 7.81094 4.15358 9.35704 3.11664 11.0441L14.7968 21.9999L3.11572 32.9544C4.15266 34.6418 5.42194 36.1884 6.88261 37.5559L20.434 24.8694H46.8009C46.9316 23.9301 46.9999 22.9725 46.9999 21.9999C46.9999 21.0274 46.9316 20.0697 46.8009 19.1304V19.1304Z" fill="#6DA544"/>
<path d="M9.19238 39.452C13.1552 42.3036 18.1156 44.0001 23.5 44.0001C34.3577 44.0001 43.4938 37.1061 46.1905 27.7393H21.7038L9.19238 39.452Z" fill="#0052B4"/>
<path d="M46.1905 16.2608C43.4938 6.89399 34.3577 0 23.5 0C18.1156 0 13.1552 1.69649 9.19238 4.54807L21.7037 16.2608H46.1905Z" fill="#D80027"/>
</g>
<defs>
<clipPath id="clip0_105_2469">
<rect width="47" height="44" fill="white"/>
</clipPath>
</defs>
</svg>
