<svg width="47" height="44" viewBox="0 0 47 44" fill="none" xmlns="http://www.w3.org/2000/svg">
<g clip-path="url(#clip0_105_2476)">
<path d="M23.5 44C36.4787 44 47 34.1503 47 22C47 9.84974 36.4787 0 23.5 0C10.5213 0 0 9.84974 0 22C0 34.1503 10.5213 44 23.5 44Z" fill="#F0F0F0"/>
<path d="M31.6739 21.9998C31.6739 23.9128 28.0143 28.6954 23.5 28.6954C18.9857 28.6954 15.3262 23.9128 15.3262 21.9998C15.3262 17.7736 18.9857 14.3477 23.5 14.3477C28.0143 14.3477 31.6739 17.7736 31.6739 21.9998Z" fill="#D80027"/>
<path d="M31.6739 22C31.6739 26.2262 28.0143 29.6521 23.5 29.6521C18.9857 29.6521 15.3262 26.2262 15.3262 22" fill="#0052B4"/>
<path d="M32.1631 28.7642L34.3302 26.7354L35.7749 28.0879L33.6078 30.1167L32.1631 28.7642Z" fill="black"/>
<path d="M28.5503 32.1455L30.7174 30.1167L32.1621 31.4693L29.995 33.498L28.5503 32.1455Z" fill="black"/>
<path d="M36.498 32.8213L38.6651 30.7925L40.1099 32.1451L37.9428 34.1738L36.498 32.8213Z" fill="black"/>
<path d="M32.8853 36.2031L35.0523 34.1744L36.4971 35.5269L34.33 37.5557L32.8853 36.2031Z" fill="black"/>
<path d="M34.3306 30.793L36.4977 28.7642L37.9424 30.1167L35.7753 32.1455L34.3306 30.793Z" fill="black"/>
<path d="M30.7188 34.1743L32.8858 32.1456L34.3306 33.4981L32.1635 35.5268L30.7188 34.1743Z" fill="black"/>
<path d="M36.5073 15.2397L30.7284 9.82969L32.1731 8.47716L37.9521 13.8872L36.5073 15.2397Z" fill="black"/>
<path d="M30.7275 13.8877L28.5605 11.8589L30.0051 10.5065L32.1722 12.5352L30.7275 13.8877Z" fill="black"/>
<path d="M34.3394 17.27L32.1723 15.2413L33.6169 13.8888L35.784 15.9176L34.3394 17.27Z" fill="black"/>
<path d="M35.061 9.82959L32.8939 7.80083L34.3387 6.4483L36.5058 8.47706L35.061 9.82959Z" fill="black"/>
<path d="M38.6748 13.2119L36.5077 11.1832L37.9525 9.83062L40.1196 11.8594L38.6748 13.2119Z" fill="black"/>
<path d="M8.33105 30.7891L14.11 36.1991L12.6652 37.5517L6.88631 32.1416L8.33105 30.7891Z" fill="black"/>
<path d="M14.1094 32.1406L16.2765 34.1694L14.8318 35.5219L12.6647 33.4931L14.1094 32.1406Z" fill="black"/>
<path d="M10.4976 28.7598L12.6646 30.7885L11.2199 32.1411L9.05281 30.1123L10.4976 28.7598Z" fill="black"/>
<path d="M12.665 26.7305L18.444 32.1405L16.9992 33.4931L11.2203 28.083L12.665 26.7305Z" fill="black"/>
<path d="M14.1094 7.79639L8.33045 13.2064L6.8857 11.8539L12.6646 6.44386L14.1094 7.79639Z" fill="black"/>
<path d="M16.2764 9.8252L10.4974 15.2353L9.05269 13.8827L14.8316 8.47267L16.2764 9.8252Z" fill="black"/>
<path d="M18.4453 11.855L12.6664 17.265L11.2217 15.9126L17.0006 10.5025L18.4453 11.855Z" fill="black"/>
</g>
<defs>
<clipPath id="clip0_105_2476">
<rect width="47" height="44" fill="white"/>
</clipPath>
</defs>
</svg>
