<svg width="47" height="44" viewBox="0 0 47 44" fill="none" xmlns="http://www.w3.org/2000/svg">
<g clip-path="url(#clip0_105_2498)">
<path d="M23.5 44C36.4787 44 47 34.1503 47 22C47 9.84974 36.4787 0 23.5 0C10.5213 0 0 9.84974 0 22C0 34.1503 10.5213 44 23.5 44Z" fill="#F0F0F0"/>
<path d="M45.1668 13.471C41.6079 5.55689 33.2478 0 23.5 0C17.0105 0 11.1362 2.46288 6.88379 6.44437L12.7689 13.471H45.1668Z" fill="black"/>
<path d="M12.8356 30.4492L6.88379 37.5555C11.1362 41.537 17.0105 43.9998 23.5 43.9998C33.2806 43.9998 41.6646 38.4058 45.203 30.4492H12.8356Z" fill="#496E2D"/>
<path d="M5.10889 16.1812V27.7391H46.1907C46.7178 25.9094 47.0002 23.9857 47.0002 22C47.0002 19.9854 46.7103 18.0347 46.1684 16.1812H5.10889Z" fill="#A2001D"/>
<path d="M6.88298 6.44336C-2.29433 15.0349 -2.29433 28.9646 6.88298 37.5562C10.6754 34.0058 14.3227 30.5913 23.5 21.9998L6.88298 6.44336Z" fill="#0052B4"/>
<path d="M7.65475 16.5303L10.5229 20.2772L15.2163 18.8812L12.2962 22.5931L15.1644 26.3402L10.4912 24.8873L7.57094 28.5991L7.60307 23.9891L2.92969 22.536L7.62271 21.14L7.65475 16.5303Z" fill="#FFDA44"/>
</g>
<defs>
<clipPath id="clip0_105_2498">
<rect width="47" height="44" fill="white"/>
</clipPath>
</defs>
</svg>
