<svg width="47" height="44" viewBox="0 0 47 44" fill="none" xmlns="http://www.w3.org/2000/svg">
<g clip-path="url(#clip0_105_2505)">
<path d="M0 21.9998C0 24.6908 0.517092 27.2686 1.46168 29.6519L23.5 31.5649L45.5383 29.6519C46.4829 27.2686 47 24.6908 47 21.9998C47 19.3087 46.4829 16.7309 45.5383 14.3476L23.5 12.4346L1.46168 14.3476C0.517092 16.7309 0 19.3087 0 21.9998H0Z" fill="#FFDA44"/>
<path d="M45.5385 14.3479C42.2182 5.97034 33.6044 0 23.5002 0C13.3961 0 4.7823 5.97034 1.46191 14.3479H45.5385Z" fill="#D80027"/>
<path d="M1.46191 29.6523C4.7823 38.0299 13.3961 44.0002 23.5002 44.0002C33.6044 44.0002 42.2182 38.0299 45.5385 29.6523H1.46191Z" fill="#D80027"/>
</g>
<defs>
<clipPath id="clip0_105_2505">
<rect width="47" height="44" fill="white"/>
</clipPath>
</defs>
</svg>
