<svg width="46" height="44" viewBox="0 0 46 44" fill="none" xmlns="http://www.w3.org/2000/svg">
<g clip-path="url(#clip0_105_2510)">
<path d="M23 43.9999C35.7025 43.9999 45.9999 34.1502 45.9999 22C45.9999 9.84972 35.7025 0 23 0C10.2974 0 0 9.84972 0 22C0 34.1502 10.2974 43.9999 23 43.9999Z" fill="#FFDA44"/>
<path d="M18 3.82617H10.0367C9.68382 4.05691 9.33846 4.29711 9.00002 4.54573L7 22L9.00002 39.4543C9.33846 39.703 9.68382 39.9432 10.0367 40.1739H18V3.82617Z" fill="#FF9811"/>
<path d="M0 22.0003C0 29.1112 3.52799 35.4329 9.00002 39.4546V4.5459C3.52799 8.56761 0 14.8894 0 22.0003V22.0003Z" fill="#6DA544"/>
<path d="M37 13.4116V13.9621L37.0209 13.9651L37 13.4116Z" fill="#FFDA44"/>
<path d="M44.1667 27.7392H39.8333L38 29.6522V33.4784H34V31.5653H36V27.7392H27V30.1305H24.9999V25.5731C24.3863 25.0477 24 24.2845 24 23.4348V11.0001C24 9.4153 25.3431 8.13053 27 8.13053V25.8262H31L32.3724 24.7321C32.1327 24.186 32 23.5862 32 22.9567V20.0871H29V14.348H34.9999C34.9999 13.3915 36.5 12.435 36.5 12.435C36.5 12.435 38 13.3915 38 14.348V15.7829V20.0872C39.1125 20.0998 40.8801 20.0723 42.7898 20.0872C42.2881 19.2485 41.9999 18.2532 41.9999 17.2177C41.9999 15.5298 42.7618 14.0123 43.9745 12.9621C42.2265 9.25692 39.4372 6.09768 35.9632 3.82617H21V40.174H35.9633C40.1877 37.4119 43.3995 33.3375 44.9578 28.5647L44.1667 27.7392Z" fill="#A2001D"/>
</g>
<defs>
<clipPath id="clip0_105_2510">
<rect width="46" height="44" fill="white"/>
</clipPath>
</defs>
</svg>
