<svg width="47" height="44" viewBox="0 0 47 44" fill="none" xmlns="http://www.w3.org/2000/svg">
<g clip-path="url(#clip0_105_2517)">
<path d="M23.5 44C36.4787 44 47 34.1503 47 22C47 9.84974 36.4787 0 23.5 0C10.5213 0 0 9.84974 0 22C0 34.1503 10.5213 44 23.5 44Z" fill="#F0F0F0"/>
<path d="M41.9593 17.6955H34.2282C34.2282 16.3748 33.0846 15.3042 31.6739 15.3042L29.6304 19.1303C29.6304 19.1303 31.8101 24.8694 31.742 24.8694H34.2963C35.7071 24.8694 36.8506 23.7989 36.8506 22.4781C38.2614 22.4781 39.4049 21.4076 39.4049 20.0868H39.3199C40.7306 20.0868 41.9593 19.0162 41.9593 17.6955Z" fill="#ACABB1"/>
<path d="M5.04053 17.6955H12.7717C12.7717 16.3748 13.9153 15.3042 15.326 15.3042L17.3695 19.1303C17.3695 19.1303 15.1897 24.8694 15.2579 24.8694H12.7036C11.2928 24.8694 10.1493 23.7989 10.1493 22.4781C8.73848 22.4781 7.59494 21.4076 7.59494 20.0868H7.68002C6.26923 20.0868 5.04053 19.0162 5.04053 17.6955V17.6955Z" fill="#ACABB1"/>
<path d="M31.674 30.6084V31.5649H15.3262V30.6084H11.2393V34.4345H15.3262V35.391H31.674V34.4345H35.761V30.6084H31.674Z" fill="#FFDA44"/>
<path d="M15.3262 15.3042V24.8693C15.3262 30.7267 23.5 32.5215 23.5 32.5215C23.5 32.5215 31.6739 30.7267 31.6739 24.8693V15.3042L23.5 14.3477L15.3262 15.3042Z" fill="#0052B4"/>
<path d="M15.3262 19.1309H31.6739V24.87H15.3262V19.1309Z" fill="#D80027"/>
<path d="M27.587 10.5215V11.9563L26.5653 12.4346L25.5436 11.478V8.6084H21.4566V11.478L20.4349 12.4346L19.4131 11.9563V10.5215H15.3262V15.304H31.674V10.5215H27.587Z" fill="#FFDA44"/>
</g>
<defs>
<clipPath id="clip0_105_2517">
<rect width="47" height="44" fill="white"/>
</clipPath>
</defs>
</svg>
