<svg width="48" height="44" viewBox="0 0 48 44" fill="none" xmlns="http://www.w3.org/2000/svg">
<g clip-path="url(#clip0_105_2531)">
<path d="M35.4781 2.67498C32.0683 0.969633 28.1576 0 23.9998 0C19.842 0 15.9313 0.969633 12.5215 2.67498L10.4346 22L12.5215 41.325C15.9313 43.0304 19.842 44 23.9998 44C28.1576 44 32.0683 43.0304 35.4781 41.325L37.5651 22L35.4781 2.67498Z" fill="#FFDA44"/>
<path d="M12.5217 41.3248V2.6748C5.06147 6.40621 0 13.661 0 21.9999C0 30.3389 5.06147 37.5936 12.5217 41.3248Z" fill="#338AF3"/>
<path d="M47.9997 21.9999C47.9997 13.661 42.9383 6.40621 35.478 2.6748V41.3248C42.9383 37.5936 47.9997 30.3389 47.9997 21.9999V21.9999Z" fill="#6DA544"/>
<path d="M18.7824 27.7391L14.6084 21.9999L18.7823 16.2607L22.9565 21.9999L18.7824 27.7391Z" fill="#6DA544"/>
<path d="M29.2174 27.7391L25.0435 21.9999L29.2174 16.2607L33.3913 21.9999L29.2174 27.7391Z" fill="#6DA544"/>
<path d="M23.9996 35.3913L19.8257 29.6522L23.9996 23.9131L28.1736 29.6522L23.9996 35.3913Z" fill="#6DA544"/>
</g>
<defs>
<clipPath id="clip0_105_2531">
<rect width="48" height="44" fill="white"/>
</clipPath>
</defs>
</svg>
