<svg width="46" height="44" viewBox="0 0 46 44" fill="none" xmlns="http://www.w3.org/2000/svg">
<g clip-path="url(#clip0_105_2539)">
<path d="M2.28221 12.435C0.820094 15.3273 0 18.5721 0 22.0002C0 25.4283 0.820094 28.6731 2.28221 31.5654L23 33.4785L43.7178 31.5654C45.1799 28.6731 46 25.4283 46 22.0002C46 18.5721 45.1799 15.3273 43.7178 12.435L23 10.522L2.28221 12.435Z" fill="#F0F0F0"/>
<path d="M2.2832 31.5654C6.00327 38.9243 13.8816 44.0002 23.0002 44.0002C32.1188 44.0002 39.9971 38.9243 43.7172 31.5654H2.2832Z" fill="black"/>
<path d="M2.2832 12.4348H43.7172C39.9971 5.0759 32.1188 0 23.0002 0C13.8816 0 6.00327 5.0759 2.2832 12.4348Z" fill="#D80027"/>
<path d="M6.73653 6.44336C-2.24551 15.0349 -2.24551 28.9646 6.73653 37.5562C10.4482 34.0058 14.018 30.5913 23 21.9998L6.73653 6.44336Z" fill="#496E2D"/>
</g>
<defs>
<clipPath id="clip0_105_2539">
<rect width="46" height="44" fill="white"/>
</clipPath>
</defs>
</svg>
