<svg width="47" height="44" viewBox="0 0 47 44" fill="none" xmlns="http://www.w3.org/2000/svg">
<g clip-path="url(#clip0_105_2544)">
<path d="M23.5 44C36.4787 44 47 34.1503 47 22C47 9.84974 36.4787 0 23.5 0C10.5213 0 0 9.84974 0 22C0 34.1503 10.5213 44 23.5 44Z" fill="#F0F0F0"/>
<path d="M45.5382 14.3477H1.46159C0.517092 16.731 0 19.3087 0 21.9998C0 24.6908 0.517092 27.2687 1.46159 29.6519H45.5383C46.483 27.2687 47 24.6908 47 21.9998C47 19.3087 46.483 16.731 45.5382 14.3477Z" fill="#A2001D"/>
<path d="M23.5682 43.9998C31.6171 43.9998 38.72 40.2106 42.9553 34.4346H4.18115C8.41648 40.2106 15.5192 43.9998 23.5682 43.9998Z" fill="#6DA544"/>
<path d="M23.5682 0C31.6171 0 38.72 3.78916 42.9553 9.56519H4.18115C8.41648 3.78916 15.5192 0 23.5682 0V0Z" fill="#6DA544"/>
<path d="M23.4998 14.3477L25.5287 20.1931H32.0944L26.7827 23.8063L28.8117 29.6519L23.4998 26.0392L18.188 29.6519L20.2171 23.8063L14.9053 20.1931H21.471L23.4998 14.3477Z" fill="#FFDA44"/>
</g>
<defs>
<clipPath id="clip0_105_2544">
<rect width="47" height="44" fill="white"/>
</clipPath>
</defs>
</svg>
