<svg width="47" height="44" viewBox="0 0 47 44" fill="none" xmlns="http://www.w3.org/2000/svg">
<g clip-path="url(#clip0_105_2551)">
<path d="M44.6682 31.565C46.1621 28.6727 47 25.4278 47 21.9998C47 18.5717 46.1621 15.3268 44.6682 12.4346L23.5 11.478L2.33182 12.4345C0.837922 15.3268 0 18.5717 0 21.9998C0 25.4278 0.837922 28.6727 2.33182 31.565L23.5 32.5215L44.6682 31.565Z" fill="#FFDA44"/>
<path d="M23.5002 0C14.1834 0 6.13316 5.0759 2.33203 12.4348H44.6683C40.8673 5.0759 32.8169 0 23.5002 0V0Z" fill="black"/>
<path d="M23.5002 44.0002C14.1834 44.0002 6.13316 38.9243 2.33203 31.5654H44.6683C40.8673 38.9243 32.8169 44.0002 23.5002 44.0002V44.0002Z" fill="#0052B4"/>
<path d="M45.8903 15.3042H1.10973C0.389861 17.4156 0 19.665 0 21.9998C0 24.3347 0.389861 26.5841 1.10973 28.6955H45.8902C46.6101 26.5841 47 24.3347 47 21.9998C47 19.665 46.6101 17.4156 45.8903 15.3042Z" fill="#A2001D"/>
<path d="M8.17383 21.0435H38.826V22.9565H8.17383V21.0435Z" fill="#FFDA44"/>
<path d="M12.2607 17.2173H34.739V19.1303H12.2607V17.2173Z" fill="#FFDA44"/>
<path d="M34.8852 21.9999C34.8852 21.9999 29.6305 27.7391 23.5001 27.7391C17.3697 27.7391 17.3696 21.9999 17.3696 21.9999C17.3696 21.9999 17.3696 16.2607 23.5001 16.2607C29.6306 16.2607 34.8852 21.9999 34.8852 21.9999Z" fill="#F0F0F0"/>
<path d="M23.4999 27.7391C17.3694 27.7391 12.1147 21.9999 12.1147 21.9999C12.1147 21.9999 17.3694 16.2607 23.4999 16.2607" fill="black"/>
<path d="M19.4131 20.0869H21.4566V23.913H19.4131V20.0869Z" fill="#F0F0F0"/>
<path d="M25.5435 20.0869H27.5869V23.913H25.5435V20.0869Z" fill="black"/>
<path d="M8.17386 23.913C9.30245 23.913 10.2174 23.0565 10.2174 22C10.2174 20.9434 9.30245 20.0869 8.17386 20.0869C7.04527 20.0869 6.13037 20.9434 6.13037 22C6.13037 23.0565 7.04527 23.913 8.17386 23.913Z" fill="#0052B4"/>
<path d="M38.8262 23.913C39.9548 23.913 40.8697 23.0565 40.8697 22C40.8697 20.9434 39.9548 20.0869 38.8262 20.0869C37.6976 20.0869 36.7827 20.9434 36.7827 22C36.7827 23.0565 37.6976 23.913 38.8262 23.913Z" fill="#0052B4"/>
</g>
<defs>
<clipPath id="clip0_105_2551">
<rect width="47" height="44" fill="white"/>
</clipPath>
</defs>
</svg>
