<svg width="47" height="44" viewBox="0 0 47 44" fill="none" xmlns="http://www.w3.org/2000/svg">
<g clip-path="url(#clip0_105_2566)">
<path d="M23.5 44C36.4787 44 47 34.1503 47 22C47 9.84974 36.4787 0 23.5 0C10.5213 0 0 9.84974 0 22C0 34.1503 10.5213 44 23.5 44Z" fill="#FFDA44"/>
<path d="M18.3912 19.1305H46.8009C45.2988 8.33611 35.4395 0 23.4998 0C21.7452 0 20.036 0.181586 18.3911 0.52293V19.1305H18.3912Z" fill="#0052B4"/>
<path d="M12.2607 19.1302V2.6748C5.80789 5.97085 1.18858 12.0166 0.19873 19.1303H12.2607V19.1302Z" fill="#0052B4"/>
<path d="M12.2606 24.8696H0.19873C1.18858 31.9833 5.80789 38.0291 12.2607 41.325L12.2606 24.8696Z" fill="#0052B4"/>
<path d="M18.3911 24.8697V43.4772C20.036 43.8185 21.7452 44.0001 23.4998 44.0001C35.4395 44.0001 45.2988 35.664 46.8009 24.8696H18.3911V24.8697Z" fill="#0052B4"/>
</g>
<defs>
<clipPath id="clip0_105_2566">
<rect width="47" height="44" fill="white"/>
</clipPath>
</defs>
</svg>
