<svg width="47" height="44" viewBox="0 0 47 44" fill="none" xmlns="http://www.w3.org/2000/svg">
<g clip-path="url(#clip0_105_2576)">
<path d="M23.5 44C36.4787 44 47 34.1503 47 22C47 9.84974 36.4787 0 23.5 0C10.5213 0 0 9.84974 0 22C0 34.1503 10.5213 44 23.5 44Z" fill="#F0F0F0"/>
<path d="M23.5002 0C13.3961 0 4.7823 5.97025 1.46191 14.3479H45.5386C42.2182 5.97025 33.6044 0 23.5002 0V0Z" fill="#D80027"/>
<path d="M23.5002 44.0002C33.6044 44.0002 42.2182 38.03 45.5385 29.6523H1.46191C4.7823 38.03 13.3961 44.0002 23.5002 44.0002Z" fill="black"/>
<path d="M14.0415 16.7393L15.3095 20.3926H19.4131L16.0933 22.6509L17.3613 26.3044L14.0415 24.0464L10.7217 26.3044L11.9898 22.6509L8.66992 20.3926H12.7735L14.0415 16.7393Z" fill="#6DA544"/>
<path d="M32.9585 16.7393L34.2265 20.3926H38.3302L35.0103 22.6509L36.2783 26.3044L32.9585 24.0464L29.6387 26.3044L30.9067 22.6509L27.5869 20.3926H31.6905L32.9585 16.7393Z" fill="#6DA544"/>
</g>
<defs>
<clipPath id="clip0_105_2576">
<rect width="47" height="44" fill="white"/>
</clipPath>
</defs>
</svg>
