<svg width="46" height="44" viewBox="0 0 46 44" fill="none" xmlns="http://www.w3.org/2000/svg">
<g clip-path="url(#clip0_105_2583)">
<path d="M46 22C46 34.1502 35.7025 44 23 44C10.2975 44 0 34.1502 0 22C7.89996 14.4435 14.6 8.03481 23 0C35.7025 0 46 9.84981 46 22Z" fill="#D80027"/>
<path d="M23 22C23 9.84981 23 8.41741 23 0C10.2975 0 0 9.84981 0 22H23Z" fill="#0052B4"/>
<path d="M20.0003 12.8752L17.1913 14.1391L18.687 16.7412L15.6369 16.183L15.2503 19.1304L13.1259 16.9627L11.0012 19.1304L10.6148 16.183L7.56462 16.7411L9.06034 14.139L6.25146 12.8752L9.06043 11.6115L7.56462 9.00927L10.6147 9.56743L11.0013 6.62012L13.1259 8.7878L15.2504 6.62012L15.6369 9.56743L18.6871 9.00927L17.1913 11.6115L20.0003 12.8752Z" fill="#F0F0F0"/>
<path d="M13.1261 16.9701C15.4906 16.9701 17.4074 15.1367 17.4074 12.875C17.4074 10.6133 15.4906 8.77979 13.1261 8.77979C10.7615 8.77979 8.84473 10.6133 8.84473 12.875C8.84473 15.1367 10.7615 16.9701 13.1261 16.9701Z" fill="#0052B4"/>
<path d="M13.1255 15.0576C11.8676 15.0576 10.8442 14.0787 10.8442 12.8755C10.8442 11.6723 11.8676 10.6934 13.1255 10.6934C14.3834 10.6934 15.4068 11.6723 15.4068 12.8755C15.4067 14.0787 14.3832 15.0576 13.1255 15.0576Z" fill="#F0F0F0"/>
</g>
<defs>
<clipPath id="clip0_105_2583">
<rect width="46" height="44" fill="white"/>
</clipPath>
</defs>
</svg>
