<svg width="47" height="44" viewBox="0 0 47 44" fill="none" xmlns="http://www.w3.org/2000/svg">
<g clip-path="url(#clip0_105_2589)">
<path d="M2.33182 12.435C0.837922 15.3273 0 18.5722 0 22.0002C0 25.4283 0.837922 28.6731 2.33182 31.5654L23.5 33.4785L44.6682 31.5654C46.1621 28.6731 47 25.4283 47 22.0002C47 18.5722 46.1621 15.3273 44.6682 12.435L23.5 10.522L2.33182 12.435Z" fill="#F0F0F0"/>
<path d="M2.33252 31.5654C6.13355 38.9243 14.1831 44.0002 23.4999 44.0002C32.8166 44.0002 40.8663 38.9243 44.6672 31.5654H2.33252Z" fill="#6DA544"/>
<path d="M2.33252 12.4348H44.6672C40.8663 5.07598 32.8166 0 23.4999 0C14.1831 0 6.13355 5.07598 2.33252 12.4348Z" fill="#D80027"/>
<path d="M19.4131 27.7392H27.587V24.487L25.9522 25.2522L23.5001 22.9565L21.0479 25.2522L19.4131 24.487V27.7392Z" fill="#FFDA44"/>
<path d="M14.7365 23.9131L15.117 25.0091H16.348L15.352 25.6866L15.7325 26.7826L14.7365 26.1053L13.7405 26.7826L14.121 25.6866L13.125 25.0091H14.356L14.7365 23.9131Z" fill="#FFDA44"/>
<path d="M15.9162 20.0869L16.2967 21.183H17.5277L16.5317 21.8604L16.9121 22.9565L15.9162 22.2791L14.9202 22.9565L15.3007 21.8604L14.3047 21.183H15.5357L15.9162 20.0869Z" fill="#FFDA44"/>
<path d="M19.2878 17.2178L19.6683 18.3138H20.8992L19.9034 18.9913L20.2837 20.0873L19.2878 19.41L18.2919 20.0873L18.6723 18.9913L17.6763 18.3138H18.9074L19.2878 17.2178Z" fill="#FFDA44"/>
<path d="M32.2638 23.9131L31.8833 25.0091H30.6523L31.6483 25.6866L31.2678 26.7826L32.2638 26.1053L33.2597 26.7826L32.8793 25.6866L33.8753 25.0091H32.6443L32.2638 23.9131Z" fill="#FFDA44"/>
<path d="M31.0841 20.0869L30.7037 21.183H29.4727L30.4687 21.8604L30.0882 22.9565L31.0841 22.2791L32.0801 22.9565L31.6996 21.8604L32.6956 21.183H31.4646L31.0841 20.0869Z" fill="#FFDA44"/>
<path d="M27.7125 17.2178L27.332 18.3138H26.1011L27.0969 18.9913L26.7165 20.0873L27.7125 19.41L28.7084 20.0873L28.328 18.9913L29.3239 18.3138H28.0929L27.7125 17.2178Z" fill="#FFDA44"/>
<path d="M23.5002 15.7827L23.8807 16.8788H25.1117L24.1157 17.5562L24.4962 18.6523L23.5002 17.9749L22.5042 18.6523L22.8847 17.5562L21.8887 16.8788H23.1197L23.5002 15.7827Z" fill="#FFDA44"/>
</g>
<defs>
<clipPath id="clip0_105_2589">
<rect width="47" height="44" fill="white"/>
</clipPath>
</defs>
</svg>
