<svg width="46" height="44" viewBox="0 0 46 44" fill="none" xmlns="http://www.w3.org/2000/svg">
<g clip-path="url(#clip0_105_2602)">
<path d="M23 44C35.7025 44 46 34.1503 46 22C46 9.84974 35.7025 0 23 0C10.2975 0 0 9.84974 0 22C0 34.1503 10.2975 44 23 44Z" fill="#FFDA44"/>
<path d="M6.73646 37.5563C7.70129 38.4792 8.73072 39.3022 9.81055 40.0268L41.8461 9.38403C41.0888 8.35114 40.2282 7.36647 39.2634 6.44359C38.2985 5.52071 37.2691 4.69777 36.1893 3.97314L4.15381 34.616C4.91119 35.6486 5.77172 36.6333 6.73646 37.5563V37.5563Z" fill="black"/>
<path d="M6.73657 6.44362C-0.519389 13.3843 -1.91242 23.8077 2.55488 32.0872L33.5458 2.44383C24.8899 -1.82924 13.9926 -0.496697 6.73657 6.44362V6.44362Z" fill="#6DA544"/>
<path d="M39.2632 37.5562C46.5192 30.6157 47.9121 20.1921 43.445 11.9126L12.4541 41.5561C21.1097 45.8291 32.0072 44.4967 39.2632 37.5562Z" fill="#338AF3"/>
</g>
<defs>
<clipPath id="clip0_105_2602">
<rect width="46" height="44" fill="white"/>
</clipPath>
</defs>
</svg>
