<svg width="47" height="44" viewBox="0 0 47 44" fill="none" xmlns="http://www.w3.org/2000/svg">
<g clip-path="url(#clip0_105_2607)">
<path d="M23.5 44C36.4787 44 47 34.1503 47 22C47 9.84974 36.4787 0 23.5 0C10.5213 0 0 9.84974 0 22C0 34.1503 10.5213 44 23.5 44Z" fill="#F0F0F0"/>
<path d="M45.5383 14.3477H1.46168C0.517 16.731 0 19.3087 0 21.9998C0 24.6908 0.517 27.2686 1.46168 29.6519H45.5384C46.483 27.2686 47 24.6908 47 21.9998C47 19.3087 46.483 16.731 45.5383 14.3477Z" fill="#0052B4"/>
<path d="M23.5002 0C16.3776 0 9.99562 2.96691 5.68604 7.65213H41.3143C37.0048 2.96691 30.6228 0 23.5002 0V0Z" fill="#D80027"/>
<path d="M41.3144 36.3477H5.68604C9.99562 41.0329 16.3776 43.9998 23.5002 43.9998C30.6228 43.9998 37.0048 41.0329 41.3144 36.3477Z" fill="#D80027"/>
</g>
<defs>
<clipPath id="clip0_105_2607">
<rect width="47" height="44" fill="white"/>
</clipPath>
</defs>
</svg>
