<svg width="46" height="44" viewBox="0 0 46 44" fill="none" xmlns="http://www.w3.org/2000/svg">
<g clip-path="url(#clip0_105_2613)">
<path d="M23 44C35.7025 44 46 34.1503 46 22C46 9.84974 35.7025 0 23 0C10.2975 0 0 9.84974 0 22C0 34.1503 10.2975 44 23 44Z" fill="#F0F0F0"/>
<path d="M10.0366 3.82611C13.7279 1.41247 18.1911 0 22.9999 0C27.8087 0 32.272 1.41247 35.9632 3.82611L22.9999 4.78259L10.0366 3.82611Z" fill="#FFDA44"/>
<path d="M6.73774 37.5553L17.3431 27.4112L23 18.174L28.6563 27.4106L39.2623 37.5553C43.4247 33.5743 46 28.0752 46 22.0001C46 14.4495 42.0227 7.78815 35.9633 3.82617H10.0367C3.97729 7.78815 0 14.4495 0 22.0001C0 28.0752 2.57528 33.5743 6.73774 37.5553V37.5553Z" fill="#D80027"/>
<path d="M44.2526 30.4239L27.4365 23.7588L28.6553 27.4098L39.2621 37.5554C41.3799 35.5299 43.0868 33.1115 44.2526 30.4239Z" fill="#0052B4"/>
<path d="M46 21.9999C46 19.0157 45.3782 16.1707 44.2527 13.5762L23 21.9999H46Z" fill="#0052B4"/>
<path d="M39.2623 6.44486C38.2513 5.47806 37.1472 4.60038 35.9633 3.82617H30.8732L23 22.0001L39.2623 6.44486Z" fill="#0052B4"/>
<path d="M23.0001 3.82617H15.127L23.0001 22.0001V3.82617Z" fill="#0052B4"/>
<path d="M6.73793 6.44482C4.62013 8.47037 2.91337 10.8887 1.74756 13.5763L23.0002 22L6.73793 6.44482Z" fill="#0052B4"/>
<path d="M0 22C0 24.9842 0.621809 27.8291 1.74728 30.4237L23 22H0Z" fill="#0052B4"/>
<path d="M10.0366 40.1738C13.7278 42.5875 18.1911 43.9999 22.9999 43.9999C27.8087 43.9999 32.272 42.5875 35.9632 40.1738H10.0366Z" fill="#FFDA44"/>
<path d="M23 21.9998L28.6568 27.4107C30.1046 26.0259 31 24.1129 31 21.9998C31 17.7736 27.4183 14.3477 23 14.3477C18.5818 14.3477 15 17.7736 15 21.9998C15 24.1128 15.8954 26.0259 17.3432 27.4107L23 21.9998Z" fill="#FFDA44"/>
<path d="M26.5001 32.9997C26.5001 34.8487 24.9329 35.391 23 35.391C21.0671 35.391 19.5 34.8487 19.5 32.9997C19.5 31.1508 21.0671 29.6519 23 29.6519C24.9329 29.6519 26.5001 31.1508 26.5001 32.9997Z" fill="#FFDA44"/>
<path d="M26.5001 33C26.5001 34.8489 24.9329 36.3479 23 36.3479C21.0671 36.3479 19.5 34.8489 19.5 33" fill="#0052B4"/>
</g>
<defs>
<clipPath id="clip0_105_2613">
<rect width="46" height="44" fill="white"/>
</clipPath>
</defs>
</svg>
