<svg width="47" height="44" viewBox="0 0 47 44" fill="none" xmlns="http://www.w3.org/2000/svg">
<g clip-path="url(#clip0_105_2629)">
<path d="M23.5 44C36.4787 44 47 34.1503 47 22C47 9.84974 36.4787 0 23.5 0C10.5213 0 0 9.84974 0 22C0 34.1503 10.5213 44 23.5 44Z" fill="#FFDA44"/>
<path d="M23.5002 0C23.4831 0.000171875 22.4785 8.8 22.4785 8.8H42.3013C38.0139 3.45666 31.1884 0 23.5002 0Z" fill="#496E2D"/>
<path d="M23.5002 44.0002C31.1884 44.0002 38.014 40.5435 42.3012 35.2002H4.69922C8.9865 40.5435 15.8121 44.0002 23.5002 44.0002Z" fill="#496E2D"/>
<path d="M46.5297 17.6001H22.4785L23.5002 26.4001H46.5297C46.8381 24.9784 47.0002 23.507 47.0002 22.0001C47.0002 20.4932 46.8379 19.0218 46.5297 17.6001V17.6001Z" fill="#496E2D"/>
<path d="M23.5 26.4C23.5 21.8087 23.5 5.16519 23.5 0C10.5214 0 0 9.84981 0 22C0 23.5069 0.162297 24.9783 0.470551 26.4H23.5Z" fill="#D80027"/>
<path d="M12.9668 10.522L14.4884 14.9061H19.4129L15.4291 17.6159L16.9506 22.0002L12.9668 19.2906L8.98299 22.0002L10.5047 17.6159L6.521 14.9061H11.4453L12.9668 10.522Z" fill="#F0F0F0"/>
</g>
<defs>
<clipPath id="clip0_105_2629">
<rect width="47" height="44" fill="white"/>
</clipPath>
</defs>
</svg>
