<svg width="47" height="44" viewBox="0 0 47 44" fill="none" xmlns="http://www.w3.org/2000/svg">
<g clip-path="url(#clip0_105_2637)">
<path d="M23.5 44C36.4787 44 47 34.1503 47 22C47 9.84974 36.4787 0 23.5 0C10.5213 0 0 9.84974 0 22C0 34.1503 10.5213 44 23.5 44Z" fill="#FFDA44"/>
<path d="M37.8043 10.5218C37.5936 11.4701 37.4978 12.4801 37.4978 13.4869C37.4978 19.2906 41.1935 24.3138 46.4897 26.5751C46.8232 25.099 47 23.5689 47 22C47 9.84981 36.4786 0 23.5 0C10.5214 0 0 9.84981 0 22C0 34.1502 10.5214 44 23.5 44C31.5489 44 38.6518 40.2108 42.8871 34.4348H13.2826V31.5653H44.6682C44.9894 30.9434 45.2795 30.305 45.5384 29.6522H13.2826L37.8043 10.5218Z" fill="#0052B4"/>
<path d="M17.2644 11.4785L17.7717 12.94H19.413L18.0852 13.8433L18.5924 15.3046L17.2644 14.4015L15.9366 15.3046L16.4437 13.8433L15.1157 12.94H16.7571L17.2644 11.4785Z" fill="#F0F0F0"/>
<path d="M10.5968 22L11.231 23.8269H13.2826L11.6227 24.9557L12.2568 26.7826L10.5968 25.6535L8.93696 26.7826L9.571 24.9557L7.91113 23.8269H9.96279L10.5968 22Z" fill="#F0F0F0"/>
<path d="M10.5968 6.6958L11.231 8.52275H13.2826L11.6227 9.65153L12.2568 11.4784L10.5968 10.3493L8.93696 11.4784L9.571 9.65153L7.91113 8.52275H9.96279L10.5968 6.6958Z" fill="#F0F0F0"/>
<path d="M5.48795 15.3047L6.12208 17.1316H8.17365L6.51378 18.2604L7.14791 20.0873L5.48795 18.9582L3.82808 20.0873L4.46212 18.2604L2.80225 17.1316H4.85381L5.48795 15.3047Z" fill="#F0F0F0"/>
</g>
<defs>
<clipPath id="clip0_105_2637">
<rect width="47" height="44" fill="white"/>
</clipPath>
</defs>
</svg>
