<svg width="47" height="44" viewBox="0 0 47 44" fill="none" xmlns="http://www.w3.org/2000/svg">
<g clip-path="url(#clip0_105_2645)">
<path d="M23.5 44C36.4787 44 47 34.1503 47 22C47 9.84974 36.4787 0 23.5 0C10.5213 0 0 9.84974 0 22C0 34.1503 10.5213 44 23.5 44Z" fill="#F0F0F0"/>
<path d="M15.3263 11.4784V8.60889H12.261V11.4784H9.1958V14.3481H12.261V17.2176H15.3263V14.3481H18.3915V11.4784H15.3263Z" fill="#D80027"/>
<path d="M23.5 0V22C10.5214 22.0001 5.36323 22 0 22.0001C0 34.1502 10.5214 44 23.5 44C36.4786 44 47 34.1502 47 22C47 9.84981 36.4786 0 23.5 0Z" fill="#D80027"/>
</g>
<defs>
<clipPath id="clip0_105_2645">
<rect width="47" height="44" fill="white"/>
</clipPath>
</defs>
</svg>
