<svg width="47" height="44" viewBox="0 0 47 44" fill="none" xmlns="http://www.w3.org/2000/svg">
<g clip-path="url(#clip0_105_2650)">
<path d="M46.1905 16.2608C43.4938 6.89399 34.3577 0 23.5 0C12.6424 0 3.5062 6.89399 0.80957 16.2608L23.5 17.2174L46.1905 16.2608Z" fill="#A2001D"/>
<path d="M0.80957 27.7393C3.5062 37.106 12.6424 44.0001 23.5 44.0001C34.3577 44.0001 43.4938 37.1061 46.1905 27.7393L23.5 26.7827L0.80957 27.7393Z" fill="#A2001D"/>
<path d="M46.1904 16.2607H0.809557C0.282734 18.0906 0 20.0141 0 21.9999C0 23.9857 0.282734 25.9092 0.809557 27.7391H46.1905C46.7173 25.9092 47 23.9857 47 21.9999C47 20.0141 46.7173 18.0906 46.1904 16.2607V16.2607Z" fill="#6DA544"/>
</g>
<defs>
<clipPath id="clip0_105_2650">
<rect width="47" height="44" fill="white"/>
</clipPath>
</defs>
</svg>
