<svg width="47" height="44" viewBox="0 0 47 44" fill="none" xmlns="http://www.w3.org/2000/svg">
<g clip-path="url(#clip0_105_2655)">
<path d="M12.7244 2.44287C10.6206 3.45943 8.64575 4.79189 6.88215 6.44292C5.11846 8.09403 3.69515 9.94281 2.60938 11.9123L17.7198 27.4111L34.2753 41.557C36.3791 40.5404 38.354 39.208 40.1176 37.557C41.8813 35.9059 43.3045 34.0571 44.3904 32.0876L29.2799 16.5888L12.7244 2.44287Z" fill="#F0F0F0"/>
<path d="M40.1176 37.5568C41.1034 36.6339 41.9826 35.6492 42.7566 34.6163L10.0232 3.97217C8.91994 4.69671 7.86804 5.51982 6.88223 6.4427C5.89643 7.36558 5.0172 8.35034 4.24316 9.38331L36.9766 40.0272C38.0798 39.3027 39.1318 38.4797 40.1176 37.5568Z" fill="black"/>
<path d="M6.88219 37.5573C14.2963 44.4982 25.431 45.8306 34.2753 41.5573L2.6095 11.9126C-1.9551 20.1923 -0.531603 30.6164 6.88219 37.5573V37.5573Z" fill="#D80027"/>
<path d="M40.1177 6.44301C32.7036 -0.497818 21.5689 -1.83019 12.7246 2.44288L44.3904 32.0877C48.9551 23.808 47.5319 13.3838 40.1177 6.44301V6.44301Z" fill="#D80027"/>
</g>
<defs>
<clipPath id="clip0_105_2655">
<rect width="47" height="44" fill="white"/>
</clipPath>
</defs>
</svg>
