<svg width="46" height="45" viewBox="0 0 46 45" fill="none" xmlns="http://www.w3.org/2000/svg">
<g clip-path="url(#clip0_105_2661)">
<path d="M23 45C35.7025 45 46 34.9264 46 22.5C46 10.0736 35.7025 0 23 0C10.2975 0 0 10.0736 0 22.5C0 34.9264 10.2975 45 23 45Z" fill="#D80027"/>
<path d="M23 33.261C29.0752 33.261 34 28.4432 34 22.5001C34 16.5571 29.0752 11.7393 23 11.7393C16.9249 11.7393 12 16.5571 12 22.5001C12 28.4432 16.9249 33.261 23 33.261Z" fill="#F0F0F0"/>
<path d="M24.3552 18.3853L26.2422 20.9292L29.2984 19.9598L27.4084 22.5016L29.2953 25.0455L26.2401 24.0724L24.35 26.6142L24.352 23.4711L21.2969 22.498L24.3532 21.5286L24.3552 18.3853Z" fill="#D80027"/>
<path d="M25.4999 28.8587C21.9102 28.8587 18.9999 26.0117 18.9999 22.5C18.9999 18.9882 21.9102 16.1412 25.4999 16.1412C26.6192 16.1412 27.6725 16.4181 28.5919 16.9055C27.1495 15.5256 25.177 14.6738 23 14.6738C18.5818 14.6738 15 18.1777 15 22.4999C15 26.8221 18.5818 30.3259 23 30.3259C25.177 30.3259 27.1496 29.4742 28.5919 28.0942C27.6725 28.5818 26.6192 28.8587 25.4999 28.8587Z" fill="#D80027"/>
</g>
<defs>
<clipPath id="clip0_105_2661">
<rect width="46" height="45" fill="white"/>
</clipPath>
</defs>
</svg>
