<svg width="47" height="45" viewBox="0 0 47 45" fill="none" xmlns="http://www.w3.org/2000/svg">
<g clip-path="url(#clip0_105_2700)">
<path d="M47 22.5C47 34.9263 36.4786 45 23.5 45C10.5214 45 0 34.9263 0 22.5C0 22.5054 23.5 0.00246094 23.5 0C36.4786 0 47 10.0737 47 22.5Z" fill="#0052B4"/>
<path d="M23.437 22.5001H23.4999C23.4999 22.4799 23.4999 22.4602 23.4999 22.4399C23.479 22.4601 23.458 22.4801 23.437 22.5001Z" fill="#F0F0F0"/>
<path d="M23.5 11.7391C23.5 7.78008 23.5 5.18599 23.5 0H23.4961C10.5191 0.00210938 0 10.0748 0 22.5H12.2609V15.8897L19.165 22.5H23.4372C23.4581 22.48 23.4791 22.4599 23.5001 22.4398C23.5001 20.9239 23.5001 19.5714 23.5001 18.3496L16.5958 11.7391H23.5Z" fill="#F0F0F0"/>
<path d="M11.8893 2.93457C8.21386 4.93839 5.15821 7.86392 3.06543 11.383V22.4998H9.1959V8.80435V8.80417H23.5002C23.5002 6.95293 23.5002 5.18932 23.5002 2.93457H11.8893Z" fill="#D80027"/>
<path d="M23.5004 19.7332L15.151 11.7393H12.2612V11.7394L23.5002 22.5001H23.5004C23.5004 22.5001 23.5004 20.5922 23.5004 19.7332V19.7332Z" fill="#D80027"/>
<path d="M26.5654 11.7393V22.5001C26.5654 27.7419 33.7176 29.348 33.7176 29.348C33.7176 29.348 40.8698 27.7419 40.8698 22.5001V11.7393H26.5654Z" fill="#FFDA44"/>
<path d="M32.6959 15.6523C32.6959 16.7329 31.781 19.5654 30.6524 19.5654C29.5237 19.5654 28.6089 16.7329 28.6089 15.6523C28.6089 14.5717 30.6524 13.6958 30.6524 13.6958C30.6524 13.6958 32.6959 14.5717 32.6959 15.6523Z" fill="#FF9811"/>
<path d="M38.118 17.7832C38.4478 17.0129 38.7043 15.8868 38.7043 15.3263C38.7043 14.4257 37.4781 13.6958 37.4781 13.6958C37.4781 13.6958 36.252 14.4258 36.252 15.3263C36.252 15.8868 36.5085 17.0129 36.8382 17.7832L36.1304 19.3134C36.5464 19.4753 37.0012 19.5653 37.478 19.5653C37.9549 19.5653 38.4097 19.4753 38.8257 19.3134L38.118 17.7832Z" fill="#A2001D"/>
<path d="M32.1848 22.5002C32.1848 22.5002 31.1631 24.4567 31.1631 26.4133H36.2718C36.2717 24.4567 35.25 22.5002 35.25 22.5002L33.7173 21.522L32.1848 22.5002Z" fill="#6DA544"/>
<path d="M35.2499 22.5V22.0109C35.2499 21.2005 34.5637 20.5435 33.7172 20.5435C32.8708 20.5435 32.1846 21.2004 32.1846 22.0109V22.5H35.2499Z" fill="#D80027"/>
</g>
<defs>
<clipPath id="clip0_105_2700">
<rect width="47" height="45" fill="white"/>
</clipPath>
</defs>
</svg>
