<svg width="47" height="45" viewBox="0 0 47 45" fill="none" xmlns="http://www.w3.org/2000/svg">
<g clip-path="url(#clip0_105_2667)">
<path d="M23.5 45C36.4787 45 47 34.9264 47 22.5C47 10.0736 36.4787 0 23.5 0C10.5213 0 0 10.0736 0 22.5C0 34.9264 10.5213 45 23.5 45Z" fill="#D80027"/>
<path d="M22.5379 18.3853L24.466 20.9292L27.5887 19.9598L25.6575 22.5016L27.5854 25.0455L24.4638 24.0724L22.5327 26.6142L22.5347 23.4711L19.4131 22.498L22.5358 21.5286L22.5379 18.3853Z" fill="#F0F0F0"/>
<path d="M17.2756 28.8587C13.6077 28.8587 10.6343 26.0117 10.6343 22.5C10.6343 18.9882 13.6077 16.1412 17.2756 16.1412C18.4192 16.1412 19.4952 16.4182 20.4347 16.9055C18.9609 15.5255 16.9453 14.6738 14.7212 14.6738C10.2068 14.6738 6.54736 18.1777 6.54736 22.4999C6.54736 26.8221 10.2069 30.3259 14.7212 30.3259C16.9455 30.3259 18.961 29.4742 20.4347 28.0942C19.4952 28.5817 18.4192 28.8587 17.2756 28.8587V28.8587Z" fill="#F0F0F0"/>
</g>
<defs>
<clipPath id="clip0_105_2667">
<rect width="47" height="45" fill="white"/>
</clipPath>
</defs>
</svg>
