<svg width="46" height="45" viewBox="0 0 46 45" fill="none" xmlns="http://www.w3.org/2000/svg">
<g clip-path="url(#clip0_105_2672)">
<path d="M22.9999 0C21.2826 0 19.6098 0.185713 18 0.534814L17 22.4999L18 44.4651C19.6099 44.8142 21.2827 45 22.9999 45C35.7024 45 45.9999 34.9263 45.9999 22.4999C45.9998 10.0736 35.7024 0 22.9999 0V0Z" fill="#496E2D"/>
<path d="M5.99995 7.34521C2.27287 11.3439 0 16.6621 0 22.5C0 28.3379 2.27296 33.6561 6.00004 37.655L7 22.5L5.99995 7.34521Z" fill="#496E2D"/>
<path d="M33.6397 16.9715C34.7713 13.886 33.5 10.5302 30.7717 8.85889C31.2624 8.92138 31.7537 9.0344 32.2385 9.20447C35.8774 10.4817 37.769 14.4027 36.4634 17.9624C35.1578 21.5224 31.1497 23.3727 27.5107 22.0955C27.0258 21.9253 26.5731 21.7069 26.1538 21.45C29.346 21.8567 32.5081 20.0569 33.6397 16.9715V16.9715Z" fill="#F0F0F0"/>
<path d="M27.3632 8.01318L26.3798 9.25613L24.8679 8.72536L25.7722 10.0242L24.7891 11.267L26.3312 10.827L27.2358 12.1257L27.2843 10.5549L28.8266 10.1148L27.3146 9.58423L27.3632 8.01318Z" fill="#F0F0F0"/>
<path d="M30.0181 12.063L29.0347 13.3059L27.5226 12.7751L28.4271 14.0739L27.4438 15.3167L28.986 14.8765L29.8906 16.1755L29.9393 14.6046L31.4814 14.1645L29.9694 13.6338L30.0181 12.063Z" fill="#F0F0F0"/>
<path d="M22.682 9.48828L21.6987 10.7311L20.1867 10.2005L21.0912 11.4992L20.1079 12.7421L21.65 12.302L22.5545 13.6008L22.6032 12.03L24.1454 11.5899L22.6334 11.0592L22.682 9.48828Z" fill="#F0F0F0"/>
<path d="M22.5742 14.1274L21.591 15.3703L20.0789 14.8396L20.9834 16.1385L20 17.3812L21.5423 16.9413L22.4468 18.2399L22.4954 16.6692L24.0377 16.2291L22.5255 15.6983L22.5742 14.1274Z" fill="#F0F0F0"/>
<path d="M27.0869 15.7109L26.1036 16.9537L24.5916 16.423L25.4961 17.7219L24.5127 18.9646L26.055 18.5246L26.9595 19.8234L27.0081 18.2525L28.5504 17.8125L27.0382 17.2818L27.0869 15.7109Z" fill="#F0F0F0"/>
<path d="M6 7.34496V37.6547C9.13375 41.0168 13.2962 43.4448 18 44.4649V0.534668C13.2961 1.55473 9.13384 3.9827 6 7.34496V7.34496Z" fill="#D80027"/>
<path d="M10.5793 11.8462L8.57031 10.3821V8.31165L10.5793 6.84766H13.4206L15.4296 8.31165V10.3821L13.4206 11.8462H10.5793Z" fill="#F0F0F0"/>
<path d="M12 6.84766H10.5793L8.57031 8.31165V9.32389H12V6.84766Z" fill="#FF9811"/>
<path d="M12 11.8459H13.4206L15.4296 10.3819V9.32568H12V11.8459Z" fill="#FF9811"/>
<path d="M10.5793 38.1518L8.57031 36.6878V34.6174L10.5793 33.1533H13.4206L15.4296 34.6174V36.6878L13.4206 38.1518H10.5793Z" fill="#F0F0F0"/>
<path d="M12 33.1533H10.5793L8.57031 34.6174V35.6296H12V33.1533Z" fill="#FF9811"/>
<path d="M12 38.152H13.4206L15.4296 36.6879V35.6318H12V38.152Z" fill="#FF9811"/>
<path d="M10.5793 24.9995L8.57031 23.5354V21.4651L10.5793 20.001H13.4206L15.4296 21.4651V23.5354L13.4206 24.9995H10.5793Z" fill="#496E2D"/>
<path d="M15.4999 28.2204H14.6248V27.3644H13.0872L11.9999 26.3008L10.9127 27.3644H9.37499V28.2204H8.5V29.9323H9.37499V30.7883H10.9126L12 31.852L13.0872 30.7883H14.6248V29.9323H15.4999V28.2204Z" fill="#496E2D"/>
<path d="M15.4999 15.0677H14.6248V14.2116H13.0872L11.9999 13.1479L10.9127 14.2116H9.37499V15.0677H8.5V16.7796H9.37499V17.6356H10.9126L12 18.6994L13.0872 17.6356H14.6248V16.7796H15.4999V15.0677Z" fill="#496E2D"/>
<path d="M11 21.5215H13V23.478H11V21.5215Z" fill="#D80027"/>
<path d="M12 16.9013C12.5522 16.9013 12.9999 16.4633 12.9999 15.923C12.9999 15.3828 12.5522 14.9448 12 14.9448C11.4477 14.9448 11 15.3828 11 15.923C11 16.4633 11.4477 16.9013 12 16.9013Z" fill="#D80027"/>
<path d="M12 30.0551C12.5522 30.0551 12.9999 29.6171 12.9999 29.0769C12.9999 28.5366 12.5522 28.0986 12 28.0986C11.4477 28.0986 11 28.5366 11 29.0769C11 29.6171 11.4477 30.0551 12 30.0551Z" fill="#D80027"/>
</g>
<defs>
<clipPath id="clip0_105_2672">
<rect width="46" height="45" fill="white"/>
</clipPath>
</defs>
</svg>
