<svg width="46" height="45" viewBox="0 0 46 45" fill="none" xmlns="http://www.w3.org/2000/svg">
<g clip-path="url(#clip0_105_2714)">
<path d="M46 22.5C46 34.9263 35.7025 45 23.0001 45C10.2975 45 0 34.9263 0 22.5C0 22.5054 23.0001 0.00246094 23.0001 0C35.7025 0 46 10.0737 46 22.5Z" fill="#338AF3"/>
<path d="M11 22.4999H18.7573L12 14.6738L11 17.6086V22.4999Z" fill="#0052B4"/>
<path d="M23 18.3495L15 10.7607H23L23 18.3495Z" fill="#0052B4"/>
<path d="M22.9385 22.5001H23C23 22.4799 23 22.4602 23 22.4399C22.9795 22.4601 22.9591 22.4801 22.9385 22.5001Z" fill="#F0F0F0"/>
<path d="M23.0001 11.7391C23.0001 7.78008 23.0001 5.1859 23.0001 0H22.9962C10.2954 0.00210938 0 10.0748 0 22.5H12.0001V15.8897L18.7573 22.5H22.9386C22.9591 22.48 22.9796 22.4599 23.0002 22.4398C23.0002 20.9239 23.0002 19.5714 23.0002 18.3496L16.2427 11.7391H23.0001Z" fill="#F0F0F0"/>
<path d="M11.6361 2.93457C8.03889 4.93839 5.04835 7.86392 3 11.383V22.4998H9.00004V8.80435V8.80417H23C23 6.95293 23 5.18932 23 2.93457H11.6361Z" fill="#D80027"/>
<path d="M23 19.7332L14.8283 11.7393H12V11.7394L22.9998 22.5001H23C23 22.5001 23 20.5922 23 19.7332V19.7332Z" fill="#D80027"/>
<path d="M25.1029 37.1738L25.5994 38.6685H27.2059L25.9063 39.5922L26.4027 41.0868L25.1029 40.1632L23.8033 41.0868L24.2998 39.5922L23 38.6685H24.6064L25.1029 37.1738Z" fill="#FFDA44"/>
<path d="M37.8969 27.3911L38.3933 28.8858H39.9998L38.7002 29.8096L39.1968 31.3042L37.8969 30.3805L36.5973 31.3042L37.0938 29.8096L35.7939 28.8858H37.4004L37.8969 27.3911Z" fill="#FFDA44"/>
<path d="M41.1029 12.7173L41.5994 14.212H43.2059L41.9063 15.1357L42.4027 16.6303L41.1029 15.7066L39.8033 16.6303L40.2998 15.1357L39 14.212H40.6065L41.1029 12.7173Z" fill="#FFDA44"/>
<path d="M41.8969 23.478L42.3933 24.9728H43.9998L42.7002 25.8965L43.1967 27.3911L41.8969 26.4675L40.5973 27.3911L41.0938 25.8965L39.7939 24.9728H41.4004L41.8969 23.478Z" fill="#FFDA44"/>
<path d="M27.4065 33.6584L28.8381 34.3719L29.974 33.2607L29.7228 34.8128L31.1541 35.5263L29.5673 35.7722L29.316 37.3245L28.5868 35.9241L27 36.1701L28.1359 35.0589L27.4065 33.6584Z" fill="#FFDA44"/>
<path d="M27.4065 27.7888L28.8381 28.5023L29.974 27.3911L29.7228 28.9433L31.1541 29.6567L29.5673 29.9026L29.316 31.4548L28.5868 30.0545L27 30.3005L28.1359 29.1893L27.4065 27.7888Z" fill="#FFDA44"/>
<path d="M32.4065 31.5514L33.8381 32.265L34.974 31.1538L34.7228 32.7059L36.1541 33.4194L34.5673 33.6653L34.316 35.2175L33.5868 33.8171L32 34.0632L33.1359 32.952L32.4065 31.5514Z" fill="#FFDA44"/>
<path d="M32.4065 18.9846L33.8381 19.6981L34.974 18.5869L34.7228 20.1391L36.1541 20.8525L34.5673 21.0984L34.316 22.6506L33.5868 21.2504L32 21.4963L33.1359 20.3851L32.4065 18.9846Z" fill="#FFDA44"/>
<path d="M37.2522 18.8337L38.6838 19.5472L39.8197 18.436L39.5684 19.9882L40.9998 20.7016L39.413 20.9475L39.1617 22.4997L38.4325 21.0995L36.8457 21.3454L37.9816 20.2342L37.2522 18.8337Z" fill="#FFDA44"/>
</g>
<defs>
<clipPath id="clip0_105_2714">
<rect width="46" height="45" fill="white"/>
</clipPath>
</defs>
</svg>
