<svg width="47" height="45" viewBox="0 0 47 45" fill="none" xmlns="http://www.w3.org/2000/svg">
<g clip-path="url(#clip0_105_2736)">
<path d="M41.0142 37.5C44.7359 33.5192 47 28.2632 47 22.5C47 16.7369 44.7358 11.4807 41.0141 7.5L23.5 5.86963L5.98589 7.5C2.26417 11.4807 0 16.7369 0 22.5C0 28.2632 2.26408 33.5192 5.9858 37.5L23.5 39.1304L41.0142 37.5Z" fill="#FFDA44"/>
<path d="M5.98584 7.49997H41.0141C36.7112 2.8974 30.4593 0 23.4999 0C16.5406 0 10.2887 2.8974 5.98584 7.49997Z" fill="black"/>
<path d="M0 22.5001L23.5 24.4566L47 22.5001C47 19.87 46.5272 17.346 45.6609 15H1.33913C0.472846 17.346 0 19.87 0 22.5001H0Z" fill="#D80027"/>
<path d="M1.33913 30H45.6611C46.5272 27.654 47 25.13 47 22.5H0C0 25.13 0.472846 27.654 1.33913 30V30Z" fill="black"/>
<path d="M41.0142 37.5H5.98584C10.2887 42.1027 16.5406 45.0001 23.5 45.0001C30.4595 45.0001 36.7114 42.1027 41.0142 37.5Z" fill="#D80027"/>
<path d="M31.3419 22.4998C31.3419 26.6468 27.8313 30.008 23.5 30.008C19.1688 30.008 15.6582 26.6468 15.6582 22.4998C15.6582 18.3529 19.1688 14.9917 23.5 14.9917C27.8313 14.9917 31.3419 18.3529 31.3419 22.4998Z" fill="#F0F0F0"/>
<path d="M26.3728 22.883L23.5001 21.6912C23.5001 21.6912 24.1722 19.5552 24.208 19.409C24.2342 19.3022 24.2481 19.1908 24.2481 19.0764C24.2481 18.6712 24.0765 18.3043 23.7991 18.0389L24.5216 17.3472C24.0594 16.9046 23.4207 16.6309 22.7154 16.6309C22.01 16.6309 21.3714 16.9046 20.9092 17.3472L21.6316 18.0389C21.3542 18.3044 21.1827 18.6712 21.1827 19.0764C21.1827 19.2246 21.2061 19.3674 21.2488 19.5023L20.1611 20.5437H22.1381C22.1381 20.5437 21.3207 21.7191 20.8745 22.6844C20.4283 23.6496 20.8806 24.828 21.9119 25.2669L22.5082 25.5206L23.5001 26.4133V27.3915L22.4784 28.3697H24.5219V26.4132L25.4542 25.5205H27.3827C27.392 25.5021 27.4017 25.4842 27.4105 25.4654C27.8687 24.4781 27.4042 23.3218 26.3728 22.883Z" fill="black"/>
</g>
<defs>
<clipPath id="clip0_105_2736">
<rect width="47" height="45" fill="white"/>
</clipPath>
</defs>
</svg>
