<svg width="47" height="45" viewBox="0 0 47 45" fill="none" xmlns="http://www.w3.org/2000/svg">
<g clip-path="url(#clip0_105_2769)">
<path d="M23.5 45C36.4787 45 47 34.9264 47 22.5C47 10.0736 36.4787 0 23.5 0C10.5213 0 0 10.0736 0 22.5C0 34.9264 10.5213 45 23.5 45Z" fill="#338AF3"/>
<path d="M23.4322 14.6738C18.9177 14.6738 15.2583 18.1777 15.2583 22.4999C15.2583 26.8221 18.9178 30.3259 23.4322 30.3259C27.9464 30.3259 31.606 26.8221 31.606 22.4999C31.606 18.1777 27.9463 14.6738 23.4322 14.6738ZM21.3887 22.4999C21.3887 21.4193 22.3035 20.5433 23.4322 20.5433C24.5607 20.5433 25.4757 21.4193 25.4757 22.4999C25.4757 23.5805 24.5607 24.4564 23.4322 24.4564C22.3035 24.4564 21.3887 23.5805 21.3887 22.4999V22.4999ZM25.5508 19.1531C25.2337 18.9686 24.888 18.8253 24.5219 18.7286V16.7247C25.4436 16.883 26.2935 17.238 27.0229 17.7438L25.5508 19.1531ZM22.4785 18.6951C22.0951 18.7829 21.7328 18.9224 21.4 19.1054L19.9211 17.6895C20.6687 17.1884 21.5378 16.8422 22.4785 16.7013V18.6951ZM21.3999 25.8943C21.7327 26.0773 22.095 26.2169 22.4784 26.3046V28.2983C21.5377 28.1576 20.6687 27.8112 19.9211 27.31L21.3999 25.8943ZM24.522 26.2712C24.888 26.1744 25.2339 26.0312 25.5508 25.8467L27.0228 27.2561C26.2934 27.7617 25.4436 28.1168 24.5219 28.2752V26.2713H24.522V26.2712ZM26.9774 24.4458C27.1574 24.1458 27.2981 23.8213 27.3904 23.4782H29.4762C29.3227 24.3538 28.9671 25.1631 28.4563 25.8615L26.9774 24.4458ZM27.3904 21.5216C27.2981 21.1784 27.1574 20.8542 26.9774 20.5542L28.4562 19.1382C28.967 19.8367 29.3227 20.646 29.4761 21.5216H27.3903V21.5216H27.3904ZM18.4646 19.062L19.9365 20.4714C19.7319 20.7939 19.5747 21.1469 19.4739 21.5216H17.3881C17.5472 20.6141 17.9234 19.7775 18.4646 19.062ZM17.3881 23.4781H19.4739C19.5746 23.8529 19.7318 24.2058 19.9365 24.5284L18.4646 25.9377C17.9234 25.2222 17.5472 24.3857 17.3881 23.4781Z" fill="#F0F0F0"/>
<path d="M36.7145 22.4999C36.7145 19.0211 35.2551 15.8693 32.8914 13.5732L30.7239 15.6484C32.5331 17.4133 33.6493 19.8317 33.6493 22.4999C33.6493 27.9027 29.0748 32.2824 23.432 32.2824C17.7889 32.2824 13.2146 27.9027 13.2146 22.4999C13.2146 19.7984 14.3581 17.3527 16.2072 15.5825L14.0398 13.5073C11.6361 15.8087 10.1494 18.9881 10.1494 22.4999C10.1494 28.3195 14.2323 33.2262 19.8052 34.7373C19.1942 35.8486 19.2872 37.2477 20.16 38.2905C21.3064 37.4109 22.4932 36.5002 23.5001 35.7278C24.5069 36.5003 25.6938 37.4109 26.8401 38.2905C27.7215 37.2374 27.8083 35.8205 27.177 34.7038C32.6889 33.1556 36.7145 28.2782 36.7145 22.4999V22.4999Z" fill="#F0F0F0"/>
</g>
<defs>
<clipPath id="clip0_105_2769">
<rect width="47" height="45" fill="white"/>
</clipPath>
</defs>
</svg>
