<svg width="46" height="45" viewBox="0 0 46 45" fill="none" xmlns="http://www.w3.org/2000/svg">
<g clip-path="url(#clip0_105_2774)">
<path d="M23 45C35.7025 45 46 34.9264 46 22.5C46 10.0736 35.7025 0 23 0C10.2975 0 0 10.0736 0 22.5C0 34.9264 10.2975 45 23 45Z" fill="#F0F0F0"/>
<path d="M22 22.5H46C46 20.4692 45.7232 18.5018 45.2076 16.6304H22V22.5Z" fill="#D80027"/>
<path d="M22 10.7607H42.6242C41.2162 8.51317 39.416 6.52658 37.3171 4.89111H22V10.7607Z" fill="#D80027"/>
<path d="M23.0002 44.9997C28.4132 44.9997 33.3885 43.1695 37.3174 40.1084H8.68311C12.612 43.1695 17.5873 44.9997 23.0002 44.9997Z" fill="#D80027"/>
<path d="M3.37594 34.2387H42.6244C43.7547 32.4344 44.6313 30.4622 45.2078 28.3691H0.79248C1.36901 30.4622 2.24561 32.4344 3.37594 34.2387V34.2387Z" fill="#D80027"/>
<path d="M10.654 3.51369H12.75L10.8004 4.89929L11.5451 7.14129L9.59558 5.75569L7.64606 7.14129L8.28934 5.20444C6.57279 6.60322 5.06827 8.24203 3.82842 10.068H4.5L3.25899 10.95C3.06565 11.2656 2.88021 11.5861 2.7025 11.9114L3.29511 13.6956L2.18949 12.9098C1.91466 13.4794 1.66328 14.0619 1.43732 14.6565L2.09021 16.6224H4.5L2.55039 18.008L3.29511 20.25L1.34559 18.8644L0.177801 19.6944C0.0609141 20.6136 0 21.5498 0 22.5H23C23 10.0737 23 8.60871 23 0C18.4564 0 14.2209 1.28936 10.654 3.51369V3.51369ZM11.5451 20.25L9.59558 18.8644L7.64606 20.25L8.39078 18.008L6.44117 16.6224H8.85096L9.59558 14.3804L10.3402 16.6224H12.75L10.8004 18.008L11.5451 20.25ZM10.8004 11.4536L11.5451 13.6956L9.59558 12.31L7.64606 13.6956L8.39078 11.4536L6.44117 10.068H8.85096L9.59558 7.82604L10.3402 10.068H12.75L10.8004 11.4536ZM19.7951 20.25L17.8456 18.8644L15.8961 20.25L16.6408 18.008L14.6912 16.6224H17.1009L17.8456 14.3804L18.5902 16.6224H21L19.0504 18.008L19.7951 20.25ZM19.0504 11.4536L19.7951 13.6956L17.8456 12.31L15.8961 13.6956L16.6408 11.4536L14.6912 10.068H17.1009L17.8456 7.82604L18.5902 10.068H21L19.0504 11.4536ZM19.0504 4.89929L19.7951 7.14129L17.8456 5.75569L15.8961 7.14129L16.6408 4.89929L14.6912 3.51369H17.1009L17.8456 1.27169L18.5902 3.51369H21L19.0504 4.89929Z" fill="#0052B4"/>
</g>
<defs>
<clipPath id="clip0_105_2774">
<rect width="46" height="45" fill="white"/>
</clipPath>
</defs>
</svg>
