<svg width="47" height="45" viewBox="0 0 47 45" fill="none" xmlns="http://www.w3.org/2000/svg">
<g clip-path="url(#clip0_105_2747)">
<path d="M23.5 45C36.4787 45 47 34.9264 47 22.5C47 10.0736 36.4787 0 23.5 0C10.5213 0 0 10.0736 0 22.5C0 34.9264 10.5213 45 23.5 45Z" fill="#F0F0F0"/>
<path d="M13.2827 30.3262L15.3262 43.6008C17.8719 44.5053 20.6255 45.0001 23.5001 45.0001C33.6042 45.0001 42.218 38.8942 45.5383 30.3262H13.2827Z" fill="black"/>
<path d="M13.2827 14.674L15.3262 1.39931C17.8719 0.494824 20.6255 0 23.5001 0C33.6042 0 42.218 6.10594 45.5383 14.674H13.2827Z" fill="#6DA544"/>
<path d="M0 22.4999C0 32.1741 6.3774 40.4214 15.3261 43.6004V1.39941C6.3774 4.57851 0 12.8257 0 22.4999Z" fill="#A2001D"/>
</g>
<defs>
<clipPath id="clip0_105_2747">
<rect width="47" height="45" fill="white"/>
</clipPath>
</defs>
</svg>
