<svg width="47" height="45" viewBox="0 0 47 45" fill="none" xmlns="http://www.w3.org/2000/svg">
<g clip-path="url(#clip0_105_2752)">
<path d="M23.5 45C36.4787 45 47 34.9264 47 22.5C47 10.0736 36.4787 0 23.5 0C10.5213 0 0 10.0736 0 22.5C0 34.9264 10.5213 45 23.5 45Z" fill="#F0F0F0"/>
<path d="M4.8579 8.80127C3.01196 11.1008 1.62004 13.7511 0.80957 16.6303H13.0349L4.8579 8.80127Z" fill="#0052B4"/>
<path d="M46.1905 16.6302C45.38 13.7511 43.988 11.1008 42.1421 8.80127L33.9653 16.6302H46.1905Z" fill="#0052B4"/>
<path d="M0.80957 28.3696C1.62014 31.2487 3.01205 33.8991 4.8579 36.1985L13.0346 28.3696H0.80957Z" fill="#0052B4"/>
<path d="M37.8073 4.65105C35.4056 2.88366 32.6375 1.55098 29.6304 0.774902V12.4799L37.8073 4.65105Z" fill="#0052B4"/>
<path d="M9.19287 40.3483C11.5946 42.1157 14.3627 43.4484 17.3698 44.2245V32.5195L9.19287 40.3483Z" fill="#0052B4"/>
<path d="M17.3697 0.774902C14.3626 1.55098 11.5945 2.88366 9.19287 4.65097L17.3697 12.4798V0.774902Z" fill="#0052B4"/>
<path d="M29.6304 44.2245C32.6375 43.4484 35.4056 42.1157 37.8072 40.3484L29.6304 32.5195V44.2245Z" fill="#0052B4"/>
<path d="M33.9653 28.3696L42.1421 36.1986C43.988 33.8992 45.38 31.2487 46.1905 28.3696H33.9653Z" fill="#0052B4"/>
<path d="M46.8011 19.5652H26.5654H26.5653V0.190459C25.5618 0.0653906 24.5389 0 23.5 0C22.461 0 21.4381 0.0653906 20.4348 0.190459V19.5651V19.5652H0.198924C0.0682969 20.5259 0 21.5053 0 22.5C0 23.4948 0.0682969 24.4741 0.198924 25.4348H20.4346H20.4347V44.8095C21.4382 44.9346 22.461 45 23.5 45C24.5389 45 25.5618 44.9347 26.5652 44.8095V25.4349V25.4348H46.8011C46.9317 24.4741 47 23.4948 47 22.5C47 21.5053 46.9317 20.5259 46.8011 19.5652V19.5652Z" fill="#D80027"/>
<path d="M29.6304 28.3697L40.1169 38.41C40.5992 37.9484 41.0593 37.4658 41.4982 36.9655L32.5203 28.3696H29.6304V28.3697Z" fill="#D80027"/>
<path d="M17.3694 28.3696H17.3692L6.88281 38.4098C7.36493 38.8716 7.86899 39.3121 8.39149 39.7324L17.3694 31.1363V28.3696Z" fill="#D80027"/>
<path d="M17.3693 16.6304V16.6302L6.88282 6.58984C6.40052 7.05145 5.94044 7.53405 5.50146 8.03433L14.4795 16.6303H17.3693V16.6304Z" fill="#D80027"/>
<path d="M29.6304 16.6305L40.117 6.59007C39.6349 6.12829 39.1308 5.68778 38.6083 5.26758L29.6304 13.8635V16.6305Z" fill="#D80027"/>
</g>
<defs>
<clipPath id="clip0_105_2752">
<rect width="47" height="45" fill="white"/>
</clipPath>
</defs>
</svg>
