<svg width="47" height="45" viewBox="0 0 47 45" fill="none" xmlns="http://www.w3.org/2000/svg">
<g clip-path="url(#clip0_105_2782)">
<path d="M23.5 45C36.4787 45 47 34.9264 47 22.5C47 10.0736 36.4787 0 23.5 0C10.5213 0 0 10.0736 0 22.5C0 34.9264 10.5213 45 23.5 45Z" fill="#F0F0F0"/>
<path d="M23.5 16.6303H46.1904C45.6012 14.5373 44.7056 12.565 43.5508 10.7607H23.5V16.6303Z" fill="#338AF3"/>
<path d="M8.87157 40.1089H38.1284C40.2731 38.4734 42.1123 36.4869 43.5508 34.2393H3.44922C4.88777 36.4868 6.72701 38.4734 8.87157 40.1089V40.1089Z" fill="#338AF3"/>
<path d="M23.5 0V4.89129H38.1285C34.1142 1.83023 29.0307 0 23.5 0V0Z" fill="#338AF3"/>
<path d="M23.5 16.6303H46.1904C45.6012 14.5373 44.7056 12.565 43.5508 10.7607H23.5V16.6303Z" fill="#338AF3"/>
<path d="M0 22.5C0 24.5309 0.282734 26.4981 0.809557 28.3696H46.1905C46.7173 26.4981 47 24.5309 47 22.5H0Z" fill="#338AF3"/>
<path d="M20.4349 13.1677L17.5648 14.4603L19.0931 17.1216L15.9766 16.5509L15.5817 19.5651L13.411 17.3481L11.2402 19.5651L10.8454 16.5509L7.72891 17.1215L9.25714 14.4602L6.38721 13.1677L9.25724 11.8753L7.72891 9.21395L10.8453 9.78472L11.2403 6.77051L13.411 8.98746L15.5818 6.77051L15.9766 9.78472L19.0932 9.21395L17.5649 11.8754L20.4349 13.1677Z" fill="#FFDA44"/>
</g>
<defs>
<clipPath id="clip0_105_2782">
<rect width="47" height="45" fill="white"/>
</clipPath>
</defs>
</svg>
