<svg width="46" height="45" viewBox="0 0 46 45" fill="none" xmlns="http://www.w3.org/2000/svg">
<g clip-path="url(#clip0_105_2792)">
<path d="M1.08603 15.6521C0.381477 17.8114 -8.98279e-05 20.1118 1.58623e-08 22.4997C-8.98279e-05 24.8877 0.381566 27.1882 1.08612 29.3475L23 30.3259L44.9139 29.3477C45.6183 27.1883 46.0001 24.8877 46.0001 22.4999C46 20.1119 45.6184 17.8114 44.9139 15.6521L23 14.6738L1.08603 15.6521Z" fill="#F0F0F0"/>
<path d="M44.914 15.6521L23.0001 14.6738L1.08612 15.6521C0.87732 16.2922 0.697543 16.945 0.546875 17.6086H45.4529C45.3024 16.9449 45.1228 16.2921 44.914 15.6521Z" fill="#D80027"/>
<path d="M0.547363 27.3911C0.697852 28.0547 0.877629 28.7074 1.08643 29.3476L1.08858 29.3476L23.0002 30.3259L44.9141 29.3476C45.1229 28.7074 45.3027 28.0547 45.4532 27.3911H0.547363Z" fill="#D80027"/>
<path d="M22.9997 44.9998C33.2613 44.9998 41.9519 38.4254 44.9136 29.3477H1.08594C4.04764 38.4253 12.7384 44.9998 22.9997 44.9998V44.9998Z" fill="#6DA544"/>
<path d="M22.9998 8.81199e-10C12.7384 8.78915e-05 4.04782 6.57457 1.08594 15.6522L44.9136 15.6523C41.9521 6.57448 33.2614 -8.78897e-05 22.9998 8.81199e-10V8.81199e-10Z" fill="#338AF3"/>
<path d="M10.5106 9.29369C10.5106 7.18634 12.0246 5.42589 14.0463 4.99399C13.7356 4.92755 13.4132 4.8916 13.082 4.8916C10.5968 4.8916 8.58203 6.86246 8.58203 9.29378C8.58203 11.7251 10.5966 13.696 13.082 13.696C13.4132 13.696 13.7356 13.6599 14.0463 13.5936C12.0247 13.1615 10.5106 11.401 10.5106 9.29369V9.29369Z" fill="#F0F0F0"/>
<path d="M16.706 11.2944L17.0106 12.2116H17.9964L17.1989 12.7785L17.5035 13.6956L16.706 13.1288L15.9084 13.6956L16.2131 12.7785L15.4155 12.2116H16.4013L16.706 11.2944Z" fill="#F0F0F0"/>
<path d="M19.8523 11.2944L20.157 12.2116H21.1428L20.3452 12.7785L20.6499 13.6956L19.8523 13.1288L19.0548 13.6956L19.3595 12.7785L18.562 12.2116H19.5477L19.8523 11.2944Z" fill="#F0F0F0"/>
<path d="M22.999 11.2944L23.3036 12.2116H24.2894L23.4919 12.7785L23.7965 13.6956L22.999 13.1288L22.2014 13.6956L22.5061 12.7785L21.7085 12.2116H22.6944L22.999 11.2944Z" fill="#F0F0F0"/>
<path d="M26.145 11.2944L26.4497 12.2116H27.4353L26.6379 12.7785L26.9426 13.6956L26.145 13.1288L25.3474 13.6956L25.6521 12.7785L24.8545 12.2116H25.8403L26.145 11.2944Z" fill="#F0F0F0"/>
<path d="M29.2913 11.2944L29.596 12.2116H30.5817L29.7843 12.7785L30.0889 13.6956L29.2913 13.1288L28.4938 13.6956L28.7984 12.7785L28.001 12.2116H28.9867L29.2913 11.2944Z" fill="#F0F0F0"/>
<path d="M19.8523 8.09277L20.157 9.00982H21.1428L20.3452 9.57681L20.6499 10.4939L19.8523 9.92705L19.0548 10.4939L19.3595 9.57681L18.562 9.00982H19.5477L19.8523 8.09277Z" fill="#F0F0F0"/>
<path d="M22.999 8.09277L23.3036 9.00982H24.2894L23.4919 9.57681L23.7965 10.4939L22.999 9.92705L22.2014 10.4939L22.5061 9.57681L21.7085 9.00982H22.6944L22.999 8.09277Z" fill="#F0F0F0"/>
<path d="M26.145 8.09277L26.4497 9.00982H27.4353L26.6379 9.57681L26.9426 10.4939L26.145 9.92705L25.3474 10.4939L25.6521 9.57681L24.8545 9.00982H25.8403L26.145 8.09277Z" fill="#F0F0F0"/>
<path d="M29.2913 8.09277L29.596 9.00982H30.5817L29.7843 9.57681L30.0889 10.4939L29.2913 9.92705L28.4938 10.4939L28.7984 9.57681L28.001 9.00982H28.9867L29.2913 8.09277Z" fill="#F0F0F0"/>
<path d="M22.999 4.89111L23.3036 5.80834H24.2894L23.4919 6.37515L23.7965 7.29237L22.999 6.72557L22.2014 7.29237L22.5061 6.37515L21.7085 5.80834H22.6944L22.999 4.89111Z" fill="#F0F0F0"/>
<path d="M26.145 4.89111L26.4497 5.80834H27.4353L26.6379 6.37515L26.9426 7.29237L26.145 6.72557L25.3474 7.29237L25.6521 6.37515L24.8545 5.80834H25.8403L26.145 4.89111Z" fill="#F0F0F0"/>
<path d="M29.2913 4.89111L29.596 5.80834H30.5817L29.7843 6.37515L30.0889 7.29237L29.2913 6.72557L28.4938 7.29237L28.7984 6.37515L28.001 5.80834H28.9867L29.2913 4.89111Z" fill="#F0F0F0"/>
</g>
<defs>
<clipPath id="clip0_105_2792">
<rect width="46" height="45" fill="white"/>
</clipPath>
</defs>
</svg>
