<svg width="47" height="45" viewBox="0 0 47 45" fill="none" xmlns="http://www.w3.org/2000/svg">
<g clip-path="url(#clip0_105_2813)">
<path d="M47 22.5003C47 21.5056 46.9317 20.5262 46.801 19.5655H20.4345C15.6335 14.969 6.88259 6.59104 6.88296 6.59033C-2.29432 15.3771 -2.29432 29.6233 6.88296 38.4102L20.4348 25.4351H46.801C46.9317 24.4744 47 23.4949 47 22.5003V22.5003Z" fill="black"/>
<path d="M46.993 23.0117C46.992 23.0551 46.991 23.0987 46.9897 23.1421C46.9908 23.0986 46.9919 23.0551 46.993 23.0117Z" fill="#F0F0F0"/>
<path d="M46.9703 23.627C46.9683 23.6699 46.9652 23.7127 46.9629 23.7556C46.9652 23.7128 46.9681 23.6699 46.9703 23.627Z" fill="#F0F0F0"/>
<path d="M46.9386 24.1172C46.934 24.1804 46.9295 24.2436 46.9243 24.3066C46.9295 24.2436 46.9339 24.1804 46.9386 24.1172Z" fill="#F0F0F0"/>
<path d="M46.8604 20.0479C46.8688 20.1231 46.8772 20.1982 46.8849 20.2736C46.8772 20.1981 46.8687 20.1231 46.8604 20.0479Z" fill="#F0F0F0"/>
<path d="M46.9629 21.2446C46.9653 21.2875 46.9683 21.3303 46.9703 21.3733C46.9682 21.3303 46.9653 21.2874 46.9629 21.2446Z" fill="#F0F0F0"/>
<path d="M46.9897 21.8579C46.991 21.9013 46.9919 21.9449 46.993 21.9883C46.992 21.9447 46.9909 21.9013 46.9897 21.8579Z" fill="#F0F0F0"/>
<path d="M46.9243 20.6938C46.9295 20.7569 46.934 20.8201 46.9386 20.8833C46.9339 20.8201 46.9295 20.7569 46.9243 20.6938Z" fill="#F0F0F0"/>
<path d="M46.8011 19.5651C46.8116 19.6422 46.821 19.7197 46.8306 19.797C45.4359 8.64526 35.5231 0 23.5 0C17.0106 0 11.1355 2.5185 6.88281 6.59038L20.4342 19.5652H46.8011V19.5651Z" fill="#D80027"/>
<path d="M46.8011 25.435H20.4342L6.88281 38.4098C11.1355 42.4816 17.0106 45.0002 23.5 45.0002C35.5231 45.0002 45.436 36.3549 46.8306 25.2031C46.821 25.2804 46.8114 25.3579 46.8011 25.435V25.435Z" fill="#6DA544"/>
<path d="M46.8849 24.7266C46.8772 24.802 46.8688 24.8771 46.8604 24.9524C46.8688 24.8771 46.8773 24.8021 46.8849 24.7266Z" fill="#F0F0F0"/>
<path d="M46.939 20.8828C46.9477 21.0031 46.9556 21.1237 46.9623 21.2446C46.9555 21.1237 46.9477 21.0031 46.939 20.8828V20.8828Z" fill="black"/>
<path d="M46.8306 19.7969C46.8409 19.8803 46.8507 19.9639 46.8599 20.0475C46.8505 19.9639 46.8407 19.8804 46.8306 19.7969Z" fill="black"/>
<path d="M46.8853 20.2734C46.8993 20.4131 46.9119 20.5531 46.9233 20.6936C46.912 20.5531 46.8994 20.413 46.8853 20.2734Z" fill="black"/>
<path d="M46.9997 22.5C46.9997 22.6711 46.997 22.8415 46.9932 23.0116C46.997 22.8415 46.9997 22.671 46.9997 22.5Z" fill="black"/>
<path d="M46.9623 23.7554C46.9555 23.8762 46.9476 23.9968 46.939 24.1171C46.9476 23.9968 46.9554 23.8762 46.9623 23.7554Z" fill="black"/>
<path d="M46.9233 24.3066C46.9119 24.447 46.8993 24.5871 46.8853 24.7267C46.8994 24.5871 46.912 24.447 46.9233 24.3066Z" fill="black"/>
<path d="M46.8599 24.9521C46.8507 25.0358 46.8409 25.1193 46.8306 25.2028C46.8407 25.1194 46.8505 25.0358 46.8599 24.9521Z" fill="black"/>
<path d="M46.9932 21.9883C46.997 22.1584 46.9997 22.3289 46.9997 22.4999C46.9997 22.3289 46.997 22.1584 46.9932 21.9883Z" fill="black"/>
<path d="M46.9707 21.3735C46.9788 21.5346 46.9849 21.6962 46.9896 21.8581C46.9849 21.6961 46.9789 21.5346 46.9707 21.3735Z" fill="black"/>
<path d="M46.9896 23.1421C46.9849 23.304 46.9788 23.4656 46.9707 23.6266C46.979 23.4655 46.985 23.304 46.9896 23.1421Z" fill="black"/>
<path d="M46.9776 21.5137H19.5713L5.4936 8.03711C5.03856 8.4966 4.54534 9.1382 4.2403 9.59514L17.7031 22.4918L4.229 35.3928C4.49577 35.8472 5.07693 36.5198 5.48497 36.9574L19.5715 23.4702H46.9809C46.9955 23.1457 47.0001 22.8198 47.0001 22.492C47 22.0527 46.9874 21.7289 46.9776 21.5137Z" fill="#FFDA44"/>
<path d="M5.70862 27.2966V25.412C7.67289 25.412 9.27079 23.8819 9.27079 22.0014C9.27079 20.6708 8.14014 19.5884 6.75052 19.5884C5.80382 19.5884 5.03355 20.3258 5.03355 21.2324C5.03355 21.812 5.52604 22.2836 6.13153 22.2836C6.47375 22.2836 6.75217 22.0169 6.75217 21.6892H8.72047C8.72047 23.0562 7.55906 24.1682 6.13162 24.1682C4.44082 24.1683 3.06543 22.8511 3.06543 21.2326C3.06543 19.2869 4.71869 17.7041 6.75061 17.7041C9.22563 17.7041 11.2393 19.6321 11.2393 22.0017C11.2392 24.9211 8.7582 27.2966 5.70862 27.2966V27.2966Z" fill="#FFDA44"/>
</g>
<defs>
<clipPath id="clip0_105_2813">
<rect width="47" height="45" fill="white"/>
</clipPath>
</defs>
</svg>
