<svg width="46" height="45" viewBox="0 0 46 45" fill="none" xmlns="http://www.w3.org/2000/svg">
<g clip-path="url(#clip0_105_2839)">
<path d="M23 0C35.7024 0 46 10.0737 46 22.5C46 34.9263 35.7024 45 23 45C23 44.0218 20 22.5 20 22.5L23 0Z" fill="#F0F0F0"/>
<path d="M23 45C10.2975 45 0 34.9263 0 22.5C0 10.0737 10.2975 0 23 0" fill="#FFDA44"/>
<path d="M31.8075 19.5788L36.13 25.1727C35.449 26.1815 35.4526 27.5407 36.2403 28.5599C37.2393 29.8529 39.1207 30.1088 40.4425 29.1314C41.7642 28.154 42.0258 26.3135 41.0266 25.0206C40.2391 24.0013 38.9033 23.6272 37.7255 23.993L30.9889 15.2749L29.3934 16.4547L27 18.2243L29.4121 21.3458L31.8075 19.5788ZM38.0304 26.0098C38.471 25.6839 39.0982 25.7693 39.4312 26.2001C39.7642 26.6312 39.6771 27.2447 39.2365 27.5706C38.796 27.8963 38.1688 27.8112 37.8359 27.3801C37.5026 26.9491 37.5899 26.3355 38.0304 26.0098V26.0098Z" fill="#ACABB1"/>
<path d="M39.2213 21.3459L41.6335 18.2245L39.2402 16.4547L37.6448 15.2749L30.9082 23.993C29.7305 23.6272 28.3946 24.0014 27.6071 25.0206C26.6078 26.3136 26.8694 28.154 28.1911 29.1314C29.5129 30.1087 31.3942 29.8529 32.3933 28.5599C33.1809 27.5407 33.1845 26.1815 32.5035 25.1727L36.826 19.5788L39.2213 21.3459ZM30.7979 27.3803C30.4649 27.8114 29.8378 27.8965 29.3972 27.5708C28.9566 27.2449 28.8694 26.6313 29.2025 26.2003C29.5355 25.7695 30.1627 25.6841 30.6033 26.01C31.0438 26.3358 31.1309 26.9493 30.7979 27.3803V27.3803Z" fill="#FFDA44"/>
</g>
<defs>
<clipPath id="clip0_105_2839">
<rect width="46" height="45" fill="white"/>
</clipPath>
</defs>
</svg>
