<svg width="47" height="45" viewBox="0 0 47 45" fill="none" xmlns="http://www.w3.org/2000/svg">
<g clip-path="url(#clip0_105_2844)">
<path d="M44.6682 32.2824C46.1622 29.3244 47 26.0059 47 22.4999C47 18.9938 46.1622 15.6753 44.6682 12.7173L23.5 10.7607L2.33182 12.7173C0.83783 15.6753 0 18.9938 0 22.4999C0 26.0059 0.83783 29.3244 2.33182 32.2824L23.5 34.239L44.6682 32.2824Z" fill="#0052B4"/>
<path d="M23.5002 45.0001C32.8169 45.0001 40.8673 39.8089 44.6684 32.2827H2.33203C6.13316 39.8089 14.1834 45.0001 23.5002 45.0001Z" fill="#D80027"/>
<path d="M40.6997 26.9168L39.4585 27.8455L39.9972 29.2624L38.6912 28.4192L37.4499 29.3477L37.8839 27.898L36.5781 27.0546L38.1524 27.002L38.5867 25.5522L39.1256 26.9694L40.6997 26.9168Z" fill="#F0F0F0"/>
<path d="M37.5209 21.6462L36.6864 22.9253L37.699 24.0803L36.1705 23.7159L35.3357 24.9947L35.2256 23.4902L33.6973 23.1252L35.1579 22.5602L35.0481 21.0557L36.0606 22.2112L37.5209 21.6462Z" fill="#F0F0F0"/>
<path d="M32.6516 17.7339L32.3243 19.2091L33.6884 19.9632L32.1219 20.1213L31.7944 21.5962L31.1536 20.2186L29.5869 20.376L30.7577 19.3668L30.117 17.9892L31.4811 18.7431L32.6516 17.7339Z" fill="#F0F0F0"/>
<path d="M26.6779 15.6523L26.8974 17.1459L28.4485 17.4076L27.0328 18.0691L27.2521 19.5625L26.1579 18.4776L24.7418 19.1387L25.4815 17.8069L24.3872 16.7221L25.9386 16.984L26.6779 15.6523Z" fill="#F0F0F0"/>
<path d="M20.3218 15.6523L21.0614 16.984L22.6124 16.722L21.5184 17.8072L22.2577 19.1389L20.842 18.4776L19.7476 19.5622L19.9671 18.0691L18.5513 17.408L20.1025 17.1459L20.3218 15.6523Z" fill="#F0F0F0"/>
<path d="M14.348 17.7339L15.5188 18.7431L16.8826 17.9892L16.2421 19.3673L17.4126 20.3763L15.8461 20.2186L15.2052 21.5962L14.8781 20.1211L13.3115 19.9636L14.6756 19.2093L14.348 17.7339Z" fill="#F0F0F0"/>
<path d="M9.4789 21.6459L10.9397 22.2109L11.9518 21.0557L11.8423 22.5604L13.3026 23.1255L11.7743 23.4901L11.6642 24.9944L10.8298 23.7157L9.30127 24.0803L10.3138 22.925L9.4789 21.6459Z" fill="#F0F0F0"/>
<path d="M6.30029 26.9167L7.87479 26.9692L8.41327 25.5522L8.84793 27.0021L10.422 27.0547L9.11607 27.8981L9.55009 29.3478L8.30899 28.4193L7.003 29.2625L7.54175 27.8453L6.30029 26.9167Z" fill="#F0F0F0"/>
<path d="M44.6684 12.7174C40.8673 5.19126 32.8169 0 23.5002 0C14.1834 0 6.13316 5.19126 2.33203 12.7174H44.6684Z" fill="#FFDA44"/>
</g>
<defs>
<clipPath id="clip0_105_2844">
<rect width="47" height="45" fill="white"/>
</clipPath>
</defs>
</svg>
