<svg width="47" height="45" viewBox="0 0 47 45" fill="none" xmlns="http://www.w3.org/2000/svg">
<g clip-path="url(#clip0_105_2860)">
<path d="M23.5 45C36.4787 45 47 34.9264 47 22.5C47 10.0736 36.4787 0 23.5 0C10.5213 0 0 10.0736 0 22.5C0 34.9264 10.5213 45 23.5 45Z" fill="#FCFCFC"/>
<path d="M27.4915 15.7188C27.4915 13.6083 25.7045 11.8975 23.5002 11.8975C21.2959 11.8975 19.509 13.6083 19.509 15.7188H10.7285C10.7285 17.7966 12.619 19.4812 14.7891 19.4812H14.6584C14.6584 21.5592 16.4176 23.2439 18.5882 23.2439C18.5882 25.0837 19.9682 26.6125 21.7909 26.9392L21.7807 26.9612H25.2198L25.2097 26.9392C27.0324 26.6123 28.4124 25.0836 28.4124 23.2439C30.5828 23.2439 32.3421 21.5592 32.3421 19.4812H32.2112C34.3814 19.4812 36.2719 17.7966 36.2719 15.7188H27.4915Z" fill="#FFDA44"/>
<path d="M21.7457 26.5713L19.271 31.9206C20.5767 32.4288 22.0039 32.7112 23.5003 32.7112C24.9966 32.7112 26.4238 32.4288 27.7294 31.9206L25.2549 26.5713H21.7457Z" fill="#FFDA44"/>
<path d="M18.3911 17.5981V24.1804C18.3911 27.9243 23.4998 29.0716 23.4998 29.0716C23.4998 29.0716 28.6085 27.9243 28.6085 24.1804V17.5981H18.3911Z" fill="#F0F0F0"/>
<path d="M5.69845 22.6582L8.46145 30.0572L11.1957 22.6582H13.2824L9.29606 32.4408H7.62674L3.61182 22.6582H5.69845Z" fill="#338AF3"/>
<path d="M37.8042 32.4408V22.6582H39.79V32.4408H37.8042Z" fill="#338AF3"/>
<path d="M20.4346 19.7236V27.7001C21.1369 28.195 21.8926 28.5354 22.4781 28.7533V19.7236H20.4346Z" fill="#D80027"/>
<path d="M26.565 19.7236V27.7001C25.8626 28.195 25.107 28.5354 24.5215 28.7533V19.7236H26.565Z" fill="#D80027"/>
<path d="M18.3911 17.5981H28.6085V20.7021H18.3911V17.5981Z" fill="#0052B4"/>
</g>
<defs>
<clipPath id="clip0_105_2860">
<rect width="47" height="45" fill="white"/>
</clipPath>
</defs>
</svg>
