<svg width="47" height="45" viewBox="0 0 47 45" fill="none" xmlns="http://www.w3.org/2000/svg">
<g clip-path="url(#clip0_105_2873)">
<path d="M23.5 45C36.4787 45 47 34.9264 47 22.5C47 10.0736 36.4787 0 23.5 0C10.5213 0 0 10.0736 0 22.5C0 34.9264 10.5213 45 23.5 45Z" fill="#F0F0F0"/>
<path d="M47 22.5C47 34.9263 36.4786 45 23.5 45C10.5214 45 0 34.9263 0 22.5" fill="#496E2D"/>
<path d="M40.6673 15.6572C39.8269 13.3753 37.5561 11.7393 34.8853 11.7393H29.6304C26.2447 11.7393 23.5 14.3672 23.5 17.6089C23.5 18.6679 23.7944 19.6858 24.3069 20.5436C22.3556 20.5283 20.5497 20.5565 19.413 20.5436C19.413 18.2799 19.413 15.3962 19.413 14.7928L19.6544 14.5617C20.7382 13.5241 20.3768 11.7947 20.3768 11.7947C20.3768 11.7947 18.5707 11.4489 17.487 12.4865L16.224 13.6958H14.8151C11.7115 13.6958 9.19562 16.1047 9.19562 19.0762H13.2826V23.4784C13.2826 24.1223 13.4182 24.7356 13.6632 25.2943L12.2608 26.4131H10.2173V24.4566H8.17383V28.3697H17.3695V32.2827H15.326V34.2393H19.413V30.3262L21.2861 28.174H25.7137L27.5868 30.3262V32.2827H25.5434V34.2393H33.7172V23.4783C33.7172 21.8575 35.0896 20.5435 36.7824 20.5435C36.8259 20.5435 36.8691 20.545 36.9122 20.5467C36.8276 20.2331 36.7824 19.9043 36.7824 19.5653C36.7826 17.4692 38.5041 15.7581 40.6673 15.6572V15.6572ZM29.6304 32.2826V28.1739H29.8007L31.6738 30.3261V32.2826H29.6304Z" fill="#D80027"/>
</g>
<defs>
<clipPath id="clip0_105_2873">
<rect width="47" height="45" fill="white"/>
</clipPath>
</defs>
</svg>
