<svg width="47" height="45" viewBox="0 0 47 45" fill="none" xmlns="http://www.w3.org/2000/svg">
<g clip-path="url(#clip0_105_2881)">
<path d="M23.5 45C36.4787 45 47 34.9264 47 22.5C47 10.0736 36.4787 0 23.5 0C10.5213 0 0 10.0736 0 22.5C0 34.9264 10.5213 45 23.5 45Z" fill="#496E2D"/>
<path d="M32.6957 22.5H23.5V45C26.2469 45 28.8831 44.5473 31.3333 43.718L32.6957 22.5Z" fill="#D80027"/>
<path d="M39.1665 39.2689C43.9737 35.1491 46.9999 29.1633 46.9999 22.5H37.8042L39.1665 39.2689Z" fill="#FF9811"/>
<path d="M31.3335 22.5V43.718C34.2524 42.73 36.9066 41.2061 39.1669 39.269V22.5H31.3335Z" fill="black"/>
<path d="M43.4241 14.6738H37.2936C37.2936 13.5933 36.3787 12.7173 35.2501 12.7173C34.1216 12.7173 33.2066 13.5933 33.2066 14.6738H27.0762C27.0762 15.7544 28.0592 16.6304 29.1877 16.6304H29.1197C29.1197 17.711 30.0344 18.5869 31.1632 18.5869C31.1632 19.6675 32.0779 20.5434 33.2066 20.5434H37.2936C38.4222 20.5434 39.3371 19.6675 39.3371 18.5869C40.4657 18.5869 41.3806 17.711 41.3806 16.6304H41.3126C42.4411 16.6303 43.4241 15.7543 43.4241 14.6738V14.6738Z" fill="#FF9811"/>
</g>
<defs>
<clipPath id="clip0_105_2881">
<rect width="47" height="45" fill="white"/>
</clipPath>
</defs>
</svg>
