<svg width="47" height="44" viewBox="0 0 47 44" fill="none" xmlns="http://www.w3.org/2000/svg">
<g clip-path="url(#clip0_105_2887)">
<path d="M23.5 44C36.4787 44 47 34.1503 47 22C47 9.84974 36.4787 0 23.5 0C10.5213 0 0 9.84974 0 22C0 34.1503 10.5213 44 23.5 44Z" fill="#F0F0F0"/>
<path d="M44.7508 12.5988C43.5569 10.2378 41.9274 8.10798 39.9593 6.29943L23.5001 4.78271L7.04094 6.29951C6.98843 6.34772 6.93721 6.39705 6.88525 6.44578L13.4579 12.5989L23.5001 12.886L44.7508 12.5988Z" fill="#FFDA44"/>
<path d="M6.88477 37.5548C6.97124 37.6357 7.05753 37.7168 7.14528 37.7965L23.4999 39.2176L39.8543 37.7965C41.8428 35.9918 43.4922 33.8619 44.7029 31.4971L14.3042 30.6089C11.6886 33.0576 8.67178 35.8817 6.88477 37.5548V37.5548Z" fill="#FFDA44"/>
<path d="M46.7664 18.898L19.4131 18.1738L23.5001 21.9999C22.2895 23.1332 20.4824 24.825 19.4131 25.826L46.752 25.1975C46.9145 24.1534 47.0001 23.0861 47.0001 21.9999C47.0001 20.9469 46.9193 19.9117 46.7664 18.898V18.898Z" fill="black"/>
<path d="M23.5002 0C17.0902 0 11.2807 2.40367 7.04102 6.29939H39.9594C35.7196 2.40367 29.9102 0 23.5002 0Z" fill="#6DA544"/>
<path d="M20.1864 18.898H46.7661C46.4308 16.674 45.7408 14.5571 44.7505 12.5986H13.4575L20.1864 18.898Z" fill="#D80027"/>
<path d="M13.3555 31.4967H44.703C45.7049 29.5397 46.4058 27.4224 46.752 25.1973H20.0844C17.4785 27.6368 15.2701 29.7043 13.3555 31.4967Z" fill="#D80027"/>
<path d="M23.4999 44.0001C29.8573 44.0001 35.624 41.6358 39.8544 37.7964H7.14551C11.3759 41.6358 17.1426 44.0001 23.4999 44.0001Z" fill="#6DA544"/>
<path d="M8.39149 5.15039C7.86908 5.56134 7.36502 5.99215 6.88281 6.44341L23.4999 21.9998L6.88281 37.5562C7.36493 38.0076 7.86908 38.4383 8.39149 38.8492L26.3897 21.9998L8.39149 5.15039Z" fill="black"/>
<path d="M9.44823 16.2607L10.9698 20.6449H15.8942L11.9104 23.3547L13.432 27.7391L9.44823 25.0294L5.46434 27.7391L6.98615 23.3547L3.00244 20.6449H7.92661L9.44823 16.2607Z" fill="#D80027"/>
<path d="M13.6338 22.3586L9.66833 21.0434C9.66833 21.0434 9.37532 18.4702 9.3576 18.3829C9.22303 17.7192 8.6 17.2173 7.85186 17.2173C7.00549 17.2173 6.31921 17.8597 6.31921 18.6521C6.31921 18.7835 6.33969 18.9101 6.37503 19.0311L5.26318 20.0789H7.24012C7.24012 21.9999 5.70895 21.9999 5.70895 23.9129L6.55835 25.826H11.667L12.5185 23.9129H12.5182C12.6034 23.7294 12.6552 23.5401 12.6766 23.3509C13.4106 23.073 13.6338 22.3586 13.6338 22.3586V22.3586Z" fill="#FFDA44"/>
</g>
<defs>
<clipPath id="clip0_105_2887">
<rect width="47" height="44" fill="white"/>
</clipPath>
</defs>
</svg>
